<svg width="30" height="30" viewBox="0 0 30 30" fill="none" xmlns="http://www.w3.org/2000/svg">
<mask id="mask0" mask-type="alpha" maskUnits="userSpaceOnUse" x="0" y="0" width="30" height="30">
<rect width="30" height="30" fill="#2E3035"/>
</mask>
<g mask="url(#mask0)">
<path fill-rule="evenodd" clip-rule="evenodd" d="M30 15L15 0L0 15L15 30L30 15ZM16.0781 20.7881V24H14.1875V20.7881H10.5244V19.499H14.1875V17.7803H10.5244V16.4912H13.5537L8.79493 8.7246H10.9756L15.1006 15.793H15.165L19.29 8.7246H21.4707L16.7119 16.4912H19.7412V17.7803H16.0781V19.499H19.7412V20.7881H16.0781Z" fill="#C02F2A"/>
<mask id="mask1" mask-type="alpha" maskUnits="userSpaceOnUse" x="-2" y="-2" width="33" height="21">
<path fill-rule="evenodd" clip-rule="evenodd" d="M7.57023 12.6619C5.49973 12.6321 3.03448 13.2184 -0.134324 15.1125C-0.4022 14.7783 0.686452 13.8423 0.500214 13.4997C0.501271 13.0013 2.49966 11.7702 2.50023 11.4997C7.50023 7.99973 13.0002 0.499512 15.0002 -0.000490476C17.9904 2.57829 23.2714 8.15712 29.0002 12C29.0084 12.1937 28.997 12.2074 29.0002 12.5005C28.9992 13.0006 29.5016 13.3542 29.5002 14C28.7521 13.1779 30.6771 14.6627 30.6725 14.7454C27.3072 16.4887 24.4756 17.0414 21.9224 16.8835C19.0758 16.7074 16.6969 15.6452 14.5447 14.6843C14.4626 14.6477 14.3809 14.6112 14.2995 14.5749C12.0295 13.5631 9.98554 12.6967 7.57023 12.6619Z" fill="#2E3035"/>
</mask>
<g mask="url(#mask1)">
<path fill-rule="evenodd" clip-rule="evenodd" d="M30 15L15 0L0 15L15 30L30 15ZM16.0786 20.7881V24H14.188V20.7881H10.5249V19.499H14.188V17.7803H10.5249V16.4912H13.5542L8.79542 8.7246H10.9761L15.1011 15.793H15.1655L19.2905 8.7246H21.4712L16.7124 16.4912H19.7417V17.7803H16.0786V19.499H19.7417V20.7881H16.0786Z" fill="#FF433E"/>
</g>
<path d="M15 2L15.8111 3.88356L17.8532 4.07295L16.3125 5.42644L16.7634 7.42705L15 6.38L13.2366 7.42705L13.6875 5.42644L12.1468 4.07295L14.1889 3.88356L15 2Z" fill="#F8D12E"/>
</g>
</svg>
