<svg width="32" height="32" viewBox="0 0 32 32" fill="none" xmlns="http://www.w3.org/2000/svg">
<mask id="mask0" mask-type="alpha" maskUnits="userSpaceOnUse" x="0" y="0" width="32" height="32">
<circle cx="16" cy="16" r="16" fill="#C4C4C4"/>
</mask>
<g mask="url(#mask0)">
<mask id="mask1" mask-type="alpha" maskUnits="userSpaceOnUse" x="0" y="0" width="27" height="27">
<path fill-rule="evenodd" clip-rule="evenodd" d="M26.3467 10.4166C24.6878 9.55034 22.8011 9.06055 20.8 9.06055C14.1726 9.06055 8.80005 14.4331 8.80005 21.0605C8.80005 22.9152 9.22079 24.6715 9.97201 26.2394C4.23546 24.7495 0 19.536 0 13.3333C0 5.96954 5.96954 0 13.3333 0C19.6952 0 25.0165 4.45564 26.3467 10.4166Z" fill="#C4C4C4"/>
</mask>
<g mask="url(#mask1)">
<rect x="2" y="2" width="18" height="18" fill="#D8D8D8" fill-opacity="0.01"/>
<path d="M10.8238 2L10.7031 2.41007V14.3094L10.8238 14.4298L16.3473 11.1649L10.8238 2Z" fill="#343434"/>
<path d="M10.8233 2L5.2998 11.1649L10.8233 14.4299V8.6543V2Z" fill="#8C8C8C"/>
<path d="M10.8238 15.4757L10.7559 15.5586V19.7974L10.8238 19.996L16.3507 12.2124L10.8238 15.4757Z" fill="#3C3C3B"/>
<path d="M10.8233 19.996V15.4757L5.2998 12.2124L10.8233 19.996Z" fill="#8C8C8C"/>
<path d="M10.8232 14.4298L16.3467 11.1649L10.8232 8.6543V14.4298Z" fill="#141414"/>
<path d="M5.2998 11.1649L10.8233 14.4298V8.6543L5.2998 11.1649Z" fill="#393939"/>
</g>
<mask id="mask2" mask-type="alpha" maskUnits="userSpaceOnUse" x="12" y="12" width="18" height="18">
<rect x="12" y="12" width="18" height="18" fill="#2E3035"/>
</mask>
<g mask="url(#mask2)">
<path fill-rule="evenodd" clip-rule="evenodd" d="M30 21L21 12L12 21L21 30L30 21ZM21.3223 26.7697H20.5488V25.6482C19.0148 25.5129 17.7451 24.6041 17.7 23.1023H18.8215C18.9368 23.9031 19.4277 24.5128 20.5284 24.6405C20.8853 24.7045 21.201 24.6893 21.4618 24.6361C22.5573 24.5121 22.9852 23.943 22.9852 23.2312C22.9852 22.5223 22.6371 22.0711 21.3609 21.7617L21.3223 21.7553V21.7556C21.0913 21.6781 20.7997 21.6114 20.4416 21.5404L20.4006 21.5297C18.7957 21.143 17.932 20.4275 17.932 19.1578C17.932 17.7721 19.0213 16.8568 20.5488 16.7215V15.6H21.3223V16.715C22.8111 16.8504 23.9713 17.7914 24.0164 19.2158H22.8949C22.8111 18.3457 22.1924 17.8365 21.3223 17.727V17.7332C21.0713 17.6909 20.8071 17.7 20.5488 17.7478V17.7334C19.5691 17.8623 19.0535 18.4553 19.0535 19.0805C19.0535 19.6946 19.4191 20.1747 20.4582 20.4496C20.6874 20.528 20.9743 20.5988 21.3223 20.645V20.6596L21.5221 20.7047C23.1785 21.1043 24.1066 21.7875 24.1066 23.141C24.1066 24.6943 22.8434 25.5387 21.3223 25.6547V26.7697Z" fill="#05B595"/>
<mask id="mask3" mask-type="alpha" maskUnits="userSpaceOnUse" x="11" y="11" width="20" height="13">
<path fill-rule="evenodd" clip-rule="evenodd" d="M16.5423 19.5977C15.3 19.5798 13.8209 19.9316 11.9196 21.0681C11.7589 20.8676 12.4121 20.3059 12.3003 20.1004C12.301 19.8013 13.5 19.0627 13.5003 18.9004C16.5003 16.8004 19.8003 12.3003 21.0003 12.0003C22.7944 13.5476 25.963 16.8949 29.4003 19.2006C29.4053 19.3168 29.3984 19.325 29.4003 19.5009C29.3997 19.801 29.7012 20.0131 29.7003 20.4006C29.2514 19.9073 30.4064 20.7982 30.4037 20.8478C28.3845 21.8938 26.6856 22.2254 25.1537 22.1307C23.4457 22.025 22.0184 21.3877 20.727 20.8112C20.6778 20.7892 20.6287 20.7673 20.5799 20.7455C19.2179 20.1384 17.9915 19.6186 16.5423 19.5977Z" fill="#2E3035"/>
</mask>
<g mask="url(#mask3)">
<path fill-rule="evenodd" clip-rule="evenodd" d="M30 21L21 12L12 21L21 30L30 21ZM21.3225 26.7697H20.5491V25.6482C19.0151 25.5129 17.7454 24.6041 17.7002 23.1023H18.8217C18.9377 23.908 19.434 24.5203 20.5491 24.6428V24.6332C20.9403 24.7096 21.2732 24.6893 21.5389 24.6265C22.5776 24.485 22.9854 23.9261 22.9854 23.2312C22.9854 22.5223 22.6373 22.0711 21.3612 21.7617L21.3225 21.7553V21.7556C21.0915 21.6781 20.8 21.6114 20.4418 21.5404L20.4008 21.5297C18.7959 21.143 17.9323 20.4275 17.9323 19.1578C17.9323 17.7721 19.0215 16.8568 20.5491 16.7215V15.6H21.3225V16.715C22.8114 16.8504 23.9715 17.7914 24.0166 19.2158H22.8952C22.8114 18.3457 22.1926 17.8365 21.3225 17.727C21.0737 17.6929 20.8075 17.702 20.5491 17.7444V17.7334C19.5694 17.8623 19.0538 18.4553 19.0538 19.0805C19.0538 19.6731 19.3942 20.1409 20.3518 20.42C20.5937 20.5139 20.9135 20.6005 21.3225 20.6518V20.6596L21.5223 20.7047C23.1788 21.1043 24.1069 21.7875 24.1069 23.141C24.1069 24.6943 22.8436 25.5387 21.3225 25.6547V26.7697Z" fill="#00FEB5"/>
</g>
</g>
</g>
</svg>
