<svg width="32" height="32" viewBox="0 0 32 32" fill="none" xmlns="http://www.w3.org/2000/svg">
<mask id="mask0" mask-type="alpha" maskUnits="userSpaceOnUse" x="1" y="1" width="27" height="27">
<path fill-rule="evenodd" clip-rule="evenodd" d="M27.3467 11.4166C25.6878 10.5503 23.8011 10.0605 21.8 10.0605C15.1726 10.0605 9.80005 15.4331 9.80005 22.0605C9.80005 23.9152 10.2208 25.6715 10.972 27.2394C5.23546 25.7495 1 20.536 1 14.3333C1 6.96954 6.96954 1 14.3333 1C20.6952 1 26.0165 5.45564 27.3467 11.4166Z" fill="#C4C4C4"/>
</mask>
<g mask="url(#mask0)">
<path d="M12 3C7.02954 3 3 7.02928 3 11.9999C3 16.9703 7.02954 21 12 21C16.9705 21 21 16.9703 21 11.9999C21 7.02928 16.9705 3 12 3Z" fill="#4EAF94"/>
<path fill-rule="evenodd" clip-rule="evenodd" d="M12.9412 16.5V12.9963C15.0789 12.8784 16.6874 12.3666 16.6875 11.7534C16.6875 11.1403 15.0789 10.6285 12.9413 10.5106L12.9412 9.53348H15.6102V7.5H8.31209V9.53348H10.9808V10.5153C8.88232 10.6414 7.3125 11.1477 7.3125 11.7534C7.3125 12.3592 8.88232 12.8655 10.9808 12.9915V16.5H12.9412ZM12.9413 11.9223V10.7328C14.782 10.8172 16.1543 11.1439 16.1543 11.5345C16.1543 11.9892 14.2943 12.3576 12 12.3576C9.70556 12.3576 7.84563 11.9892 7.84563 11.5345C7.84563 11.1496 9.1793 10.8264 10.9809 10.7365V10.9681H10.9811V11.9178C11.3058 11.9365 11.6472 11.9466 11.9999 11.9466C12.3245 11.9466 12.6398 11.9379 12.9413 11.9223Z" fill="white"/>
</g>
<path fill-rule="evenodd" clip-rule="evenodd" d="M31 22L22 13L13 22L22 31L31 22ZM22.3223 27.7697H21.5488V26.6482C20.0148 26.5129 18.7451 25.6041 18.7 24.1023H19.8215C19.9368 24.9031 20.4277 25.5128 21.5284 25.6405C21.8853 25.7045 22.201 25.6893 22.4618 25.6361C23.5573 25.5121 23.9852 24.943 23.9852 24.2312C23.9852 23.5223 23.6371 23.0711 22.3609 22.7617L22.3223 22.7553V22.7556C22.0913 22.6781 21.7997 22.6114 21.4416 22.5404L21.4006 22.5297C19.7957 22.143 18.932 21.4275 18.932 20.1578C18.932 18.7721 20.0213 17.8568 21.5488 17.7215V16.6H22.3223V17.715C23.8111 17.8504 24.9713 18.7914 25.0164 20.2158H23.8949C23.8111 19.3457 23.1924 18.8365 22.3223 18.727V18.7332C22.0713 18.6909 21.8071 18.7 21.5488 18.7478V18.7334C20.5691 18.8623 20.0535 19.4553 20.0535 20.0805C20.0535 20.6946 20.4191 21.1747 21.4582 21.4496C21.6874 21.528 21.9743 21.5988 22.3223 21.645V21.6596L22.5221 21.7047C24.1785 22.1043 25.1066 22.7875 25.1066 24.141C25.1066 25.6943 23.8434 26.5387 22.3223 26.6547V27.7697Z" fill="#05B595"/>
<mask id="mask1" mask-type="alpha" maskUnits="userSpaceOnUse" x="12" y="13" width="20" height="11">
<path fill-rule="evenodd" clip-rule="evenodd" d="M17.5423 20.5977C16.3 20.5798 14.8209 20.9316 12.9196 22.0681C12.7589 21.8676 13.4121 21.3059 13.3003 21.1004C13.301 20.8013 14.5 20.0627 14.5003 19.9004C17.5003 17.8004 20.8003 13.3003 22.0003 13.0003C23.7944 14.5476 26.963 17.8949 30.4003 20.2006C30.4053 20.3168 30.3984 20.325 30.4003 20.5009C30.3997 20.801 30.7012 21.0131 30.7003 21.4006C30.2514 20.9073 31.4064 21.7982 31.4037 21.8478C29.3845 22.8938 27.6856 23.2254 26.1537 23.1307C24.4457 23.025 23.0184 22.3877 21.727 21.8112C21.6778 21.7892 21.6287 21.7673 21.5799 21.7455C20.2179 21.1384 18.9915 20.6186 17.5423 20.5977Z" fill="#2E3035"/>
</mask>
<g mask="url(#mask1)">
<path fill-rule="evenodd" clip-rule="evenodd" d="M31 22L22 13L13 22L22 31L31 22ZM22.3225 27.7697H21.5491V26.6482C20.0151 26.5129 18.7454 25.6041 18.7002 24.1023H19.8217C19.9377 24.908 20.434 25.5203 21.5491 25.6428V25.6332C21.9403 25.7096 22.2732 25.6893 22.5389 25.6265C23.5776 25.485 23.9854 24.9261 23.9854 24.2312C23.9854 23.5223 23.6373 23.0711 22.3612 22.7617L22.3225 22.7553V22.7556C22.0915 22.6781 21.8 22.6114 21.4418 22.5404L21.4008 22.5297C19.7959 22.143 18.9323 21.4275 18.9323 20.1578C18.9323 18.7721 20.0215 17.8568 21.5491 17.7215V16.6H22.3225V17.715C23.8114 17.8504 24.9715 18.7914 25.0166 20.2158H23.8952C23.8114 19.3457 23.1926 18.8365 22.3225 18.727C22.0737 18.6929 21.8075 18.702 21.5491 18.7444V18.7334C20.5694 18.8623 20.0538 19.4553 20.0538 20.0805C20.0538 20.6731 20.3942 21.1409 21.3518 21.42C21.5937 21.5139 21.9135 21.6005 22.3225 21.6518V21.6596L22.5223 21.7047C24.1788 22.1043 25.1069 22.7875 25.1069 24.141C25.1069 25.6943 23.8436 26.5387 22.3225 26.6547V27.7697Z" fill="#00FEB5"/>
</g>
</svg>
