<svg width="30" height="30" viewBox="0 0 30 30" fill="none" xmlns="http://www.w3.org/2000/svg">
<path fill-rule="evenodd" clip-rule="evenodd" d="M29.9667 14.9863C29.9667 23.2565 23.2624 29.9609 14.9922 29.9609C6.72192 29.9609 0.0175781 23.2565 0.0175781 14.9863C0.0175781 6.71606 6.72192 0.0117188 14.9922 0.0117188C23.2624 0.0117188 29.9667 6.71606 29.9667 14.9863ZM21.8646 10.9926C22.5761 10.9079 23.2527 10.7194 23.8827 10.4407C23.4119 11.1434 22.8157 11.7603 22.1273 12.2567C22.1346 12.407 22.138 12.5579 22.138 12.7099C22.138 17.3396 18.6037 22.6782 12.1412 22.6782C10.157 22.6782 8.31049 22.0978 6.75535 21.1034C7.03036 21.1365 7.31049 21.1533 7.59394 21.1533C9.23961 21.1533 10.7548 20.593 11.9573 19.6531C10.4202 19.6244 9.12265 18.6116 8.67553 17.2201C8.89036 17.2604 9.11027 17.2818 9.33694 17.2818C9.65752 17.2818 9.96741 17.2397 10.2627 17.159C8.65526 16.8371 7.44433 15.4215 7.44433 13.7238V13.6796C7.91843 13.942 8.46011 14.0997 9.03603 14.1176C8.0934 13.4894 7.47303 12.4171 7.47303 11.2018C7.47303 10.5597 7.64623 9.95783 7.94882 9.44021C9.6817 11.5596 12.2706 12.9544 15.1907 13.1008C15.1312 12.8439 15.1002 12.5764 15.1002 12.3021C15.1002 10.3667 16.6734 8.7986 18.6132 8.7986C19.6238 8.7986 20.5373 9.22369 21.1779 9.90456C21.9793 9.7475 22.7314 9.45586 23.4096 9.05433C23.147 9.872 22.5907 10.559 21.8646 10.9926Z" fill="#4e5c6e"/>
</svg>
