<svg width="30" height="30" viewBox="0 0 30 30" fill="none" xmlns="http://www.w3.org/2000/svg">
<path fill-rule="evenodd" clip-rule="evenodd" d="M30 15C30 23.2843 23.2843 30 15 30C6.71573 30 0 23.2843 0 15C0 6.71573 6.71573 0 15 0C23.2843 0 30 6.71573 30 15ZM24 8.30075L22.5637 9.67474C22.4407 9.76698 22.3777 9.92298 22.404 10.0752V20.1754C22.3777 20.3269 22.4415 20.4829 22.5645 20.5759L23.967 21.9491V22.2499H16.908V21.9484L18.363 20.5406C18.504 20.3996 18.504 20.3554 18.504 20.1401V11.9795L14.4593 22.2236H13.9125L9.2085 11.9795V18.8449C9.16725 19.1352 9.264 19.4239 9.46875 19.6324L11.3587 21.9191V22.2199H6V21.9229L7.89 19.6324C8.091 19.4247 8.184 19.1307 8.13225 18.8449V10.9077C8.154 10.688 8.0685 10.4697 7.905 10.3205L6.22725 8.30075V8H11.4443L15.4785 16.8259L19.0245 8H24V8.30075Z" fill="#4e5c6e"/>
</svg>
