<svg width="30" height="30" viewBox="0 0 30 30" fill="none" xmlns="http://www.w3.org/2000/svg">
<path fill-rule="evenodd" clip-rule="evenodd" d="M30 15C30 23.2843 23.2843 30 15 30C6.71573 30 0 23.2843 0 15C0 6.71573 6.71573 0 15 0C23.2843 0 30 6.71573 30 15ZM21.3278 9.09953L6.86529 14.6758C5.87404 15.0633 5.89154 15.612 6.69529 15.867L10.3978 17.022L18.9865 11.6145C19.3853 11.3495 19.7553 11.4995 19.4528 11.7658L12.5028 18.0445L12.2365 21.8608C12.624 21.8608 12.7928 21.692 12.9928 21.492L14.8015 19.7495L18.5515 22.5133C19.2353 22.9008 19.724 22.7008 19.9065 21.8783L22.369 10.277L22.3678 10.2783C22.5853 9.26328 21.999 8.85703 21.3278 9.09953Z" fill="#4e5c6e"/>
</svg>
