<svg width="384" height="396" viewBox="0 0 384 396" fill="none" xmlns="http://www.w3.org/2000/svg">
<mask id="mask0" mask-type="alpha" maskUnits="userSpaceOnUse" x="0" y="0" width="384" height="396">
<rect width="384" height="396" rx="16" fill="url(#paint0_linear)"/>
</mask>
<g mask="url(#mask0)">
<path opacity="0.4" d="M332.21 329.627L336.597 318.913L336.804 318.853C337.152 318.751 337.447 318.669 337.708 318.597C337.989 318.519 338.231 318.452 338.458 318.383C338.878 318.254 339.163 318.141 339.399 317.992C339.861 317.701 340.214 317.224 340.91 315.937L343.424 311.279L343.539 311.216C344.379 310.749 345.224 310.294 346.068 309.841C348.441 308.566 350.799 307.3 352.981 305.78C353.72 305.266 354.231 304.85 354.558 304.482C354.881 304.119 354.992 303.84 354.998 303.594C355.004 303.339 354.901 303.03 354.609 302.604C354.318 302.178 353.871 301.682 353.259 301.06C352.545 300.333 351.834 299.609 351.125 298.886C343.663 291.286 336.436 283.926 328.524 276.544C287.527 253.029 239.723 236.587 193.69 226.363L193.611 226.345L188.215 222.848C162.305 214.648 139.088 208.21 111.875 207.139L111.813 207.136L111.753 207.117C98.1211 202.658 83.7966 197.677 69.1837 192.595C34.407 180.501 -2.00403 167.839 -34.6093 160.299L-34.7026 160.277L-37.2261 158.368C-101.285 145.285 -167.724 149.865 -232.47 155.439L-232.649 155.454L-235.959 152.803C-264.002 152.442 -295.506 157.684 -323.654 162.368C-324.846 162.566 -326.032 162.764 -327.211 162.96L-329.027 166.477L-329.26 166.507C-416.895 177.693 -511.623 193.795 -598.17 214.525M208.78 388.64L227.049 388.863L230.779 391.829L288.127 387.952L288.138 387.951C292.804 387.415 297.493 386.903 302.193 386.389C316.17 384.861 330.243 383.323 344.077 381.13C348.522 380.425 351.932 379.212 355.683 376.611C357.778 375.16 360.141 373.165 362.2 371.114C364.253 369.069 366.035 366.936 366.94 365.207L367 365.093L366.723 361.778L366.426 361.693C362.141 360.471 358.129 359.303 353.919 357.868L333.069 329.89L337.263 319.65C337.5 319.582 337.724 319.52 337.932 319.462C338.23 319.379 338.495 319.306 338.72 319.237C339.163 319.101 339.54 318.961 339.878 318.747C340.565 318.314 341.013 317.629 341.698 316.36M341.698 316.36L341.304 316.148M341.698 316.36L344.089 311.933C344.867 311.502 345.659 311.077 346.454 310.649C348.841 309.367 351.265 308.065 353.494 306.513C354.246 305.99 354.829 305.525 355.228 305.075C355.632 304.622 355.88 304.148 355.893 303.616C355.906 303.092 355.689 302.596 355.349 302.1C355.009 301.604 354.514 301.06 353.899 300.434M353.899 300.434L353.579 300.747M353.899 300.434C353.185 299.707 352.473 298.983 351.763 298.26C344.291 290.65 337.041 283.265 329.098 275.856L329.06 275.82L329.016 275.795C287.934 252.224 240.053 235.752 193.964 225.508L188.602 222.033L188.544 222.015C162.616 213.807 139.305 207.333 111.973 206.248C98.3946 201.806 84.1126 196.84 69.5334 191.77C34.7699 179.681 -1.68288 167.004 -34.3137 159.45L-36.8468 157.533L-36.9465 157.513C-101.121 144.388 -167.654 148.964 -232.368 154.533L-235.638 151.914L-235.792 151.912C-263.957 151.528 -295.597 156.793 -323.774 161.482C-325.05 161.694 -326.319 161.906 -327.58 162.115L-327.801 162.152L-329.607 165.651C-417.201 176.838 -511.871 192.935 -598.379 213.656C-599.476 213.919 -600.359 214.171 -601.019 214.493C-601.69 214.822 -602.18 215.247 -602.421 215.877C-602.654 216.486 -602.622 217.208 -602.44 218.064C-602.256 218.925 -601.904 219.987 -601.426 221.306C-599.911 225.49 -596.729 230.655 -593.484 235.297C-590.573 239.462 -587.59 243.234 -585.663 245.548L-592.203 245.494L-593.029 247.261L-585.888 252.335L-593.417 254.701L-593.664 256.822L-587.561 275.587L-609.174 285.825L-609.218 290.951L-609.2 291.014C-608.14 294.676 -605.844 298.088 -603.251 301.283C-601.953 302.883 -600.573 304.438 -599.228 305.947L-599.023 306.177C-597.809 307.539 -596.629 308.862 -595.558 310.158L-599.078 319.864C-599.939 322.239 -600.493 324.037 -600.245 325.641C-599.99 327.289 -598.912 328.636 -596.819 330.187L-562.096 355.915C-558.111 358.868 -555.077 360.754 -551.818 362.127C-548.561 363.498 -545.101 364.347 -540.278 365.251L-528.033 367.548L-522.759 368.244L-582.72 251.339L-584.818 251.998L-591.902 246.965L-591.634 246.392L-584.691 246.45L-584.688 246.007L-584.349 245.72C-586.193 243.551 -589.516 239.411 -592.749 234.786C-595.988 230.153 -599.111 225.069 -600.583 221.003C-601.061 219.683 -601.394 218.673 -601.564 217.878C-601.734 217.078 -601.724 216.562 -601.584 216.195C-601.452 215.85 -601.175 215.565 -600.624 215.296C-600.062 215.021 -599.267 214.787 -598.17 214.525M-598.17 214.525L-598.274 214.09M355.172 375.878C357.218 374.461 359.54 372.501 361.567 370.481C363.554 368.502 365.226 366.496 366.086 364.907L365.882 362.467C361.662 361.262 357.68 360.098 353.497 358.668L353.366 358.623L332.674 330.857L320.146 361.447L319.317 361.109L331.705 330.859M355.172 375.878L355.428 376.245M355.172 375.878C351.548 378.39 348.27 379.56 343.936 380.248C330.126 382.437 316.084 383.972 302.112 385.499C297.411 386.013 292.719 386.526 288.046 387.062L231.065 390.914L227.368 387.973L212.623 387.793M-562.782 182.034C-562.666 181.957 -562.557 181.886 -562.455 181.82C-562.187 181.646 -561.966 181.502 -561.777 181.362C-561.518 181.17 -561.38 181.026 -561.309 180.896C-561.198 180.691 -561.17 180.353 -561.704 179.393C-562.068 178.739 -562.259 178.177 -562.244 177.691C-562.227 177.163 -561.97 176.782 -561.588 176.527C-561.233 176.29 -560.773 176.162 -560.314 176.071C-559.961 176.002 -559.569 175.949 -559.177 175.897C-559.054 175.88 -558.93 175.863 -558.808 175.846C-543.724 173.721 -530.062 173.442 -515.459 173.145C-512.333 173.081 -509.163 173.017 -505.927 172.933L-505.863 172.931L-468.422 182.887L-455.316 181.116L-455.724 179.208C-475.521 172.8 -485.194 170.305 -505.768 168.186L-505.785 168.184L-505.801 168.181C-514.949 166.546 -521.319 165.397 -528.905 163.37C-533.92 162.029 -536.917 161.443 -539.954 161.212C-542.489 161.02 -545.056 161.074 -548.859 161.154C-549.631 161.171 -550.455 161.188 -551.339 161.205C-569.894 161.557 -587.574 161.899 -606.006 165.717C-608.506 166.234 -609.943 166.757 -611.045 167.656C-612.154 168.56 -612.968 169.881 -614.131 172.125C-616.809 177.305 -619 181.755 -621.038 187.784L-619.966 190.145C-607.517 194.225 -597.036 196.318 -583.988 195.996L-562.782 182.034ZM-562.782 182.034L-562.536 182.409M-551.348 160.756L-551.356 160.307M-551.356 160.307C-569.9 160.658 -587.661 161 -606.187 164.837C-608.715 165.36 -610.333 165.917 -611.61 166.959C-612.881 167.995 -613.768 169.475 -614.926 171.711C-617.636 176.952 -619.868 181.485 -621.944 187.665L-622 187.833L-620.619 190.876L-620.432 190.937C-607.792 195.093 -597.139 197.235 -583.837 196.891L-583.709 196.888L-562.29 182.784C-562.188 182.717 -562.088 182.652 -561.99 182.588C-561.713 182.408 -561.457 182.242 -561.244 182.084C-560.955 181.87 -560.688 181.631 -560.522 181.326C-560.16 180.66 -560.387 179.915 -560.922 178.955M-551.356 160.307C-550.479 160.29 -549.661 160.273 -548.891 160.257C-545.087 160.176 -542.469 160.121 -539.886 160.317C-536.769 160.553 -533.71 161.155 -528.674 162.502M-560.922 178.955L-561.313 179.174M-560.922 178.955C-561.257 178.352 -561.356 177.963 -561.348 177.719C-561.342 177.517 -561.263 177.389 -561.091 177.274C-560.891 177.141 -560.578 177.038 -560.142 176.953C-559.817 176.889 -559.463 176.841 -559.078 176.79C-558.95 176.772 -558.818 176.754 -558.683 176.735C-543.657 174.618 -530.057 174.341 -515.457 174.043C-512.347 173.98 -509.192 173.916 -505.968 173.833M-505.968 173.833L-506.03 173.816L-505.916 173.382L-505.904 173.831C-505.925 173.832 -505.947 173.832 -505.968 173.833ZM-505.968 173.833L-468.479 183.801L-454.238 181.877L-454.956 178.513L-455.202 178.433C-475.201 171.955 -484.933 169.43 -505.66 167.294M-505.66 167.294C-505.655 167.295 -505.649 167.296 -505.644 167.297L-505.723 167.739L-505.677 167.292C-505.671 167.293 -505.666 167.293 -505.66 167.294ZM-505.66 167.294C-514.803 165.66 -521.134 164.516 -528.674 162.502M-528.674 162.502L-528.79 162.936M-560.617 173.462C-546.52 170.841 -532.105 170.419 -517.791 169.999C-515.801 169.941 -513.813 169.882 -511.828 169.818C-494.503 169.262 -480.285 173.444 -464.471 178.095C-461.652 178.924 -458.782 179.768 -455.835 180.603L-456.077 181.468C-459.04 180.628 -461.92 179.781 -464.744 178.951C-480.558 174.301 -494.628 170.164 -511.799 170.716C-513.788 170.78 -515.778 170.838 -517.769 170.897C-532.089 171.317 -546.431 171.738 -560.456 174.346C-561.349 174.511 -562.079 174.657 -562.657 174.818C-563.244 174.982 -563.623 175.148 -563.849 175.329C-564.047 175.487 -564.123 175.648 -564.118 175.876C-564.111 176.146 -563.99 176.536 -563.676 177.108C-563.271 177.847 -563.003 178.436 -562.9 178.927C-562.79 179.447 -562.858 179.89 -563.146 180.276C-563.405 180.622 -563.814 180.882 -564.26 181.135C-564.434 181.234 -564.614 181.332 -564.806 181.437C-565.145 181.62 -565.518 181.823 -565.95 182.081L-585.49 193.732L-585.624 193.725C-599.725 193.043 -608.488 192.115 -622 187.774L-621.729 186.918C-608.362 191.213 -599.697 192.142 -585.714 192.822M-560.617 173.462L-560.536 173.904M-560.617 173.462C-561.509 173.628 -562.275 173.78 -562.895 173.953C-563.508 174.124 -564.031 174.328 -564.403 174.625C-564.803 174.944 -565.021 175.366 -565.009 175.897C-564.998 176.388 -564.79 176.933 -564.456 177.543M-564.456 177.543L-564.066 177.325M-564.456 177.543C-564.056 178.272 -563.846 178.762 -563.772 179.114C-563.704 179.436 -563.757 179.6 -563.859 179.737C-563.992 179.914 -564.243 180.095 -564.698 180.353C-564.845 180.436 -565.014 180.528 -565.2 180.63C-565.55 180.82 -565.962 181.045 -566.404 181.308M-566.404 181.308L-566.177 181.694M-566.404 181.308L-585.714 192.822M-585.714 192.822C-585.67 192.824 -585.626 192.826 -585.581 192.828L-585.602 193.277L-585.83 192.89L-585.714 192.822ZM-17.9255 240.202C-7.93238 241.452 1.70475 242.489 11.2666 243.156L11.204 244.051C1.61993 243.382 -8.03478 242.343 -18.0371 241.092C-94.6551 231.516 -170.969 220.538 -247.344 209.232L-266.954 206.721L-267.075 206.789L-267.216 206.687L-267.888 206.601L-267.687 206.346C-273.053 202.414 -275.571 199.205 -279.64 194.021L-280.084 193.455L-279.787 193.174C-269.974 183.883 -264.472 180.478 -252.6 173.786L-252.491 173.725L-234.244 174.233L-234.177 173.603L-235.709 171.934L-234.962 171.759C-219.985 168.233 -213.62 167.782 -198.381 166.711L-196.412 166.573L-208.323 173.352C-176.581 170.825 -148.897 171.493 -115.912 172.76C-97.6115 173.463 -82.2974 174.185 -67.3721 176.37C-6.03035 185.344 49.0818 207.896 105.3 232.487L106.569 233.041L57.3048 243.766L57.2772 243.769C48.2048 244.599 39.4442 244.916 30.7831 244.844L30.7563 244.843L-199.336 215.379C-138.933 224.176 -78.5236 232.628 -17.9255 240.202ZM-17.9255 240.202L-17.9813 240.647M-67.5024 177.258C-82.3738 175.081 -97.6425 174.359 -115.947 173.657C-149.582 172.365 -177.673 171.697 -210.169 174.402L-265.536 205.913L-261.846 206.174L-261.829 206.177C-256.959 206.9 -252.09 207.622 -247.221 208.343L30.8174 243.946C39.4335 244.018 48.1465 243.703 57.1675 242.878L103.671 232.754C47.8951 208.381 -6.752 186.146 -67.5024 177.258ZM-67.5024 177.258L-67.4373 176.814M-318.403 192.206C-296.563 184.443 -273.84 177.162 -250.63 169.813L-250.487 169.768L-240.141 173.399L-346.807 204.296L-307.293 200.614L-265.388 204.794L-265.477 205.688L-307.296 201.517L-351.4 205.627L-359.971 208.11L-351.651 204.767C-340.813 200.412 -329.741 196.237 -318.403 192.206ZM-318.403 192.206L-318.253 192.63M12.1646 189.076C45.7686 200.121 83.7192 216.401 116.155 231.25L115.787 232.073C83.3603 217.228 45.4455 200.964 11.8892 189.935C-33.7521 174.936 -71.9174 168.668 -119.925 166.873C-141.593 166.062 -163.037 166.553 -187.108 167.104C-190.373 167.179 -193.686 167.255 -197.054 167.328L-197.121 167.33L-197.185 167.312C-200.201 166.448 -203.183 165.572 -206.15 164.7C-216.898 161.54 -227.434 158.443 -238.543 156.277L-238.374 155.39C-227.22 157.565 -216.634 160.677 -205.88 163.838C-202.94 164.703 -199.987 165.571 -197.007 166.424C-193.662 166.351 -190.372 166.275 -187.129 166.201C-163.06 165.65 -141.588 165.159 -119.892 165.97C-71.8101 167.769 -33.5624 174.048 12.1646 189.076ZM12.1646 189.076L12.0269 189.505M155.262 252.873C199.023 251.706 242.589 282.979 242.376 333.99C242.299 352.181 236.513 370.758 228.17 388.634L227.358 388.253C235.672 370.437 241.403 351.995 241.479 333.986C241.689 283.592 198.656 252.616 155.286 253.772C88.3285 255.559 53.5574 328.81 82.6686 386.453L81.8685 386.86C52.5171 328.742 87.524 254.68 155.262 252.873ZM155.262 252.873L155.274 253.323M5.73126 212.936C5.60461 211.706 5.49826 210.522 5.53094 209.442C5.56366 208.36 5.736 207.347 6.19128 206.467C7.12544 204.661 9.13856 203.607 12.8726 203.4C17.3505 203.156 21.6562 203.49 26.0502 203.91C33.8775 204.66 41.3075 208.667 47.9755 212.887M5.73126 212.936L6.17828 212.89M5.73126 212.936C6.21113 217.596 6.78046 221.713 7.67407 226.455M7.67407 226.455L8.1156 226.372M7.67407 226.455C7.99446 228.161 8.30639 229.272 9.02332 230.085C9.73682 230.894 10.8025 231.349 12.4213 231.921C14.8244 232.769 17.0784 233.486 19.6722 234.196M19.6722 234.196L20.1502 233.651L20.4874 233.95L20.3718 234.386C20.1357 234.323 19.9026 234.26 19.6722 234.196ZM19.6722 234.196L4.31335 251.71L10.8918 257.634L11.0758 257.625C15.5868 257.413 18.4662 257.018 21.2478 256.285C23.6014 255.666 25.8799 254.805 29.0026 253.626C29.5538 253.417 30.1313 253.199 30.7401 252.971L31.334 252.748L27.9352 248.656M27.9352 248.656L27.6575 248.947L27.3329 248.635L27.678 248.346L27.9352 248.656ZM27.9352 248.656L48.3181 227.266L47.996 226.951L48.3207 227.263L48.3194 227.264C48.4501 227.13 48.5792 226.996 48.7065 226.865C50.0591 225.471 51.2202 224.274 52.0861 223.201C53.0296 222.031 53.6781 220.943 53.8158 219.835C53.9577 218.693 53.5489 217.62 52.5903 216.511C51.6424 215.415 50.1271 214.248 47.9755 212.887M47.9755 212.887L47.736 213.269M-281.096 313.766L-280.729 313.511M-281.096 313.766C-280.768 314.226 -280.451 314.672 -280.145 315.103C-277.888 318.282 -276.165 320.709 -274.032 322.581C-271.584 324.73 -268.615 326.138 -263.735 327.215L-189.547 343.592L72.9761 355.085L73.0161 354.201L-189.428 342.711L-263.538 326.351C-268.323 325.295 -271.134 323.939 -273.433 321.921C-275.482 320.122 -277.139 317.789 -279.41 314.593C-279.715 314.163 -280.031 313.718 -280.361 313.257L-324.973 250.799C-292.011 240.73 -267.939 234.621 -233.188 234.556L-233.19 233.671C-268.282 233.736 -292.535 239.949 -325.829 250.134L-326.418 250.314L-281.096 313.766ZM-216.365 327.836C-209.377 326.347 -204.62 325.977 -197.495 326.658L73.0161 352.546L72.9347 353.488L-197.576 327.6C-204.605 326.927 -209.274 327.29 -216.187 328.763L-230.376 331.787L-230.554 330.861L-216.365 327.836ZM-216.365 327.836L-216.276 328.299M-343.586 343.232C-342.883 341.439 -342.371 340.107 -342.057 339.006C-341.745 337.912 -341.637 337.076 -341.725 336.277C-341.812 335.477 -342.099 334.676 -342.636 333.656C-343.176 332.632 -343.952 331.417 -344.999 329.784C-351.662 319.397 -358.493 310.439 -366.058 300.585C-367.412 298.821 -368.621 297.696 -369.989 296.808C-371.367 295.915 -372.922 295.252 -374.999 294.427L-379.786 292.528L-376.217 375.93L-352.344 365.022L-350.314 360.404L-343.586 343.232ZM-343.586 343.232L-343.168 343.396M25.1628 372.432L25.3667 372.842M25.1628 372.432C22.1333 374.008 20.1861 374.717 18.1743 375.054C16.4655 375.341 14.7026 375.361 12.163 375.39C11.6817 375.396 11.1725 375.402 10.6304 375.41L-131.481 377.539H-131.494L-131.494 378.459H-131.481L10.4877 380.549C11.4083 380.562 12.2406 380.583 13.0023 380.601C15.6148 380.666 17.3973 380.71 19.0678 380.377C21.2606 379.941 23.2551 378.866 26.7191 376.478L55.4409 356.683L25.1628 372.432ZM176.869 225.683H194.444M-395.431 272.187C-430.067 241.209 -490.095 243.112 -519.385 280.322M-395.431 272.187L-395.132 271.851M-395.431 272.187C-367.292 297.352 -360.068 342.969 -380.688 386.652L-379.876 387.037C-359.128 343.082 -366.329 297.007 -394.832 271.516C-429.812 240.231 -490.445 242.104 -520.091 279.765C-538.11 302.655 -543.847 335.413 -534.457 366.292L-533.597 366.03C-542.91 335.408 -537.207 302.961 -519.385 280.322M-519.385 280.322L-519.738 280.043M-524.335 367.135L-583.173 252.418L-592.594 255.379L-592.752 256.732L-586.466 276.058L-608.283 286.392L-608.321 290.828C-607.303 294.293 -605.11 297.571 -602.555 300.721C-601.272 302.302 -599.905 303.843 -598.559 305.353L-598.347 305.59C-597.077 307.015 -595.828 308.416 -594.704 309.788L-594.543 309.985L-598.235 320.168C-599.112 322.584 -599.567 324.164 -599.36 325.504C-599.159 326.801 -598.316 327.964 -596.284 329.47L-561.561 355.198C-557.604 358.131 -554.635 359.97 -551.47 361.303C-548.302 362.637 -544.918 363.473 -540.113 364.373L-527.903 366.663L-527.879 366.667L-524.335 367.135ZM-403.146 384.01L-380.563 386.986L52.4116 387.087L99.8748 387.314L99.8782 387.314L99.8857 386.421L81.8938 386.2L81.8911 386.2L52.4161 386.193L-403.146 384.01ZM-380.504 386.093L-143.517 386.148L-389.014 384.971L-380.504 386.093ZM-232.152 155.29L-238.419 156.988L-238.543 155.491L-232.276 153.793L-232.152 155.29ZM-235.347 153.058L-238.629 153.723L-238.153 158.925L-260.292 158.747L-261 161.85L-272.635 161.894L-275.754 162.983L-329.552 166.573L-329.614 165.694L-275.94 162.113L-272.793 161.014L-261.724 160.972L-261.013 157.86L-239.139 158.036L-239.599 153.021L-235.531 152.195L-235.347 153.058ZM-261.521 158.585L-264.107 154.308L-263.496 153.793L-260.911 158.07L-261.521 158.585ZM-276.027 161.78L-281.682 155.876L-280.945 155.39L-275.291 161.295L-276.027 161.78ZM-506.015 193.732L-526.136 173.591L-525.486 172.963L-505.365 193.104L-506.015 193.732ZM-537.729 172.963L-538.015 173.901L-531.083 176.329L-522.722 185.083L-528.541 190.186L-536.068 191.066L-541.235 173.521L-542.113 173.817L-536.719 192.134L-528.169 191.135L-521.342 185.148L-530.593 175.463L-537.729 172.963ZM-516.233 190.537L-521.19 191.138L-527.733 197.832L-527.187 198.524L-520.84 192.032L-516.477 191.503L-512.262 195.282L-511.756 194.55L-516.233 190.537ZM-545.969 174.561L-537.32 199.856L-538.257 200.122L-546.906 174.827L-545.969 174.561ZM-565.47 184.146L-546.906 202.633L-547.516 203.317L-566.079 184.83L-565.47 184.146ZM-569.114 187.341L-569.951 187.692L-568.804 190.244L-580.936 198.861L-582.891 195.99L-583.654 196.474L-581.17 200.122L-567.677 190.538L-569.114 187.341ZM-563.633 193.732L-578.546 205.037L-578.861 209.636L-577.921 209.707L-577.638 205.572L-563.701 195.007L-553.93 204.344L-553.297 203.608L-563.633 193.732ZM-267.132 205.639C-265.164 203.125 -263.382 200.767 -261.674 198.506C-256.063 191.081 -251.248 184.709 -243.228 177.326L-243.125 177.231L-242.986 177.212C-231.485 175.586 -220.741 174.386 -210.441 173.525L-200.286 167.745C-213.871 168.704 -220.28 169.259 -234.01 172.457L-233.24 173.295L-233.439 175.153L-252.267 174.629C-263.91 181.194 -269.348 184.563 -278.872 193.544C-274.84 198.682 -272.381 201.797 -267.132 205.639ZM-265.299 204.746L-212.303 174.584C-221.955 175.427 -232.009 176.569 -242.722 178.081C-250.616 185.364 -255.355 191.635 -260.929 199.011C-262.314 200.843 -263.75 202.744 -265.299 204.746ZM-189.596 171.366L-185.818 217.627L-186.832 217.695L-190.611 171.434L-189.596 171.366ZM-194.408 171.366L-190.611 216.027L-191.606 216.098L-195.404 171.436L-194.408 171.366ZM-241.738 178.257C-243.093 180.218 -244.569 182.283 -246.091 184.413C-251.203 191.567 -256.832 199.444 -260.121 206.512L-260.911 206.14C-257.584 198.99 -251.883 191.014 -246.763 183.849C-245.251 181.733 -243.79 179.688 -242.455 177.756L-241.738 178.257ZM-275.291 162.559L-275.084 161.78L-264.954 163.888L-248.779 166.913L-233.75 170.595L-233.99 171.366L-248.993 167.691L-265.151 164.669L-275.291 162.559ZM-318.103 193.053C-326.36 195.989 -334.476 199.001 -342.462 202.102L-243.088 173.317L-250.502 170.715C-273.662 178.049 -296.323 185.311 -318.103 193.053ZM-278.486 193.373L-318.424 193.732L-318.43 192.493L-278.492 192.134L-278.486 193.373ZM-241.738 173.776L-252.09 178.347C-260.537 185.405 -265.712 190.569 -273.042 198.524L-273.693 197.922C-266.331 189.931 -261.122 184.735 -252.609 177.625L-252.561 177.585L-242.096 172.963L-241.738 173.776ZM126.059 206.512C129.829 207.613 133.428 208.586 136.907 209.527C151.081 213.361 163.279 216.66 177.063 225.869L178.467 226.807L145.01 225.517L137.889 228.986C137.463 229.194 136.72 229.4 135.781 229.607C134.826 229.816 133.627 230.036 132.26 230.259C129.524 230.705 126.097 231.171 122.578 231.614C118.056 232.184 113.357 232.719 109.776 233.126C107.793 233.352 106.153 233.539 105.075 233.671L104.971 232.729C106.067 232.595 107.716 232.407 109.706 232.181C113.278 231.775 117.947 231.243 122.471 230.673C125.987 230.231 129.402 229.766 132.122 229.322C133.482 229.1 134.664 228.884 135.596 228.679C136.543 228.471 137.191 228.282 137.512 228.126L144.828 224.561L175.15 225.731C162.08 217.318 150.391 214.156 136.732 210.46C133.242 209.515 129.623 208.536 125.819 207.425L126.059 206.512ZM111.656 206.512C114.181 207.345 116.614 208.12 118.975 208.872C131.975 213.014 142.77 216.453 154.501 224.963L153.952 225.683C142.351 217.266 131.708 213.874 118.713 209.733C116.347 208.979 113.904 208.2 111.362 207.362L111.656 206.512ZM-66.9546 152.195L-67.4335 152.957L-61.1687 156.8L-68.8467 162.841L-68.8728 163.016C-69.5186 167.342 -69.0498 170.015 -68.4236 173.586C-68.2829 174.388 -68.1341 175.236 -67.9883 176.159L-67.0915 176.02C-67.2414 175.072 -67.3925 174.209 -67.5343 173.399C-68.147 169.899 -68.5855 167.393 -68.0003 163.322L-59.5962 156.709L-66.9546 152.195ZM-34.0327 160.183C-34.0107 162.3 -35.2082 163.844 -36.7711 165.064C-37.9731 166.001 -39.4377 166.78 -40.7807 167.495C-41.1636 167.698 -41.5367 167.897 -41.8909 168.092L-42.0331 168.171L-67.5849 163.957L-67.4286 163.159L-42.2032 167.319C-41.8675 167.135 -41.5246 166.952 -41.1792 166.769C-39.8473 166.06 -38.4786 165.331 -37.3434 164.445C-35.8902 163.312 -34.8978 161.977 -34.9163 160.191L-34.0327 160.183ZM-41.8436 166.573C7.05082 176.808 76.4477 204.363 132.132 229.631L131.773 230.476C76.096 205.211 6.77324 177.692 -42.0211 167.477L-41.8436 166.573ZM259.951 252.841L260.373 255.854L260.593 255.96C282.591 266.534 302.569 276.662 323.438 289.52L323.545 289.585L333.447 289.515L319.797 274.576L319.738 274.542C303.588 265.058 295.254 261.393 278.262 255.659L278.227 255.647L259.951 252.841ZM319.241 275.321C303.196 265.901 294.917 262.261 278.023 256.558L261.01 253.947L261.188 255.219C283.071 265.741 302.987 275.843 323.786 288.651L331.373 288.597L319.241 275.321ZM316.412 273.61L315.872 268.906L316.93 268.817L317.47 273.521L316.412 273.61ZM323.749 289.585C316.006 288.579 308.264 287.592 300.525 286.606C271.514 282.907 242.535 279.212 213.617 274.533L213.756 273.61C242.658 278.286 271.618 281.978 300.628 285.677C308.369 286.664 316.113 287.651 323.861 288.658L323.749 289.585ZM-232.227 230.456C-292.081 223.213 -352.183 217.631 -413.171 213.311C-290.484 224.651 -167.337 240.856 -44.6662 257C-16.2762 260.736 12.0883 264.468 40.4157 268.137C-50.3066 254.803 -141.431 241.443 -232.227 230.456ZM88.445 275.186C44.1191 269.582 -0.310425 263.735 -44.7999 257.881C-181.134 239.939 -318.031 221.924 -454.238 210.596L-454.173 209.707C-379.006 214.33 -305.378 220.707 -232.119 229.572C-140.022 240.716 -47.5877 254.302 44.4092 267.823C59.0663 269.978 73.7123 272.13 88.344 274.271C132.55 229.071 209.105 243.447 238.478 291.183L328.381 301.444L355.816 303.074L355.762 303.963L328.303 302.332L237.941 292.018L237.827 291.832C208.781 244.343 132.622 230.052 88.8278 275.055L88.6679 275.219L88.4493 275.187L88.445 275.186ZM328 300.768C329.725 304.189 330.648 306.338 331.85 310.059L330.849 310.354C329.664 306.686 328.761 304.584 327.057 301.201L328 300.768ZM331.726 310.354L328.882 312.598L309.481 355.695L320.575 363.073L323.044 357.536C323.4 357.374 323.748 357.216 324.086 357.061C327.206 355.641 329.556 354.57 331.251 353.585C333.157 352.477 334.333 351.424 334.829 349.998C335.318 348.592 335.107 346.922 334.523 344.688C334.178 343.365 333.687 341.796 333.1 339.917C332.694 338.618 332.241 337.172 331.759 335.556L330.894 335.813C331.387 337.462 331.843 338.92 332.249 340.219C332.83 342.075 333.309 343.607 333.65 344.914C334.231 347.14 334.369 348.574 333.977 349.704C333.59 350.815 332.653 351.729 330.797 352.808C329.143 353.769 326.839 354.819 323.703 356.247C323.319 356.422 322.923 356.602 322.513 356.789L322.358 356.86L320.186 361.733L310.617 355.369L329.614 313.167L331.99 311.293L344.521 312.837L344.632 311.944L331.726 310.354ZM321.549 312.698C321.529 311.784 321.299 310.983 320.962 310.425C320.624 309.865 320.206 309.587 319.797 309.599C319.39 309.611 318.985 309.913 318.671 310.494C318.36 311.072 318.165 311.887 318.185 312.802C318.205 313.716 318.434 314.517 318.771 315.075C319.109 315.635 319.527 315.913 319.935 315.901C320.343 315.888 320.749 315.585 321.062 315.005C321.374 314.427 321.568 313.613 321.549 312.698ZM319.78 308.757C320.496 308.736 321.115 309.227 321.543 309.936C321.973 310.648 322.239 311.618 322.262 312.677C322.285 313.736 322.061 314.721 321.664 315.458C321.267 316.193 320.67 316.721 319.953 316.743C319.237 316.764 318.618 316.273 318.19 315.564C317.761 314.852 317.495 313.882 317.472 312.823C317.449 311.764 317.672 310.779 318.07 310.041C318.466 309.306 319.062 308.778 319.78 308.757ZM367 363.601C364.87 366.094 358.794 372.153 350.038 375.797L349.902 375.854L349.757 375.823C336.272 372.927 318.778 369.559 304.186 370.514L234.452 375.202L234.388 374.362L304.124 369.673C318.813 368.712 336.357 372.084 349.811 374.97C358.317 371.394 364.234 365.493 366.302 363.073L367 363.601ZM273.117 327.927L259.951 329.6L277.197 344.284C278.147 345.093 278.851 345.73 279.319 346.266C279.798 346.814 279.96 347.178 279.966 347.443C279.972 347.675 279.857 347.958 279.402 348.351C278.947 348.746 278.228 349.183 277.197 349.723L261.397 358.007L262.338 361.476L303.003 357.812C304.84 357.646 306.111 357.36 306.887 356.931C307.281 356.712 307.588 356.435 307.754 356.077C307.924 355.708 307.914 355.321 307.797 354.953C307.575 354.261 306.942 353.544 306.167 352.835C305.374 352.109 304.353 351.323 303.257 350.501L273.117 327.927ZM302.721 351.253L272.871 328.896L262.147 330.259L277.777 343.568C278.726 344.375 279.478 345.052 279.996 345.645C280.504 346.226 280.859 346.806 280.874 347.42C280.89 348.065 280.53 348.594 279.988 349.063C279.447 349.531 278.647 350.009 277.611 350.552L262.471 358.49L263.011 360.48L302.923 356.884C304.744 356.72 305.854 356.444 306.455 356.111C306.749 355.949 306.879 355.796 306.933 355.678C306.982 355.571 306.996 355.438 306.933 355.243C306.795 354.811 306.337 354.239 305.562 353.53C304.806 352.837 303.818 352.075 302.721 351.253ZM266.757 329.524L289.849 346.052C290.101 346.233 290.344 346.405 290.577 346.57C291.233 347.036 291.804 347.44 292.251 347.794C292.555 348.036 292.819 348.266 293.021 348.489C293.22 348.708 293.392 348.953 293.465 349.228C293.546 349.529 293.499 349.825 293.329 350.09C293.173 350.333 292.927 350.531 292.638 350.703C292.061 351.048 291.148 351.386 289.884 351.773L263.398 359.878L263.147 359.007L289.633 350.902C290.899 350.514 291.719 350.201 292.196 349.916C292.435 349.774 292.547 349.662 292.593 349.589C292.626 349.538 292.627 349.512 292.616 349.47C292.597 349.402 292.536 349.285 292.377 349.11C292.223 348.94 292.003 348.744 291.713 348.515C291.287 348.176 290.745 347.792 290.096 347.333C289.86 347.165 289.61 346.988 289.345 346.799L266.253 330.271L266.757 329.524ZM261.223 304.198L234.388 300.165L234.508 299.171L261.345 303.204C261.426 303.217 261.507 303.229 261.587 303.241C262.391 303.362 263.124 303.472 263.748 303.616C264.428 303.772 265.037 303.978 265.493 304.325C265.977 304.693 266.277 305.211 266.333 305.914C266.386 306.576 266.217 307.366 265.867 308.309C265.513 309.305 265.23 310.059 264.941 310.604C264.646 311.16 264.317 311.556 263.849 311.768C263.403 311.97 262.891 311.975 262.305 311.925C261.99 311.898 261.616 311.85 261.187 311.795C260.828 311.75 260.431 311.699 260 311.652L237.66 309.207L237.748 308.209L260.088 310.654C260.56 310.706 260.963 310.757 261.318 310.803C261.723 310.854 262.064 310.898 262.374 310.925C262.944 310.973 263.272 310.946 263.509 310.839C263.725 310.741 263.924 310.549 264.165 310.094C264.412 309.628 264.671 308.946 265.03 307.936L265.032 307.933L265.033 307.929C265.364 307.037 265.469 306.426 265.435 306.002C265.405 305.617 265.259 305.363 264.984 305.153C264.682 304.923 264.22 304.748 263.566 304.598C262.975 304.462 262.273 304.356 261.459 304.234C261.382 304.222 261.303 304.21 261.223 304.198ZM25.9649 204.809C21.5762 204.389 17.3276 204.061 12.9214 204.301C9.30285 204.502 7.70268 205.503 6.98889 206.883C6.6202 207.595 6.45986 208.457 6.42926 209.469C6.39863 210.482 6.49831 211.61 6.62531 212.844C7.10296 217.482 7.66889 221.574 8.55719 226.288C8.88043 228.008 9.16292 228.882 9.69598 229.486C10.2325 230.095 11.0725 230.488 12.7194 231.069C15.3154 231.986 17.733 232.746 20.6031 233.514L21.3043 233.701L5.57654 251.635L11.2175 256.715C15.5857 256.502 18.3574 256.113 21.0199 255.412C23.3249 254.805 25.5533 253.964 28.6791 252.783C29.0502 252.643 29.4339 252.498 29.8319 252.349L26.7306 248.614L47.6713 226.639L47.674 226.636C47.8027 226.503 47.9295 226.373 48.0544 226.244C49.418 224.838 50.5493 223.672 51.3877 222.633C52.3071 221.493 52.8187 220.57 52.924 219.723C53.025 218.91 52.7594 218.083 51.9117 217.103C51.0532 216.11 49.63 215 47.4965 213.651C40.8414 209.439 33.5659 205.537 25.9649 204.809ZM34.2072 217.695L15.781 218.324L5.91107 218.414L5.91931 219.293L15.8006 219.203L34.22 218.574L52.2402 218.679L52.2455 217.801L34.2072 217.695ZM20.2907 232.755C26.4018 232.347 30.3206 231.978 34.0959 231.016C37.8673 230.055 41.5142 228.496 47.0675 225.683L47.4523 226.508C41.8826 229.33 38.1686 230.922 34.305 231.907C30.4453 232.891 26.455 233.263 20.347 233.671L20.2907 232.755ZM25.9081 200.122L26.5576 204.021L25.7334 204.173L25.0839 200.274L25.9081 200.122ZM32.683 240.772L33.0726 243.103L32.2485 243.256L31.8589 240.924L32.683 240.772ZM16.1719 196.927L17.0953 203.169L16.4209 203.317L15.4976 197.074L16.1719 196.927ZM-590.679 196.927L-583.654 210.945L-584.619 211.305L-591.643 197.287L-590.679 196.927ZM33.582 243.256C34.9186 244.177 36.8961 245.469 39.2664 247.019C40.0558 247.535 40.8889 248.08 41.7564 248.648C45.2239 250.922 49.2325 253.577 53.1759 256.329C57.1184 259.081 61.0016 261.933 64.2173 264.602C67.4212 267.261 70.003 269.77 71.3024 271.835L71.4183 272.02L71.3458 272.225C70.0735 275.83 69.3044 278.951 68.417 282.696C62.4901 307.776 57.962 330.942 56.1668 355.085L55.2706 355.019C57.0709 330.807 61.6111 307.587 67.5425 282.488C68.4137 278.812 69.1791 275.7 70.4252 272.134C69.1708 270.231 66.7443 267.868 63.6439 265.295C60.4559 262.649 56.5956 259.813 52.662 257.068C48.7295 254.323 44.7297 251.674 41.2641 249.401C40.4018 248.836 39.5721 248.294 38.7845 247.779C36.4105 246.227 34.419 244.925 33.0726 243.998L33.582 243.256ZM-285.804 238.463L-284.923 238.623L-287.129 250.98L-243.854 319.169L-225.761 335.239L-226.354 335.915L-244.541 319.761L-288.073 251.168L-285.804 238.463ZM-288.073 240.306L-288.968 240.061L-292.969 251.942L-326.338 249.334L-326.418 250.174L-292.294 252.841L-288.073 240.306ZM-292.125 252.841L-248.197 320.715L-233.75 333.647L-234.337 334.317L-248.873 321.305L-292.866 253.331L-292.125 252.841ZM-300.855 252.841L-260.051 322.222L-254.52 323.134L-295.405 253.275L-300.855 252.841ZM-256.257 321.923L-295.921 254.15L-299.21 253.888L-259.513 321.386L-256.257 321.923ZM-209.979 213.692C-211.705 214.623 -213.501 215.5 -215.296 216.378C-215.655 216.553 -216.015 216.729 -216.374 216.905C-218.529 217.963 -220.669 219.038 -222.7 220.233C-226.732 222.605 -230.309 225.432 -232.699 229.479L-232.825 232.599L-226.201 240.263C-223.217 243.715 -221.618 245.591 -220.365 247.678C-219.112 249.764 -218.212 252.052 -216.591 256.309C-210.12 273.311 -203.887 290.467 -197.667 307.589C-195.109 314.63 -192.553 321.665 -189.984 328.681L-189.962 328.742L-189.013 343.847L-189.922 343.902L-190.863 328.926C-193.426 321.926 -195.976 314.908 -198.527 307.886C-204.746 290.767 -210.975 273.621 -217.444 256.626C-219.072 252.35 -219.945 250.142 -221.149 248.136C-222.353 246.13 -223.895 244.316 -226.893 240.847L-233.75 232.915L-233.6 229.221L-233.544 229.125C-231.044 224.839 -227.295 221.889 -223.166 219.461C-221.103 218.247 -218.936 217.159 -216.779 216.1C-216.417 215.922 -216.056 215.746 -215.695 215.569C-213.9 214.692 -212.124 213.824 -210.415 212.902L-209.979 213.692ZM-549.932 203.317L-550.801 203.536L-549.556 208.496L-591.643 227.335L-591.403 227.763C-590.751 228.928 -590.17 229.937 -589.654 230.831C-589.578 230.962 -589.504 231.091 -589.431 231.217C-589.006 231.952 -588.628 232.605 -588.292 233.204C-587.503 234.609 -586.953 235.697 -586.568 236.803C-585.802 239.005 -585.674 241.329 -585.766 246.435L-584.871 246.451C-584.779 241.359 -584.896 238.882 -585.722 236.508C-586.134 235.325 -586.716 234.181 -587.511 232.765C-587.851 232.16 -588.232 231.501 -588.656 230.766C-588.729 230.641 -588.803 230.512 -588.878 230.382C-589.33 229.601 -589.829 228.734 -590.382 227.752L-548.504 209.007L-549.932 203.317ZM-590.632 227.28L-602.827 218.365L-602.24 217.695L-590.045 226.61L-590.632 227.28ZM-352.038 205.459C-353.192 205.386 -354.34 205.313 -355.484 205.24C-425.263 200.8 -477.267 197.491 -548.374 208.11L-548.504 207.215C-477.304 196.582 -425.219 199.896 -355.454 204.335C-354.302 204.409 -353.144 204.482 -351.982 204.556L-352.038 205.459ZM-305.648 164.254C-340.737 175.25 -373.848 188.617 -407.554 203.317L-407.903 202.474C-374.183 187.768 -341.04 174.387 -305.908 163.378L-305.648 164.254ZM-591.361 225.683L-591.643 226.582L-533.565 246.01C-533.626 245.996 -533.687 245.981 -533.747 245.967C-551.872 241.685 -565.058 238.57 -585.657 240.85L-585.559 241.789C-565.121 239.527 -552.084 242.606 -533.968 246.885C-530.837 247.624 -527.554 248.399 -524.055 249.189L-514.952 251.244L-591.361 225.683ZM-537.403 256.324L-537.204 256.037L-505.365 266.903L-505.667 267.762L-536.837 257.124C-537.298 257.815 -537.616 258.384 -537.802 258.868C-538.011 259.414 -538.038 259.815 -537.944 260.142C-537.849 260.47 -537.614 260.795 -537.152 261.15C-536.688 261.506 -536.027 261.868 -535.137 262.273L-512.074 272.785L-512.46 273.61L-535.524 263.098C-536.433 262.684 -537.17 262.288 -537.719 261.867C-538.271 261.443 -538.664 260.968 -538.831 260.39C-538.997 259.812 -538.916 259.202 -538.664 258.547C-538.415 257.896 -537.984 257.166 -537.403 256.324ZM-584.437 244.854C-581.327 256.013 -578.885 266.718 -576.389 277.666C-575.627 281.005 -574.86 284.367 -574.068 287.771L-574.893 287.988C-575.687 284.575 -576.455 281.207 -577.218 277.864C-579.713 266.921 -582.148 256.245 -585.252 245.11L-584.437 244.854ZM-587.723 275.207C-586.634 276.64 -585.878 277.725 -585.264 278.61L-585.226 278.665C-584.628 279.525 -584.173 280.181 -583.666 280.794C-582.644 282.031 -581.397 283.113 -578.339 285.251L-578.337 285.252L-535.722 314.393L-536.236 315.146L-578.856 286.001L-578.858 286C-581.933 283.851 -583.263 282.711 -584.368 281.375C-584.899 280.732 -585.374 280.048 -585.961 279.203L-586.011 279.13C-586.624 278.249 -587.37 277.177 -588.447 275.76L-587.723 275.207ZM-535.948 315.146C-559.074 309.397 -589.757 300.88 -609.218 287.082L-608.682 286.39C-589.384 300.073 -558.873 308.558 -535.722 314.313L-535.948 315.146ZM-568.314 334.768C-578.195 327.689 -583.292 322.572 -590.647 315.188C-591.959 313.871 -593.343 312.481 -594.838 310.996L-594.219 310.354C-592.719 311.844 -591.332 313.236 -590.019 314.554C-582.5 322.103 -577.39 327.234 -567.115 334.525L-558.462 332.771L-535.722 348.695L-582.25 337.593L-568.314 334.768ZM-540.085 346.731L-558.656 333.727L-578.083 337.664L-540.085 346.731ZM-580.881 337.512C-581.135 337.37 -581.39 337.229 -581.644 337.087C-588.59 333.216 -595.702 329.251 -599.632 321.979L-598.857 321.537C-595.056 328.572 -588.154 332.421 -581.139 336.333C-580.912 336.459 -580.686 336.585 -580.459 336.712L-580.881 337.512ZM81.0017 383.841L-379.144 382.819L-379.141 382.244L81.0048 383.266L81.0017 383.841ZM-208.469 237.148L-208.321 236.866L-158.656 242.963L-158.681 243.392C-158.831 245.989 -159.207 248.114 -160.364 249.5C-161.557 250.932 -163.475 251.464 -166.385 251.163L-205.137 247.154C-206.395 247.024 -207.4 246.611 -208.154 245.966C-208.907 245.321 -209.38 244.47 -209.611 243.513C-210.07 241.616 -209.588 239.287 -208.469 237.148ZM-161.07 248.915C-160.179 247.846 -159.794 246.146 -159.626 243.768L-207.797 237.854C-208.746 239.786 -209.088 241.764 -208.717 243.299C-208.524 244.096 -208.141 244.769 -207.555 245.271C-206.968 245.773 -206.148 246.129 -205.042 246.243L-166.29 250.251C-163.508 250.539 -161.977 250.001 -161.07 248.915ZM-324.821 250.471L-394.85 272.012L-395.121 271.188L-325.092 249.646L-324.821 250.471ZM-380.742 291.183L-377.051 377.451L-356.007 375.58L-349.485 360.749L-342.75 343.559C-342.051 341.777 -341.523 340.403 -341.194 339.253C-340.864 338.096 -340.728 337.136 -340.833 336.179C-340.937 335.224 -341.278 334.309 -341.842 333.238C-342.404 332.171 -343.204 330.921 -344.243 329.299C-350.929 318.876 -357.783 309.89 -365.346 300.038C-366.75 298.209 -368.031 297.008 -369.501 296.054C-370.962 295.107 -372.594 294.416 -374.668 293.593L-380.742 291.183ZM-352.888 366.258L-375.017 376.369L-356.615 374.733L-352.888 366.258ZM10.6436 376.33L-100.51 377.995L10.5006 379.629C11.4643 379.643 12.3219 379.664 13.096 379.683C15.6761 379.746 17.3296 379.786 18.8961 379.474C20.8974 379.076 22.763 378.096 26.2165 375.716L42.7754 364.303L25.5706 373.252C22.4983 374.85 20.4584 375.604 18.3197 375.962C16.538 376.261 14.6947 376.282 12.1574 376.311C11.6789 376.316 11.1757 376.322 10.6436 376.33ZM-564.596 177.756C-574.336 176.38 -583.894 174.605 -593.451 172.831C-600.283 171.562 -607.114 170.294 -614.011 169.171L-613.88 168.171C-606.939 169.301 -600.097 170.571 -593.265 171.84C-583.732 173.611 -574.219 175.378 -564.481 176.753L-564.596 177.756ZM-537.47 348.695C-550.934 346.672 -568.008 343.089 -580.459 338.235L-580.097 337.512C-567.746 342.327 -550.756 345.897 -537.32 347.916L-537.47 348.695ZM-333.464 341.745C-334.349 341.719 -335.09 342.541 -335.112 343.573C-335.135 344.599 -334.427 345.464 -333.539 345.489L-312.982 346.06C-312.099 346.086 -311.356 345.263 -311.333 344.236C-311.314 343.204 -312.023 342.341 -312.906 342.316L-333.464 341.745ZM-336.004 343.547C-335.97 341.946 -334.823 340.668 -333.442 340.708L-312.884 341.279C-311.508 341.319 -310.411 342.658 -310.442 344.26L-310.442 344.261C-310.476 345.86 -311.628 347.136 -313.004 347.097L-333.562 346.526C-334.94 346.486 -336.039 345.148 -336.004 343.547ZM272.416 257.634C231.134 241.335 200.797 233.784 157.696 224.999L157.868 224.085C200.995 232.875 231.386 240.439 272.733 256.763L272.416 257.634ZM-203.71 240.247L-203.554 240.061L-163.449 244.847L-163.512 245.282C-163.724 246.747 -164.113 247.996 -165.151 248.781C-166.186 249.563 -167.75 249.799 -170.075 249.554L-201.316 246.246C-203.314 246.035 -204.533 245.214 -204.887 243.982C-205.227 242.797 -204.701 241.429 -203.71 240.247ZM-165.7 248.1C-165.033 247.596 -164.681 246.787 -164.466 245.597L-203.168 240.978C-203.961 241.997 -204.243 243 -204.027 243.75C-203.811 244.501 -203.032 245.196 -201.219 245.387L-169.978 248.695C-167.713 248.934 -166.45 248.667 -165.7 248.1ZM231.893 337.512C231.893 297.436 197.975 264.918 156.098 264.918C114.222 264.918 80.3043 297.436 80.3043 337.512C80.3043 377.588 114.222 410.106 156.098 410.106C197.975 410.106 231.893 377.588 231.893 337.512ZM156.098 264.024C198.437 264.024 232.79 296.91 232.79 337.512C232.79 378.115 198.437 411 156.098 411C113.76 411 79.407 378.115 79.407 337.512C79.407 296.91 113.76 264.024 156.098 264.024ZM219.108 337.512C219.108 302.712 190.541 274.5 155.3 274.5C120.058 274.5 91.4909 302.712 91.4909 337.512C91.4909 372.312 120.058 400.525 155.3 400.525C190.541 400.525 219.108 372.312 219.108 337.512ZM155.3 273.61C191.036 273.61 220.008 302.219 220.008 337.512C220.008 372.805 191.036 401.415 155.3 401.415C119.563 401.415 90.5911 372.805 90.5911 337.512C90.5911 302.219 119.563 273.61 155.3 273.61ZM154.895 281.741L159.049 281.598L128.832 289.301L109.239 306.987L113.291 302.13C116.736 297.999 120.756 294.366 125.229 291.353L127.937 289.529L127.746 289.578L128.214 289.342L130.468 287.824L129.505 288.693L131.441 287.72C138.535 284.154 146.482 282.031 154.895 281.741ZM136.671 286.376L149.637 283.071C145.123 283.656 140.779 284.78 136.671 286.376ZM171.234 283.105L177.615 285.607C182.241 287.42 186.569 289.821 190.506 292.719L193.037 294.583L192.971 294.482L193.231 294.726L196.033 296.789L194.572 295.982L195.705 297.044C202.231 303.16 207.307 310.8 210.363 319.398L211.61 322.906L193.605 295.449L171.234 283.105ZM198.251 300.904L207.858 315.554C205.435 310.162 202.178 305.224 198.251 300.904ZM102.875 321.052L104.033 317.444L101.467 351.025L100.873 347.256C100.416 344.36 100.178 341.388 100.178 338.365C100.178 332.329 101.123 326.508 102.875 321.052ZM101.222 342.516L102.503 325.756C101.565 329.808 101.07 334.029 101.07 338.365C101.07 339.761 101.121 341.145 101.222 342.516ZM213.542 332.078L213.612 337.59C213.692 343.776 212.791 349.896 210.887 355.784L209.861 358.956L209.899 358.909L209.823 359.073L209.217 360.947L209.343 360.109L208.393 362.157C204.401 370.761 198.31 378.198 190.778 383.81L187.896 385.958L209.437 359.477L213.542 332.078ZM103.152 353.505C104.72 359.066 107.127 364.271 110.231 368.981L109.487 369.477C106.333 364.692 103.887 359.401 102.294 353.75L103.152 353.505ZM193.541 380.436C198.392 376.217 202.507 371.174 205.667 365.529L193.541 380.436ZM122.748 383.609L119.812 381.395L150.452 394.473L176.629 391.872L170.541 393.374C166.169 394.453 161.6 395.024 156.897 395.024C156.076 395.024 155.26 395.008 154.447 394.973L151.307 394.837L151.414 394.884L151.064 394.827L148.153 394.701L149.472 394.57L147.795 394.3C138.493 392.799 129.953 389.042 122.748 383.609ZM126.871 385.383C131.966 388.635 137.624 391.085 143.668 392.552L126.871 385.383ZM159.508 343.902L156.099 346.433L166.174 375.069L197.956 387.037L198.271 386.184L166.883 374.365L157.172 346.766L159.412 345.104L171.188 357.236L195.706 365.542L216.812 359.266L216.558 358.393L195.724 364.588L171.68 356.443L159.508 343.902ZM220.008 328.465L196.835 358.298L218.479 352.433L218.73 353.297L194.444 359.878L219.263 327.927L220.008 328.465ZM193.681 308.306L194.555 286.39L195.464 286.426L194.578 308.639L179.644 327.185L165.105 332.927L165.657 336.217L193.916 338.174L214.49 311.213L215.215 311.759L194.343 339.11L164.877 337.069L164.087 332.356L179.084 326.434L193.681 308.306ZM171.248 275.207L188.87 304.259L190.346 284.066L191.249 284.134L189.565 307.159L170.478 275.692L171.248 275.207ZM149.915 273.61L149.199 274.14L167.875 300.428L157.813 325.369L154.931 325.101L154.082 308.79L137.482 289.164L122.874 283.21L122.546 284.049L136.954 289.921L153.214 309.147L154.088 325.929L158.383 326.329L168.88 300.306L149.915 273.61ZM132.835 295.298L116.599 287.236L116.958 286.39L135.328 295.512L102.006 305.561L101.775 304.665L132.835 295.298ZM123.189 313.549L93.7867 322.066L94.0212 322.947L123.018 314.547L142.322 329.066L141.52 332.412L127.219 330.312L106.494 336.991L94.0494 354.542L94.754 355.085L107.027 337.776L127.291 331.245L142.178 333.432L143.317 328.687L123.189 313.549ZM109.764 343.902L95.3844 359.496L96.0851 360.072L108.824 346.258L108.665 380.643L109.595 380.646L109.764 343.902ZM144.278 342.305L122.96 359.745L120.948 391.442L121.874 391.496L123.862 360.177L144.29 343.465L147.452 345.948L139.876 358.87L141.258 382.25L152.088 401.415L152.903 400.99L142.172 382.001L140.818 359.08L148.643 345.733L144.278 342.305ZM146.512 382.244L157.547 401.415L158.342 400.958L148.586 384.011L181.337 396.44L181.662 395.584L146.512 382.244ZM155.204 349.494C155.204 347.772 153.812 346.385 152.104 346.385C150.396 346.385 149.004 347.772 149.004 349.494C149.004 351.216 150.396 352.602 152.104 352.602C153.812 352.602 155.204 351.216 155.204 349.494ZM152.104 345.5C154.316 345.5 156.099 347.293 156.099 349.494C156.099 351.695 154.316 353.488 152.104 353.488C149.893 353.488 148.11 351.695 148.11 349.494C148.11 347.293 149.893 345.5 152.104 345.5ZM169.584 341.506C169.584 339.784 168.192 338.398 166.484 338.398C164.776 338.398 163.384 339.784 163.384 341.506C163.384 343.228 164.776 344.615 166.484 344.615C168.192 344.615 169.584 343.228 169.584 341.506ZM166.484 337.512C168.696 337.512 170.478 339.305 170.478 341.506C170.478 343.707 168.696 345.5 166.484 345.5C164.272 345.5 162.49 343.707 162.49 341.506C162.49 339.305 164.272 337.512 166.484 337.512ZM166.388 327.128C166.388 325.406 164.996 324.02 163.288 324.02C161.58 324.02 160.188 325.406 160.188 327.128C160.188 328.85 161.58 330.237 163.288 330.237C164.996 330.237 166.388 328.85 166.388 327.128ZM163.288 323.134C165.5 323.134 167.283 324.927 167.283 327.128C167.283 329.329 165.5 331.122 163.288 331.122C161.077 331.122 159.294 329.329 159.294 327.128C159.294 324.927 161.077 323.134 163.288 323.134ZM150.411 323.933C150.411 322.211 149.019 320.824 147.311 320.824C145.603 320.824 144.211 322.211 144.211 323.933C144.211 325.655 145.603 327.042 147.311 327.042C149.019 327.042 150.411 325.655 150.411 323.933ZM147.311 319.939C149.523 319.939 151.305 321.732 151.305 323.933C151.305 326.134 149.523 327.927 147.311 327.927C145.099 327.927 143.317 326.134 143.317 323.933C143.317 321.732 145.099 319.939 147.311 319.939ZM142.601 338.311C142.601 336.589 141.487 335.202 140.121 335.202C138.755 335.202 137.641 336.589 137.641 338.311C137.641 340.033 138.755 341.42 140.121 341.42C141.487 341.42 142.601 340.033 142.601 338.311ZM140.121 334.317C141.89 334.317 143.317 336.11 143.317 338.311C143.317 340.512 141.89 342.305 140.121 342.305C138.352 342.305 136.926 340.512 136.926 338.311C136.926 336.11 138.352 334.317 140.121 334.317ZM-378.443 337.512C-378.443 297.436 -412.361 264.918 -454.237 264.918C-496.114 264.918 -530.032 297.436 -530.032 337.512C-530.032 377.588 -496.114 410.106 -454.237 410.106C-412.361 410.106 -378.443 377.588 -378.443 337.512ZM-454.237 264.024C-411.899 264.024 -377.546 296.91 -377.546 337.512C-377.546 378.115 -411.899 411 -454.237 411C-496.576 411 -530.929 378.115 -530.929 337.512C-530.929 296.91 -496.576 264.024 -454.237 264.024ZM-391.217 337.512C-391.217 302.712 -419.431 274.5 -454.237 274.5C-489.044 274.5 -517.258 302.712 -517.258 337.512C-517.258 372.312 -489.044 400.525 -454.237 400.525C-419.431 400.525 -391.217 372.312 -391.217 337.512ZM-454.237 273.61C-418.942 273.61 -390.328 302.219 -390.328 337.512C-390.328 372.805 -418.942 401.415 -454.237 401.415C-489.533 401.415 -518.147 372.805 -518.147 337.512C-518.147 302.219 -489.533 273.61 -454.237 273.61ZM-456.268 281.741L-452.055 281.598L-482.698 289.301L-502.567 306.988L-498.458 302.13C-494.964 297.999 -490.888 294.367 -486.352 291.353L-483.606 289.529L-483.8 289.578L-483.325 289.343L-481.039 287.824L-482.016 288.694L-480.053 287.72C-472.859 284.154 -464.799 282.031 -456.268 281.741ZM-474.749 286.376L-461.6 283.071C-466.177 283.656 -470.583 284.78 -474.749 286.376ZM-439.702 283.102L-433.231 285.604C-428.54 287.417 -424.152 289.818 -420.159 292.716L-417.592 294.58L-417.659 294.479L-417.395 294.723L-414.554 296.786L-416.035 295.98L-414.886 297.042C-408.269 303.158 -403.121 310.797 -400.022 319.396L-398.758 322.904L-417.016 295.446L-439.702 283.102ZM-412.305 300.901L-402.563 315.552C-405.02 310.159 -408.323 305.222 -412.305 300.901ZM-509.021 321.053L-507.847 317.445L-510.448 351.027L-511.051 347.258C-511.515 344.362 -511.756 341.393 -511.756 338.367C-511.756 332.33 -510.797 326.51 -509.021 321.053ZM-510.697 342.518L-509.398 325.758C-510.349 329.809 -510.851 334.031 -510.851 338.367C-510.851 339.763 -510.799 341.148 -510.697 342.518ZM-396.795 332.079L-396.724 337.591C-396.643 343.777 -397.557 349.898 -399.488 355.786L-400.528 358.958L-400.491 358.913L-400.565 359.072L-401.181 360.949L-401.053 360.11L-402.017 362.159C-406.065 370.766 -412.242 378.201 -419.879 383.813L-422.803 385.961L-400.958 359.479L-396.795 332.079ZM-508.739 353.507C-507.15 359.068 -504.709 364.274 -501.562 368.983L-502.316 369.479C-505.514 364.694 -507.995 359.403 -509.61 353.752L-508.739 353.507ZM-417.078 380.439C-412.158 376.22 -407.984 371.177 -404.779 365.529L-417.078 380.439ZM-488.868 383.609L-491.845 381.394L-460.774 394.473L-434.238 391.872L-440.405 393.374C-444.836 394.453 -449.468 395.024 -454.238 395.024C-455.071 395.024 -455.898 395.008 -456.722 394.973L-459.907 394.837L-459.798 394.884L-460.153 394.827L-463.104 394.701L-461.768 394.57L-463.468 394.3C-472.901 392.799 -481.561 389.042 -488.868 383.609ZM-484.687 385.383C-479.52 388.635 -473.782 391.085 -467.653 392.552L-484.687 385.383ZM-450.824 343.902L-454.238 346.433L-444.159 375.066L-412.38 387.037L-412.065 386.184L-443.45 374.362L-453.163 346.766L-450.921 345.103L-439.145 357.236L-414.63 365.542L-393.523 359.266L-393.778 358.393L-414.612 364.588L-438.653 356.442L-450.824 343.902ZM-390.328 328.465L-413.502 358.298L-391.861 352.436L-391.609 353.301L-415.892 359.878L-391.073 327.927L-390.328 328.465ZM-416.655 308.306L-415.785 286.39L-414.875 286.426L-415.758 308.639L-430.695 327.182L-445.231 332.926L-444.679 336.217L-416.42 338.174L-395.846 311.213L-395.121 311.759L-415.992 339.11L-445.459 337.069L-446.249 332.356L-431.255 326.431L-416.655 308.306ZM-439.088 275.207L-421.466 304.259L-419.99 284.065L-419.087 284.133L-420.771 307.159L-439.858 275.691L-439.088 275.207ZM-461.073 273.61L-461.814 274.14L-442.496 300.43L-452.902 325.37L-455.884 325.104L-456.762 308.792L-473.935 289.165L-489.048 283.208L-489.388 284.046L-474.482 289.922L-457.66 309.149L-456.756 325.933L-452.313 326.329L-441.456 300.308L-461.073 273.61ZM-477.619 295.298L-494.629 287.236L-494.253 286.39L-475.008 295.512L-509.916 305.561L-510.158 304.665L-477.619 295.298ZM-486.196 313.549L-516.549 322.07L-516.307 322.95L-486.373 314.547L-466.448 329.069L-467.274 332.412L-482.036 330.312L-503.432 336.995L-516.281 354.542L-515.554 355.085L-502.881 337.779L-481.962 331.245L-466.593 333.432L-465.422 328.69L-486.196 313.549ZM-500.572 343.902L-514.952 359.337L-514.251 359.908L-501.512 346.235L-501.674 380.643L-500.745 380.646L-500.572 343.902ZM-467.228 342.305L-487.477 359.745L-489.388 391.439L-488.508 391.493L-486.62 360.177L-467.216 343.465L-464.212 345.948L-471.406 358.87L-470.094 382.25L-459.805 401.415L-459.031 400.99L-469.225 382.001L-470.512 359.08L-463.081 345.733L-467.228 342.305ZM-463.824 382.244L-452.789 401.415L-451.994 400.958L-461.75 384.011L-428.999 396.44L-428.674 395.584L-463.824 382.244ZM-456.551 349.494C-456.551 347.772 -457.665 346.385 -459.031 346.385C-460.396 346.385 -461.511 347.772 -461.511 349.494C-461.511 351.216 -460.396 352.602 -459.031 352.602C-457.665 352.602 -456.551 351.216 -456.551 349.494ZM-459.031 345.5C-457.262 345.5 -455.835 347.293 -455.835 349.494C-455.835 351.695 -457.262 353.488 -459.031 353.488C-460.799 353.488 -462.226 351.695 -462.226 349.494C-462.226 347.293 -460.799 345.5 -459.031 345.5ZM-440.752 341.506C-440.752 339.784 -442.144 338.398 -443.852 338.398C-445.56 338.398 -446.952 339.784 -446.952 341.506C-446.952 343.228 -445.56 344.615 -443.852 344.615C-442.144 344.615 -440.752 343.228 -440.752 341.506ZM-443.852 337.512C-441.641 337.512 -439.858 339.305 -439.858 341.506C-439.858 343.707 -441.641 345.5 -443.852 345.5C-446.064 345.5 -447.847 343.707 -447.847 341.506C-447.847 339.305 -446.064 337.512 -443.852 337.512ZM-443.948 327.128C-443.948 325.406 -445.34 324.02 -447.048 324.02C-448.756 324.02 -450.147 325.406 -450.147 327.128C-450.147 328.85 -448.756 330.237 -447.048 330.237C-445.34 330.237 -443.948 328.85 -443.948 327.128ZM-447.048 323.134C-444.836 323.134 -443.053 324.927 -443.053 327.128C-443.053 329.329 -444.836 331.122 -447.048 331.122C-449.259 331.122 -451.042 329.329 -451.042 327.128C-451.042 324.927 -449.259 323.134 -447.048 323.134ZM-459.925 323.933C-459.925 322.211 -461.318 320.824 -463.025 320.824C-464.732 320.824 -466.125 322.211 -466.125 323.933C-466.125 325.655 -464.732 327.042 -463.025 327.042C-461.318 327.042 -459.925 325.655 -459.925 323.933ZM-463.025 319.939C-460.814 319.939 -459.031 321.732 -459.031 323.933C-459.031 326.134 -460.814 327.927 -463.025 327.927C-465.236 327.927 -467.019 326.134 -467.019 323.933C-467.019 321.732 -465.236 319.939 -463.025 319.939ZM-467.735 338.311C-467.735 336.592 -468.849 335.202 -470.215 335.202C-471.581 335.202 -472.695 336.589 -472.695 338.311C-472.695 340.033 -471.581 341.42 -470.215 341.42C-468.849 341.42 -467.735 340.033 -467.735 338.311ZM-470.215 334.317C-468.445 334.317 -467.019 336.113 -467.019 338.311C-467.019 340.512 -468.446 342.305 -470.215 342.305C-471.984 342.305 -473.41 340.512 -473.41 338.311C-473.41 336.11 -471.984 334.317 -470.215 334.317Z" stroke="url(#paint1_linear)" stroke-miterlimit="22.9256" stroke-linecap="round"/>
</g>
<defs>
<linearGradient id="paint0_linear" x1="384" y1="7.26088e-07" x2="396.176" y2="395.625" gradientUnits="userSpaceOnUse">
<stop stop-color="#879766"/>
<stop offset="1" stop-color="#2C5718"/>
</linearGradient>
<linearGradient id="paint1_linear" x1="-127.5" y1="149" x2="-127.5" y2="411" gradientUnits="userSpaceOnUse">
<stop stop-color="#E14B51"/>
<stop offset="1" stop-color="#5A81EA"/>
</linearGradient>
</defs>
</svg>
