<svg width="384" height="204" viewBox="0 0 384 204" fill="none" xmlns="http://www.w3.org/2000/svg">
<mask id="mask0" mask-type="alpha" maskUnits="userSpaceOnUse" x="0" y="0" width="384" height="204">
<rect width="384" height="204" rx="16" fill="url(#paint0_linear)"/>
</mask>
<g mask="url(#mask0)">
<path fill-rule="evenodd" clip-rule="evenodd" d="M258.393 158.3L258.359 158.266L258.323 158.3L258.359 158.335L258.393 158.3Z" fill="white" fill-opacity="0.07"/>
<path fill-rule="evenodd" clip-rule="evenodd" d="M236.891 188.274L236.788 188.169L236.684 188.274L236.788 188.375L236.891 188.274Z" fill="white" fill-opacity="0.07"/>
<path fill-rule="evenodd" clip-rule="evenodd" d="M248.289 48.48L248.254 48.4428L248.219 48.48L248.254 48.5156L248.289 48.48Z" fill="white" fill-opacity="0.07"/>
<path fill-rule="evenodd" clip-rule="evenodd" d="M254.406 55.4711L254.369 55.4385L254.336 55.4711L254.369 55.5083L254.406 55.4711Z" fill="white" fill-opacity="0.07"/>
<path fill-rule="evenodd" clip-rule="evenodd" d="M259.867 62.9834L259.834 62.9494L259.797 62.9834L259.834 63.019L259.867 62.9834Z" fill="white" fill-opacity="0.07"/>
<path fill-rule="evenodd" clip-rule="evenodd" d="M264.633 70.9599L264.598 70.9245L264.563 70.9599L264.598 70.9922L264.633 70.9599Z" fill="white" fill-opacity="0.07"/>
<path fill-rule="evenodd" clip-rule="evenodd" d="M268.773 79.3229L268.634 79.1848L268.496 79.3229L268.634 79.4609L268.773 79.3229Z" fill="white" fill-opacity="0.07"/>
<path fill-rule="evenodd" clip-rule="evenodd" d="M272.005 88.0147L271.899 87.9104L271.796 88.0147L271.899 88.1206L272.005 88.0147Z" fill="white" fill-opacity="0.07"/>
<path fill-rule="evenodd" clip-rule="evenodd" d="M274.477 96.9684L274.372 96.8671L274.27 96.9684L274.372 97.0742L274.477 96.9684Z" fill="white" fill-opacity="0.07"/>
<path fill-rule="evenodd" clip-rule="evenodd" d="M276.133 106.105L276.03 106.001L275.926 106.105L276.03 106.211L276.133 106.105Z" fill="white" fill-opacity="0.07"/>
<path fill-rule="evenodd" clip-rule="evenodd" d="M276.969 115.353L276.868 115.25L276.762 115.353L276.868 115.457L276.969 115.353Z" fill="white" fill-opacity="0.07"/>
<path fill-rule="evenodd" clip-rule="evenodd" d="M276.969 124.639L276.868 124.535L276.762 124.639L276.868 124.742L276.969 124.639Z" fill="white" fill-opacity="0.07"/>
<path fill-rule="evenodd" clip-rule="evenodd" d="M276.133 133.887L276.03 133.781L275.926 133.887L276.03 133.988L276.133 133.887Z" fill="white" fill-opacity="0.07"/>
<path fill-rule="evenodd" clip-rule="evenodd" d="M274.477 143.024L274.372 142.918L274.27 143.024L274.372 143.125L274.477 143.024Z" fill="white" fill-opacity="0.07"/>
<path fill-rule="evenodd" clip-rule="evenodd" d="M272.006 151.977L271.9 151.871L271.797 151.977L271.9 152.078L272.006 151.977Z" fill="white" fill-opacity="0.07"/>
<path fill-rule="evenodd" clip-rule="evenodd" d="M268.839 160.668L268.632 160.461L268.426 160.668L268.632 160.875L268.839 160.668Z" fill="white" fill-opacity="0.07"/>
<path fill-rule="evenodd" clip-rule="evenodd" d="M264.737 169.034L264.599 168.899L264.461 169.034L264.599 169.172L264.737 169.034Z" fill="white" fill-opacity="0.07"/>
<path fill-rule="evenodd" clip-rule="evenodd" d="M260.038 177.008L259.834 176.801L259.625 177.008L259.834 177.215L260.038 177.008Z" fill="white" fill-opacity="0.07"/>
<path fill-rule="evenodd" clip-rule="evenodd" d="M254.473 184.52L254.368 184.414L254.265 184.52L254.368 184.622L254.473 184.52Z" fill="white" fill-opacity="0.07"/>
<path fill-rule="evenodd" clip-rule="evenodd" d="M248.493 191.51L248.251 191.268L248.009 191.51L248.251 191.754L248.493 191.51Z" fill="white" fill-opacity="0.07"/>
<path fill-rule="evenodd" clip-rule="evenodd" d="M241.773 197.928L241.532 197.686L241.29 197.928L241.532 198.167L241.773 197.928Z" fill="white" fill-opacity="0.07"/>
<path fill-rule="evenodd" clip-rule="evenodd" d="M234.364 203.721L234.262 203.617L234.16 203.721L234.262 203.824L234.364 203.721Z" fill="white" fill-opacity="0.07"/>
<path fill-rule="evenodd" clip-rule="evenodd" d="M173.405 6.1591L173.371 6.12524L173.336 6.1591L173.371 6.19141L173.405 6.1591Z" fill="white" fill-opacity="0.07"/>
<path fill-rule="evenodd" clip-rule="evenodd" d="M182.694 6.53501L182.659 6.50122L182.625 6.53501L182.659 6.57031L182.694 6.53501Z" fill="white" fill-opacity="0.07"/>
<path fill-rule="evenodd" clip-rule="evenodd" d="M191.921 7.67108L191.886 7.63388L191.852 7.67108L191.886 7.70361L191.921 7.67108Z" fill="white" fill-opacity="0.07"/>
<path fill-rule="evenodd" clip-rule="evenodd" d="M201.027 9.55136L200.991 9.51572L200.957 9.55136L200.991 9.58545L201.027 9.55136Z" fill="white" fill-opacity="0.07"/>
<path fill-rule="evenodd" clip-rule="evenodd" d="M209.943 12.1667L209.907 12.1295L209.871 12.1667L209.907 12.1992L209.943 12.1667Z" fill="white" fill-opacity="0.07"/>
<path fill-rule="evenodd" clip-rule="evenodd" d="M218.621 15.5018L218.585 15.4662L218.551 15.5018L218.585 15.5391L218.621 15.5018Z" fill="white" fill-opacity="0.07"/>
<path fill-rule="evenodd" clip-rule="evenodd" d="M226.994 19.5292L226.958 19.4967L226.926 19.5292L226.958 19.5664L226.994 19.5292Z" fill="white" fill-opacity="0.07"/>
<path fill-rule="evenodd" clip-rule="evenodd" d="M235.015 24.2258L234.981 24.1922L234.949 24.2258L234.981 24.2578L235.015 24.2258Z" fill="white" fill-opacity="0.07"/>
<path fill-rule="evenodd" clip-rule="evenodd" d="M242.625 29.5644L242.589 29.5318L242.555 29.5644L242.589 29.6016L242.625 29.5644Z" fill="white" fill-opacity="0.07"/>
<path fill-rule="evenodd" clip-rule="evenodd" d="M249.947 35.5014L249.739 35.2912L249.535 35.5014L249.739 35.707L249.947 35.5014Z" fill="white" fill-opacity="0.07"/>
<path fill-rule="evenodd" clip-rule="evenodd" d="M256.415 41.9993L256.381 41.9655L256.347 41.9993L256.381 42.0347L256.415 41.9993Z" fill="white" fill-opacity="0.07"/>
<path fill-rule="evenodd" clip-rule="evenodd" d="M262.604 49.0177L262.467 48.8795L262.329 49.0177L262.467 49.1558L262.604 49.0177Z" fill="white" fill-opacity="0.07"/>
<path fill-rule="evenodd" clip-rule="evenodd" d="M268.167 56.5116L267.962 56.3044L267.755 56.5116L267.962 56.7188L268.167 56.5116Z" fill="white" fill-opacity="0.07"/>
<path fill-rule="evenodd" clip-rule="evenodd" d="M273.033 64.4217L272.827 64.2115L272.621 64.4217L272.827 64.6289L273.033 64.4217Z" fill="white" fill-opacity="0.07"/>
<path fill-rule="evenodd" clip-rule="evenodd" d="M277.171 72.7057L277.033 72.5676L276.895 72.7057L277.033 72.8438L277.171 72.7057Z" fill="white" fill-opacity="0.07"/>
<path fill-rule="evenodd" clip-rule="evenodd" d="M280.889 81.3032C280.889 81.1144 280.735 80.9595 280.545 80.9595C280.354 80.9595 280.199 81.1144 280.199 81.3032C280.199 81.495 280.354 81.6484 280.545 81.6484C280.735 81.6484 280.889 81.495 280.889 81.3032Z" fill="white" fill-opacity="0.07"/>
<path fill-rule="evenodd" clip-rule="evenodd" d="M283.689 90.1563C283.689 89.9645 283.536 89.811 283.347 89.811C283.155 89.811 283.001 89.9645 283.001 90.1563C283.001 90.345 283.155 90.5 283.347 90.5C283.536 90.5 283.689 90.345 283.689 90.1563Z" fill="white" fill-opacity="0.07"/>
<path fill-rule="evenodd" clip-rule="evenodd" d="M285.829 99.2107C285.829 98.9837 285.642 98.798 285.415 98.798C285.187 98.798 285 98.9837 285 99.2107C285 99.4409 285.187 99.625 285.415 99.625C285.642 99.625 285.829 99.4409 285.829 99.2107Z" fill="white" fill-opacity="0.07"/>
<path fill-rule="evenodd" clip-rule="evenodd" d="M287.049 108.403C287.049 108.233 286.91 108.095 286.738 108.095C286.568 108.095 286.43 108.233 286.43 108.403C286.43 108.578 286.568 108.715 286.738 108.715C286.91 108.715 287.049 108.578 287.049 108.403Z" fill="white" fill-opacity="0.07"/>
<path fill-rule="evenodd" clip-rule="evenodd" d="M287.651 117.67C287.651 117.482 287.494 117.33 287.305 117.33C287.113 117.33 286.961 117.482 286.961 117.67C286.961 117.862 287.113 118.016 287.305 118.016C287.494 118.016 287.651 117.862 287.651 117.67Z" fill="white" fill-opacity="0.07"/>
<path fill-rule="evenodd" clip-rule="evenodd" d="M287.427 126.957C287.427 126.787 287.287 126.649 287.115 126.649C286.943 126.649 286.805 126.787 286.805 126.957C286.805 127.128 286.943 127.266 287.115 127.266C287.287 127.266 287.427 127.128 287.427 126.957Z" fill="white" fill-opacity="0.07"/>
<path fill-rule="evenodd" clip-rule="evenodd" d="M286.518 136.191C286.518 136.003 286.361 135.849 286.172 135.849C285.983 135.849 285.828 136.003 285.828 136.191C285.828 136.383 285.983 136.535 286.172 136.535C286.361 136.535 286.518 136.383 286.518 136.191Z" fill="white" fill-opacity="0.07"/>
<path fill-rule="evenodd" clip-rule="evenodd" d="M284.994 145.325C284.994 145.04 284.76 144.81 284.475 144.81C284.189 144.81 283.957 145.04 283.957 145.325C283.957 145.612 284.189 145.844 284.475 145.844C284.76 145.844 284.994 145.612 284.994 145.325Z" fill="white" fill-opacity="0.07"/>
<path fill-rule="evenodd" clip-rule="evenodd" d="M282.657 154.289C282.657 153.947 282.377 153.668 282.036 153.668C281.694 153.668 281.414 153.947 281.414 154.289C281.414 154.63 281.694 154.906 282.036 154.906C282.377 154.906 282.657 154.63 282.657 154.289Z" fill="white" fill-opacity="0.07"/>
<path fill-rule="evenodd" clip-rule="evenodd" d="M279.493 163.021C279.493 162.679 279.217 162.401 278.873 162.401C278.532 162.401 278.254 162.679 278.254 163.021C278.254 163.363 278.532 163.641 278.873 163.641C279.217 163.641 279.493 163.363 279.493 163.021Z" fill="white" fill-opacity="0.07"/>
<path fill-rule="evenodd" clip-rule="evenodd" d="M275.36 171.473C275.36 171.284 275.208 171.127 275.016 171.127C274.825 171.127 274.672 171.284 274.672 171.473C274.672 171.665 274.825 171.816 275.016 171.816C275.208 171.816 275.36 171.665 275.36 171.473Z" fill="white" fill-opacity="0.07"/>
<path fill-rule="evenodd" clip-rule="evenodd" d="M270.924 179.57C270.924 179.325 270.724 179.124 270.475 179.124C270.228 179.124 270.027 179.325 270.027 179.57C270.027 179.819 270.228 180.02 270.475 180.02C270.724 180.02 270.924 179.819 270.924 179.57Z" fill="white" fill-opacity="0.07"/>
<path fill-rule="evenodd" clip-rule="evenodd" d="M265.707 187.281C265.707 187.051 265.521 186.868 265.291 186.868C265.063 186.868 264.879 187.051 264.879 187.281C264.879 187.51 265.063 187.695 265.291 187.695C265.521 187.695 265.707 187.51 265.707 187.281Z" fill="white" fill-opacity="0.07"/>
<path fill-rule="evenodd" clip-rule="evenodd" d="M259.91 194.54C259.91 194.312 259.724 194.129 259.495 194.129C259.268 194.129 259.082 194.312 259.082 194.54C259.082 194.771 259.268 194.953 259.495 194.953C259.724 194.953 259.91 194.771 259.91 194.54Z" fill="white" fill-opacity="0.07"/>
<path fill-rule="evenodd" clip-rule="evenodd" d="M253.575 201.307C253.575 201.059 253.376 200.858 253.127 200.858C252.879 200.858 252.68 201.059 252.68 201.307C252.68 201.553 252.879 201.754 253.127 201.754C253.376 201.754 253.575 201.553 253.575 201.307Z" fill="white" fill-opacity="0.07"/>
<path fill-rule="evenodd" clip-rule="evenodd" d="M154.889 7.67108L154.854 7.63388L154.82 7.67108L154.854 7.70361L154.889 7.67108Z" fill="white" fill-opacity="0.07"/>
<path fill-rule="evenodd" clip-rule="evenodd" d="M164.112 6.53501L164.078 6.50122L164.043 6.53501L164.078 6.57031L164.112 6.53501Z" fill="white" fill-opacity="0.07"/>
<path fill-rule="evenodd" clip-rule="evenodd" d="M210.05 1.32514L210.014 1.29263L209.98 1.32514L210.014 1.3623L210.05 1.32514Z" fill="white" fill-opacity="0.07"/>
<path fill-rule="evenodd" clip-rule="evenodd" d="M218.822 4.39646L218.786 4.36398L218.754 4.39646L218.786 4.43359L218.822 4.39646Z" fill="white" fill-opacity="0.07"/>
<path fill-rule="evenodd" clip-rule="evenodd" d="M227.346 8.10734L227.313 8.0748L227.277 8.10734L227.313 8.14453L227.346 8.10734Z" fill="white" fill-opacity="0.07"/>
<path fill-rule="evenodd" clip-rule="evenodd" d="M235.566 12.4433L235.53 12.4108L235.496 12.4433L235.53 12.4805L235.566 12.4433Z" fill="white" fill-opacity="0.07"/>
<path fill-rule="evenodd" clip-rule="evenodd" d="M243.505 17.3881L243.402 17.287L243.301 17.3881L243.402 17.4922L243.505 17.3881Z" fill="white" fill-opacity="0.07"/>
<path fill-rule="evenodd" clip-rule="evenodd" d="M251.017 22.9041L250.88 22.766L250.742 22.9041L250.88 23.0391L251.017 22.9041Z" fill="white" fill-opacity="0.07"/>
<path fill-rule="evenodd" clip-rule="evenodd" d="M258.171 28.9599L257.927 28.7175L257.688 28.9599L257.927 29.1992L258.171 28.9599Z" fill="white" fill-opacity="0.07"/>
<path fill-rule="evenodd" clip-rule="evenodd" d="M264.744 35.5232L264.503 35.2838L264.262 35.5232L264.503 35.7656L264.744 35.5232Z" fill="white" fill-opacity="0.07"/>
<path fill-rule="evenodd" clip-rule="evenodd" d="M270.775 42.5658L270.567 42.3586L270.36 42.5658L270.567 42.7729L270.775 42.5658Z" fill="white" fill-opacity="0.07"/>
<path fill-rule="evenodd" clip-rule="evenodd" d="M276.296 50.0372L276.088 49.8301L275.882 50.0372L276.088 50.2412L276.296 50.0372Z" fill="white" fill-opacity="0.07"/>
<path fill-rule="evenodd" clip-rule="evenodd" d="M281.757 57.9028C281.757 57.5008 281.433 57.1786 281.033 57.1786C280.636 57.1786 280.312 57.5008 280.312 57.9028C280.312 58.3017 280.636 58.6255 281.033 58.6255C281.433 58.6255 281.757 58.3017 281.757 57.9028Z" fill="white" fill-opacity="0.07"/>
<path fill-rule="evenodd" clip-rule="evenodd" d="M285.896 66.1095C285.896 65.8242 285.664 65.594 285.379 65.594C285.094 65.594 284.863 65.8242 284.863 66.1095C284.863 66.3964 285.094 66.625 285.379 66.625C285.664 66.625 285.896 66.3964 285.896 66.1095Z" fill="white" fill-opacity="0.07"/>
<path fill-rule="evenodd" clip-rule="evenodd" d="M289.408 74.6252C289.408 74.4533 289.267 74.3137 289.095 74.3137C288.924 74.3137 288.786 74.4533 288.786 74.6252C288.786 74.7955 288.924 74.9336 289.095 74.9336C289.267 74.9336 289.408 74.7955 289.408 74.6252Z" fill="white" fill-opacity="0.07"/>
<path fill-rule="evenodd" clip-rule="evenodd" d="M292.617 83.3933C292.617 83.1433 292.417 82.9438 292.168 82.9438C291.919 82.9438 291.72 83.1433 291.72 83.3933C291.72 83.6388 291.919 83.8398 292.168 83.8398C292.417 83.8398 292.617 83.6388 292.617 83.3933Z" fill="white" fill-opacity="0.07"/>
<path fill-rule="evenodd" clip-rule="evenodd" d="M295.126 92.3622C295.126 92.0568 294.879 91.8144 294.575 91.8144C294.269 91.8144 294.023 92.0568 294.023 92.3622C294.023 92.6675 294.269 92.9146 294.575 92.9146C294.879 92.9146 295.126 92.6675 295.126 92.3622Z" fill="white" fill-opacity="0.07"/>
<path fill-rule="evenodd" clip-rule="evenodd" d="M296.853 101.487C296.853 101.184 296.607 100.936 296.301 100.936C295.996 100.936 295.75 101.184 295.75 101.487C295.75 101.79 295.996 102.039 296.301 102.039C296.607 102.039 296.853 101.79 296.853 101.487Z" fill="white" fill-opacity="0.07"/>
<path fill-rule="evenodd" clip-rule="evenodd" d="M297.758 110.718C297.758 110.487 297.572 110.305 297.344 110.305C297.116 110.305 296.93 110.487 296.93 110.718C296.93 110.946 297.116 111.129 297.344 111.129C297.572 111.129 297.758 110.946 297.758 110.718Z" fill="white" fill-opacity="0.07"/>
<path fill-rule="evenodd" clip-rule="evenodd" d="M298.105 119.996C298.105 119.772 297.919 119.582 297.691 119.582C297.463 119.582 297.277 119.772 297.277 119.996C297.277 120.226 297.463 120.41 297.691 120.41C297.919 120.41 298.105 120.226 298.105 119.996Z" fill="white" fill-opacity="0.07"/>
<path fill-rule="evenodd" clip-rule="evenodd" d="M297.96 129.275C297.96 128.932 297.682 128.655 297.341 128.655C296.998 128.655 296.719 128.932 296.719 129.275C296.719 129.618 296.998 129.895 297.341 129.895C297.682 129.895 297.96 129.618 297.96 129.275Z" fill="white" fill-opacity="0.07"/>
<path fill-rule="evenodd" clip-rule="evenodd" d="M296.82 138.504C296.82 138.217 296.585 137.987 296.3 137.987C296.015 137.987 295.781 138.217 295.781 138.504C295.781 138.789 296.015 139.02 296.3 139.02C296.585 139.02 296.82 138.789 296.82 138.504Z" fill="white" fill-opacity="0.07"/>
<path fill-rule="evenodd" clip-rule="evenodd" d="M295.228 147.633C295.228 147.269 294.935 146.979 294.574 146.979C294.211 146.979 293.918 147.269 293.918 147.633C293.918 147.992 294.211 148.285 294.574 148.285C294.935 148.285 295.228 147.992 295.228 147.633Z" fill="white" fill-opacity="0.07"/>
<path fill-rule="evenodd" clip-rule="evenodd" d="M293.064 156.6C293.064 156.106 292.665 155.704 292.169 155.704C291.674 155.704 291.273 156.106 291.273 156.6C291.273 157.096 291.674 157.496 292.169 157.496C292.665 157.496 293.064 157.096 293.064 156.6Z" fill="white" fill-opacity="0.07"/>
<path fill-rule="evenodd" clip-rule="evenodd" d="M289.958 165.367C289.958 164.894 289.572 164.507 289.095 164.507C288.621 164.507 288.234 164.894 288.234 165.367C288.234 165.844 288.621 166.23 289.095 166.23C289.572 166.23 289.958 165.844 289.958 165.367Z" fill="white" fill-opacity="0.07"/>
<path fill-rule="evenodd" clip-rule="evenodd" d="M286 173.872C286 173.532 285.721 173.256 285.38 173.256C285.037 173.256 284.758 173.532 284.758 173.872C284.758 174.218 285.037 174.492 285.38 174.492C285.721 174.492 286 174.218 286 173.872Z" fill="white" fill-opacity="0.07"/>
<path fill-rule="evenodd" clip-rule="evenodd" d="M281.931 182.089C281.931 181.594 281.53 181.193 281.034 181.193C280.539 181.193 280.137 181.594 280.137 182.089C280.137 182.583 280.539 182.985 281.034 182.985C281.53 182.985 281.931 182.583 281.931 182.089Z" fill="white" fill-opacity="0.07"/>
<path fill-rule="evenodd" clip-rule="evenodd" d="M276.711 189.95C276.711 189.608 276.435 189.329 276.091 189.329C275.748 189.329 275.469 189.608 275.469 189.95C275.469 190.294 275.748 190.57 276.091 190.57C276.435 190.57 276.711 190.294 276.711 189.95Z" fill="white" fill-opacity="0.07"/>
<path fill-rule="evenodd" clip-rule="evenodd" d="M271.325 197.424C271.325 197.004 270.987 196.666 270.567 196.666C270.148 196.666 269.809 197.004 269.809 197.424C269.809 197.843 270.148 198.179 270.567 198.179C270.987 198.179 271.325 197.843 271.325 197.424Z" fill="white" fill-opacity="0.07"/>
<path fill-rule="evenodd" clip-rule="evenodd" d="M265.159 204.465C265.159 204.101 264.865 203.808 264.504 203.808C264.141 203.808 263.848 204.101 263.848 204.465C263.848 204.824 264.141 205.117 264.504 205.117C264.865 205.117 265.159 204.824 265.159 204.465Z" fill="white" fill-opacity="0.07"/>
<path fill-rule="evenodd" clip-rule="evenodd" d="M76.2066 197.424L76.1709 197.387L76.1367 197.424L76.1709 197.457L76.2066 197.424Z" fill="white" fill-opacity="0.07"/>
<path fill-rule="evenodd" clip-rule="evenodd" d="M70.6831 189.952L70.6505 189.915L70.6133 189.952L70.6505 189.984L70.6831 189.952Z" fill="white" fill-opacity="0.07"/>
<path fill-rule="evenodd" clip-rule="evenodd" d="M65.7441 182.089L65.7084 182.055L65.6758 182.089L65.7084 182.125L65.7441 182.089Z" fill="white" fill-opacity="0.07"/>
<path fill-rule="evenodd" clip-rule="evenodd" d="M57.6727 165.365L57.6391 165.333L57.6055 165.365L57.6391 165.398L57.6727 165.365Z" fill="white" fill-opacity="0.07"/>
<path fill-rule="evenodd" clip-rule="evenodd" d="M235.994 0.872227L235.961 0.83667L235.925 0.872227L235.961 0.90625L235.994 0.872227Z" fill="white" fill-opacity="0.07"/>
<path fill-rule="evenodd" clip-rule="evenodd" d="M244.14 5.46797L244.039 5.36359L243.933 5.46797L244.039 5.5708L244.14 5.46797Z" fill="white" fill-opacity="0.07"/>
<path fill-rule="evenodd" clip-rule="evenodd" d="M251.984 10.6132L251.78 10.406L251.571 10.6132L251.78 10.8203L251.984 10.6132Z" fill="white" fill-opacity="0.07"/>
<path fill-rule="evenodd" clip-rule="evenodd" d="M259.355 16.2733L259.147 16.0677L258.941 16.2733L259.147 16.4805L259.355 16.2733Z" fill="white" fill-opacity="0.07"/>
<path fill-rule="evenodd" clip-rule="evenodd" d="M266.347 22.4334L266.108 22.1941L265.863 22.4334L266.108 22.6758L266.347 22.4334Z" fill="white" fill-opacity="0.07"/>
<path fill-rule="evenodd" clip-rule="evenodd" d="M272.831 29.0585L272.624 28.8529L272.418 29.0585L272.624 29.2656L272.831 29.0585Z" fill="white" fill-opacity="0.07"/>
<path fill-rule="evenodd" clip-rule="evenodd" d="M279.115 36.1116C279.115 35.8661 278.919 35.6651 278.668 35.6651C278.421 35.6651 278.22 35.8661 278.22 36.1116C278.22 36.3571 278.421 36.5581 278.668 36.5581C278.919 36.5581 279.115 36.3571 279.115 36.1116Z" fill="white" fill-opacity="0.07"/>
<path fill-rule="evenodd" clip-rule="evenodd" d="M284.865 43.5699C284.865 43.2108 284.572 42.9178 284.211 42.9178C283.847 42.9178 283.555 43.2108 283.555 43.5699C283.555 43.9335 283.847 44.2266 284.211 44.2266C284.572 44.2266 284.865 43.9335 284.865 43.5699Z" fill="white" fill-opacity="0.07"/>
<path fill-rule="evenodd" clip-rule="evenodd" d="M290.361 51.388C290.361 50.762 289.851 50.2526 289.223 50.2526C288.594 50.2526 288.086 50.762 288.086 51.388C288.086 52.014 288.594 52.5234 289.223 52.5234C289.851 52.5234 290.361 52.014 290.361 51.388Z" fill="white" fill-opacity="0.07"/>
<path fill-rule="evenodd" clip-rule="evenodd" d="M294.824 59.5394C294.824 58.9088 294.316 58.3994 293.687 58.3994C293.061 58.3994 292.551 58.9088 292.551 59.5394C292.551 60.1654 293.061 60.6748 293.687 60.6748C294.316 60.6748 294.824 60.1654 294.824 59.5394Z" fill="white" fill-opacity="0.07"/>
<path fill-rule="evenodd" clip-rule="evenodd" d="M298.334 67.9803C298.334 67.5599 297.995 67.2223 297.577 67.2223C297.159 67.2223 296.816 67.5599 296.816 67.9803C296.816 68.3961 297.159 68.7383 297.577 68.7383C297.995 68.7383 298.334 68.3961 298.334 67.9803Z" fill="white" fill-opacity="0.07"/>
<path fill-rule="evenodd" clip-rule="evenodd" d="M301.665 76.6629C301.665 76.2256 301.31 75.8681 300.871 75.8681C300.431 75.8681 300.078 76.2256 300.078 76.6629C300.078 77.0971 300.431 77.4531 300.871 77.4531C301.31 77.4531 301.665 77.0971 301.665 76.6629Z" fill="white" fill-opacity="0.07"/>
<path fill-rule="evenodd" clip-rule="evenodd" d="M304.215 85.5503C304.215 85.1898 303.923 84.8967 303.559 84.8967C303.198 84.8967 302.906 85.1898 302.906 85.5503C302.906 85.9124 303.198 86.207 303.559 86.207C303.923 86.207 304.215 85.9124 304.215 85.5503Z" fill="white" fill-opacity="0.07"/>
<path fill-rule="evenodd" clip-rule="evenodd" d="M306.077 94.6012C306.077 94.3557 305.876 94.1547 305.628 94.1547C305.381 94.1547 305.18 94.3557 305.18 94.6012C305.18 94.8498 305.381 95.0508 305.628 95.0508C305.876 95.0508 306.077 94.8498 306.077 94.6012Z" fill="white" fill-opacity="0.07"/>
<path fill-rule="evenodd" clip-rule="evenodd" d="M307.793 103.776C307.793 103.377 307.469 103.053 307.071 103.053C306.67 103.053 306.348 103.377 306.348 103.776C306.348 104.176 306.67 104.5 307.071 104.5C307.469 104.5 307.793 104.176 307.793 103.776Z" fill="white" fill-opacity="0.07"/>
<path fill-rule="evenodd" clip-rule="evenodd" d="M308.421 113.031C308.421 112.726 308.172 112.48 307.868 112.48C307.564 112.48 307.316 112.726 307.316 113.031C307.316 113.333 307.564 113.582 307.868 113.582C308.172 113.582 308.421 113.333 308.421 113.031Z" fill="white" fill-opacity="0.07"/>
<path fill-rule="evenodd" clip-rule="evenodd" d="M308.581 122.316C308.581 122.013 308.334 121.764 308.03 121.764C307.724 121.764 307.477 122.013 307.477 122.316C307.477 122.622 307.724 122.867 308.03 122.867C308.334 122.867 308.581 122.622 308.581 122.316Z" fill="white" fill-opacity="0.07"/>
<path fill-rule="evenodd" clip-rule="evenodd" d="M308.273 131.592C308.273 131.193 307.947 130.87 307.548 130.87C307.148 130.87 306.824 131.193 306.824 131.592C306.824 131.993 307.148 132.316 307.548 132.316C307.947 132.316 308.273 131.993 308.273 131.592Z" fill="white" fill-opacity="0.07"/>
<path fill-rule="evenodd" clip-rule="evenodd" d="M307.327 140.81C307.327 140.316 306.926 139.914 306.431 139.914C305.935 139.914 305.536 140.316 305.536 140.81C305.536 141.306 305.935 141.703 306.431 141.703C306.926 141.703 307.327 141.306 307.327 140.81Z" fill="white" fill-opacity="0.07"/>
<path fill-rule="evenodd" clip-rule="evenodd" d="M305.43 149.933C305.43 149.516 305.091 149.175 304.673 149.175C304.254 149.175 303.914 149.516 303.914 149.933C303.914 150.352 304.254 150.691 304.673 150.691C305.091 150.691 305.43 150.352 305.43 149.933Z" fill="white" fill-opacity="0.07"/>
<path fill-rule="evenodd" clip-rule="evenodd" d="M303.499 158.909C303.499 158.244 302.958 157.704 302.292 157.704C301.627 157.704 301.086 158.244 301.086 158.909C301.086 159.575 301.627 160.113 302.292 160.113C302.958 160.113 303.499 159.575 303.499 158.909Z" fill="white" fill-opacity="0.07"/>
<path fill-rule="evenodd" clip-rule="evenodd" d="M300.781 167.702C300.781 166.885 300.118 166.222 299.299 166.222C298.48 166.222 297.817 166.885 297.817 167.702C297.817 168.52 298.48 169.183 299.299 169.183C300.118 169.183 300.781 168.52 300.781 167.702Z" fill="white" fill-opacity="0.07"/>
<path fill-rule="evenodd" clip-rule="evenodd" d="M296.907 176.268C296.907 175.602 296.366 175.061 295.7 175.061C295.034 175.061 294.492 175.602 294.492 176.268C294.492 176.933 295.034 177.473 295.7 177.473C296.366 177.473 296.907 176.933 296.907 176.268Z" fill="white" fill-opacity="0.07"/>
<path fill-rule="evenodd" clip-rule="evenodd" d="M292.729 184.562C292.729 183.896 292.189 183.358 291.524 183.358C290.856 183.358 290.316 183.896 290.316 184.562C290.316 185.231 290.856 185.77 291.524 185.77C292.189 185.77 292.729 185.231 292.729 184.562Z" fill="white" fill-opacity="0.07"/>
<path fill-rule="evenodd" clip-rule="evenodd" d="M288.131 192.549C288.131 191.809 287.527 191.206 286.787 191.206C286.042 191.206 285.441 191.809 285.441 192.549C285.441 193.292 286.042 193.895 286.787 193.895C287.527 193.895 288.131 193.292 288.131 192.549Z" fill="white" fill-opacity="0.07"/>
<path fill-rule="evenodd" clip-rule="evenodd" d="M283.158 200.197C283.158 199.284 282.417 198.543 281.502 198.543C280.588 198.543 279.848 199.284 279.848 200.197C279.848 201.108 280.588 201.853 281.502 201.853C282.417 201.853 283.158 201.108 283.158 200.197Z" fill="white" fill-opacity="0.07"/>
<path fill-rule="evenodd" clip-rule="evenodd" d="M65.273 200.196L65.2373 200.161L65.2031 200.196L65.2373 200.23L65.273 200.196Z" fill="white" fill-opacity="0.07"/>
<path fill-rule="evenodd" clip-rule="evenodd" d="M59.9872 192.554L59.9534 192.522L59.918 192.554L59.9534 192.59L59.9872 192.554Z" fill="white" fill-opacity="0.07"/>
<path fill-rule="evenodd" clip-rule="evenodd" d="M55.2495 184.563L55.2141 184.531L55.1787 184.563L55.2141 184.598L55.2495 184.563Z" fill="white" fill-opacity="0.07"/>
<path fill-rule="evenodd" clip-rule="evenodd" d="M51.0714 176.265L51.0357 176.228L51 176.265L51.0357 176.297L51.0714 176.265Z" fill="white" fill-opacity="0.07"/>
<path fill-rule="evenodd" clip-rule="evenodd" d="M260.254 3.88147L260.117 3.74341L259.98 3.88147L260.117 4.01953L260.254 3.88147Z" fill="white" fill-opacity="0.07"/>
<path fill-rule="evenodd" clip-rule="evenodd" d="M267.596 9.67429L267.392 9.47025L267.183 9.67429L267.392 9.87988L267.596 9.67429Z" fill="white" fill-opacity="0.07"/>
<path fill-rule="evenodd" clip-rule="evenodd" d="M274.717 15.9207C274.717 15.6721 274.516 15.4742 274.269 15.4742C274.022 15.4742 273.82 15.6721 273.82 15.9207C273.82 16.1662 274.022 16.3672 274.269 16.3672C274.516 16.3672 274.717 16.1662 274.717 15.9207Z" fill="white" fill-opacity="0.07"/>
<path fill-rule="evenodd" clip-rule="evenodd" d="M281.361 22.5911C281.361 22.249 281.084 21.9698 280.742 21.9698C280.399 21.9698 280.121 22.249 280.121 22.5911C280.121 22.9348 280.399 23.2109 280.742 23.2109C281.084 23.2109 281.361 22.9348 281.361 22.5911Z" fill="white" fill-opacity="0.07"/>
<path fill-rule="evenodd" clip-rule="evenodd" d="M287.216 29.6629C287.216 29.4143 287.015 29.2164 286.769 29.2164C286.522 29.2164 286.32 29.4143 286.32 29.6629C286.32 29.9084 286.522 30.1094 286.769 30.1094C287.015 30.1094 287.216 29.9084 287.216 29.6629Z" fill="white" fill-opacity="0.07"/>
<path fill-rule="evenodd" clip-rule="evenodd" d="M293.055 37.1069C293.055 36.7049 292.731 36.3812 292.33 36.3812C291.93 36.3812 291.605 36.7049 291.605 37.1069C291.605 37.5044 291.93 37.8281 292.33 37.8281C292.731 37.8281 293.055 37.5044 293.055 37.1069Z" fill="white" fill-opacity="0.07"/>
<path fill-rule="evenodd" clip-rule="evenodd" d="M298.397 44.8854C298.397 44.3331 297.95 43.8865 297.398 43.8865C296.845 43.8865 296.398 44.3331 296.398 44.8854C296.398 45.4363 296.845 45.8828 297.398 45.8828C297.95 45.8828 298.397 45.4363 298.397 44.8854Z" fill="white" fill-opacity="0.07"/>
<path fill-rule="evenodd" clip-rule="evenodd" d="M303.343 52.98C303.343 52.219 302.727 51.6053 301.964 51.6053C301.202 51.6053 300.586 52.219 300.586 52.98C300.586 53.741 301.202 54.3594 301.964 54.3594C302.727 54.3594 303.343 53.741 303.343 52.98Z" fill="white" fill-opacity="0.07"/>
<path fill-rule="evenodd" clip-rule="evenodd" d="M306.997 61.3483C306.997 60.7975 306.55 60.3479 305.997 60.3479C305.444 60.3479 304.997 60.7975 304.997 61.3483C304.997 61.9007 305.444 62.3472 305.997 62.3472C306.55 62.3472 306.997 61.9007 306.997 61.3483Z" fill="white" fill-opacity="0.07"/>
<path fill-rule="evenodd" clip-rule="evenodd" d="M310.968 69.9608C310.968 69.1415 310.302 68.4802 309.486 68.4802C308.667 68.4802 308.004 69.1415 308.004 69.9608C308.004 70.7786 308.667 71.4414 309.486 71.4414C310.302 71.4414 310.968 70.7786 310.968 69.9608Z" fill="white" fill-opacity="0.07"/>
<path fill-rule="evenodd" clip-rule="evenodd" d="M313.896 78.7771C313.896 77.9593 313.231 77.2964 312.412 77.2964C311.593 77.2964 310.93 77.9593 310.93 78.7771C310.93 79.5919 311.593 80.2578 312.412 80.2578C313.231 80.2578 313.896 79.5919 313.896 78.7771Z" fill="white" fill-opacity="0.07"/>
<path fill-rule="evenodd" clip-rule="evenodd" d="M315.669 87.7524C315.669 87.2583 315.268 86.8563 314.774 86.8563C314.277 86.8563 313.875 87.2583 313.875 87.7524C313.875 88.248 314.277 88.6484 314.774 88.6484C315.268 88.6484 315.669 88.248 315.669 87.7524Z" fill="white" fill-opacity="0.07"/>
<path fill-rule="evenodd" clip-rule="evenodd" d="M317.516 96.8698C317.516 96.3389 317.085 95.9047 316.552 95.9047C316.019 95.9047 315.587 96.3389 315.587 96.8698C315.587 97.4023 316.019 97.835 316.552 97.835C317.085 97.835 317.516 97.4023 317.516 96.8698Z" fill="white" fill-opacity="0.07"/>
<path fill-rule="evenodd" clip-rule="evenodd" d="M318.875 106.087C318.875 105.46 318.368 104.95 317.738 104.95C317.112 104.95 316.602 105.46 316.602 106.087C316.602 106.716 317.112 107.223 317.738 107.223C318.368 107.223 318.875 106.716 318.875 106.087Z" fill="white" fill-opacity="0.07"/>
<path fill-rule="evenodd" clip-rule="evenodd" d="M319.129 115.349C319.129 114.911 318.774 114.558 318.337 114.558C317.899 114.558 317.544 114.911 317.544 115.349C317.544 115.787 317.899 116.14 318.337 116.14C318.774 116.14 319.129 115.787 319.129 115.349Z" fill="white" fill-opacity="0.07"/>
<path fill-rule="evenodd" clip-rule="evenodd" d="M319.435 124.639C319.435 124.031 318.943 123.537 318.333 123.537C317.724 123.537 317.23 124.031 317.23 124.639C317.23 125.248 317.724 125.742 318.333 125.742C318.943 125.742 319.435 125.248 319.435 124.639Z" fill="white" fill-opacity="0.07"/>
<path fill-rule="evenodd" clip-rule="evenodd" d="M318.984 133.906C318.984 133.22 318.426 132.666 317.741 132.666C317.056 132.666 316.5 133.22 316.5 133.906C316.5 134.591 317.056 135.145 317.741 135.145C318.426 135.145 318.984 134.591 318.984 133.906Z" fill="white" fill-opacity="0.07"/>
<path fill-rule="evenodd" clip-rule="evenodd" d="M317.791 143.121C317.791 142.435 317.235 141.881 316.55 141.881C315.863 141.881 315.309 142.435 315.309 143.121C315.309 143.805 315.863 144.359 316.55 144.359C317.235 144.359 317.791 143.805 317.791 143.121Z" fill="white" fill-opacity="0.07"/>
<path fill-rule="evenodd" clip-rule="evenodd" d="M316.084 152.231C316.084 151.508 315.498 150.923 314.774 150.923C314.051 150.923 313.465 151.508 313.465 152.231C313.465 152.955 314.051 153.54 314.774 153.54C315.498 153.54 316.084 152.955 316.084 152.231Z" fill="white" fill-opacity="0.07"/>
<path fill-rule="evenodd" clip-rule="evenodd" d="M314.141 161.215C314.141 160.265 313.368 159.495 312.416 159.495C311.465 159.495 310.692 160.265 310.692 161.215C310.692 162.165 311.465 162.938 312.416 162.938C313.368 162.938 314.141 162.165 314.141 161.215Z" fill="white" fill-opacity="0.07"/>
<path fill-rule="evenodd" clip-rule="evenodd" d="M311.451 170.031C311.451 168.946 310.572 168.069 309.488 168.069C308.402 168.069 307.523 168.946 307.523 170.031C307.523 171.113 308.402 171.992 309.488 171.992C310.572 171.992 311.451 171.113 311.451 170.031Z" fill="white" fill-opacity="0.07"/>
<path fill-rule="evenodd" clip-rule="evenodd" d="M307.618 178.641C307.618 177.748 306.892 177.025 305.998 177.025C305.101 177.025 304.379 177.748 304.379 178.641C304.379 179.537 305.101 180.258 305.998 180.258C306.892 180.258 307.618 179.537 307.618 178.641Z" fill="white" fill-opacity="0.07"/>
<path fill-rule="evenodd" clip-rule="evenodd" d="M304.342 187.01C304.342 185.697 303.278 184.636 301.963 184.636C300.649 184.636 299.585 185.697 299.585 187.01C299.585 188.325 300.649 189.387 301.963 189.387C303.278 189.387 304.342 188.325 304.342 187.01Z" fill="white" fill-opacity="0.07"/>
<path fill-rule="evenodd" clip-rule="evenodd" d="M299.467 195.103C299.467 193.961 298.542 193.036 297.4 193.036C296.258 193.036 295.332 193.961 295.332 195.103C295.332 196.244 296.258 197.168 297.4 197.168C298.542 197.168 299.467 196.244 299.467 195.103Z" fill="white" fill-opacity="0.07"/>
<path fill-rule="evenodd" clip-rule="evenodd" d="M294.5 202.885C294.5 201.687 293.526 200.716 292.328 200.716C291.129 200.716 290.156 201.687 290.156 202.885C290.156 204.085 291.129 205.055 292.328 205.055C293.526 205.055 294.5 204.085 294.5 202.885Z" fill="white" fill-opacity="0.07"/>
<path fill-rule="evenodd" clip-rule="evenodd" d="M276.131 3.0962C276.131 2.81081 275.899 2.58066 275.614 2.58066C275.33 2.58066 275.098 2.81081 275.098 3.0962C275.098 3.38312 275.33 3.61328 275.614 3.61328C275.899 3.61328 276.131 3.38312 276.131 3.0962Z" fill="white" fill-opacity="0.07"/>
<path fill-rule="evenodd" clip-rule="evenodd" d="M282.948 9.41108C282.948 9.12569 282.714 8.89554 282.43 8.89554C282.144 8.89554 281.914 9.12569 281.914 9.41108C281.914 9.698 282.144 9.92969 282.43 9.92969C282.714 9.92969 282.948 9.698 282.948 9.41108Z" fill="white" fill-opacity="0.07"/>
<path fill-rule="evenodd" clip-rule="evenodd" d="M289.717 16.1251C289.717 15.648 289.33 15.2613 288.855 15.2613C288.379 15.2613 287.992 15.648 287.992 16.1251C287.992 16.5977 288.379 16.9844 288.855 16.9844C289.33 16.9844 289.717 16.5977 289.717 16.1251Z" fill="white" fill-opacity="0.07"/>
<path fill-rule="evenodd" clip-rule="evenodd" d="M295.833 23.2098C295.833 22.6759 295.4 22.2448 294.867 22.2448C294.336 22.2448 293.902 22.6759 293.902 23.2098C293.902 23.7407 294.336 24.1719 294.867 24.1719C295.4 24.1719 295.833 23.7407 295.833 23.2098Z" fill="white" fill-opacity="0.07"/>
<path fill-rule="evenodd" clip-rule="evenodd" d="M301.757 30.6435C301.757 29.9177 301.17 29.3331 300.447 29.3331C299.722 29.3331 299.137 29.9177 299.137 30.6435C299.137 31.3646 299.722 31.9492 300.447 31.9492C301.17 31.9492 301.757 31.3646 301.757 30.6435Z" fill="white" fill-opacity="0.07"/>
<path fill-rule="evenodd" clip-rule="evenodd" d="M306.879 38.3923C306.879 37.6711 306.291 37.0865 305.567 37.0865C304.844 37.0865 304.257 37.6711 304.257 38.3923C304.257 39.115 304.844 39.7026 305.567 39.7026C306.291 39.7026 306.879 39.115 306.879 38.3923Z" fill="white" fill-opacity="0.07"/>
<path fill-rule="evenodd" clip-rule="evenodd" d="M312.179 46.436C312.179 45.3543 311.301 44.472 310.215 44.472C309.129 44.472 308.25 45.3543 308.25 46.436C308.25 47.5208 309.129 48.3984 310.215 48.3984C311.301 48.3984 312.179 47.5208 312.179 46.436Z" fill="white" fill-opacity="0.07"/>
<path fill-rule="evenodd" clip-rule="evenodd" d="M316.133 54.7447C316.133 53.7765 315.345 52.9878 314.376 52.9878C313.405 52.9878 312.617 53.7765 312.617 54.7447C312.617 55.7129 313.405 56.5 314.376 56.5C315.345 56.5 316.133 55.7129 316.133 54.7447Z" fill="white" fill-opacity="0.07"/>
<path fill-rule="evenodd" clip-rule="evenodd" d="M319.514 63.281C319.514 62.4632 318.852 61.8004 318.032 61.8004C317.213 61.8004 316.551 62.4632 316.551 63.281C316.551 64.0958 317.213 64.7617 318.032 64.7617C318.852 64.7617 319.514 64.0958 319.514 63.281Z" fill="white" fill-opacity="0.07"/>
<path fill-rule="evenodd" clip-rule="evenodd" d="M322.65 72.0233C322.65 71.2055 321.987 70.5427 321.168 70.5427C320.346 70.5427 319.688 71.2055 319.688 72.0233C319.688 72.8442 320.346 73.5039 321.168 73.5039C321.987 73.5039 322.65 72.8442 322.65 72.0233Z" fill="white" fill-opacity="0.07"/>
<path fill-rule="evenodd" clip-rule="evenodd" d="M325.254 80.9373C325.254 80.1195 324.59 79.4567 323.771 79.4567C322.953 79.4567 322.289 80.1195 322.289 80.9373C322.289 81.7551 322.953 82.418 323.771 82.418C324.59 82.418 325.254 81.7551 325.254 80.9373Z" fill="white" fill-opacity="0.07"/>
<path fill-rule="evenodd" clip-rule="evenodd" d="M327.047 89.9947C327.047 89.3273 326.505 88.7903 325.839 88.7903C325.173 88.7903 324.633 89.3273 324.633 89.9947C324.633 90.6607 325.173 91.1992 325.839 91.1992C326.505 91.1992 327.047 90.6607 327.047 89.9947Z" fill="white" fill-opacity="0.07"/>
<path fill-rule="evenodd" clip-rule="evenodd" d="M328.502 99.1571C328.502 98.528 327.994 98.0217 327.366 98.0217C326.737 98.0217 326.228 98.528 326.228 99.1571C326.228 99.7831 326.737 100.292 327.366 100.292C327.994 100.292 328.502 99.7831 328.502 99.1571Z" fill="white" fill-opacity="0.07"/>
<path fill-rule="evenodd" clip-rule="evenodd" d="M329.58 108.395C329.58 107.709 329.022 107.155 328.337 107.155C327.651 107.155 327.098 107.709 327.098 108.395C327.098 109.079 327.651 109.633 328.337 109.633C329.022 109.633 329.58 109.079 329.58 108.395Z" fill="white" fill-opacity="0.07"/>
<path fill-rule="evenodd" clip-rule="evenodd" d="M330.134 117.672C330.134 116.914 329.516 116.297 328.754 116.297C327.992 116.297 327.375 116.914 327.375 117.672C327.375 118.436 327.992 119.051 328.754 119.051C329.516 119.051 330.134 118.436 330.134 117.672Z" fill="white" fill-opacity="0.07"/>
<path fill-rule="evenodd" clip-rule="evenodd" d="M330.373 126.958C330.373 125.99 329.585 125.204 328.616 125.204C327.643 125.204 326.855 125.99 326.855 126.958C326.855 127.929 327.643 128.715 328.616 128.715C329.585 128.715 330.373 127.929 330.373 126.958Z" fill="white" fill-opacity="0.07"/>
<path fill-rule="evenodd" clip-rule="evenodd" d="M329.676 136.224C329.676 135.252 328.891 134.468 327.919 134.468C326.948 134.468 326.16 135.252 326.16 136.224C326.16 137.195 326.948 137.98 327.919 137.98C328.891 137.98 329.676 137.195 329.676 136.224Z" fill="white" fill-opacity="0.07"/>
<path fill-rule="evenodd" clip-rule="evenodd" d="M328.601 145.425C328.601 144.362 327.739 143.498 326.671 143.498C325.605 143.498 324.742 144.362 324.742 145.425C324.742 146.49 325.605 147.355 326.671 147.355C327.739 147.355 328.601 146.49 328.601 145.425Z" fill="white" fill-opacity="0.07"/>
<path fill-rule="evenodd" clip-rule="evenodd" d="M327.009 154.54C327.009 153.362 326.052 152.406 324.871 152.406C323.693 152.406 322.734 153.362 322.734 154.54C322.734 155.72 323.693 156.676 324.871 156.676C326.052 156.676 327.009 155.72 327.009 154.54Z" fill="white" fill-opacity="0.07"/>
<path fill-rule="evenodd" clip-rule="evenodd" d="M324.671 163.53C324.671 162.35 323.714 161.392 322.533 161.392C321.351 161.392 320.395 162.35 320.395 163.53C320.395 164.708 321.351 165.664 322.533 165.664C323.714 165.664 324.671 164.708 324.671 163.53Z" fill="white" fill-opacity="0.07"/>
<path fill-rule="evenodd" clip-rule="evenodd" d="M322.077 172.36C322.077 171.03 320.997 169.951 319.665 169.951C318.33 169.951 317.25 171.03 317.25 172.36C317.25 173.69 318.33 174.769 319.665 174.769C320.997 174.769 322.077 173.69 322.077 172.36Z" fill="white" fill-opacity="0.07"/>
<path fill-rule="evenodd" clip-rule="evenodd" d="M318.577 181.009C318.577 179.735 317.544 178.701 316.266 178.701C314.992 178.701 313.957 179.735 313.957 181.009C313.957 182.282 314.992 183.316 316.266 183.316C317.544 183.316 318.577 182.282 318.577 181.009Z" fill="white" fill-opacity="0.07"/>
<path fill-rule="evenodd" clip-rule="evenodd" d="M315.046 189.436C315.046 187.952 313.841 186.751 312.356 186.751C310.871 186.751 309.668 187.952 309.668 189.436C309.668 190.92 310.871 192.121 312.356 192.121C313.841 192.121 315.046 190.92 315.046 189.436Z" fill="white" fill-opacity="0.07"/>
<path fill-rule="evenodd" clip-rule="evenodd" d="M310.366 197.612C310.366 196.278 309.284 195.2 307.953 195.2C306.621 195.2 305.538 196.278 305.538 197.612C305.538 198.939 306.621 200.021 307.953 200.021C309.284 200.021 310.366 198.939 310.366 197.612Z" fill="white" fill-opacity="0.07"/>
<path fill-rule="evenodd" clip-rule="evenodd" d="M305.617 205.512C305.617 204.103 304.474 202.962 303.067 202.962C301.657 202.962 300.516 204.103 300.516 205.512C300.516 206.917 301.657 208.059 303.067 208.059C304.474 208.059 305.617 206.917 305.617 205.512Z" fill="white" fill-opacity="0.07"/>
<path fill-rule="evenodd" clip-rule="evenodd" d="M291.722 2.91384C291.722 2.28475 291.212 1.77841 290.583 1.77841C289.954 1.77841 289.445 2.28475 289.445 2.91384C289.445 3.54138 289.954 4.05078 290.583 4.05078C291.212 4.05078 291.722 3.54138 291.722 2.91384Z" fill="white" fill-opacity="0.07"/>
<path fill-rule="evenodd" clip-rule="evenodd" d="M297.828 9.6608C297.828 9.18362 297.444 8.79697 296.967 8.79697C296.492 8.79697 296.106 9.18362 296.106 9.6608C296.106 10.1364 296.492 10.52 296.967 10.52C297.444 10.52 297.828 10.1364 297.828 9.6608Z" fill="white" fill-opacity="0.07"/>
<path fill-rule="evenodd" clip-rule="evenodd" d="M304.689 16.7604C304.689 15.8076 303.918 15.0374 302.967 15.0374C302.013 15.0374 301.242 15.8076 301.242 16.7604C301.242 17.7102 302.013 18.4805 302.967 18.4805C303.918 18.4805 304.689 17.7102 304.689 16.7604Z" fill="white" fill-opacity="0.07"/>
<path fill-rule="evenodd" clip-rule="evenodd" d="M310.279 24.1793C310.279 23.2295 309.509 22.4562 308.554 22.4562C307.603 22.4562 306.832 23.2295 306.832 24.1793C306.832 25.129 307.603 25.9023 308.554 25.9023C309.509 25.9023 310.279 25.129 310.279 24.1793Z" fill="white" fill-opacity="0.07"/>
<path fill-rule="evenodd" clip-rule="evenodd" d="M315.48 31.9014C315.48 30.9301 314.695 30.1445 313.723 30.1445C312.752 30.1445 311.964 30.9301 311.964 31.9014C311.964 32.8727 312.752 33.6567 313.723 33.6567C314.695 33.6567 315.48 32.8727 315.48 31.9014Z" fill="white" fill-opacity="0.07"/>
<path fill-rule="evenodd" clip-rule="evenodd" d="M320.414 39.9009C320.414 38.8161 319.533 37.9354 318.449 37.9354C317.363 37.9354 316.484 38.8161 316.484 39.9009C316.484 40.9826 317.363 41.8633 318.449 41.8633C319.533 41.8633 320.414 40.9826 320.414 39.9009Z" fill="white" fill-opacity="0.07"/>
<path fill-rule="evenodd" clip-rule="evenodd" d="M325.127 48.1496C325.127 46.8193 324.047 45.7361 322.712 45.7361C321.381 45.7361 320.301 46.8193 320.301 48.1496C320.301 49.4799 321.381 50.5586 322.712 50.5586C324.047 50.5586 325.127 49.4799 325.127 48.1496Z" fill="white" fill-opacity="0.07"/>
<path fill-rule="evenodd" clip-rule="evenodd" d="M328.51 56.6335C328.51 55.5303 327.616 54.6342 326.51 54.6342C325.407 54.6342 324.512 55.5303 324.512 56.6335C324.512 57.7367 325.407 58.6328 326.51 58.6328C327.616 58.6328 328.51 57.7367 328.51 56.6335Z" fill="white" fill-opacity="0.07"/>
<path fill-rule="evenodd" clip-rule="evenodd" d="M331.653 65.3078C331.653 64.3013 330.835 63.4835 329.826 63.4835C328.817 63.4835 328 64.3013 328 65.3078C328 66.3189 328.817 67.1367 329.826 67.1367C330.835 67.1367 331.653 66.3189 331.653 65.3078Z" fill="white" fill-opacity="0.07"/>
<path fill-rule="evenodd" clip-rule="evenodd" d="M334.618 74.1578C334.618 73.0699 333.738 72.1923 332.654 72.1923C331.568 72.1923 330.688 73.0699 330.688 74.1578C330.688 75.2395 331.568 76.1172 332.654 76.1172C333.738 76.1172 334.618 75.2395 334.618 74.1578Z" fill="white" fill-opacity="0.07"/>
<path fill-rule="evenodd" clip-rule="evenodd" d="M337.111 83.1478C337.111 81.9709 336.154 81.015 334.976 81.015C333.794 81.015 332.836 81.9709 332.836 83.1478C332.836 84.3292 333.794 85.2852 334.976 85.2852C336.154 85.2852 337.111 84.3292 337.111 83.1478Z" fill="white" fill-opacity="0.07"/>
<path fill-rule="evenodd" clip-rule="evenodd" d="M338.791 92.2586C338.791 91.1554 337.897 90.2594 336.791 90.2594C335.688 90.2594 334.793 91.1554 334.793 92.2586C334.793 93.3618 335.688 94.2578 336.791 94.2578C337.897 94.2578 338.791 93.3618 338.791 92.2586Z" fill="white" fill-opacity="0.07"/>
<path fill-rule="evenodd" clip-rule="evenodd" d="M340.087 101.457C340.087 100.354 339.191 99.458 338.087 99.458C336.982 99.458 336.087 100.354 336.087 101.457C336.087 102.56 336.982 103.457 338.087 103.457C339.191 103.457 340.087 102.56 340.087 101.457Z" fill="white" fill-opacity="0.07"/>
<path fill-rule="evenodd" clip-rule="evenodd" d="M341.179 110.715C341.179 109.438 340.145 108.404 338.869 108.404C337.594 108.404 336.559 109.438 336.559 110.715C336.559 111.988 337.594 113.02 338.869 113.02C340.145 113.02 341.179 111.988 341.179 110.715Z" fill="white" fill-opacity="0.07"/>
<path fill-rule="evenodd" clip-rule="evenodd" d="M341.439 119.998C341.439 118.724 340.405 117.69 339.129 117.69C337.854 117.69 336.82 118.724 336.82 119.998C336.82 121.274 337.854 122.309 339.129 122.309C340.405 122.309 341.439 121.274 341.439 119.998Z" fill="white" fill-opacity="0.07"/>
<path fill-rule="evenodd" clip-rule="evenodd" d="M341.315 129.28C341.315 127.928 340.22 126.834 338.866 126.834C337.515 126.834 336.418 127.928 336.418 129.28C336.418 130.629 337.515 131.723 338.866 131.723C340.22 131.723 341.315 130.629 341.315 129.28Z" fill="white" fill-opacity="0.07"/>
<path fill-rule="evenodd" clip-rule="evenodd" d="M340.468 138.537C340.468 137.225 339.404 136.161 338.089 136.161C336.777 136.161 335.711 137.225 335.711 138.537C335.711 139.849 336.777 140.914 338.089 140.914C339.404 140.914 340.468 139.849 340.468 138.537Z" fill="white" fill-opacity="0.07"/>
<path fill-rule="evenodd" clip-rule="evenodd" d="M339.477 147.733C339.477 146.249 338.271 145.045 336.787 145.045C335.303 145.045 334.098 146.249 334.098 147.733C334.098 149.217 335.303 150.418 336.787 150.418C338.271 150.418 339.477 149.217 339.477 147.733Z" fill="white" fill-opacity="0.07"/>
<path fill-rule="evenodd" clip-rule="evenodd" d="M337.489 156.839C337.489 155.45 336.363 154.327 334.975 154.327C333.583 154.327 332.457 155.45 332.457 156.839C332.457 158.229 333.583 159.352 334.975 159.352C336.363 159.352 337.489 158.229 337.489 156.839Z" fill="white" fill-opacity="0.07"/>
<path fill-rule="evenodd" clip-rule="evenodd" d="M335.238 165.834C335.238 164.407 334.08 163.253 332.653 163.253C331.225 163.253 330.066 164.407 330.066 165.834C330.066 167.261 331.225 168.418 332.653 168.418C334.08 168.418 335.238 167.261 335.238 165.834Z" fill="white" fill-opacity="0.07"/>
<path fill-rule="evenodd" clip-rule="evenodd" d="M332.346 174.686C332.346 173.294 331.217 172.168 329.828 172.168C328.438 172.168 327.312 173.294 327.312 174.686C327.312 176.073 328.438 177.196 329.828 177.196C331.217 177.196 332.346 176.073 332.346 174.686Z" fill="white" fill-opacity="0.07"/>
<path fill-rule="evenodd" clip-rule="evenodd" d="M329.03 183.362C329.03 181.975 327.902 180.847 326.512 180.847C325.124 180.847 323.996 181.975 323.996 183.362C323.996 184.749 325.124 185.875 326.512 185.875C327.902 185.875 329.03 184.749 329.03 183.362Z" fill="white" fill-opacity="0.07"/>
<path fill-rule="evenodd" clip-rule="evenodd" d="M325.401 191.838C325.401 190.355 324.198 189.153 322.711 189.153C321.226 189.153 320.023 190.355 320.023 191.838C320.023 193.322 321.226 194.523 322.711 194.523C324.198 194.523 325.401 193.322 325.401 191.838Z" fill="white" fill-opacity="0.07"/>
<path fill-rule="evenodd" clip-rule="evenodd" d="M321.138 200.084C321.138 198.604 319.935 197.402 318.45 197.402C316.964 197.402 315.762 198.604 315.762 200.084C315.762 201.568 316.964 202.77 318.45 202.77C319.935 202.77 321.138 201.568 321.138 200.084Z" fill="white" fill-opacity="0.07"/>
<path fill-rule="evenodd" clip-rule="evenodd" d="M306.805 3.20184C306.805 2.24899 306.031 1.47873 305.08 1.47873C304.128 1.47873 303.355 2.24899 303.355 3.20184C303.355 4.15161 304.128 4.92188 305.08 4.92188C306.031 4.92188 306.805 4.15161 306.805 3.20184Z" fill="white" fill-opacity="0.07"/>
<path fill-rule="evenodd" clip-rule="evenodd" d="M313.307 10.3073C313.307 9.06911 312.304 8.06873 311.066 8.06873C309.83 8.06873 308.825 9.06911 308.825 10.3073C308.825 11.5409 309.83 12.5459 311.066 12.5459C312.304 12.5459 313.307 11.5409 313.307 10.3073Z" fill="white" fill-opacity="0.07"/>
<path fill-rule="evenodd" clip-rule="evenodd" d="M318.912 17.7145C318.912 16.4763 317.909 15.4759 316.671 15.4759C315.433 15.4759 314.43 16.4763 314.43 17.7145C314.43 18.9481 315.433 19.9531 316.671 19.9531C317.909 19.9531 318.912 18.9481 318.912 17.7145Z" fill="white" fill-opacity="0.07"/>
<path fill-rule="evenodd" clip-rule="evenodd" d="M324.393 25.4115C324.393 24.0245 323.265 22.8983 321.875 22.8983C320.485 22.8983 319.359 24.0245 319.359 25.4115C319.359 26.8032 320.485 27.9263 321.875 27.9263C323.265 27.9263 324.393 26.8032 324.393 25.4115Z" fill="white" fill-opacity="0.07"/>
<path fill-rule="evenodd" clip-rule="evenodd" d="M329.214 33.3749C329.214 31.9664 328.071 30.8248 326.661 30.8248C325.254 30.8248 324.109 31.9664 324.109 33.3749C324.109 34.7834 325.254 35.9219 326.661 35.9219C328.071 35.9219 329.214 34.7834 329.214 33.3749Z" fill="white" fill-opacity="0.07"/>
<path fill-rule="evenodd" clip-rule="evenodd" d="M333.749 41.5757C333.749 40.0705 332.528 38.8538 331.024 38.8538C329.52 38.8538 328.301 40.0705 328.301 41.5757C328.301 43.0762 329.52 44.293 331.024 44.293C332.528 44.293 333.749 43.0762 333.749 41.5757Z" fill="white" fill-opacity="0.07"/>
<path fill-rule="evenodd" clip-rule="evenodd" d="M337.674 49.9976C337.674 48.4924 336.458 47.2757 334.952 47.2757C333.449 47.2757 332.23 48.4924 332.23 49.9976C332.23 51.4981 333.449 52.7148 334.952 52.7148C336.458 52.7148 337.674 51.4981 337.674 49.9976Z" fill="white" fill-opacity="0.07"/>
<path fill-rule="evenodd" clip-rule="evenodd" d="M341.18 58.6092C341.18 57.0871 339.945 55.855 338.421 55.855C336.899 55.855 335.664 57.0871 335.664 58.6092C335.664 60.1281 336.899 61.3633 338.421 61.3633C339.945 61.3633 341.18 60.1281 341.18 58.6092Z" fill="white" fill-opacity="0.07"/>
<path fill-rule="evenodd" clip-rule="evenodd" d="M344.541 67.4022C344.541 65.6868 343.153 64.2998 341.44 64.2998C339.724 64.2998 338.336 65.6868 338.336 67.4022C338.336 69.113 339.724 70.5 341.44 70.5C343.153 70.5 344.541 69.113 344.541 67.4022Z" fill="white" fill-opacity="0.07"/>
<path fill-rule="evenodd" clip-rule="evenodd" d="M346.911 76.3342C346.911 74.7154 345.599 73.4066 343.981 73.4066C342.361 73.4066 341.051 74.7154 341.051 76.3342C341.051 77.9499 342.361 79.2617 343.981 79.2617C345.599 79.2617 346.911 77.9499 346.911 76.3342Z" fill="white" fill-opacity="0.07"/>
<path fill-rule="evenodd" clip-rule="evenodd" d="M348.805 85.3896C348.805 83.8675 347.57 82.6324 346.048 82.6324C344.524 82.6324 343.289 83.8675 343.289 85.3896C343.289 86.9086 344.524 88.1406 346.048 88.1406C347.57 88.1406 348.805 86.9086 348.805 85.3896Z" fill="white" fill-opacity="0.07"/>
<path fill-rule="evenodd" clip-rule="evenodd" d="M350.052 94.5367C350.052 93.2064 348.972 92.1277 347.639 92.1277C346.307 92.1277 345.226 93.2064 345.226 94.5367C345.226 95.8701 346.307 96.9487 347.639 96.9487C348.972 96.9487 350.052 95.8701 350.052 94.5367Z" fill="white" fill-opacity="0.07"/>
<path fill-rule="evenodd" clip-rule="evenodd" d="M351.462 103.761C351.462 102.259 350.243 101.042 348.739 101.042C347.235 101.042 346.016 102.259 346.016 103.761C346.016 105.265 347.235 106.484 348.739 106.484C350.243 106.484 351.462 105.265 351.462 103.761Z" fill="white" fill-opacity="0.07"/>
<path fill-rule="evenodd" clip-rule="evenodd" d="M352.183 113.036C352.183 111.474 350.917 110.21 349.355 110.21C347.793 110.21 346.527 111.474 346.527 113.036C346.527 114.595 347.793 115.859 349.355 115.859C350.917 115.859 352.183 114.595 352.183 113.036Z" fill="white" fill-opacity="0.07"/>
<path fill-rule="evenodd" clip-rule="evenodd" d="M352.304 122.315C352.304 120.757 351.036 119.492 349.476 119.492C347.914 119.492 346.648 120.757 346.648 122.315C346.648 123.876 347.914 125.14 349.476 125.14C351.036 125.14 352.304 123.876 352.304 122.315Z" fill="white" fill-opacity="0.07"/>
<path fill-rule="evenodd" clip-rule="evenodd" d="M352.108 131.596C352.108 129.942 350.766 128.602 349.108 128.602C347.452 128.602 346.11 129.942 346.11 131.596C346.11 133.251 347.452 134.594 349.108 134.594C350.766 134.594 352.108 133.251 352.108 131.596Z" fill="white" fill-opacity="0.07"/>
<path fill-rule="evenodd" clip-rule="evenodd" d="M350.87 140.846C350.87 139.4 349.698 138.23 348.249 138.23C346.802 138.23 345.629 139.4 345.629 140.846C345.629 142.29 346.802 143.465 348.249 143.465C349.698 143.465 350.87 142.29 350.87 140.846Z" fill="white" fill-opacity="0.07"/>
<path fill-rule="evenodd" clip-rule="evenodd" d="M349.492 150.037C349.492 148.61 348.334 147.453 346.905 147.453C345.478 147.453 344.32 148.61 344.32 150.037C344.32 151.464 345.478 152.621 346.905 152.621C348.334 152.621 349.492 151.464 349.492 150.037Z" fill="white" fill-opacity="0.07"/>
<path fill-rule="evenodd" clip-rule="evenodd" d="M347.937 159.145C347.937 157.564 346.655 156.285 345.076 156.285C343.496 156.285 342.215 157.564 342.215 159.145C342.215 160.723 343.496 162 345.076 162C346.655 162 347.937 160.723 347.937 159.145Z" fill="white" fill-opacity="0.07"/>
<path fill-rule="evenodd" clip-rule="evenodd" d="M345.97 168.144C345.97 166.376 344.535 164.94 342.763 164.94C340.993 164.94 339.559 166.376 339.559 168.144C339.559 169.915 340.993 171.348 342.763 171.348C344.535 171.348 345.97 169.915 345.97 168.144Z" fill="white" fill-opacity="0.07"/>
<path fill-rule="evenodd" clip-rule="evenodd" d="M342.986 177.002C342.986 175.348 341.643 174.006 339.988 174.006C338.332 174.006 336.988 175.348 336.988 177.002C336.988 178.656 338.332 179.996 339.988 179.996C341.643 179.996 342.986 178.656 342.986 177.002Z" fill="white" fill-opacity="0.07"/>
<path fill-rule="evenodd" clip-rule="evenodd" d="M339.671 185.708C339.671 184.089 338.361 182.78 336.742 182.78C335.123 182.78 333.813 184.089 333.813 185.708C333.813 187.324 335.123 188.632 336.742 188.632C338.361 188.632 339.671 187.324 339.671 185.708Z" fill="white" fill-opacity="0.07"/>
<path fill-rule="evenodd" clip-rule="evenodd" d="M335.973 194.229C335.973 192.61 334.663 191.301 333.043 191.301C331.425 191.301 330.113 192.61 330.113 194.229C330.113 195.844 331.425 197.156 333.043 197.156C334.663 197.156 335.973 195.844 335.973 194.229Z" fill="white" fill-opacity="0.07"/>
<path fill-rule="evenodd" clip-rule="evenodd" d="M331.764 202.544C331.764 200.963 330.481 199.684 328.902 199.684C327.32 199.684 326.039 200.963 326.039 202.544C326.039 204.123 327.32 205.402 328.902 205.402C330.481 205.402 331.764 204.123 331.764 202.544Z" fill="white" fill-opacity="0.07"/>
<path fill-rule="evenodd" clip-rule="evenodd" d="M321.098 3.85256C321.098 2.78772 320.235 1.92542 319.169 1.92542C318.102 1.92542 317.238 2.78772 317.238 3.85256C317.238 4.91894 318.102 5.78125 319.169 5.78125C320.235 5.78125 321.098 4.91894 321.098 3.85256Z" fill="white" fill-opacity="0.07"/>
<path fill-rule="evenodd" clip-rule="evenodd" d="M327.606 11.2558C327.606 9.6969 326.34 8.43259 324.778 8.43259C323.217 8.43259 321.953 9.6969 321.953 11.2558C321.953 12.8131 323.217 14.082 324.778 14.082C326.34 14.082 327.606 12.8131 327.606 11.2558Z" fill="white" fill-opacity="0.07"/>
<path fill-rule="evenodd" clip-rule="evenodd" d="M332.399 18.931C332.399 17.6176 331.335 16.5543 330.02 16.5543C328.707 16.5543 327.641 17.6176 327.641 18.931C327.641 20.2429 328.707 21.3047 330.02 21.3047C331.335 21.3047 332.399 20.2429 332.399 18.931Z" fill="white" fill-opacity="0.07"/>
<path fill-rule="evenodd" clip-rule="evenodd" d="M337.624 26.8552C337.624 25.3331 336.39 24.098 334.867 24.098C333.344 24.098 332.109 25.3331 332.109 26.8552C332.109 28.3742 333.344 29.6094 334.867 29.6094C336.39 29.6094 337.624 28.3742 337.624 26.8552Z" fill="white" fill-opacity="0.07"/>
<path fill-rule="evenodd" clip-rule="evenodd" d="M342.004 35.0102C342.004 33.5234 340.798 32.322 339.313 32.322C337.828 32.322 336.625 33.5234 336.625 35.0102C336.625 36.4939 337.828 37.6953 339.313 37.6953C340.798 37.6953 342.004 36.4939 342.004 35.0102Z" fill="white" fill-opacity="0.07"/>
<path fill-rule="evenodd" clip-rule="evenodd" d="M346.106 43.3826C346.106 41.8605 344.872 40.6284 343.349 40.6284C341.825 40.6284 340.59 41.8605 340.59 43.3826C340.59 44.9062 341.825 46.1367 343.349 46.1367C344.872 46.1367 346.106 44.9062 346.106 43.3826Z" fill="white" fill-opacity="0.07"/>
<path fill-rule="evenodd" clip-rule="evenodd" d="M349.925 51.9376C349.925 50.302 348.599 48.9779 346.96 48.9779C345.323 48.9779 343.997 50.302 343.997 51.9376C343.997 53.5748 345.323 54.8989 346.96 54.8989C348.599 54.8989 349.925 53.5748 349.925 51.9376Z" fill="white" fill-opacity="0.07"/>
<path fill-rule="evenodd" clip-rule="evenodd" d="M353.243 60.6647C353.243 58.954 351.854 57.5654 350.142 57.5654C348.428 57.5654 347.039 58.954 347.039 60.6647C347.039 62.3786 348.428 63.7656 350.142 63.7656C351.854 63.7656 353.243 62.3786 353.243 60.6647Z" fill="white" fill-opacity="0.07"/>
<path fill-rule="evenodd" clip-rule="evenodd" d="M356.155 69.5436C356.155 67.7361 354.69 66.2708 352.88 66.2708C351.071 66.2708 349.605 67.7361 349.605 69.5436C349.605 71.3511 351.071 72.8164 352.88 72.8164C354.69 72.8164 356.155 71.3511 356.155 69.5436Z" fill="white" fill-opacity="0.07"/>
<path fill-rule="evenodd" clip-rule="evenodd" d="M358.482 78.5451C358.482 76.7177 357.001 75.2371 355.173 75.2371C353.346 75.2371 351.863 76.7177 351.863 78.5451C351.863 80.3709 353.346 81.8516 355.173 81.8516C357.001 81.8516 358.482 80.3709 358.482 78.5451Z" fill="white" fill-opacity="0.07"/>
<path fill-rule="evenodd" clip-rule="evenodd" d="M360.012 87.648C360.012 85.994 358.671 84.6545 357.012 84.6545C355.357 84.6545 354.016 85.994 354.016 87.648C354.016 89.302 355.357 90.6445 357.012 90.6445C358.671 90.6445 360.012 89.302 360.012 87.648Z" fill="white" fill-opacity="0.07"/>
<path fill-rule="evenodd" clip-rule="evenodd" d="M361.434 96.8329C361.434 95.1605 360.077 93.8041 358.401 93.8041C356.727 93.8041 355.367 95.1605 355.367 96.8329C355.367 98.5084 356.727 99.8633 358.401 99.8633C360.077 99.8633 361.434 98.5084 361.434 96.8329Z" fill="white" fill-opacity="0.07"/>
<path fill-rule="evenodd" clip-rule="evenodd" d="M362.433 106.071C362.433 104.359 361.043 102.972 359.33 102.972C357.618 102.972 356.228 104.359 356.228 106.071C356.228 107.782 357.618 109.169 359.33 109.169C361.043 109.169 362.433 107.782 362.433 106.071Z" fill="white" fill-opacity="0.07"/>
<path fill-rule="evenodd" clip-rule="evenodd" d="M362.761 115.353C362.761 113.716 361.432 112.391 359.797 112.391C358.159 112.391 356.832 113.716 356.832 115.353C356.832 116.988 358.159 118.313 359.797 118.313C361.432 118.313 362.761 116.988 362.761 115.353Z" fill="white" fill-opacity="0.07"/>
<path fill-rule="evenodd" clip-rule="evenodd" d="M363.069 124.637C363.069 122.831 361.604 121.368 359.794 121.368C357.985 121.368 356.52 122.831 356.52 124.637C356.52 126.445 357.985 127.91 359.794 127.91C361.604 127.91 363.069 126.445 363.069 124.637Z" fill="white" fill-opacity="0.07"/>
<path fill-rule="evenodd" clip-rule="evenodd" d="M362.364 133.919C362.364 132.243 361.006 130.89 359.331 130.89C357.653 130.89 356.297 132.243 356.297 133.919C356.297 135.591 357.653 136.949 359.331 136.949C361.006 136.949 362.364 135.591 362.364 133.919Z" fill="white" fill-opacity="0.07"/>
<path fill-rule="evenodd" clip-rule="evenodd" d="M361.434 143.156C361.434 141.483 360.077 140.125 358.401 140.125C356.727 140.125 355.367 141.483 355.367 143.156C355.367 144.83 356.727 146.188 358.401 146.188C360.077 146.188 361.434 144.83 361.434 143.156Z" fill="white" fill-opacity="0.07"/>
<path fill-rule="evenodd" clip-rule="evenodd" d="M359.985 152.347C359.985 150.712 358.657 149.383 357.018 149.383C355.382 149.383 354.055 150.712 354.055 152.347C354.055 153.98 355.382 155.309 357.018 155.309C358.657 155.309 359.985 153.98 359.985 152.347Z" fill="white" fill-opacity="0.07"/>
<path fill-rule="evenodd" clip-rule="evenodd" d="M358.379 161.449C358.379 159.68 356.945 158.248 355.174 158.248C353.403 158.248 351.965 159.68 351.965 161.449C351.965 163.216 353.403 164.652 355.174 164.652C356.945 164.652 358.379 163.216 358.379 161.449Z" fill="white" fill-opacity="0.07"/>
<path fill-rule="evenodd" clip-rule="evenodd" d="M356.052 170.446C356.052 168.696 354.631 167.278 352.88 167.278C351.128 167.278 349.707 168.696 349.707 170.446C349.707 172.196 351.128 173.613 352.88 173.613C354.631 173.613 356.052 172.196 356.052 170.446Z" fill="white" fill-opacity="0.07"/>
<path fill-rule="evenodd" clip-rule="evenodd" d="M353.414 179.324C353.414 177.517 351.947 176.051 350.14 176.051C348.33 176.051 346.863 177.517 346.863 179.324C346.863 181.128 348.33 182.594 350.14 182.594C351.947 182.594 353.414 181.128 353.414 179.324Z" fill="white" fill-opacity="0.07"/>
<path fill-rule="evenodd" clip-rule="evenodd" d="M350.233 188.051C350.233 186.246 348.768 184.783 346.958 184.783C345.15 184.783 343.684 186.246 343.684 188.051C343.684 189.859 345.15 191.324 346.958 191.324C348.768 191.324 350.233 189.859 350.233 188.051Z" fill="white" fill-opacity="0.07"/>
<path fill-rule="evenodd" clip-rule="evenodd" d="M346.693 196.609C346.693 194.762 345.194 193.267 343.348 193.267C341.502 193.267 340.004 194.762 340.004 196.609C340.004 198.455 341.502 199.949 343.348 199.949C345.194 199.949 346.693 198.455 346.693 196.609Z" fill="white" fill-opacity="0.07"/>
<path fill-rule="evenodd" clip-rule="evenodd" d="M342.485 204.975C342.485 203.224 341.064 201.806 339.313 201.806C337.56 201.806 336.141 203.224 336.141 204.975C336.141 206.727 337.56 208.142 339.313 208.142C341.064 208.142 342.485 206.727 342.485 204.975Z" fill="white" fill-opacity="0.07"/>
<path fill-rule="evenodd" clip-rule="evenodd" d="M335.236 4.79688C335.236 3.50191 334.187 2.45395 332.891 2.45395C331.596 2.45395 330.547 3.50191 330.547 4.79688C330.547 6.08878 331.596 7.13672 332.891 7.13672C334.187 7.13672 335.236 6.08878 335.236 4.79688Z" fill="white" fill-opacity="0.07"/>
<path fill-rule="evenodd" clip-rule="evenodd" d="M340.54 12.4506C340.54 11.1356 339.474 10.0739 338.161 10.0739C336.846 10.0739 335.781 11.1356 335.781 12.4506C335.781 13.764 336.846 14.8242 338.161 14.8242C339.474 14.8242 340.54 13.764 340.54 12.4506Z" fill="white" fill-opacity="0.07"/>
<path fill-rule="evenodd" clip-rule="evenodd" d="M345.265 20.3412C345.265 19.1214 344.277 18.1348 343.057 18.1348C341.838 18.1348 340.852 19.1214 340.852 20.3412C340.852 21.5579 341.838 22.543 343.057 22.543C344.277 22.543 345.265 21.5579 345.265 20.3412Z" fill="white" fill-opacity="0.07"/>
<path fill-rule="evenodd" clip-rule="evenodd" d="M349.784 28.4584C349.784 27.2416 348.798 26.252 347.58 26.252C346.36 26.252 345.371 27.2416 345.371 28.4584C345.371 29.6751 346.36 30.6602 347.58 30.6602C348.798 30.6602 349.784 29.6751 349.784 28.4584Z" fill="white" fill-opacity="0.07"/>
<path fill-rule="evenodd" clip-rule="evenodd" d="M354.158 36.7784C354.158 35.4297 353.063 34.3327 351.712 34.3327C350.36 34.3327 349.262 35.4297 349.262 36.7784C349.262 38.1287 350.36 39.2227 351.712 39.2227C353.063 39.2227 354.158 38.1287 354.158 36.7784Z" fill="white" fill-opacity="0.07"/>
<path fill-rule="evenodd" clip-rule="evenodd" d="M357.862 45.2867C357.862 43.9549 356.781 42.8763 355.449 42.8763C354.116 42.8763 353.034 43.9549 353.034 45.2867C353.034 46.6201 354.116 47.6987 355.449 47.6987C356.781 47.6987 357.862 46.6201 357.862 45.2867Z" fill="white" fill-opacity="0.07"/>
<path fill-rule="evenodd" clip-rule="evenodd" d="M361.71 53.9548C361.71 52.3391 360.397 51.0273 358.779 51.0273C357.159 51.0273 355.849 52.3391 355.849 53.9548C355.849 55.5735 357.159 56.8823 358.779 56.8823C360.397 56.8823 361.71 55.5735 361.71 53.9548Z" fill="white" fill-opacity="0.07"/>
<path fill-rule="evenodd" clip-rule="evenodd" d="M364.554 62.7774C364.554 61.1986 363.273 59.9189 361.694 59.9189C360.114 59.9189 358.833 61.1986 358.833 62.7774C358.833 64.3532 360.114 65.6328 361.694 65.6328C363.273 65.6328 364.554 64.3532 364.554 62.7774Z" fill="white" fill-opacity="0.07"/>
<path fill-rule="evenodd" clip-rule="evenodd" d="M367.117 71.7248C367.117 70.1091 365.806 68.7972 364.188 68.7972C362.569 68.7972 361.257 70.1091 361.257 71.7248C361.257 73.3435 362.569 74.6523 364.188 74.6523C365.806 74.6523 367.117 73.3435 367.117 71.7248Z" fill="white" fill-opacity="0.07"/>
<path fill-rule="evenodd" clip-rule="evenodd" d="M369.188 80.7819C369.188 79.1647 367.876 77.8543 366.257 77.8543C364.64 77.8543 363.328 79.1647 363.328 80.7819C363.328 82.4006 364.64 83.7109 366.257 83.7109C367.876 83.7109 369.188 82.4006 369.188 80.7819Z" fill="white" fill-opacity="0.07"/>
<path fill-rule="evenodd" clip-rule="evenodd" d="M370.93 89.9262C370.93 88.2522 369.572 86.8974 367.894 86.8974C366.22 86.8974 364.862 88.2522 364.862 89.9262C364.862 91.5986 366.22 92.9565 367.894 92.9565C369.572 92.9565 370.93 91.5986 370.93 89.9262Z" fill="white" fill-opacity="0.07"/>
<path fill-rule="evenodd" clip-rule="evenodd" d="M372.306 99.1322C372.306 97.3647 370.871 95.9316 369.1 95.9316C367.329 95.9316 365.895 97.3647 365.895 99.1322C365.895 100.904 367.329 102.336 369.1 102.336C370.871 102.336 372.306 100.904 372.306 99.1322Z" fill="white" fill-opacity="0.07"/>
<path fill-rule="evenodd" clip-rule="evenodd" d="M373.418 108.39C373.418 106.43 371.829 104.845 369.867 104.845C367.906 104.845 366.316 106.43 366.316 108.39C366.316 110.35 367.906 111.938 369.867 111.938C371.829 111.938 373.418 110.35 373.418 108.39Z" fill="white" fill-opacity="0.07"/>
<path fill-rule="evenodd" clip-rule="evenodd" d="M373.714 117.668C373.714 115.73 372.14 114.159 370.195 114.159C368.257 114.159 366.681 115.73 366.681 117.668C366.681 119.611 368.257 121.18 370.195 121.18C372.14 121.18 373.714 119.611 373.714 117.668Z" fill="white" fill-opacity="0.07"/>
<path fill-rule="evenodd" clip-rule="evenodd" d="M373.395 126.961C373.395 125.134 371.912 123.653 370.086 123.653C368.258 123.653 366.777 125.134 366.777 126.961C366.777 128.785 368.258 130.266 370.086 130.266C371.912 130.266 373.395 128.785 373.395 126.961Z" fill="white" fill-opacity="0.07"/>
<path fill-rule="evenodd" clip-rule="evenodd" d="M372.053 136.232C372.053 134.842 370.926 133.717 369.537 133.717C368.147 133.717 367.02 134.842 367.02 136.232C367.02 137.619 368.147 138.747 369.537 138.747C370.926 138.747 372.053 137.619 372.053 136.232Z" fill="white" fill-opacity="0.07"/>
<path fill-rule="evenodd" clip-rule="evenodd" d="M371.38 145.468C371.38 143.906 370.116 142.645 368.552 142.645C366.992 142.645 365.726 143.906 365.726 145.468C365.726 147.026 366.992 148.29 368.552 148.29C370.116 148.29 371.38 147.026 371.38 145.468Z" fill="white" fill-opacity="0.07"/>
<path fill-rule="evenodd" clip-rule="evenodd" d="M370.579 154.65C370.579 152.747 369.035 151.204 367.13 151.204C365.226 151.204 363.684 152.747 363.684 154.65C363.684 156.549 365.226 158.09 367.13 158.09C369.035 158.09 370.579 156.549 370.579 154.65Z" fill="white" fill-opacity="0.07"/>
<path fill-rule="evenodd" clip-rule="evenodd" d="M368.722 163.745C368.722 161.844 367.18 160.304 365.275 160.304C363.372 160.304 361.828 161.844 361.828 163.745C361.828 165.651 363.372 167.191 365.275 167.191C367.18 167.191 368.722 165.651 368.722 163.745Z" fill="white" fill-opacity="0.07"/>
<path fill-rule="evenodd" clip-rule="evenodd" d="M366.576 172.754C366.576 170.773 364.971 169.17 362.991 169.17C361.013 169.17 359.406 170.773 359.406 172.754C359.406 174.732 361.013 176.332 362.991 176.332C364.971 176.332 366.576 174.732 366.576 172.754Z" fill="white" fill-opacity="0.07"/>
<path fill-rule="evenodd" clip-rule="evenodd" d="M363.523 181.639C363.523 179.85 362.073 178.398 360.282 178.398C358.493 178.398 357.043 179.85 357.043 181.639C357.043 183.425 358.493 184.875 360.282 184.875C362.073 184.875 363.523 183.425 363.523 181.639Z" fill="white" fill-opacity="0.07"/>
<path fill-rule="evenodd" clip-rule="evenodd" d="M360.508 190.389C360.508 188.543 359.011 187.05 357.163 187.05C355.318 187.05 353.82 188.543 353.82 190.389C353.82 192.234 355.318 193.73 357.163 193.73C359.011 193.73 360.508 192.234 360.508 190.389Z" fill="white" fill-opacity="0.07"/>
<path fill-rule="evenodd" clip-rule="evenodd" d="M357.045 198.98C357.045 197.098 355.518 195.57 353.633 195.57C351.747 195.57 350.219 197.098 350.219 198.98C350.219 200.862 351.747 202.387 353.633 202.387C355.518 202.387 357.045 200.862 357.045 198.98Z" fill="white" fill-opacity="0.07"/>
<path fill-rule="evenodd" clip-rule="evenodd" d="M347.674 5.9722C347.674 5.21118 347.056 4.59436 346.294 4.59436C345.533 4.59436 344.914 5.21118 344.914 5.9722C344.914 6.73476 345.533 7.35156 346.294 7.35156C347.056 7.35156 347.674 6.73476 347.674 5.9722Z" fill="white" fill-opacity="0.07"/>
<path fill-rule="evenodd" clip-rule="evenodd" d="M353.172 13.8355C353.172 12.7722 352.309 11.9099 351.241 11.9099C350.175 11.9099 349.312 12.7722 349.312 13.8355C349.312 14.9033 350.175 15.7656 351.241 15.7656C352.309 15.7656 353.172 14.9033 353.172 13.8355Z" fill="white" fill-opacity="0.07"/>
<path fill-rule="evenodd" clip-rule="evenodd" d="M357.62 21.9149C357.62 20.9267 356.817 20.1258 355.828 20.1258C354.838 20.1258 354.035 20.9267 354.035 21.9149C354.035 22.9046 354.838 23.707 355.828 23.707C356.817 23.707 357.62 22.9046 357.62 21.9149Z" fill="white" fill-opacity="0.07"/>
<path fill-rule="evenodd" clip-rule="evenodd" d="M362.498 30.193C362.498 28.8412 361.401 27.7472 360.049 27.7472C358.698 27.7472 357.603 28.8412 357.603 30.193C357.603 31.5417 358.698 32.6372 360.049 32.6372C361.401 32.6372 362.498 31.5417 362.498 30.193Z" fill="white" fill-opacity="0.07"/>
<path fill-rule="evenodd" clip-rule="evenodd" d="M366.071 38.6508C366.071 37.4494 365.1 36.4812 363.901 36.4812C362.701 36.4812 361.73 37.4494 361.73 38.6508C361.73 39.8506 362.701 40.8203 363.901 40.8203C365.1 40.8203 366.071 39.8506 366.071 38.6508Z" fill="white" fill-opacity="0.07"/>
<path fill-rule="evenodd" clip-rule="evenodd" d="M369.841 47.269C369.841 45.9019 368.729 44.7895 367.357 44.7895C365.987 44.7895 364.875 45.9019 364.875 47.269C364.875 48.6376 365.987 49.75 367.357 49.75C368.729 49.75 369.841 48.6376 369.841 47.269Z" fill="white" fill-opacity="0.07"/>
<path fill-rule="evenodd" clip-rule="evenodd" d="M373.052 56.0324C373.052 54.5885 371.878 53.4163 370.431 53.4163C368.984 53.4163 367.813 54.5885 367.813 56.0324C367.813 57.4777 368.984 58.6484 370.431 58.6484C371.878 58.6484 373.052 57.4777 373.052 56.0324Z" fill="white" fill-opacity="0.07"/>
<path fill-rule="evenodd" clip-rule="evenodd" d="M375.688 64.9318C375.688 63.5063 374.533 62.3494 373.105 62.3494C371.675 62.3494 370.52 63.5063 370.52 64.9318C370.52 66.3587 371.675 67.5156 373.105 67.5156C374.533 67.5156 375.688 66.3587 375.688 64.9318Z" fill="white" fill-opacity="0.07"/>
<path fill-rule="evenodd" clip-rule="evenodd" d="M378.169 73.9386C378.169 72.3981 376.917 71.1492 375.375 71.1492C373.832 71.1492 372.582 72.3981 372.582 73.9386C372.582 75.4791 373.832 76.7266 375.375 76.7266C376.917 76.7266 378.169 75.4791 378.169 73.9386Z" fill="white" fill-opacity="0.07"/>
<path fill-rule="evenodd" clip-rule="evenodd" d="M379.759 83.0399C379.759 81.6528 378.634 80.5251 377.243 80.5251C375.852 80.5251 374.727 81.6528 374.727 83.0399C374.727 84.4269 375.852 85.5547 377.243 85.5547C378.634 85.5547 379.759 84.4269 379.759 83.0399Z" fill="white" fill-opacity="0.07"/>
<path fill-rule="evenodd" clip-rule="evenodd" d="M381.661 92.216C381.661 90.5758 380.332 89.2516 378.695 89.2516C377.058 89.2516 375.73 90.5758 375.73 92.216C375.73 93.8486 377.058 95.1758 378.695 95.1758C380.332 95.1758 381.661 93.8486 381.661 92.216Z" fill="white" fill-opacity="0.07"/>
<path fill-rule="evenodd" clip-rule="evenodd" d="M382.703 101.442C382.703 99.809 381.376 98.4833 379.739 98.4833C378.103 98.4833 376.774 99.809 376.774 101.442C376.774 103.079 378.103 104.403 379.739 104.403C381.376 104.403 382.703 103.079 382.703 101.442Z" fill="white" fill-opacity="0.07"/>
<path fill-rule="evenodd" clip-rule="evenodd" d="M383.497 110.71C383.497 108.978 382.092 107.575 380.361 107.575C378.628 107.575 377.223 108.978 377.223 110.71C377.223 112.439 378.628 113.845 380.361 113.845C382.092 113.845 383.497 112.439 383.497 110.71Z" fill="white" fill-opacity="0.07"/>
<path fill-rule="evenodd" clip-rule="evenodd" d="M383.708 119.994C383.708 118.265 382.304 116.862 380.57 116.862C378.839 116.862 377.434 118.265 377.434 119.994C377.434 121.726 378.839 123.128 380.57 123.128C382.304 123.128 383.708 121.726 383.708 119.994Z" fill="white" fill-opacity="0.07"/>
<path fill-rule="evenodd" clip-rule="evenodd" d="M383.189 129.283C383.189 127.724 381.925 126.46 380.363 126.46C378.804 126.46 377.535 127.724 377.535 129.283C377.535 130.843 378.804 132.106 380.363 132.106C381.925 132.106 383.189 130.843 383.189 129.283Z" fill="white" fill-opacity="0.07"/>
<path fill-rule="evenodd" clip-rule="evenodd" d="M382.908 138.545C382.908 136.797 381.485 135.376 379.734 135.376C377.983 135.376 376.563 136.797 376.563 138.545C376.563 140.297 377.983 141.715 379.734 141.715C381.485 141.715 382.908 140.297 382.908 138.545Z" fill="white" fill-opacity="0.07"/>
<path fill-rule="evenodd" clip-rule="evenodd" d="M381.384 147.776C381.384 146.293 380.18 145.091 378.696 145.091C377.213 145.091 376.008 146.293 376.008 147.776C376.008 149.259 377.213 150.464 378.696 150.464C380.18 150.464 381.384 149.259 381.384 147.776Z" fill="white" fill-opacity="0.07"/>
<path fill-rule="evenodd" clip-rule="evenodd" d="M380.654 156.953C380.654 155.067 379.127 153.542 377.241 153.542C375.356 153.542 373.829 155.067 373.829 156.953C373.829 158.834 375.356 160.36 377.241 160.36C379.127 160.36 380.654 158.834 380.654 156.953Z" fill="white" fill-opacity="0.07"/>
<path fill-rule="evenodd" clip-rule="evenodd" d="M379.237 166.054C379.237 163.923 377.508 162.197 375.376 162.197C373.244 162.197 371.516 163.923 371.516 166.054C371.516 168.184 373.244 169.91 375.376 169.91C377.508 169.91 379.237 168.184 379.237 166.054Z" fill="white" fill-opacity="0.07"/>
<path fill-rule="evenodd" clip-rule="evenodd" d="M376.724 175.058C376.724 173.059 375.105 171.44 373.105 171.44C371.105 171.44 369.484 173.059 369.484 175.058C369.484 177.053 371.105 178.672 373.105 178.672C375.105 178.672 376.724 177.053 376.724 175.058Z" fill="white" fill-opacity="0.07"/>
<path fill-rule="evenodd" clip-rule="evenodd" d="M374.082 183.953C374.082 181.938 372.444 180.303 370.428 180.303C368.408 180.303 366.773 181.938 366.773 183.953C366.773 185.969 368.408 187.602 370.428 187.602C372.444 187.602 374.082 185.969 374.082 183.953Z" fill="white" fill-opacity="0.07"/>
<path fill-rule="evenodd" clip-rule="evenodd" d="M370.465 192.725C370.465 191.011 369.075 189.624 367.361 189.624C365.646 189.624 364.258 191.011 364.258 192.725C364.258 194.437 365.646 195.824 367.361 195.824C369.075 195.824 370.465 194.437 370.465 192.725Z" fill="white" fill-opacity="0.07"/>
<path fill-rule="evenodd" clip-rule="evenodd" d="M367.483 201.341C367.483 199.363 365.877 197.76 363.898 197.76C361.919 197.76 360.313 199.363 360.313 201.341C360.313 203.318 361.919 204.922 363.898 204.922C365.877 204.922 367.483 203.318 367.483 201.341Z" fill="white" fill-opacity="0.07"/>
<path fill-rule="evenodd" clip-rule="evenodd" d="M355.048 -0.502691C355.048 -0.844859 354.769 -1.12411 354.428 -1.12411C354.084 -1.12411 353.806 -0.844859 353.806 -0.502691C353.806 -0.162058 354.084 0.117188 354.428 0.117188C354.769 0.117188 355.048 -0.162058 355.048 -0.502691Z" fill="white" fill-opacity="0.07"/>
<path fill-rule="evenodd" clip-rule="evenodd" d="M360.035 7.33667C360.035 6.99606 359.757 6.71683 359.416 6.71683C359.072 6.71683 358.794 6.99606 358.794 7.33667C358.794 7.67882 359.072 7.95654 359.416 7.95654C359.757 7.95654 360.035 7.67882 360.035 7.33667Z" fill="white" fill-opacity="0.07"/>
<path fill-rule="evenodd" clip-rule="evenodd" d="M364.613 15.3812C364.613 15.0789 364.366 14.8304 364.063 14.8304C363.758 14.8304 363.512 15.0789 363.512 15.3812C363.512 15.6881 363.758 15.9336 364.063 15.9336C364.366 15.9336 364.613 15.6881 364.613 15.3812Z" fill="white" fill-opacity="0.07"/>
<path fill-rule="evenodd" clip-rule="evenodd" d="M369.953 23.6142C369.953 22.7381 369.242 22.0277 368.366 22.0277C367.491 22.0277 366.781 22.7381 366.781 23.6142C366.781 24.4888 367.491 25.1992 368.366 25.1992C369.242 25.1992 369.953 24.4888 369.953 23.6142Z" fill="white" fill-opacity="0.07"/>
<path fill-rule="evenodd" clip-rule="evenodd" d="M372.827 32.0273C372.827 31.7419 372.596 31.5086 372.311 31.5086C372.025 31.5086 371.793 31.7419 371.793 32.0273C371.793 32.3128 372.025 32.543 372.311 32.543C372.596 32.543 372.827 32.3128 372.827 32.0273Z" fill="white" fill-opacity="0.07"/>
<path fill-rule="evenodd" clip-rule="evenodd" d="M377.513 40.5961C377.513 39.7031 376.786 38.9774 375.891 38.9774C374.997 38.9774 374.273 39.7031 374.273 40.5961C374.273 41.4922 374.997 42.2148 375.891 42.2148C376.786 42.2148 377.513 41.4922 377.513 40.5961Z" fill="white" fill-opacity="0.07"/>
<path fill-rule="evenodd" clip-rule="evenodd" d="M380.722 49.3125C380.722 48.4164 379.997 47.6906 379.101 47.6906C378.207 47.6906 377.481 48.4164 377.481 49.3125C377.481 50.2055 378.207 50.9297 379.101 50.9297C379.997 50.9297 380.722 50.2055 380.722 49.3125Z" fill="white" fill-opacity="0.07"/>
<path fill-rule="evenodd" clip-rule="evenodd" d="M382.145 58.1606L381.939 57.9535L381.73 58.1606L381.939 58.3677L382.145 58.1606Z" fill="white" fill-opacity="0.07"/>
<path fill-rule="evenodd" clip-rule="evenodd" d="M385.256 67.1197C385.256 66.644 384.869 66.2605 384.393 66.2605C383.918 66.2605 383.531 66.644 383.531 67.1197C383.531 67.5969 383.918 67.9805 384.393 67.9805C384.869 67.9805 385.256 67.5969 385.256 67.1197Z" fill="white" fill-opacity="0.07"/>
<path fill-rule="evenodd" clip-rule="evenodd" d="M388.992 168.356C388.992 166.416 387.414 164.844 385.476 164.844C383.531 164.844 381.957 166.416 381.957 168.356C381.957 170.297 383.531 171.871 385.476 171.871C387.414 171.871 388.992 170.297 388.992 168.356Z" fill="white" fill-opacity="0.07"/>
<path fill-rule="evenodd" clip-rule="evenodd" d="M386.698 177.365C386.698 175.444 385.137 173.885 383.216 173.885C381.292 173.885 379.733 175.444 379.733 177.365C379.733 179.286 381.292 180.84 383.216 180.84C385.137 180.84 386.698 179.286 386.698 177.365Z" fill="white" fill-opacity="0.07"/>
<path fill-rule="evenodd" clip-rule="evenodd" d="M383.843 186.266C383.843 184.46 382.379 182.995 380.568 182.995C378.76 182.995 377.293 184.46 377.293 186.266C377.293 188.074 378.76 189.539 380.568 189.539C382.379 189.539 383.843 188.074 383.843 186.266Z" fill="white" fill-opacity="0.07"/>
<path fill-rule="evenodd" clip-rule="evenodd" d="M380.818 195.051C380.818 193.244 379.351 191.782 377.543 191.782C375.736 191.782 374.27 193.244 374.27 195.051C374.27 196.859 375.736 198.324 377.543 198.324C379.351 198.324 380.818 196.859 380.818 195.051Z" fill="white" fill-opacity="0.07"/>
<path fill-rule="evenodd" clip-rule="evenodd" d="M377.7 203.695C377.7 201.737 376.11 200.149 374.149 200.149C372.187 200.149 370.598 201.737 370.598 203.695C370.598 205.654 372.187 207.242 374.149 207.242C376.11 207.242 377.7 205.654 377.7 203.695Z" fill="white" fill-opacity="0.07"/>
<path fill-rule="evenodd" clip-rule="evenodd" d="M380.729 25.4154L380.696 25.3831L380.66 25.4154L380.696 25.4492L380.729 25.4154Z" fill="white" fill-opacity="0.07"/>
</g>
<defs>
<linearGradient id="paint0_linear" x1="192" y1="0" x2="192" y2="204" gradientUnits="userSpaceOnUse">
<stop stop-color="#39225F"/>
<stop offset="1" stop-color="#3F55A5"/>
</linearGradient>
</defs>
</svg>
