<svg width="384" height="396" viewBox="0 0 384 396" fill="none" xmlns="http://www.w3.org/2000/svg">
<g opacity="0.5">
<mask id="mask0" mask-type="alpha" maskUnits="userSpaceOnUse" x="0" y="0" width="384" height="396">
<rect width="384" height="396" rx="16" fill="url(#paint0_linear)"/>
</mask>
<g mask="url(#mask0)">
<path d="M211.905 47.2217L211.992 47.0553L212.087 47.2217L211.905 47.2217Z" fill="white"/>
<path d="M201.57 41.3037L201.428 41.0591L201.712 41.0591L201.57 41.3037Z" fill="white"/>
<path d="M190.913 47.3008L191.15 46.8905L191.386 47.3008L190.913 47.3008Z" fill="white"/>
<path d="M201.523 29.1201L201.57 29.0408L201.618 29.1201L201.523 29.1201Z" fill="white"/>
<path d="M180.728 41.4141L180.492 41.0038L180.965 41.0038L180.728 41.4141Z" fill="white"/>
<path d="M169.969 47.3643L170.308 46.7725L170.647 47.3643L169.969 47.3643Z" fill="white"/>
<path d="M191.149 23.1562L191.078 23.0295L191.221 23.0295L191.149 23.1562Z" fill="white"/>
<path d="M180.587 29.1758L180.729 28.9312L180.871 29.1758L180.587 29.1758Z" fill="white"/>
<path d="M159.887 41.4766L159.596 40.9794L160.171 40.9794L159.887 41.4766Z" fill="white"/>
<path d="M149.088 47.3799L149.466 46.7329L149.837 47.3799L149.088 47.3799Z" fill="white"/>
<path d="M170.309 23.1787L170.214 23.0202L170.396 23.0202L170.309 23.1787Z" fill="white"/>
<path d="M159.745 29.1758L159.887 28.9312L160.021 29.1758L159.745 29.1758Z" fill="white"/>
<path d="M139.039 41.4766L138.755 40.9794L139.33 40.9794L139.039 41.4766Z" fill="white"/>
<path d="M128.279 47.3643L128.618 46.7725L128.957 47.3643L128.279 47.3643Z" fill="white"/>
<path d="M149.467 23.124L149.419 23.0448L149.507 23.0448L149.467 23.124Z" fill="white"/>
<path d="M138.952 29.1523L139.039 28.9859L139.134 29.1523L138.952 29.1523Z" fill="white"/>
<path d="M118.196 41.3594L118.006 41.0359L118.385 41.0359L118.196 41.3594Z" fill="white"/>
<path d="M107.587 47.2773L107.776 46.946L107.965 47.2773L107.587 47.2773Z" fill="white"/>
<path d="M118.165 29.1133L118.196 29.0577L118.228 29.1133L118.165 29.1133Z" fill="white"/>
<path d="M316.183 139.831L316.215 139.784L316.246 139.831L316.183 139.831Z" fill="white" fill-opacity="0.24"/>
<path d="M316.213 152.045L316.056 151.769L316.371 151.769L316.213 152.045Z" fill="white" fill-opacity="0.24"/>
<path d="M305.794 134.085L305.542 133.651L306.046 133.651L305.794 134.085Z" fill="white" fill-opacity="0.24"/>
<path d="M305.187 158.239L305.793 157.189L306.4 158.239L305.187 158.239Z" fill="white" fill-opacity="0.24"/>
<path d="M326.635 170.013L326.563 169.894L326.706 169.894L326.635 170.013Z" fill="white" fill-opacity="0.24"/>
<path d="M294.647 140.233L295.372 138.986L296.09 140.233L294.647 140.233Z" fill="white" fill-opacity="0.24"/>
<path d="M295.372 152.952L294.426 151.318L296.31 151.318L295.372 152.952Z" fill="white" fill-opacity="0.24"/>
<path d="M305.794 170.856L304.99 169.476L306.59 169.476L305.794 170.856Z" fill="white" fill-opacity="0.24"/>
<path d="M315.694 176.261L316.214 175.354L316.734 176.261L315.694 176.261Z" fill="white" fill-opacity="0.24"/>
<path d="M305.714 121.793L305.794 121.658L305.865 121.793L305.714 121.793Z" fill="white" fill-opacity="0.24"/>
<path d="M284.211 122.171L284.952 120.893L285.685 122.171L284.211 122.171Z" fill="white" fill-opacity="0.24"/>
<path d="M284.951 135.025L283.879 133.179L286.016 133.179L284.951 135.025Z" fill="white" fill-opacity="0.24"/>
<path d="M283.312 158.831L284.952 155.998L286.584 158.831L283.312 158.831Z" fill="white" fill-opacity="0.24"/>
<path d="M284.951 172.158L283.02 168.82L286.875 168.82L284.951 172.158Z" fill="white" fill-opacity="0.24"/>
<path d="M293.906 176.805L295.372 174.264L296.831 176.805L293.906 176.805Z" fill="white" fill-opacity="0.24"/>
<path d="M316.213 189.012L315.338 187.497L317.088 187.497L316.213 189.012Z" fill="white" fill-opacity="0.24"/>
<path d="M325.988 194.402L326.635 193.274L327.281 194.402L325.988 194.402Z" fill="white" fill-opacity="0.24"/>
<path d="M337.055 188.12L336.96 187.946L337.158 187.946L337.055 188.12Z" fill="white" fill-opacity="0.24"/>
<path d="M295.373 115.978L295.152 115.599L295.594 115.599L295.373 115.978Z" fill="white" fill-opacity="0.24"/>
<path d="M274.523 116.813L273.577 115.18L275.469 115.18L274.523 116.813Z" fill="white" fill-opacity="0.24"/>
<path d="M272.75 140.84L274.523 137.763L276.305 140.84L272.75 140.84Z" fill="white" fill-opacity="0.24"/>
<path d="M274.522 154.349L272.378 150.616L276.674 150.616L274.522 154.349Z" fill="white" fill-opacity="0.24"/>
<path d="M271.749 177.564L274.523 172.743L277.306 177.564L271.749 177.564Z" fill="white" fill-opacity="0.24"/>
<path d="M295.372 190.069L293.583 186.968L297.162 186.968L295.372 190.069Z" fill="white" fill-opacity="0.24"/>
<path d="M304.319 194.875L305.793 192.326L307.259 194.875L304.319 194.875Z" fill="white" fill-opacity="0.24"/>
<path d="M326.634 207.335L325.546 205.441L327.73 205.441L326.634 207.335Z" fill="white" fill-opacity="0.24"/>
<path d="M295.364 103.684L295.372 103.676L295.372 103.684L295.364 103.684Z" fill="white" fill-opacity="0.24"/>
<path d="M262.534 122.653L264.103 119.931L265.671 122.653L262.534 122.653Z" fill="white" fill-opacity="0.24"/>
<path d="M264.103 136.193L262.03 132.595L266.184 132.595L264.103 136.193Z" fill="white" fill-opacity="0.24"/>
<path d="M261.209 159.558L264.102 154.539L267.003 159.558L261.209 159.558Z" fill="white" fill-opacity="0.24"/>
<path d="M264.102 173.625L260.91 168.086L267.302 168.086L264.102 173.625Z" fill="white" fill-opacity="0.24"/>
<path d="M274.522 191.625L271.393 186.196L277.66 186.196L274.522 191.625Z" fill="white" fill-opacity="0.24"/>
<path d="M282.303 195.554L284.951 190.969L287.592 195.554L282.303 195.554Z" fill="white" fill-opacity="0.24"/>
<path d="M305.793 208.337L303.83 204.944L307.756 204.944L305.793 208.337Z" fill="white" fill-opacity="0.24"/>
<path d="M314.369 213.158L316.214 209.97L318.058 213.158L314.369 213.158Z" fill="white" fill-opacity="0.24"/>
<path d="M336.086 212.652L337.056 210.971L338.026 212.652L336.086 212.652Z" fill="white" fill-opacity="0.24"/>
<path d="M347.476 206.442L347.161 205.89L347.8 205.89L347.476 206.442Z" fill="white" fill-opacity="0.24"/>
<path d="M284.952 97.8213L284.802 97.5688L285.094 97.5688L284.952 97.8213Z" fill="white" fill-opacity="0.24"/>
<path d="M273.955 104.007L274.523 103.021L275.098 104.007L273.955 104.007Z" fill="white" fill-opacity="0.24"/>
<path d="M252.445 104.395L253.682 102.248L254.92 104.395L252.445 104.395Z" fill="white" fill-opacity="0.24"/>
<path d="M253.682 117.667L252.003 114.755L255.361 114.755L253.682 117.667Z" fill="white" fill-opacity="0.24"/>
<path d="M250.93 141.409L253.681 136.635L256.432 141.409L250.93 141.409Z" fill="white" fill-opacity="0.24"/>
<path d="M253.683 155.548L250.49 150.017L256.875 150.017L253.683 155.548Z" fill="white" fill-opacity="0.24"/>
<path d="M249.835 178.179L253.682 171.511L257.528 178.179L249.835 178.179Z" fill="white" fill-opacity="0.24"/>
<path d="M253.682 192.753L249.567 185.628L257.796 185.628L253.682 192.753Z" fill="white" fill-opacity="0.24"/>
<path d="M260.287 196.232L264.102 189.612L267.917 196.232L260.287 196.232Z" fill="white" fill-opacity="0.24"/>
<path d="M284.951 209.646L281.854 204.281L288.041 204.281L284.951 209.646Z" fill="white" fill-opacity="0.24"/>
<path d="M292.582 213.709L295.372 208.873L298.163 213.709L292.582 213.709Z" fill="white" fill-opacity="0.24"/>
<path d="M316.214 227.116L313.636 222.65L318.791 222.65L316.214 227.116Z" fill="white" fill-opacity="0.24"/>
<path d="M324.112 231.621L326.635 227.25L329.157 231.621L324.112 231.621Z" fill="white" fill-opacity="0.24"/>
<path d="M337.055 226.075L335.384 223.179L338.727 223.179L337.055 226.075Z" fill="white" fill-opacity="0.24"/>
<path d="M357.661 212.234L357.905 211.824L358.142 212.234L357.661 212.234Z" fill="white" fill-opacity="0.24"/>
<path d="M264.103 98.4912L263.377 97.2366L264.828 97.2366L264.103 98.4912Z" fill="white" fill-opacity="0.24"/>
<path d="M243.261 99.1699L241.953 96.8974L244.57 96.8974L243.261 99.1699Z" fill="white" fill-opacity="0.24"/>
<path d="M240.919 123.103L243.261 119.039L245.602 123.103L240.919 123.103Z" fill="white" fill-opacity="0.24"/>
<path d="M243.261 137.132L240.376 132.121L246.146 132.121L243.261 137.132Z" fill="white" fill-opacity="0.24"/>
<path d="M239.494 160.062L243.261 153.537L247.021 160.062L239.494 160.062Z" fill="white" fill-opacity="0.24"/>
<path d="M243.261 174.651L239.178 167.574L247.344 167.574L243.261 174.651Z" fill="white" fill-opacity="0.24"/>
<path d="M238.768 196.619L243.261 188.831L247.754 196.619L238.768 196.619Z" fill="white" fill-opacity="0.24"/>
<path d="M264.103 210.869L259.957 203.673L268.249 203.673L264.103 210.869Z" fill="white" fill-opacity="0.24"/>
<path d="M270.598 214.365L274.523 207.555L278.457 214.365L270.598 214.365Z" fill="white" fill-opacity="0.24"/>
<path d="M295.372 228.165L291.888 222.128L298.848 222.128L295.372 228.165Z" fill="white" fill-opacity="0.24"/>
<path d="M302.419 232.119L305.793 226.264L309.166 232.119L302.419 232.119Z" fill="white" fill-opacity="0.24"/>
<path d="M326.635 246.187L323.198 240.222L330.071 240.222L326.635 246.187Z" fill="white" fill-opacity="0.24"/>
<path d="M345.899 231.077L347.476 228.339L349.06 231.077L345.899 231.077Z" fill="white" fill-opacity="0.24"/>
<path d="M357.905 225.065L357.108 223.684L358.701 223.684L357.905 225.065Z" fill="white" fill-opacity="0.24"/>
<path d="M263.748 85.8115L264.103 85.196L264.457 85.8115L263.748 85.8115Z" fill="white" fill-opacity="0.24"/>
<path d="M231.011 104.734L232.84 101.57L234.661 104.734L231.011 104.734Z" fill="white" fill-opacity="0.24"/>
<path d="M232.84 118.415L230.507 114.375L235.165 114.375L232.84 118.415Z" fill="white" fill-opacity="0.24"/>
<path d="M229.418 141.795L232.839 135.869L236.253 141.795L229.418 141.795Z" fill="white" fill-opacity="0.24"/>
<path d="M232.84 156.321L228.978 149.638L236.695 149.638L232.84 156.321Z" fill="white" fill-opacity="0.24"/>
<path d="M228.419 178.511L232.841 170.841L237.263 178.511L228.419 178.511Z" fill="white" fill-opacity="0.24"/>
<path d="M232.841 193.29L228.261 185.36L237.413 185.36L232.841 193.29Z" fill="white" fill-opacity="0.24"/>
<path d="M243.262 211.532L238.54 203.342L247.983 203.342L243.262 211.532Z" fill="white" fill-opacity="0.24"/>
<path d="M249.047 214.775L253.682 206.735L258.317 214.775L249.047 214.775Z" fill="white" fill-opacity="0.24"/>
<path d="M274.523 229.263L270.093 221.585L278.953 221.585L274.523 229.263Z" fill="white" fill-opacity="0.24"/>
<path d="M280.625 232.663L284.953 225.167L289.272 232.663L280.625 232.663Z" fill="white" fill-opacity="0.24"/>
<path d="M305.793 247.134L301.537 239.748L310.05 239.748L305.793 247.134Z" fill="white" fill-opacity="0.24"/>
<path d="M311.839 250.765L316.214 243.182L320.581 250.765L311.839 250.765Z" fill="white" fill-opacity="0.24"/>
<path d="M333.587 250.244L337.055 244.224L340.531 250.244L333.587 250.244Z" fill="white" fill-opacity="0.24"/>
<path d="M347.477 245.003L345.065 240.814L349.897 240.814L347.477 245.003Z" fill="white" fill-opacity="0.24"/>
<path d="M367.624 230.572L368.326 229.357L369.019 230.572L367.624 230.572Z" fill="white" fill-opacity="0.24"/>
<path d="M378.746 224.307L378.604 224.062L378.888 224.062L378.746 224.307Z" fill="white" fill-opacity="0.24"/>
<path d="M253.682 80.0996L253.24 79.3263L254.123 79.3263L253.682 80.0996Z" fill="white" fill-opacity="0.24"/>
<path d="M242.354 86.127L243.26 84.5646L244.167 86.127L242.354 86.127Z" fill="white" fill-opacity="0.24"/>
<path d="M221.032 86.4121L222.419 84.0055L223.799 86.4121L221.032 86.4121Z" fill="white" fill-opacity="0.24"/>
<path d="M222.419 99.7939L220.567 96.5825L224.272 96.5825L222.419 99.7939Z" fill="white" fill-opacity="0.24"/>
<path d="M219.558 123.403L222.419 118.44L225.273 123.403L219.558 123.403Z" fill="white" fill-opacity="0.24"/>
<path d="M222.42 137.724L219.015 131.829L225.817 131.829L222.42 137.724Z" fill="white" fill-opacity="0.24"/>
<path d="M218.257 160.292L222.419 153.08L226.573 160.292L218.257 160.292Z" fill="white" fill-opacity="0.24"/>
<path d="M222.42 175.062L217.982 167.368L226.85 167.368L222.42 175.062Z" fill="white" fill-opacity="0.24"/>
<path d="M217.707 196.745L222.42 188.586L227.126 196.745L217.707 196.745Z" fill="white" fill-opacity="0.24"/>
<path d="M222.419 211.61L217.626 203.302L227.204 203.302L222.419 211.61Z" fill="white" fill-opacity="0.24"/>
<path d="M227.961 214.909L232.84 206.458L237.712 214.909L227.961 214.909Z" fill="white" fill-opacity="0.24"/>
<path d="M253.682 229.822L248.771 221.3L258.593 221.3L253.682 229.822Z" fill="white" fill-opacity="0.24"/>
<path d="M259.175 233.011L264.102 224.473L269.028 233.011L259.175 233.011Z" fill="white" fill-opacity="0.24"/>
<path d="M284.952 248.065L279.883 239.283L290.012 239.283L284.952 248.065Z" fill="white" fill-opacity="0.24"/>
<path d="M290.226 251.214L295.373 242.282L300.52 251.214L290.226 251.214Z" fill="white" fill-opacity="0.24"/>
<path d="M316.214 266.372L310.941 257.234L321.48 257.234L316.214 266.372Z" fill="white" fill-opacity="0.24"/>
<path d="M321.291 269.393L326.635 260.13L331.98 269.393L321.291 269.393Z" fill="white" fill-opacity="0.24"/>
<path d="M337.055 265.37L332.657 257.739L341.462 257.739L337.055 265.37Z" fill="white" fill-opacity="0.24"/>
<path d="M355.587 249.572L357.904 245.564L360.214 249.572L355.587 249.572Z" fill="white" fill-opacity="0.24"/>
<path d="M368.326 243.812L366.938 241.414L369.705 241.414L368.326 243.812Z" fill="white" fill-opacity="0.24"/>
<path d="M253.508 67.6396L253.682 67.3398L253.847 67.6396L253.508 67.6396Z" fill="white" fill-opacity="0.24"/>
<path d="M232.84 80.6592L231.902 79.0416L233.771 79.0416L232.84 80.6592Z" fill="white" fill-opacity="0.24"/>
<path d="M211.991 81.2119L210.588 78.7738L213.402 78.7738L211.991 81.2119Z" fill="white" fill-opacity="0.24"/>
<path d="M209.657 105.025L211.99 100.977L214.332 105.025L209.657 105.025Z" fill="white" fill-opacity="0.24"/>
<path d="M211.991 118.951L209.201 114.106L214.789 114.106L211.991 118.951Z" fill="white" fill-opacity="0.24"/>
<path d="M208.238 141.985L211.99 135.475L215.75 141.985L208.238 141.985Z" fill="white" fill-opacity="0.24"/>
<path d="M211.991 156.653L207.853 149.473L216.138 149.473L211.991 156.653Z" fill="white" fill-opacity="0.24"/>
<path d="M207.427 178.596L211.991 170.682L216.555 178.596L207.427 178.596Z" fill="white" fill-opacity="0.24"/>
<path d="M211.99 193.375L207.348 185.319L216.641 185.319L211.99 193.375Z" fill="white" fill-opacity="0.24"/>
<path d="M207.262 214.831L211.992 206.624L216.729 214.831L207.262 214.831Z" fill="white" fill-opacity="0.24"/>
<path d="M232.84 229.901L227.858 221.261L237.814 221.261L232.84 229.901Z" fill="white" fill-opacity="0.24"/>
<path d="M238.161 233.112L243.261 224.267L248.361 233.112L238.161 233.112Z" fill="white" fill-opacity="0.24"/>
<path d="M264.103 248.437L258.719 239.094L269.494 239.094L264.103 248.437Z" fill="white" fill-opacity="0.24"/>
<path d="M268.927 251.474L274.524 241.76L280.128 251.474L268.927 251.474Z" fill="white" fill-opacity="0.24"/>
<path d="M295.372 267.122L289.452 256.864L301.284 256.864L295.372 267.122Z" fill="white" fill-opacity="0.24"/>
<path d="M299.779 269.78L305.794 259.357L311.808 269.78L299.779 269.78Z" fill="white" fill-opacity="0.24"/>
<path d="M326.635 285.522L320.432 274.768L332.839 274.768L326.635 285.522Z" fill="white" fill-opacity="0.24"/>
<path d="M343.236 268.762L347.477 261.392L351.725 268.762L343.236 268.762Z" fill="white" fill-opacity="0.24"/>
<path d="M357.906 263.941L354.737 258.449L361.066 258.449L357.906 263.941Z" fill="white" fill-opacity="0.24"/>
<path d="M377.517 248.941L378.746 246.819L379.976 248.941L377.517 248.941Z" fill="white" fill-opacity="0.24"/>
<path d="M243.261 61.8408L242.977 61.3516L243.545 61.3516L243.261 61.8408Z" fill="white" fill-opacity="0.24"/>
<path d="M232.218 67.8916L232.841 66.8185L233.455 67.8916L232.218 67.8916Z" fill="white" fill-opacity="0.24"/>
<path d="M199.694 86.6875L201.57 83.4366L203.446 86.6875L199.694 86.6875Z" fill="white" fill-opacity="0.24"/>
<path d="M201.57 100.362L199.229 96.2987L203.911 96.2987L201.57 100.362Z" fill="white" fill-opacity="0.24"/>
<path d="M198.339 123.615L201.571 118.012L204.803 123.615L198.339 123.615Z" fill="white" fill-opacity="0.24"/>
<path d="M201.569 138.056L197.888 131.664L205.251 131.664L201.569 138.056Z" fill="white" fill-opacity="0.24"/>
<path d="M197.354 160.322L201.571 153.007L205.796 160.322L197.354 160.322Z" fill="white" fill-opacity="0.24"/>
<path d="M201.57 175.022L197.171 167.392L205.976 167.392L201.57 175.022Z" fill="white" fill-opacity="0.24"/>
<path d="M197.148 196.588L201.57 188.91L205.992 196.588L197.148 196.588Z" fill="white" fill-opacity="0.24"/>
<path d="M201.571 211.145L197.18 203.539L205.961 203.539L201.571 211.145Z" fill="white" fill-opacity="0.24"/>
<path d="M211.991 229.545L207.325 221.442L216.665 221.442L211.991 229.545Z" fill="white" fill-opacity="0.24"/>
<path d="M217.524 232.995L222.419 224.513L227.306 232.995L217.524 232.995Z" fill="white" fill-opacity="0.24"/>
<path d="M243.261 248.342L237.956 239.15L248.566 239.15L243.261 248.342Z" fill="white" fill-opacity="0.24"/>
<path d="M248.14 251.435L253.681 241.832L259.222 251.435L248.14 251.435Z" fill="white" fill-opacity="0.24"/>
<path d="M274.523 267.445L268.327 256.698L280.726 256.698L274.523 267.445Z" fill="white" fill-opacity="0.24"/>
<path d="M278.496 270.033L284.952 258.844L291.4 270.033L278.496 270.033Z" fill="white" fill-opacity="0.24"/>
<path d="M305.794 286.13L299.062 274.46L312.518 274.46L305.794 286.13Z" fill="white" fill-opacity="0.24"/>
<path d="M309.293 288.371L316.214 276.377L323.135 288.371L309.293 288.371Z" fill="white" fill-opacity="0.24"/>
<path d="M330.883 287.944L337.055 277.245L343.227 287.944L330.883 287.944Z" fill="white" fill-opacity="0.24"/>
<path d="M347.477 284.275L342.361 275.39L352.6 275.39L347.477 284.275Z" fill="white" fill-opacity="0.24"/>
<path d="M365.44 267.973L368.325 262.971L371.21 267.973L365.44 267.973Z" fill="white" fill-opacity="0.24"/>
<path d="M378.746 262.442L376.87 259.199L380.614 259.199L378.746 262.442Z" fill="white" fill-opacity="0.24"/>
<path d="M243.167 49.5234L243.262 49.3571L243.357 49.5234L243.167 49.5234Z" fill="white" fill-opacity="0.24"/>
<path d="M222.419 62.3135L221.726 61.1142L223.105 61.1142L222.419 62.3135Z" fill="white" fill-opacity="0.24"/>
<path d="M210.936 68.1533L211.992 66.3148L213.056 68.1533L210.936 68.1533Z" fill="white" fill-opacity="0.24"/>
<path d="M189.683 68.3896L191.149 65.8411L192.623 68.3896L189.683 68.3896Z" fill="white" fill-opacity="0.24"/>
<path d="M191.149 81.7168L189.305 78.5211L192.994 78.5211L191.149 81.7168Z" fill="white" fill-opacity="0.24"/>
<path d="M188.478 105.223L191.15 100.583L193.822 105.223L188.478 105.223Z" fill="white" fill-opacity="0.24"/>
<path d="M191.15 119.252L188.099 113.957L194.2 113.957L191.15 119.252Z" fill="white" fill-opacity="0.24"/>
<path d="M187.405 141.976L191.149 135.49L194.893 141.976L187.405 141.976Z" fill="white" fill-opacity="0.24"/>
<path d="M191.149 156.424L187.208 149.583L195.091 149.583L191.149 156.424Z" fill="white" fill-opacity="0.24"/>
<path d="M187.066 178.313L191.149 171.236L195.232 178.313L187.066 178.313Z" fill="white" fill-opacity="0.24"/>
<path d="M191.15 192.666L187.114 185.675L195.185 185.675L191.15 192.666Z" fill="white" fill-opacity="0.24"/>
<path d="M187.256 214.349L191.15 207.594L195.044 214.349L187.256 214.349Z" fill="white" fill-opacity="0.24"/>
<path d="M191.15 228.481L187.398 221.971L194.902 221.971L191.15 228.481Z" fill="white" fill-opacity="0.24"/>
<path d="M197.354 232.607L201.571 225.285L205.796 232.607L197.354 232.607Z" fill="white" fill-opacity="0.24"/>
<path d="M222.42 247.939L217.461 239.346L227.37 239.346L222.42 247.939Z" fill="white" fill-opacity="0.24"/>
<path d="M227.631 251.245L232.841 242.218L238.044 251.245L227.631 251.245Z" fill="white" fill-opacity="0.24"/>
<path d="M253.682 267.066L247.81 256.888L259.555 256.888L253.682 267.066Z" fill="white" fill-opacity="0.24"/>
<path d="M257.828 269.93L264.102 259.049L270.377 269.93L257.828 269.93Z" fill="white" fill-opacity="0.24"/>
<path d="M284.952 286.453L277.937 274.302L291.96 274.302L284.952 286.453Z" fill="white" fill-opacity="0.24"/>
<path d="M288.082 288.584L295.373 275.951L302.656 288.584L288.082 288.584Z" fill="white" fill-opacity="0.24"/>
<path d="M316.214 305.091L308.709 292.087L323.718 292.087L316.214 305.091Z" fill="white" fill-opacity="0.24"/>
<path d="M319.075 306.811L326.635 293.705L334.194 306.811L319.075 306.811Z" fill="white" fill-opacity="0.24"/>
<path d="M337.055 304.444L330.111 292.411L344 292.411L337.055 304.444Z" fill="white" fill-opacity="0.24"/>
<path d="M353.01 287.203L357.905 278.721L362.792 287.203L353.01 287.203Z" fill="white" fill-opacity="0.24"/>
<path d="M368.325 282.609L364.636 276.218L372.014 276.218L368.325 282.609Z" fill="white" fill-opacity="0.24"/>
<path d="M232.841 43.668L232.651 43.3366L233.03 43.3366L232.841 43.668Z" fill="white" fill-opacity="0.24"/>
<path d="M221.978 49.7207L222.419 48.9633L222.853 49.7207L221.978 49.7207Z" fill="white" fill-opacity="0.24"/>
<path d="M201.57 62.8428L200.427 60.8544L202.721 60.8544L201.57 62.8428Z" fill="white" fill-opacity="0.24"/>
<path d="M180.728 63.1738L179.293 60.6805L182.163 60.6805L180.728 63.1738Z" fill="white" fill-opacity="0.24"/>
<path d="M178.617 86.8291L180.729 83.1678L182.842 86.8291L178.617 86.8291Z" fill="white" fill-opacity="0.24"/>
<path d="M180.729 100.512L178.253 96.2271L183.204 96.2271L180.729 100.512Z" fill="white" fill-opacity="0.24"/>
<path d="M177.639 123.536L180.729 118.171L183.819 123.536L177.639 123.536Z" fill="white" fill-opacity="0.24"/>
<path d="M180.728 137.661L177.386 131.862L184.071 131.862L180.728 137.661Z" fill="white" fill-opacity="0.24"/>
<path d="M177.189 159.927L180.729 153.796L184.268 159.927L177.189 159.927Z" fill="white" fill-opacity="0.24"/>
<path d="M180.728 174.1L177.126 167.85L184.331 167.85L180.728 174.1Z" fill="white" fill-opacity="0.24"/>
<path d="M177.308 196.003L180.729 190.07L184.15 196.003L177.308 196.003Z" fill="white" fill-opacity="0.24"/>
<path d="M180.728 209.97L177.354 204.123L184.094 204.123L180.728 209.97Z" fill="white" fill-opacity="0.24"/>
<path d="M177.639 231.954L180.729 226.596L183.819 231.954L177.639 231.954Z" fill="white" fill-opacity="0.24"/>
<path d="M201.571 246.976L197.448 239.827L205.693 239.827L201.571 246.976Z" fill="white" fill-opacity="0.24"/>
<path d="M207.356 250.914L211.991 242.874L216.634 250.914L207.356 250.914Z" fill="white" fill-opacity="0.24"/>
<path d="M232.84 266.419L227.527 257.211L238.153 257.211L232.84 266.419Z" fill="white" fill-opacity="0.24"/>
<path d="M237.562 269.599L243.261 259.72L248.96 269.599L237.562 269.599Z" fill="white" fill-opacity="0.24"/>
<path d="M264.102 286.011L257.473 274.522L270.731 274.522L264.102 286.011Z" fill="white" fill-opacity="0.24"/>
<path d="M267.438 288.472L274.524 276.179L281.61 288.472L267.438 288.472Z" fill="white" fill-opacity="0.24"/>
<path d="M295.372 305.375L287.624 291.945L303.113 291.945L295.372 305.375Z" fill="white" fill-opacity="0.24"/>
<path d="M297.958 306.969L305.793 293.389L313.621 306.969L297.958 306.969Z" fill="white" fill-opacity="0.24"/>
<path d="M326.635 323.626L318.729 309.92L334.541 309.92L326.635 323.626Z" fill="white" fill-opacity="0.24"/>
<path d="M340.831 306.29L347.476 294.754L354.128 306.29L340.831 306.29Z" fill="white" fill-opacity="0.24"/>
<path d="M357.906 302.96L352.246 293.152L363.558 293.152L357.906 302.96Z" fill="white" fill-opacity="0.24"/>
<path d="M375.413 286.302L378.747 280.518L382.081 286.302L375.413 286.302Z" fill="white" fill-opacity="0.24"/>
<path d="M232.746 31.4531L232.841 31.2946L232.936 31.4531L232.746 31.4531Z" fill="white" fill-opacity="0.24"/>
<path d="M211.992 44.0459L211.472 43.1465L212.52 43.1465L211.992 44.0459Z" fill="white" fill-opacity="0.24"/>
<path d="M200.734 49.9492L201.57 48.5052L202.405 49.9492L200.734 49.9492Z" fill="white" fill-opacity="0.24"/>
<path d="M168.677 68.4834L170.308 65.6506L171.94 68.4834L168.677 68.4834Z" fill="white" fill-opacity="0.24"/>
<path d="M170.308 81.7803L168.409 78.4899L172.208 78.4899L170.308 81.7803Z" fill="white" fill-opacity="0.24"/>
<path d="M167.833 105.104L170.309 100.819L172.784 105.104L167.833 105.104Z" fill="white" fill-opacity="0.24"/>
<path d="M170.308 118.834L167.612 114.171L172.996 114.171L170.308 118.834Z" fill="white" fill-opacity="0.24"/>
<path d="M167.272 141.566L170.307 136.319L173.334 141.566L167.272 141.566Z" fill="white" fill-opacity="0.24"/>
<path d="M170.308 155.422L167.226 150.08L173.382 150.08L170.308 155.422Z" fill="white" fill-opacity="0.24"/>
<path d="M167.272 177.706L170.307 172.451L173.334 177.706L167.272 177.706Z" fill="white" fill-opacity="0.24"/>
<path d="M170.308 191.388L167.375 186.315L173.232 186.315L170.308 191.388Z" fill="white" fill-opacity="0.24"/>
<path d="M167.581 213.67L170.308 208.943L173.036 213.67L167.581 213.67Z" fill="white" fill-opacity="0.24"/>
<path d="M170.308 227.116L167.73 222.658L172.878 222.658L170.308 227.116Z" fill="white" fill-opacity="0.24"/>
<path d="M180.73 245.707L177.703 240.46L183.756 240.46L180.73 245.707Z" fill="white" fill-opacity="0.24"/>
<path d="M187.586 250.299L191.149 244.113L194.712 250.299L187.586 250.299Z" fill="white" fill-opacity="0.24"/>
<path d="M211.992 265.606L207.388 257.613L216.603 257.613L211.992 265.606Z" fill="white" fill-opacity="0.24"/>
<path d="M217.391 269.211L222.42 260.492L227.441 269.211L217.391 269.211Z" fill="white" fill-opacity="0.24"/>
<path d="M243.261 285.119L237.404 274.963L249.117 274.963L243.261 285.119Z" fill="white" fill-opacity="0.24"/>
<path d="M247.337 288.039L253.682 277.039L260.028 288.039L247.337 288.039Z" fill="white" fill-opacity="0.24"/>
<path d="M274.523 304.894L267.2 292.182L281.853 292.182L274.523 304.894Z" fill="white" fill-opacity="0.24"/>
<path d="M277.204 306.921L284.952 293.492L292.693 306.921L277.204 306.921Z" fill="white" fill-opacity="0.24"/>
<path d="M305.792 323.815L297.729 309.833L313.856 309.833L305.792 323.815Z" fill="white" fill-opacity="0.24"/>
<path d="M308.087 325.212L316.214 311.127L324.341 325.212L308.087 325.212Z" fill="white" fill-opacity="0.24"/>
<path d="M329.394 324.943L337.055 311.655L344.717 324.943L329.394 324.943Z" fill="white" fill-opacity="0.24"/>
<path d="M347.476 322.631L340.437 310.417L354.523 310.417L347.476 322.631Z" fill="white" fill-opacity="0.24"/>
<path d="M363.194 305.407L368.326 296.514L373.45 305.407L363.194 305.407Z" fill="white" fill-opacity="0.24"/>
<path d="M378.746 301.074L374.718 294.091L382.774 294.091L378.746 301.074Z" fill="white" fill-opacity="0.24"/>
<path d="M222.42 25.5674L222.246 25.2755L222.585 25.2755L222.42 25.5674Z" fill="white" fill-opacity="0.24"/>
<path d="M211.66 31.5957L211.991 31.0039L212.33 31.5957L211.66 31.5957Z" fill="white" fill-opacity="0.24"/>
<path d="M191.15 44.4258L190.299 42.9581L192.001 42.9581L191.15 44.4258Z" fill="white" fill-opacity="0.24"/>
<path d="M179.609 50.1152L180.729 48.1742L181.848 50.1152L179.609 50.1152Z" fill="white" fill-opacity="0.24"/>
<path d="M158.681 50.1611L159.887 48.0702L161.093 50.1611L158.681 50.1611Z" fill="white" fill-opacity="0.24"/>
<path d="M159.888 63.1738L158.445 60.6805L161.322 60.6805L159.888 63.1738Z" fill="white" fill-opacity="0.24"/>
<path d="M157.987 86.7031L159.887 83.4128L161.779 86.7031L157.987 86.7031Z" fill="white" fill-opacity="0.24"/>
<path d="M159.887 100.102L157.767 96.4324L162 96.4324L159.887 100.102Z" fill="white" fill-opacity="0.24"/>
<path d="M157.452 123.158L159.887 118.928L162.323 123.158L157.452 123.158Z" fill="white" fill-opacity="0.24"/>
<path d="M159.888 136.714L157.357 132.335L162.41 132.335L159.888 136.714Z" fill="white" fill-opacity="0.24"/>
<path d="M157.341 159.36L159.887 154.941L162.426 159.36L157.341 159.36Z" fill="white" fill-opacity="0.24"/>
<path d="M159.888 172.813L157.389 168.489L162.379 168.489L159.888 172.813Z" fill="white" fill-opacity="0.24"/>
<path d="M157.554 195.373L159.887 191.333L162.213 195.373L157.554 195.373Z" fill="white" fill-opacity="0.24"/>
<path d="M159.887 208.636L157.664 204.793L162.102 204.793L159.887 208.636Z" fill="white" fill-opacity="0.24"/>
<path d="M157.861 231.337L159.887 227.826L161.913 231.337L157.861 231.337Z" fill="white" fill-opacity="0.24"/>
<path d="M159.888 244.562L157.854 241.035L161.921 241.035L159.888 244.562Z" fill="white" fill-opacity="0.24"/>
<path d="M167.802 249.683L170.308 245.335L172.815 249.683L167.802 249.683Z" fill="white" fill-opacity="0.24"/>
<path d="M191.15 264.344L187.634 258.252L194.665 258.252L191.15 264.344Z" fill="white" fill-opacity="0.24"/>
<path d="M197.535 268.636L201.571 261.637L205.614 268.636L197.535 268.636Z" fill="white" fill-opacity="0.24"/>
<path d="M222.419 284.22L217.343 275.422L227.488 275.422L222.419 284.22Z" fill="white" fill-opacity="0.24"/>
<path d="M227.377 287.534L232.84 278.065L238.303 287.534L227.377 287.534Z" fill="white" fill-opacity="0.24"/>
<path d="M253.682 303.859L247.242 292.702L260.122 292.702L253.682 303.859Z" fill="white" fill-opacity="0.24"/>
<path d="M257.166 306.455L264.102 294.422L271.039 306.455L257.166 306.455Z" fill="white" fill-opacity="0.24"/>
<path d="M284.952 323.539L277.117 309.967L292.779 309.967L284.952 323.539Z" fill="white" fill-opacity="0.24"/>
<path d="M287.285 325.188L295.372 311.166L303.452 325.188L287.285 325.188Z" fill="white" fill-opacity="0.24"/>
<path d="M316.214 341.956L308.087 327.863L324.341 327.863L316.214 341.956Z" fill="white" fill-opacity="0.24"/>
<path d="M318.674 343.186L326.635 329.378L334.604 343.186L318.674 343.186Z" fill="white" fill-opacity="0.24"/>
<path d="M337.055 341.498L329.33 328.091L344.788 328.091L337.055 341.498Z" fill="white" fill-opacity="0.24"/>
<path d="M351.458 324.241L357.905 313.068L364.346 324.241L351.458 324.241Z" fill="white" fill-opacity="0.24"/>
<path d="M368.325 320.84L362.831 311.316L373.811 311.316L368.325 320.84Z" fill="white" fill-opacity="0.24"/>
<path d="M222.325 13.3848L222.42 13.2183L222.507 13.3848L222.325 13.3848Z" fill="white" fill-opacity="0.24"/>
<path d="M201.571 25.8594L201.153 25.1335L201.989 25.1335L201.571 25.8594Z" fill="white" fill-opacity="0.24"/>
<path d="M190.526 31.7607L191.149 30.6797L191.78 31.7607L190.526 31.7607Z" fill="white" fill-opacity="0.24"/>
<path d="M170.307 44.6533L169.259 42.8385L171.348 42.8385L170.307 44.6533Z" fill="white" fill-opacity="0.24"/>
<path d="M149.467 44.6787L148.395 42.8244L150.531 42.8244L149.467 44.6787Z" fill="white" fill-opacity="0.24"/>
<path d="M148.024 68.3662L149.466 65.8807L150.901 68.3662L148.024 68.3662Z" fill="white" fill-opacity="0.24"/>
<path d="M149.466 81.4248L147.866 78.6631L151.059 78.6631L149.466 81.4248Z" fill="white" fill-opacity="0.24"/>
<path d="M147.552 104.78L149.467 101.466L151.375 104.78L147.552 104.78Z" fill="white" fill-opacity="0.24"/>
<path d="M149.467 118.061L147.449 114.558L151.477 114.558L149.467 118.061Z" fill="white" fill-opacity="0.24"/>
<path d="M147.323 141.054L149.467 137.345L151.603 141.054L147.323 141.054Z" fill="white" fill-opacity="0.24"/>
<path d="M149.466 154.286L147.362 150.649L151.563 150.649L149.466 154.286Z" fill="white" fill-opacity="0.24"/>
<path d="M147.44 177.122L149.466 173.618L151.484 177.122L147.44 177.122Z" fill="white" fill-opacity="0.24"/>
<path d="M149.467 190.228L147.536 186.89L151.39 186.89L149.467 190.228Z" fill="white" fill-opacity="0.24"/>
<path d="M147.708 213.11L149.466 210.072L151.216 213.11L147.708 213.11Z" fill="white" fill-opacity="0.24"/>
<path d="M149.467 226.043L147.82 223.194L151.107 223.194L149.467 226.043Z" fill="white" fill-opacity="0.24"/>
<path d="M147.772 249.209L149.467 246.282L151.154 249.209L147.772 249.209Z" fill="white" fill-opacity="0.24"/>
<path d="M170.307 263.167L167.809 258.836L172.806 258.836L170.307 263.167Z" fill="white" fill-opacity="0.24"/>
<path d="M177.726 268.037L180.729 262.837L183.724 268.037L177.726 268.037Z" fill="white" fill-opacity="0.24"/>
<path d="M201.571 282.974L197.574 276.038L205.567 276.038L201.571 282.974Z" fill="white" fill-opacity="0.24"/>
<path d="M207.435 287.014L211.991 279.099L216.555 287.014L207.435 287.014Z" fill="white" fill-opacity="0.24"/>
<path d="M232.84 302.645L227.448 293.31L238.224 293.31L232.84 302.645Z" fill="white" fill-opacity="0.24"/>
<path d="M237.468 305.792L243.261 295.748L249.055 305.792L237.468 305.792Z" fill="white" fill-opacity="0.24"/>
<path d="M264.102 322.434L257.236 310.519L270.976 310.519L264.102 322.434Z" fill="white" fill-opacity="0.24"/>
<path d="M267.153 324.769L274.524 311.994L281.894 324.769L267.153 324.769Z" fill="white" fill-opacity="0.24"/>
<path d="M295.373 341.837L287.348 327.926L303.397 327.926L295.373 341.837Z" fill="white" fill-opacity="0.24"/>
<path d="M297.745 343.233L305.793 329.291L313.833 343.233L297.745 343.233Z" fill="white" fill-opacity="0.24"/>
<path d="M326.635 359.59L318.878 346.145L334.391 346.145L326.635 359.59Z" fill="white" fill-opacity="0.24"/>
<path d="M340.358 342.697L347.476 330.356L354.602 342.697L340.358 342.697Z" fill="white" fill-opacity="0.24"/>
<path d="M357.905 340.038L351.433 328.826L364.368 328.826L357.905 340.038Z" fill="white" fill-opacity="0.24"/>
<path d="M374.134 323.184L378.746 315.183L383.357 323.184L374.134 323.184Z" fill="white" fill-opacity="0.24"/>
<path d="M211.991 7.49707L211.825 7.2052L212.164 7.2052L211.991 7.49707Z" fill="white" fill-opacity="0.24"/>
<path d="M201.287 13.4951L201.57 12.998L201.862 13.4951L201.287 13.4951Z" fill="white" fill-opacity="0.24"/>
<path d="M180.728 26.1201L180.082 24.9997L181.374 24.9997L180.728 26.1201Z" fill="white" fill-opacity="0.24"/>
<path d="M169.504 31.8633L170.308 30.4666L171.112 31.8633L169.504 31.8633Z" fill="white" fill-opacity="0.24"/>
<path d="M137.942 50.1064L139.038 48.197L140.141 50.1064L137.942 50.1064Z" fill="white" fill-opacity="0.24"/>
<path d="M139.038 62.9287L137.816 60.8062L140.26 60.8062L139.038 62.9287Z" fill="white" fill-opacity="0.24"/>
<path d="M137.611 86.4346L139.038 83.9569L140.473 86.4346L137.611 86.4346Z" fill="white" fill-opacity="0.24"/>
<path d="M139.039 99.4307L137.501 96.7637L140.576 96.7637L139.039 99.4307Z" fill="white" fill-opacity="0.24"/>
<path d="M137.367 122.715L139.038 119.812L140.717 122.715L137.367 122.715Z" fill="white" fill-opacity="0.24"/>
<path d="M139.038 135.744L137.351 132.816L140.733 132.816L139.038 135.744Z" fill="white" fill-opacity="0.24"/>
<path d="M137.375 158.847L139.039 155.959L140.71 158.847L137.375 158.847Z" fill="white" fill-opacity="0.24"/>
<path d="M139.039 171.795L137.431 169.002L140.655 169.002L139.039 171.795Z" fill="white" fill-opacity="0.24"/>
<path d="M137.541 194.891L139.038 192.287L140.544 194.891L137.541 194.891Z" fill="white" fill-opacity="0.24"/>
<path d="M139.039 207.69L137.644 205.268L140.442 205.268L139.039 207.69Z" fill="white" fill-opacity="0.24"/>
<path d="M137.745 230.912L139.038 228.671L140.331 230.912L137.745 230.912Z" fill="white" fill-opacity="0.24"/>
<path d="M139.038 243.734L137.722 241.454L140.362 241.454L139.038 243.734Z" fill="white" fill-opacity="0.24"/>
<path d="M149.467 262.324L147.694 259.262L151.233 259.262L149.467 262.324Z" fill="white" fill-opacity="0.24"/>
<path d="M157.783 267.516L159.888 263.878L161.985 267.516L157.783 267.516Z" fill="white" fill-opacity="0.24"/>
<path d="M180.729 281.798L177.742 276.63L183.709 276.63L180.729 281.798Z" fill="white" fill-opacity="0.24"/>
<path d="M187.737 286.351L191.15 280.425L194.563 286.351L187.737 286.351Z" fill="white" fill-opacity="0.24"/>
<path d="M211.991 301.508L207.593 293.878L216.398 293.878L211.991 301.508Z" fill="white" fill-opacity="0.24"/>
<path d="M217.611 305.217L222.419 296.892L227.22 305.217L217.611 305.217Z" fill="white" fill-opacity="0.24"/>
<path d="M243.261 320.975L237.649 311.246L248.866 311.246L243.261 320.975Z" fill="white" fill-opacity="0.24"/>
<path d="M247.518 324.076L253.682 313.392L259.846 324.076L247.518 324.076Z" fill="white" fill-opacity="0.24"/>
<path d="M274.523 340.906L267.303 328.383L281.744 328.383L274.523 340.906Z" fill="white" fill-opacity="0.24"/>
<path d="M277.321 342.988L284.952 329.772L292.574 342.988L277.321 342.988Z" fill="white" fill-opacity="0.24"/>
<path d="M305.793 359.646L297.99 346.122L313.589 346.122L305.793 359.646Z" fill="white" fill-opacity="0.24"/>
<path d="M308.457 361.137L316.213 347.692L323.97 361.137L308.457 361.137Z" fill="white" fill-opacity="0.24"/>
<path d="M329.804 360.845L337.056 348.268L344.308 360.845L329.804 360.845Z" fill="white" fill-opacity="0.24"/>
<path d="M347.475 358.613L340.578 346.643L354.38 346.643L347.475 358.613Z" fill="white" fill-opacity="0.24"/>
<path d="M362.76 341.798L368.325 332.148L373.89 341.798L362.76 341.798Z" fill="white" fill-opacity="0.24"/>
<path d="M378.746 337.955L374.072 329.859L383.413 329.859L378.746 337.955Z" fill="white" fill-opacity="0.24"/>
<path d="M191.149 7.69434L190.81 7.11044L191.488 7.11044L191.149 7.69434Z" fill="white" fill-opacity="0.24"/>
<path d="M180.255 13.6055L180.728 12.7769L181.201 13.6055L180.255 13.6055Z" fill="white" fill-opacity="0.24"/>
<path d="M159.888 26.2461L159.131 24.9442L160.636 24.9442L159.888 26.2461Z" fill="white" fill-opacity="0.24"/>
<path d="M148.608 31.8955L149.467 30.4121L150.318 31.8955L148.608 31.8955Z" fill="white" fill-opacity="0.24"/>
<path d="M127.869 31.832L128.617 30.53L129.366 31.832L127.869 31.832Z" fill="white" fill-opacity="0.24"/>
<path d="M128.617 44.4971L127.711 42.919L129.524 42.919L128.617 44.4971Z" fill="white" fill-opacity="0.24"/>
<path d="M127.553 68.1533L128.617 66.3148L129.681 68.1533L127.553 68.1533Z" fill="white" fill-opacity="0.24"/>
<path d="M128.618 80.8721L127.506 78.9389L129.729 78.9389L128.618 80.8721Z" fill="white" fill-opacity="0.24"/>
<path d="M127.403 104.379L128.617 102.272L129.831 104.379L127.403 104.379Z" fill="white" fill-opacity="0.24"/>
<path d="M128.617 117.185L127.355 114.991L129.878 114.991L128.617 117.185Z" fill="white" fill-opacity="0.24"/>
<path d="M127.355 140.549L128.617 138.356L129.878 140.549L127.355 140.549Z" fill="white" fill-opacity="0.24"/>
<path d="M128.617 153.316L127.355 151.138L129.878 151.138L128.617 153.316Z" fill="white" fill-opacity="0.24"/>
<path d="M127.411 176.648L128.617 174.565L129.823 176.648L127.411 176.648Z" fill="white" fill-opacity="0.24"/>
<path d="M128.618 189.368L127.436 187.324L129.8 187.324L128.618 189.368Z" fill="white" fill-opacity="0.24"/>
<path d="M127.569 212.7L128.617 210.885L129.666 212.7L127.569 212.7Z" fill="white" fill-opacity="0.24"/>
<path d="M128.617 225.293L127.624 223.565L129.618 223.565L128.617 225.293Z" fill="white" fill-opacity="0.24"/>
<path d="M127.506 248.878L128.618 246.953L129.729 248.878L127.506 248.878Z" fill="white" fill-opacity="0.24"/>
<path d="M128.617 261.708L127.387 259.57L129.854 259.57L128.617 261.708Z" fill="white" fill-opacity="0.24"/>
<path d="M137.485 267.209L139.038 264.51L140.599 267.209L137.485 267.209Z" fill="white" fill-opacity="0.24"/>
<path d="M159.888 280.859L157.712 277.095L162.055 277.095L159.888 280.859Z" fill="white" fill-opacity="0.24"/>
<path d="M167.778 285.837L170.309 281.45L172.831 285.837L167.778 285.837Z" fill="white" fill-opacity="0.24"/>
<path d="M191.149 300.23L187.854 294.517L194.444 294.517L191.149 300.23Z" fill="white" fill-opacity="0.24"/>
<path d="M197.881 304.577L201.57 298.178L205.259 304.577L197.881 304.577Z" fill="white" fill-opacity="0.24"/>
<path d="M222.42 319.783L217.84 311.845L226.991 311.845L222.42 319.783Z" fill="white" fill-opacity="0.24"/>
<path d="M227.913 323.357L232.84 314.82L237.766 323.357L227.913 323.357Z" fill="white" fill-opacity="0.24"/>
<path d="M253.681 339.415L247.746 329.133L259.617 329.133L253.681 339.415Z" fill="white" fill-opacity="0.24"/>
<path d="M257.615 342.334L264.102 331.083L270.589 342.334L257.615 342.334Z" fill="white" fill-opacity="0.24"/>
<path d="M284.951 359.148L277.573 346.365L292.322 346.365L284.951 359.148Z" fill="white" fill-opacity="0.24"/>
<path d="M287.797 361.027L295.372 347.905L302.94 361.027L287.797 361.027Z" fill="white" fill-opacity="0.24"/>
<path d="M316.214 377.29L308.78 364.404L323.647 364.404L316.214 377.29Z" fill="white" fill-opacity="0.24"/>
<path d="M319.501 378.844L326.635 366.472L333.777 378.844L319.501 378.844Z" fill="white" fill-opacity="0.24"/>
<path d="M337.056 376.658L330.174 364.72L343.945 364.72L337.056 376.658Z" fill="white" fill-opacity="0.24"/>
<path d="M351.907 360.12L357.905 349.72L363.896 360.12L351.907 360.12Z" fill="white" fill-opacity="0.24"/>
<path d="M368.325 356.797L362.989 347.549L373.662 347.549L368.325 356.797Z" fill="white" fill-opacity="0.24"/>
<path d="M170.307 7.85254L169.834 7.03189L170.772 7.03189L170.307 7.85254Z" fill="white" fill-opacity="0.24"/>
<path d="M159.305 13.6602L159.888 12.6581L160.463 13.6602L159.305 13.6602Z" fill="white" fill-opacity="0.24"/>
<path d="M139.038 26.2461L138.29 24.9442L139.795 24.9442L139.038 26.2461Z" fill="white" fill-opacity="0.24"/>
<path d="M118.196 26.0645L117.605 25.0308L118.787 25.0308L118.196 26.0645Z" fill="white" fill-opacity="0.24"/>
<path d="M117.447 49.9023L118.196 48.6004L118.945 49.9023L117.447 49.9023Z" fill="white" fill-opacity="0.24"/>
<path d="M118.198 62.4326L117.401 61.0518L118.994 61.0518L118.198 62.4326Z" fill="white" fill-opacity="0.24"/>
<path d="M117.401 86.0723L118.198 84.6835L118.994 86.0723L117.401 86.0723Z" fill="white" fill-opacity="0.24"/>
<path d="M118.197 98.6104L117.369 97.1742L119.024 97.1742L118.197 98.6104Z" fill="white" fill-opacity="0.24"/>
<path d="M117.353 122.234L118.196 120.774L119.04 122.234L117.353 122.234Z" fill="white" fill-opacity="0.24"/>
<path d="M118.196 134.765L117.361 133.313L119.032 133.313L118.196 134.765Z" fill="white" fill-opacity="0.24"/>
<path d="M117.361 158.374L118.196 156.914L119.032 158.374L117.361 158.374Z" fill="white" fill-opacity="0.24"/>
<path d="M118.196 170.84L117.408 169.483L118.985 169.483L118.196 170.84Z" fill="white" fill-opacity="0.24"/>
<path d="M117.408 194.48L118.196 193.115L118.985 194.48L117.408 194.48Z" fill="white" fill-opacity="0.24"/>
<path d="M118.196 206.917L117.463 205.655L118.93 205.655L118.196 206.917Z" fill="white" fill-opacity="0.24"/>
<path d="M117.463 230.588L118.196 229.318L118.93 230.588L117.463 230.588Z" fill="white" fill-opacity="0.24"/>
<path d="M118.197 243.142L117.393 241.745L119.001 241.745L118.197 243.142Z" fill="white" fill-opacity="0.24"/>
<path d="M117.101 266.94L118.197 265.038L119.292 266.94L117.101 266.94Z" fill="white" fill-opacity="0.24"/>
<path d="M139.037 280.235L137.406 277.411L140.669 277.411L139.037 280.235Z" fill="white" fill-opacity="0.24"/>
<path d="M147.511 285.506L149.466 282.113L151.413 285.506L147.511 285.506Z" fill="white" fill-opacity="0.24"/>
<path d="M170.308 299.299L167.817 294.983L172.791 294.983L170.308 299.299Z" fill="white" fill-opacity="0.24"/>
<path d="M177.938 304.056L180.729 299.219L183.519 304.056L177.938 304.056Z" fill="white" fill-opacity="0.24"/>
<path d="M201.571 318.473L198.126 312.499L205.024 312.499L201.571 318.473Z" fill="white" fill-opacity="0.24"/>
<path d="M208.129 322.75L211.991 316.043L215.862 322.75L208.129 322.75Z" fill="white" fill-opacity="0.24"/>
<path d="M232.841 337.868L228.245 329.907L237.428 329.907L232.841 337.868Z" fill="white" fill-opacity="0.24"/>
<path d="M238.208 341.498L243.261 332.747L248.306 341.498L238.208 341.498Z" fill="white" fill-opacity="0.24"/>
<path d="M264.102 357.784L257.915 347.053L270.29 347.053L264.102 357.784Z" fill="white" fill-opacity="0.24"/>
<path d="M267.823 360.529L274.523 348.906L281.231 360.529L267.823 360.529Z" fill="white" fill-opacity="0.24"/>
<path d="M295.373 377.124L288.082 364.491L302.656 364.491L295.373 377.124Z" fill="white" fill-opacity="0.24"/>
<path d="M298.494 378.938L305.793 366.29L313.085 378.938L298.494 378.938Z" fill="white" fill-opacity="0.24"/>
<path d="M326.635 394.601L319.856 382.852L333.414 382.852L326.635 394.601Z" fill="white" fill-opacity="0.24"/>
<path d="M341.438 378.212L347.476 367.741L353.522 378.212L341.438 378.212Z" fill="white" fill-opacity="0.24"/>
<path d="M357.905 375.048L352.411 365.524L363.392 365.524L357.905 375.048Z" fill="white" fill-opacity="0.24"/>
<path d="M374.529 359.086L378.746 351.779L382.963 359.086L374.529 359.086Z" fill="white" fill-opacity="0.24"/>
<path d="M149.467 7.9082L148.938 7.00079L149.979 7.00079L149.467 7.9082Z" fill="white" fill-opacity="0.24"/>
<path d="M138.446 13.667L139.037 12.6412L139.637 13.667L138.446 13.667Z" fill="white" fill-opacity="0.24"/>
<path d="M107.287 31.6826L107.776 30.8304L108.265 31.6826L107.287 31.6826Z" fill="white" fill-opacity="0.24"/>
<path d="M107.776 44.0713L107.232 43.1324L108.32 43.1324L107.776 44.0713Z" fill="white" fill-opacity="0.24"/>
<path d="M107.232 67.8525L107.776 66.9057L108.32 67.8525L107.232 67.8525Z" fill="white" fill-opacity="0.24"/>
<path d="M107.775 80.2021L107.239 79.2711L108.311 79.2711L107.775 80.2021Z" fill="white" fill-opacity="0.24"/>
<path d="M107.287 103.959L107.776 103.115L108.257 103.959L107.287 103.959Z" fill="white" fill-opacity="0.24"/>
<path d="M107.776 116.285L107.287 115.441L108.257 115.441L107.776 116.285Z" fill="white" fill-opacity="0.24"/>
<path d="M107.295 140.09L107.776 139.262L108.257 140.09L107.295 140.09Z" fill="white" fill-opacity="0.24"/>
<path d="M107.776 152.416L107.295 151.587L108.257 151.587L107.776 152.416Z" fill="white" fill-opacity="0.24"/>
<path d="M107.248 176.261L107.776 175.346L108.296 176.261L107.248 176.261Z" fill="white" fill-opacity="0.24"/>
<path d="M107.776 188.618L107.248 187.695L108.304 187.695L107.776 188.618Z" fill="white" fill-opacity="0.24"/>
<path d="M107.248 212.399L107.776 211.484L108.304 212.399L107.248 212.399Z" fill="white" fill-opacity="0.24"/>
<path d="M107.776 224.772L107.232 223.825L108.32 223.825L107.776 224.772Z" fill="white" fill-opacity="0.24"/>
<path d="M107.019 248.673L107.776 247.364L108.525 248.673L107.019 248.673Z" fill="white" fill-opacity="0.24"/>
<path d="M107.776 261.337L106.861 259.751L108.69 259.751L107.776 261.337Z" fill="white" fill-opacity="0.24"/>
<path d="M118.197 279.793L116.952 277.631L119.443 277.631L118.197 279.793Z" fill="white" fill-opacity="0.24"/>
<path d="M127.151 285.222L128.618 282.673L130.084 285.222L127.151 285.222Z" fill="white" fill-opacity="0.24"/>
<path d="M149.466 298.723L147.472 295.267L151.453 295.267L149.466 298.723Z" fill="white" fill-opacity="0.24"/>
<path d="M157.664 303.726L159.887 299.883L162.102 303.726L157.664 303.726Z" fill="white" fill-opacity="0.24"/>
<path d="M180.728 317.511L178.111 312.982L183.337 312.982L180.728 317.511Z" fill="white" fill-opacity="0.24"/>
<path d="M188.328 322.142L191.15 317.258L193.972 322.142L188.328 322.142Z" fill="white" fill-opacity="0.24"/>
<path d="M211.991 336.598L208.5 330.538L215.491 330.538L211.991 336.598Z" fill="white" fill-opacity="0.24"/>
<path d="M218.557 340.812L222.419 334.128L226.274 340.812L218.557 340.812Z" fill="white" fill-opacity="0.24"/>
<path d="M243.26 355.992L238.625 347.951L247.895 347.951L243.26 355.992Z" fill="white" fill-opacity="0.24"/>
<path d="M248.439 359.685L253.681 350.587L258.923 359.685L248.439 359.685Z" fill="white" fill-opacity="0.24"/>
<path d="M274.524 376.083L268.139 365.012L280.916 365.012L274.524 376.083Z" fill="white" fill-opacity="0.24"/>
<path d="M278.141 378.654L284.952 366.85L291.754 378.654L278.141 378.654Z" fill="white" fill-opacity="0.24"/>
<path d="M305.794 394.877L298.771 382.718L312.809 382.718L305.794 394.877Z" fill="white" fill-opacity="0.24"/>
<path d="M309.372 396.748L316.214 384.88L323.056 396.748L309.372 396.748Z" fill="white" fill-opacity="0.24"/>
<path d="M331.025 396.274L337.056 385.827L343.086 396.274L331.025 396.274Z" fill="white" fill-opacity="0.24"/>
<path d="M347.476 393.157L341.951 383.578L353.002 383.578L347.476 393.157Z" fill="white" fill-opacity="0.24"/>
<path d="M363.903 377.282L368.325 369.612L372.74 377.282L363.903 377.282Z" fill="white" fill-opacity="0.24"/>
<path d="M378.746 373.044L374.986 366.526L382.506 366.526L378.746 373.044Z" fill="white" fill-opacity="0.24"/>
<path d="M128.617 7.87695L128.128 7.02475L129.113 7.02475L128.617 7.87695Z" fill="white" fill-opacity="0.24"/>
<path d="M117.724 13.5977L118.197 12.7849L118.67 13.5977L117.724 13.5977Z" fill="white" fill-opacity="0.24"/>
<path d="M97.1108 13.4629L97.3552 13.0526L97.5917 13.4629L97.1108 13.4629Z" fill="white" fill-opacity="0.24"/>
<path d="M97.3546 25.709L97.063 25.2119L97.6384 25.2119L97.3546 25.709Z" fill="white" fill-opacity="0.24"/>
<path d="M96.9849 49.6816L97.3553 49.0425L97.7179 49.6816L96.9849 49.6816Z" fill="white" fill-opacity="0.24"/>
<path d="M97.3556 61.9023L97.0166 61.3185L97.6945 61.3185L97.3556 61.9023Z" fill="white" fill-opacity="0.24"/>
<path d="M97.1108 85.749L97.3552 85.3308L97.5917 85.749L97.1108 85.749Z" fill="white" fill-opacity="0.24"/>
<path d="M97.3547 97.9238L97.1182 97.5214L97.5833 97.5214L97.3547 97.9238Z" fill="white" fill-opacity="0.24"/>
<path d="M97.127 121.88L97.3555 121.485L97.5841 121.88L97.127 121.88Z" fill="white" fill-opacity="0.24"/>
<path d="M97.3555 134.055L97.127 133.661L97.5841 133.661L97.3555 134.055Z" fill="white" fill-opacity="0.24"/>
<path d="M97.0786 158.05L97.3545 157.569L97.6304 158.05L97.0786 158.05Z" fill="white" fill-opacity="0.24"/>
<path d="M97.355 170.312L97.0239 169.743L97.6781 169.743L97.355 170.312Z" fill="white" fill-opacity="0.24"/>
<path d="M96.9614 194.251L97.3556 193.573L97.7497 194.251L96.9614 194.251Z" fill="white" fill-opacity="0.24"/>
<path d="M97.3544 206.569L96.9209 205.827L97.7801 205.827L97.3544 206.569Z" fill="white" fill-opacity="0.24"/>
<path d="M96.8193 230.469L97.3553 229.554L97.8835 230.469L96.8193 230.469Z" fill="white" fill-opacity="0.24"/>
<path d="M97.3549 242.959L96.7007 241.839L98.0013 241.839L97.3549 242.959Z" fill="white" fill-opacity="0.24"/>
<path d="M96.4253 266.837L97.3554 265.227L98.2777 266.837L96.4253 266.837Z" fill="white" fill-opacity="0.24"/>
<path d="M97.3549 279.604L96.2671 277.726L98.4427 277.726L97.3549 279.604Z" fill="white" fill-opacity="0.24"/>
<path d="M106.547 285.089L107.777 282.951L109.006 285.089L106.547 285.089Z" fill="white" fill-opacity="0.24"/>
<path d="M128.617 298.305L126.994 295.48L130.241 295.48L128.617 298.305Z" fill="white" fill-opacity="0.24"/>
<path d="M137.209 303.497L139.038 300.332L140.866 303.497L137.209 303.497Z" fill="white" fill-opacity="0.24"/>
<path d="M159.887 317.014L157.704 313.234L162.063 313.234L159.887 317.014Z" fill="white" fill-opacity="0.24"/>
<path d="M168.077 321.803L170.307 317.944L172.53 321.803L168.077 321.803Z" fill="white" fill-opacity="0.24"/>
<path d="M191.149 335.421L188.674 331.129L193.625 331.129L191.149 335.421Z" fill="white" fill-opacity="0.24"/>
<path d="M198.834 340.165L201.57 335.422L204.313 340.165L198.834 340.165Z" fill="white" fill-opacity="0.24"/>
<path d="M222.42 354.597L218.983 348.647L225.849 348.647L222.42 354.597Z" fill="white" fill-opacity="0.24"/>
<path d="M229.081 358.825L232.841 352.307L236.593 358.825L229.081 358.825Z" fill="white" fill-opacity="0.24"/>
<path d="M253.682 374.37L248.771 365.864L258.593 365.864L253.682 374.37Z" fill="white" fill-opacity="0.24"/>
<path d="M258.561 377.92L264.102 368.318L269.644 377.92L258.561 377.92Z" fill="white" fill-opacity="0.24"/>
<path d="M284.952 394.373L278.37 382.971L291.526 382.971L284.952 394.373Z" fill="white" fill-opacity="0.24"/>
<path d="M288.562 396.731L295.373 384.919L302.176 396.731L288.562 396.731Z" fill="white" fill-opacity="0.24"/>
<path d="M353.459 395.359L357.905 387.658L362.343 395.359L353.459 395.359Z" fill="white" fill-opacity="0.24"/>
<path d="M368.326 391.231L364.463 384.54L372.18 384.54L368.326 391.231Z" fill="white" fill-opacity="0.24"/>
<path d="M107.776 7.67187L107.461 7.11954L108.092 7.11954L107.776 7.67187Z" fill="white" fill-opacity="0.24"/>
<path d="M86.9263 7.35547L86.8867 7.27621L86.9738 7.27621L86.9263 7.35547Z" fill="white" fill-opacity="0.24"/>
<path d="M86.7446 31.501L86.9259 31.1853L87.1151 31.501L86.7446 31.501Z" fill="white" fill-opacity="0.24"/>
<path d="M86.9259 43.668L86.7446 43.3366L87.1151 43.3366L86.9259 43.668Z" fill="white" fill-opacity="0.24"/>
<path d="M86.7925 67.6162L86.9265 67.3795L87.0684 67.6162L86.7925 67.6162Z" fill="white" fill-opacity="0.24"/>
<path d="M86.9269 79.6816L86.8477 79.5311L87.0219 79.5311L86.9269 79.6816Z" fill="white" fill-opacity="0.24"/>
<path d="M86.8867 103.7L86.9263 103.629L86.9739 103.7L86.8867 103.7Z" fill="white" fill-opacity="0.24"/>
<path d="M86.9263 115.772L86.8867 115.701L86.9739 115.701L86.9263 115.772Z" fill="white" fill-opacity="0.24"/>
<path d="M86.8315 139.877L86.9266 139.695L87.0295 139.877L86.8315 139.877Z" fill="white" fill-opacity="0.24"/>
<path d="M86.927 152.03L86.7852 151.777L87.0768 151.777L86.927 152.03Z" fill="white" fill-opacity="0.24"/>
<path d="M86.6826 176.096L86.927 175.67L87.1792 176.096L86.6826 176.096Z" fill="white" fill-opacity="0.24"/>
<path d="M86.9272 188.381L86.604 187.813L87.2583 187.813L86.9272 188.381Z" fill="white" fill-opacity="0.24"/>
<path d="M86.501 212.344L86.9266 211.603L87.3602 212.344L86.501 212.344Z" fill="white" fill-opacity="0.24"/>
<path d="M86.9262 224.717L86.4375 223.857L87.4228 223.857L86.9262 224.717Z" fill="white" fill-opacity="0.24"/>
<path d="M86.2329 248.641L86.9266 247.426L87.636 248.641L86.2329 248.641Z" fill="white" fill-opacity="0.24"/>
<path d="M86.9271 261.275L86.0679 259.784L87.7941 259.784L86.9271 261.275Z" fill="white" fill-opacity="0.24"/>
<path d="M85.8071 285.024L86.9265 283.083L88.0537 285.024L85.8071 285.024Z" fill="white" fill-opacity="0.24"/>
<path d="M107.776 297.989L106.42 295.637L109.132 295.637L107.776 297.989Z" fill="white" fill-opacity="0.24"/>
<path d="M116.675 303.323L118.197 300.687L119.718 303.323L116.675 303.323Z" fill="white" fill-opacity="0.24"/>
<path d="M139.038 316.666L137.154 313.399L140.922 313.399L139.038 316.666Z" fill="white" fill-opacity="0.24"/>
<path d="M147.472 321.661L149.466 318.212L151.453 321.661L147.472 321.661Z" fill="white" fill-opacity="0.24"/>
<path d="M170.308 334.822L168.354 331.429L172.263 331.429L170.308 334.822Z" fill="white" fill-opacity="0.24"/>
<path d="M178.734 339.738L180.728 336.274L182.722 339.738L178.734 339.738Z" fill="white" fill-opacity="0.24"/>
<path d="M201.571 353.31L199.253 349.294L203.888 349.294L201.571 353.31Z" fill="white" fill-opacity="0.24"/>
<path d="M209.366 358.17L211.991 353.618L214.616 358.17L209.366 358.17Z" fill="white" fill-opacity="0.24"/>
<path d="M232.84 372.555L229.506 366.771L236.174 366.771L232.84 372.555Z" fill="white" fill-opacity="0.24"/>
<path d="M239.398 376.95L243.26 370.259L247.115 376.95L239.398 376.95Z" fill="white" fill-opacity="0.24"/>
<path d="M264.102 392.88L258.813 383.712L269.399 383.712L264.102 392.88Z" fill="white" fill-opacity="0.24"/>
<path d="M268.627 396.203L274.524 385.969L280.428 396.203L268.627 396.203Z" fill="white" fill-opacity="0.24"/>
<path d="M375.988 394.388L378.747 389.606L381.506 394.388L375.988 394.388Z" fill="white" fill-opacity="0.24"/>
<path d="M76.5059 25.377L76.5059 25.3691L76.5137 25.3691L76.5059 25.377Z" fill="white" fill-opacity="0.24"/>
<path d="M76.4673 49.4912L76.5069 49.4198L76.5544 49.4912L76.4673 49.4912Z" fill="white" fill-opacity="0.24"/>
<path d="M76.4116 157.938L76.5067 157.772L76.6096 157.938L76.4116 157.938Z" fill="white" fill-opacity="0.24"/>
<path d="M76.5054 170.139L76.332 169.831L76.6867 169.831L76.5054 170.139Z" fill="white" fill-opacity="0.24"/>
<path d="M76.1831 194.212L76.5063 193.644L76.8374 194.212L76.1831 194.212Z" fill="white" fill-opacity="0.24"/>
<path d="M76.5054 206.529L76.1191 205.843L76.8995 205.843L76.5054 206.529Z" fill="white" fill-opacity="0.24"/>
<path d="M75.9697 230.477L76.5057 229.538L77.0496 230.477L75.9697 230.477Z" fill="white" fill-opacity="0.24"/>
<path d="M76.5062 242.959L75.8599 241.839L77.1605 241.839L76.5062 242.959Z" fill="white" fill-opacity="0.24"/>
<path d="M75.6309 266.814L76.5058 265.291L77.3886 266.814L75.6309 266.814Z" fill="white" fill-opacity="0.24"/>
<path d="M76.5053 279.485L75.5278 277.781L77.4906 277.781L76.5053 279.485Z" fill="white" fill-opacity="0.24"/>
<path d="M86.9266 297.863L85.6812 295.701L88.1799 295.701L86.9266 297.863Z" fill="white" fill-opacity="0.24"/>
<path d="M95.999 303.229L97.3548 300.877L98.7106 303.229L95.999 303.229Z" fill="white" fill-opacity="0.24"/>
<path d="M118.196 316.367L116.572 313.55L119.82 313.55L118.196 316.367Z" fill="white" fill-opacity="0.24"/>
<path d="M126.86 321.527L128.618 318.481L130.375 321.527L126.86 321.527Z" fill="white" fill-opacity="0.24"/>
<path d="M149.467 334.617L147.685 331.531L151.24 331.531L149.467 334.617Z" fill="white" fill-opacity="0.24"/>
<path d="M158.168 339.572L159.887 336.598L161.597 339.572L158.168 339.572Z" fill="white" fill-opacity="0.24"/>
<path d="M180.729 352.505L179.105 349.696L182.345 349.696L180.729 352.505Z" fill="white" fill-opacity="0.24"/>
<path d="M189.486 357.618L191.149 354.73L192.812 357.618L189.486 357.618Z" fill="white" fill-opacity="0.24"/>
<path d="M211.992 371.206L209.824 367.442L214.168 367.442L211.992 371.206Z" fill="white" fill-opacity="0.24"/>
<path d="M219.875 376.192L222.421 371.782L224.959 376.192L219.875 376.192Z" fill="white" fill-opacity="0.24"/>
<path d="M243.261 390.83L239.746 384.738L246.769 384.738L243.261 390.83Z" fill="white" fill-opacity="0.24"/>
<path d="M249.386 395.279L253.682 387.823L257.978 395.279L249.386 395.279Z" fill="white" fill-opacity="0.24"/>
<path d="M66.0844 151.903L66.0527 151.839L66.124 151.839L66.0844 151.903Z" fill="white" fill-opacity="0.24"/>
<path d="M65.9126 176.056L66.086 175.748L66.2673 176.056L65.9126 176.056Z" fill="white" fill-opacity="0.24"/>
<path d="M66.0851 188.287L65.8486 187.861L66.3295 187.861L66.0851 188.287Z" fill="white" fill-opacity="0.24"/>
<path d="M65.6992 212.321L66.0855 211.643L66.4796 212.321L65.6992 212.321Z" fill="white" fill-opacity="0.24"/>
<path d="M66.0856 224.67L65.6284 223.881L66.5428 223.881L66.0856 224.67Z" fill="white" fill-opacity="0.24"/>
<path d="M65.439 248.609L66.0853 247.481L66.7396 248.609L65.439 248.609Z" fill="white" fill-opacity="0.24"/>
<path d="M66.085 261.172L65.3125 259.838L66.8575 259.838L66.085 261.172Z" fill="white" fill-opacity="0.24"/>
<path d="M65.124 284.93L66.0857 283.257L67.0552 284.93L65.124 284.93Z" fill="white" fill-opacity="0.24"/>
<path d="M66.0858 297.618L65.0532 295.819L67.1185 295.819L66.0858 297.618Z" fill="white" fill-opacity="0.24"/>
<path d="M75.3154 303.134L76.5057 301.067L77.7038 303.134L75.3154 303.134Z" fill="white" fill-opacity="0.24"/>
<path d="M97.3558 316.185L95.8896 313.644L98.8141 313.644L97.3558 316.185Z" fill="white" fill-opacity="0.24"/>
<path d="M106.199 321.424L107.776 318.694L109.344 321.424L106.199 321.424Z" fill="white" fill-opacity="0.24"/>
<path d="M128.618 334.467L126.97 331.603L130.265 331.603L128.618 334.467Z" fill="white" fill-opacity="0.24"/>
<path d="M137.438 339.509L139.038 336.731L140.638 339.509L137.438 339.509Z" fill="white" fill-opacity="0.24"/>
<path d="M159.887 352.221L158.508 349.838L161.259 349.838L159.887 352.221Z" fill="white" fill-opacity="0.24"/>
<path d="M169.046 357.382L170.308 355.204L171.561 357.382L169.046 357.382Z" fill="white" fill-opacity="0.24"/>
<path d="M191.15 370.172L189.873 367.963L192.426 367.963L191.15 370.172Z" fill="white" fill-opacity="0.24"/>
<path d="M200.127 375.562L201.57 373.053L203.02 375.562L200.127 375.562Z" fill="white" fill-opacity="0.24"/>
<path d="M222.419 389.244L220.275 385.536L224.556 385.536L222.419 389.244Z" fill="white" fill-opacity="0.24"/>
<path d="M230.231 394.302L232.841 389.78L235.442 394.302L230.231 394.302Z" fill="white" fill-opacity="0.24"/>
<path d="M55.6172 157.916L55.6647 157.828L55.7122 157.916L55.6172 157.916Z" fill="white" fill-opacity="0.24"/>
<path d="M55.6644 170.043L55.5693 169.877L55.7594 169.877L55.6644 170.043Z" fill="white" fill-opacity="0.24"/>
<path d="M55.4204 194.164L55.6648 193.746L55.9091 194.164L55.4204 194.164Z" fill="white" fill-opacity="0.24"/>
<path d="M55.6651 206.466L55.3262 205.874L56.0041 205.874L55.6651 206.466Z" fill="white" fill-opacity="0.24"/>
<path d="M55.168 230.454L55.6646 229.594L56.1612 230.454L55.168 230.454Z" fill="white" fill-opacity="0.24"/>
<path d="M55.6649 242.897L55.0737 241.871L56.2561 241.871L55.6649 242.897Z" fill="white" fill-opacity="0.24"/>
<path d="M54.9072 266.743L55.664 265.433L56.4207 266.743L54.9072 266.743Z" fill="white" fill-opacity="0.24"/>
<path d="M55.6643 279.336L54.813 277.86L56.5156 277.86L55.6643 279.336Z" fill="white" fill-opacity="0.24"/>
<path d="M54.6548 303.031L55.6637 301.271L56.6727 303.031L54.6548 303.031Z" fill="white" fill-opacity="0.24"/>
<path d="M76.5061 315.988L75.2134 313.739L77.8067 313.739L76.5061 315.988Z" fill="white" fill-opacity="0.24"/>
<path d="M85.5229 321.33L86.926 318.883L88.337 321.33L85.5229 321.33Z" fill="white" fill-opacity="0.24"/>
<path d="M107.775 334.318L106.254 331.682L109.289 331.682L107.775 334.318Z" fill="white" fill-opacity="0.24"/>
<path d="M116.714 339.446L118.196 336.866L119.678 339.446L116.714 339.446Z" fill="white" fill-opacity="0.24"/>
<path d="M139.038 352.166L137.713 349.862L140.37 349.862L139.038 352.166Z" fill="white" fill-opacity="0.24"/>
<path d="M148.26 357.342L149.466 355.267L150.657 357.342L148.26 357.342Z" fill="white" fill-opacity="0.24"/>
<path d="M170.308 369.738L169.41 368.184L171.199 368.184L170.308 369.738Z" fill="white" fill-opacity="0.24"/>
<path d="M179.877 375.214L180.729 373.738L181.58 375.214L179.877 375.214Z" fill="white" fill-opacity="0.24"/>
<path d="M201.57 387.997L200.514 386.158L202.635 386.158L201.57 387.997Z" fill="white" fill-opacity="0.24"/>
<path d="M210.626 393.584L211.99 391.217L213.362 393.584L210.626 393.584Z" fill="white" fill-opacity="0.24"/>
<path d="M45.2432 151.871L45.2354 151.863L45.2432 151.863L45.2432 151.871Z" fill="white" fill-opacity="0.24"/>
<path d="M45.1021 176.041L45.2439 175.788L45.3858 176.041L45.1021 176.041Z" fill="white" fill-opacity="0.24"/>
<path d="M45.2434 188.223L45.0464 187.892L45.4326 187.892L45.2434 188.223Z" fill="white" fill-opacity="0.24"/>
<path d="M44.8965 212.29L45.2433 211.698L45.5823 212.29L44.8965 212.29Z" fill="white" fill-opacity="0.24"/>
<path d="M45.2437 224.654L44.8022 223.889L45.6851 223.889L45.2437 224.654Z" fill="white" fill-opacity="0.24"/>
<path d="M44.644 248.579L45.2431 247.545L45.8422 248.579L44.644 248.579Z" fill="white" fill-opacity="0.24"/>
<path d="M45.244 261.084L44.5425 259.877L45.9377 259.877L45.244 261.084Z" fill="white" fill-opacity="0.24"/>
<path d="M44.3921 284.867L45.2434 283.391L46.0947 284.867L44.3921 284.867Z" fill="white" fill-opacity="0.24"/>
<path d="M45.244 297.476L44.3296 295.89L46.1505 295.89L45.244 297.476Z" fill="white" fill-opacity="0.24"/>
<path d="M55.6642 315.72L54.6001 313.873L56.7284 313.873L55.6642 315.72Z" fill="white" fill-opacity="0.24"/>
<path d="M64.8955 321.203L66.0858 319.135L67.276 321.203L64.8955 321.203Z" fill="white" fill-opacity="0.24"/>
<path d="M86.926 334.183L85.5229 331.752L88.3291 331.752L86.926 334.183Z" fill="white" fill-opacity="0.24"/>
<path d="M95.9443 339.399L97.3553 336.953L98.7663 339.399L95.9443 339.399Z" fill="white" fill-opacity="0.24"/>
<path d="M118.196 352.158L116.872 349.862L119.521 349.862L118.196 352.158Z" fill="white" fill-opacity="0.24"/>
<path d="M127.396 357.358L128.618 355.243L129.84 357.358L127.396 357.358Z" fill="white" fill-opacity="0.24"/>
<path d="M149.467 369.754L148.544 368.168L150.373 368.168L149.467 369.754Z" fill="white" fill-opacity="0.24"/>
<path d="M159.154 375.143L159.887 373.872L160.62 375.143L159.154 375.143Z" fill="white" fill-opacity="0.24"/>
<path d="M180.728 387.342L180.24 386.49L181.217 386.49L180.728 387.342Z" fill="white" fill-opacity="0.24"/>
<path d="M190.583 393.118L191.15 392.14L191.718 393.118L190.583 393.118Z" fill="white" fill-opacity="0.24"/>
<path d="M34.7764 157.916L34.8239 157.828L34.8714 157.916L34.7764 157.916Z" fill="white" fill-opacity="0.24"/>
<path d="M34.8236 170.043L34.7285 169.877L34.9186 169.877L34.8236 170.043Z" fill="white" fill-opacity="0.24"/>
<path d="M34.5791 194.164L34.8235 193.746L35.0599 194.164L34.5791 194.164Z" fill="white" fill-opacity="0.24"/>
<path d="M34.8229 206.411L34.5312 205.906L35.1146 205.906L34.8229 206.411Z" fill="white" fill-opacity="0.24"/>
<path d="M34.3823 230.422L34.8237 229.649L35.2652 230.422L34.3823 230.422Z" fill="white" fill-opacity="0.24"/>
<path d="M34.8223 242.842L34.2705 241.895L35.3662 241.895L34.8223 242.842Z" fill="white" fill-opacity="0.24"/>
<path d="M34.1211 266.711L34.8226 265.496L35.5242 266.711L34.1211 266.711Z" fill="white" fill-opacity="0.24"/>
<path d="M34.8231 279.226L34.0664 277.916L35.5798 277.916L34.8231 279.226Z" fill="white" fill-opacity="0.24"/>
<path d="M33.9473 302.953L34.8222 301.43L35.6972 302.953L33.9473 302.953Z" fill="white" fill-opacity="0.24"/>
<path d="M34.8227 315.562L33.8926 313.952L35.745 313.952L34.8227 315.562Z" fill="white" fill-opacity="0.24"/>
<path d="M44.2271 321.101L45.2439 319.333L46.2607 321.101L44.2271 321.101Z" fill="white" fill-opacity="0.24"/>
<path d="M66.0858 333.939L64.8955 331.872L67.2839 331.872L66.0858 333.939Z" fill="white" fill-opacity="0.24"/>
<path d="M75.2051 339.336L76.5057 337.08L77.8063 339.336L75.2051 339.336Z" fill="white" fill-opacity="0.24"/>
<path d="M97.3553 352.134L96.0547 349.877L98.6559 349.877L97.3553 352.134Z" fill="white" fill-opacity="0.24"/>
<path d="M106.531 357.373L107.776 355.211L109.022 357.373L106.531 357.373Z" fill="white" fill-opacity="0.24"/>
<path d="M128.617 369.848L127.624 368.128L129.61 368.128L128.617 369.848Z" fill="white" fill-opacity="0.24"/>
<path d="M138.203 375.206L139.039 373.754L139.882 375.206L138.203 375.206Z" fill="white" fill-opacity="0.24"/>
<path d="M159.887 387.294L159.422 386.505L160.344 386.505L159.887 387.294Z" fill="white" fill-opacity="0.24"/>
<path d="M170.017 392.96L170.309 392.463L170.593 392.96L170.017 392.96Z" fill="white" fill-opacity="0.24"/>
<path d="M24.394 139.822L24.4021 139.806L24.4021 139.822L24.394 139.822Z" fill="white" fill-opacity="0.24"/>
<path d="M24.4016 151.919L24.3462 151.832L24.4492 151.832L24.4016 151.919Z" fill="white" fill-opacity="0.24"/>
<path d="M24.2524 176.041L24.4022 175.78L24.552 176.041L24.2524 176.041Z" fill="white" fill-opacity="0.24"/>
<path d="M24.4026 188.287L24.1582 187.861L24.639 187.861L24.4026 188.287Z" fill="white" fill-opacity="0.24"/>
<path d="M24.0552 212.29L24.402 211.698L24.741 212.29L24.0552 212.29Z" fill="white" fill-opacity="0.24"/>
<path d="M24.4015 224.654L23.9521 223.889L24.8429 223.889L24.4015 224.654Z" fill="white" fill-opacity="0.24"/>
<path d="M23.8345 248.562L24.402 247.584L24.9617 248.562L23.8345 248.562Z" fill="white" fill-opacity="0.24"/>
<path d="M24.4023 261.03L23.748 259.909L25.0487 259.909L24.4023 261.03Z" fill="white" fill-opacity="0.24"/>
<path d="M23.6289 284.82L24.4014 283.486L25.166 284.82L23.6289 284.82Z" fill="white" fill-opacity="0.24"/>
<path d="M24.4019 297.374L23.5742 295.946L25.2217 295.946L24.4019 297.374Z" fill="white" fill-opacity="0.24"/>
<path d="M23.4727 321.053L24.4028 319.443L25.3251 321.053L23.4727 321.053Z" fill="white" fill-opacity="0.24"/>
<path d="M45.2436 333.757L44.2109 331.958L46.2762 331.958L45.2436 333.757Z" fill="white" fill-opacity="0.24"/>
<path d="M54.5454 339.233L55.6647 337.292L56.784 339.233L54.5454 339.233Z" fill="white" fill-opacity="0.24"/>
<path d="M76.5052 352.071L75.2598 349.909L77.7585 349.909L76.5052 352.071Z" fill="white" fill-opacity="0.24"/>
<path d="M85.6812 357.373L86.9266 355.211L88.1799 357.373L85.6812 357.373Z" fill="white" fill-opacity="0.24"/>
<path d="M107.775 369.967L106.68 368.066L108.863 368.066L107.775 369.967Z" fill="white" fill-opacity="0.24"/>
<path d="M117.204 375.293L118.197 373.573L119.19 375.293L117.204 375.293Z" fill="white" fill-opacity="0.24"/>
<path d="M139.037 387.508L138.407 386.403L139.676 386.403L139.037 387.508Z" fill="white" fill-opacity="0.24"/>
<path d="M149.025 393.047L149.467 392.289L149.9 393.047L149.025 393.047Z" fill="white" fill-opacity="0.24"/>
<path d="M13.9809 133.801L13.9731 133.793L13.9809 133.793L13.9809 133.801Z" fill="white" fill-opacity="0.24"/>
<path d="M13.8789 157.938L13.9819 157.772L14.0769 157.938L13.8789 157.938Z" fill="white" fill-opacity="0.24"/>
<path d="M13.9808 170.098L13.8311 169.846L14.1227 169.846L13.9808 170.098Z" fill="white" fill-opacity="0.24"/>
<path d="M13.7368 194.164L13.9812 193.746L14.2177 194.164L13.7368 194.164Z" fill="white" fill-opacity="0.24"/>
<path d="M13.9811 206.466L13.6343 205.874L14.3201 205.874L13.9811 206.466Z" fill="white" fill-opacity="0.24"/>
<path d="M13.4844 230.446L13.981 229.602L14.4697 230.446L13.4844 230.446Z" fill="white" fill-opacity="0.24"/>
<path d="M13.9815 242.842L13.4297 241.895L14.5254 241.895L13.9815 242.842Z" fill="white" fill-opacity="0.24"/>
<path d="M13.3267 266.679L13.9809 265.551L14.6273 266.679L13.3267 266.679Z" fill="white" fill-opacity="0.24"/>
<path d="M13.9811 279.178L13.2559 277.939L14.6905 277.939L13.9811 279.178Z" fill="white" fill-opacity="0.24"/>
<path d="M13.1138 302.937L13.9808 301.453L14.84 302.937L13.1138 302.937Z" fill="white" fill-opacity="0.24"/>
<path d="M13.9818 315.545L13.0674 313.959L14.8883 313.959L13.9818 315.545Z" fill="white" fill-opacity="0.24"/>
<path d="M24.4017 333.678L23.4321 332.005L25.3633 332.005L24.4017 333.678Z" fill="white" fill-opacity="0.24"/>
<path d="M33.8057 339.169L34.8225 337.402L35.8394 339.169L33.8057 339.169Z" fill="white" fill-opacity="0.24"/>
<path d="M55.6648 351.929L54.5376 349.98L56.792 349.98L55.6648 351.929Z" fill="white" fill-opacity="0.24"/>
<path d="M64.9185 357.334L66.0851 355.298L67.2596 357.334L64.9185 357.334Z" fill="white" fill-opacity="0.24"/>
<path d="M86.9266 370.078L85.7363 368.01L88.1247 368.01L86.9266 370.078Z" fill="white" fill-opacity="0.24"/>
<path d="M96.2603 375.356L97.3559 373.462L98.4437 375.356L96.2603 375.356Z" fill="white" fill-opacity="0.24"/>
<path d="M118.196 387.737L117.361 386.285L119.032 386.285L118.196 387.737Z" fill="white" fill-opacity="0.24"/>
<path d="M127.979 393.157L128.617 392.053L129.256 393.157L127.979 393.157Z" fill="white" fill-opacity="0.24"/>
<path d="M3.54443 139.822L3.55214 139.807L3.56754 139.822L3.54443 139.822Z" fill="white" fill-opacity="0.24"/>
<path d="M3.55398 151.927L3.49854 151.832L3.60942 151.832L3.55398 151.927Z" fill="white" fill-opacity="0.24"/>
<path d="M3.36377 176.072L3.55295 175.733L3.75001 176.072L3.36377 176.072Z" fill="white" fill-opacity="0.24"/>
<path d="M3.55295 188.287L3.30859 187.861L3.79731 187.861L3.55295 188.287Z" fill="white" fill-opacity="0.24"/>
<path d="M3.15918 212.321L3.55331 211.643L3.94743 212.321L3.15918 212.321Z" fill="white" fill-opacity="0.24"/>
<path d="M3.55275 224.654L3.11133 223.889L4.00206 223.889L3.55275 224.654Z" fill="white" fill-opacity="0.24"/>
<path d="M3.0083 248.554L3.5522 247.599L4.10397 248.554L3.0083 248.554Z" fill="white" fill-opacity="0.24"/>
<path d="M3.55311 261.03L2.90674 259.909L4.20736 259.909L3.55311 261.03Z" fill="white" fill-opacity="0.24"/>
<path d="M2.8042 284.812L3.55304 283.502L4.30977 284.812L2.8042 284.812Z" fill="white" fill-opacity="0.24"/>
<path d="M3.55304 297.349L2.74902 295.952L4.36495 295.952L3.55304 297.349Z" fill="white" fill-opacity="0.24"/>
<path d="M2.63867 321.046L3.55305 319.46L4.46742 321.046L2.63867 321.046Z" fill="white" fill-opacity="0.24"/>
<path d="M3.55249 333.678L2.59082 332.005L4.52204 332.005L3.55249 333.678Z" fill="white" fill-opacity="0.24"/>
<path d="M12.957 339.169L13.9818 337.402L14.9986 339.169L12.957 339.169Z" fill="white" fill-opacity="0.24"/>
<path d="M34.8225 351.865L33.7505 350.011L35.8945 350.011L34.8225 351.865Z" fill="white" fill-opacity="0.24"/>
<path d="M44.1558 357.278L45.2436 355.392L46.3313 357.278L44.1558 357.278Z" fill="white" fill-opacity="0.24"/>
<path d="M66.0844 370.014L64.9414 368.041L67.2273 368.041L66.0844 370.014Z" fill="white" fill-opacity="0.24"/>
<path d="M75.3394 375.403L76.506 373.368L77.6805 375.403L75.3394 375.403Z" fill="white" fill-opacity="0.24"/>
<path d="M97.3543 387.949L96.3296 386.181L98.3712 386.181L97.3543 387.949Z" fill="white" fill-opacity="0.24"/>
<path d="M106.901 393.3L107.776 391.785L108.643 393.3L106.901 393.3Z" fill="white" fill-opacity="0.24"/>
<path d="M13.9823 351.865L12.9023 350.011L15.0464 350.011L13.9823 351.865Z" fill="white" fill-opacity="0.24"/>
<path d="M23.3311 357.271L24.4031 355.417L25.4672 357.271L23.3311 357.271Z" fill="white" fill-opacity="0.24"/>
<path d="M45.2439 369.998L44.1167 368.049L46.3711 368.049L45.2439 369.998Z" fill="white" fill-opacity="0.24"/>
<path d="M54.5215 375.38L55.6645 373.408L56.8074 375.38L54.5215 375.38Z" fill="white" fill-opacity="0.24"/>
<path d="M76.5067 388.091L75.3716 386.111L77.6496 386.111L76.5067 388.091Z" fill="white" fill-opacity="0.24"/>
<path d="M85.8623 393.41L86.9264 391.556L88.0064 393.41L85.8623 393.41Z" fill="white" fill-opacity="0.24"/>
<path d="M2.46484 357.278L3.55263 355.392L4.64043 357.278L2.46484 357.278Z" fill="white" fill-opacity="0.24"/>
<path d="M24.4026 369.998L23.2754 368.049L25.5219 368.049L24.4026 369.998Z" fill="white" fill-opacity="0.24"/>
<path d="M33.6953 375.372L34.8225 373.423L35.9418 375.372L33.6953 375.372Z" fill="white" fill-opacity="0.24"/>
<path d="M55.6643 388.123L54.4897 386.087L56.8388 386.087L55.6643 388.123Z" fill="white" fill-opacity="0.24"/>
<path d="M64.9414 393.449L66.0844 391.476L67.2273 393.449L64.9414 393.449Z" fill="white" fill-opacity="0.24"/>
<path d="M3.55257 370.014L2.41748 368.041L4.69554 368.041L3.55257 370.014Z" fill="white" fill-opacity="0.24"/>
<path d="M12.8066 375.403L13.9811 373.368L15.1478 375.403L12.8066 375.403Z" fill="white" fill-opacity="0.24"/>
<path d="M34.823 388.132L33.6406 386.088L35.9975 386.088L34.823 388.132Z" fill="white" fill-opacity="0.24"/>
<path d="M44.0688 393.472L45.2434 391.429L46.4179 393.472L44.0688 393.472Z" fill="white" fill-opacity="0.24"/>
<path d="M13.9817 388.194L12.7441 386.055L15.2114 386.055L13.9817 388.194Z" fill="white" fill-opacity="0.24"/>
<path d="M23.1641 393.504L24.4016 391.366L25.6313 393.504L23.1641 393.504Z" fill="white" fill-opacity="0.24"/>
<path d="M2.30713 393.513L3.55257 391.351L4.8059 393.513L2.30713 393.513Z" fill="white" fill-opacity="0.24"/>
</g>
</g>
<defs>
<linearGradient id="paint0_linear" x1="192" y1="0" x2="192" y2="396" gradientUnits="userSpaceOnUse">
<stop stop-color="#B9136D"/>
<stop offset="1" stop-color="#4442A3"/>
</linearGradient>
</defs>
</svg>
