<svg width="384" height="396" viewBox="0 0 384 396" fill="none" xmlns="http://www.w3.org/2000/svg">
<mask id="mask0" mask-type="alpha" maskUnits="userSpaceOnUse" x="0" y="0" width="384" height="396">
<rect width="384" height="396" rx="16" fill="url(#paint0_linear)"/>
</mask>
<g mask="url(#mask0)">
<path fill-rule="evenodd" clip-rule="evenodd" d="M435.837 355.252L424.474 365.813L413.119 355.252L401.761 365.813L390.407 355.252L379.055 365.811L367.704 355.252L356.35 365.813L344.998 355.252L333.642 365.813L322.289 355.252L310.937 365.811L299.586 355.252L288.233 365.813L276.881 355.25L265.531 365.811L254.18 355.25L242.833 365.811L231.484 355.25L220.138 365.811L208.789 355.25L197.443 365.811L186.093 355.25L174.743 365.811L163.392 355.25L152.042 365.811L140.692 355.25L129.341 365.811L117.992 355.25L106.64 365.811L95.2904 355.25L83.9407 365.811L72.5922 355.25L61.2425 365.811L49.8928 355.25L38.5454 365.811L27.1957 355.25L15.846 365.811L4.49976 355.25L-6.84994 365.811L-17.2954 356.092L-19.1016 360.598L-6.84994 372L4.49976 361.439L15.846 372L27.1957 361.439L38.5454 372L49.8928 361.439L61.2425 372L72.5922 361.439L83.9407 372L95.2904 361.439L106.64 372L117.992 361.439L129.341 372L140.692 361.439L152.042 372L163.392 361.439L174.743 372L186.093 361.439L197.443 372L208.789 361.439L220.138 372L231.484 361.439L242.833 372L254.18 361.439L265.531 372L276.881 361.439L288.233 371.998L299.586 361.439L310.937 372L322.289 361.439L333.642 371.998L344.998 361.437L356.35 371.998L367.704 361.439L379.055 372L390.407 361.437L401.761 371.998L413.119 361.437L424.474 371.998L435.837 361.437L446.297 371.159L448.101 366.653L435.837 355.252ZM435.837 345.114L424.474 355.675L413.119 345.114L401.761 355.675L390.407 345.114L379.055 355.675L367.704 345.114L356.35 355.675L344.998 345.114L333.642 355.675L322.289 345.114L310.937 355.675L299.586 345.114L288.233 355.675L276.881 345.114L265.531 355.675L254.18 345.114L242.833 355.675L231.484 345.114L220.138 355.675L208.789 345.114L197.443 355.675L186.093 345.114L174.743 355.675L163.392 345.114L152.042 355.675L140.692 345.114L129.341 355.675L117.992 345.114L106.64 355.675L95.2904 345.114L83.9407 355.675L72.5922 345.114L61.2425 355.675L49.8928 345.114L38.5454 355.675L27.1957 345.114L15.846 355.675L4.49976 345.114L-6.84994 355.675L-17.3197 345.93L-19.0773 350.318L-6.84994 361.694L4.49976 351.133L15.846 361.694L27.1957 351.133L38.5454 361.694L49.8928 351.133L61.2425 361.694L72.5922 351.133L83.9407 361.694L95.2904 351.133L106.64 361.694L117.992 351.133L129.341 361.694L140.692 351.133L152.042 361.694L163.392 351.133L174.743 361.694L186.093 351.133L197.443 361.694L208.789 351.133L220.138 361.694L231.484 351.133L242.833 361.694L254.18 351.133L265.531 361.694L276.881 351.133L288.233 361.694L299.586 351.133L310.937 361.694L322.289 351.133L333.642 361.694L344.998 351.133L356.35 361.694L367.704 351.133L379.055 361.694L390.407 351.133L401.761 361.694L413.119 351.133L424.474 361.694L435.837 351.133L446.321 360.879L448.077 356.491L435.837 345.114ZM435.837 334.979L424.474 345.538L413.119 334.977L401.761 345.538L390.407 334.977L379.055 345.538L367.704 334.977L356.35 345.538L344.998 334.977L333.642 345.538L322.289 334.977L310.937 345.538L299.586 334.977L288.233 345.538L276.881 334.977L265.531 345.538L254.18 334.977L242.833 345.538L231.484 334.977L220.138 345.538L208.789 334.977L197.443 345.538L186.093 334.977L174.743 345.538L163.392 334.977L152.042 345.538L140.692 334.977L129.341 345.538L117.992 334.977L106.64 345.538L95.2904 334.977L83.9407 345.538L72.5922 334.977L61.2425 345.538L49.8928 334.977L38.5454 345.538L27.1957 334.977L15.846 345.538L4.49976 334.977L-6.84994 345.538L-17.3439 335.772L-19.0531 340.035L-6.84994 351.392L4.49976 340.831L15.846 351.392L27.1957 340.831L38.5454 351.392L49.8928 340.831L61.2425 351.392L72.5922 340.831L83.9407 351.392L95.2904 340.831L106.64 351.392L117.992 340.831L129.341 351.392L140.692 340.831L152.042 351.392L163.392 340.831L174.743 351.392L186.093 340.831L197.443 351.392L208.789 340.831L220.138 351.392L231.484 340.831L242.833 351.392L254.18 340.831L265.531 351.392L276.881 340.831L288.233 351.392L299.586 340.831L310.937 351.392L322.289 340.831L333.642 351.392L344.998 340.831L356.35 351.392L367.704 340.831L379.055 351.392L390.407 340.831L401.761 351.392L413.119 340.831L424.474 351.39L435.837 340.829L446.346 350.598L448.053 346.332L435.837 334.979ZM435.837 324.842L424.474 335.403L413.119 324.842L401.761 335.403L390.407 324.842L379.055 335.403L367.704 324.842L356.35 335.403L344.998 324.842L333.642 335.403L322.289 324.842L310.937 335.403L299.586 324.842L288.233 335.403L276.881 324.842L265.531 335.403L254.18 324.84L242.833 335.401L231.484 324.84L220.138 335.401L208.789 324.84L197.443 335.401L186.093 324.842L174.743 335.403L163.392 324.842L152.041 335.403L140.692 324.842L129.341 335.403L117.992 324.842L106.64 335.403L95.2904 324.84L83.9407 335.401L72.5922 324.84L61.2425 335.401L49.8928 324.84L38.5454 335.401L27.1957 324.84L15.846 335.401L4.49976 324.84L-6.84994 335.401L-17.3682 325.613L-19.0288 329.756L-6.84994 341.09L4.49976 330.529L15.846 341.09L27.1957 330.529L38.5454 341.09L49.8928 330.529L61.2425 341.09L72.5922 330.529L83.9407 341.09L95.2904 330.529L106.64 341.088L117.992 330.527L129.341 341.088L140.692 330.527L152.041 341.088L163.392 330.527L174.743 341.088L186.093 330.527L197.443 341.09L208.789 330.529L220.138 341.09L231.484 330.529L242.833 341.09L254.18 330.527L265.531 341.088L276.881 330.527L288.233 341.088L299.586 330.527L310.937 341.088L322.289 330.527L333.642 341.088L344.998 330.527L356.35 341.088L367.704 330.527L379.055 341.088L390.407 330.527L401.761 341.088L413.119 330.527L424.474 341.088L435.837 330.527L446.37 340.319L448.028 336.172L435.837 324.842ZM435.837 314.703L424.474 325.262L413.119 314.703L401.761 325.262L390.407 314.703L379.055 325.262L367.704 314.703L356.35 325.262L344.998 314.703L333.642 325.262L322.289 314.703L310.937 325.262L299.586 314.703L288.233 325.262L276.881 314.703L265.531 325.262L254.18 314.703L242.833 325.262L231.484 314.703L220.138 325.262L208.789 314.703L197.443 325.262L186.093 314.703L174.743 325.262L163.392 314.703L152.042 325.262L140.692 314.703L129.341 325.262L117.992 314.703L106.64 325.262L95.2904 314.703L83.9407 325.262L72.5922 314.703L61.2425 325.262L49.8928 314.703L38.5454 325.262L27.1957 314.703L15.846 325.262L4.4986 314.703L-6.84994 325.262L-17.3924 315.453L-19.0046 319.475L-6.84994 330.784L4.4986 320.225L15.846 330.784L27.1957 320.225L38.5454 330.784L49.8928 320.225L61.2425 330.784L72.5922 320.225L83.9407 330.784L95.2904 320.225L106.64 330.784L117.992 320.225L129.341 330.784L140.692 320.225L152.042 330.784L163.392 320.225L174.743 330.784L186.093 320.225L197.443 330.784L208.789 320.225L220.138 330.784L231.484 320.225L242.833 330.784L254.18 320.225L265.531 330.784L276.881 320.225L288.233 330.784L299.586 320.225L310.937 330.784L322.289 320.225L333.642 330.784L344.998 320.225L356.35 330.784L367.704 320.225L379.055 330.784L390.407 320.225L401.761 330.784L413.119 320.225L424.474 330.784L435.837 320.225L446.394 330.034L448.004 326.012L435.837 314.703ZM435.837 304.566L424.474 315.127L413.119 304.565L401.761 315.126L390.407 304.565L379.055 315.126L367.704 304.565L356.35 315.126L344.998 304.565L333.642 315.126L322.289 304.565L310.937 315.126L299.586 304.565L288.233 315.126L276.881 304.565L265.531 315.126L254.18 304.565L242.833 315.126L231.484 304.565L220.138 315.126L208.789 304.565L197.443 315.126L186.093 304.565L174.743 315.126L163.392 304.565L152.042 315.126L140.692 304.565L129.341 315.126L117.992 304.565L106.64 315.126L95.2904 304.565L83.9407 315.126L72.5922 304.565L61.2425 315.126L49.8928 304.565L38.5454 315.126L27.1957 304.565L15.846 315.126L4.49976 304.565L-6.84994 315.126L-17.4167 305.292L-18.9803 309.194L-6.84994 320.482L4.49976 309.921L15.846 320.482L27.1957 309.921L38.5454 320.482L49.8928 309.921L61.2425 320.482L72.5922 309.921L83.9407 320.482L95.2904 309.921L106.64 320.482L117.992 309.921L129.341 320.482L140.692 309.921L152.042 320.482L163.392 309.921L174.743 320.482L186.093 309.921L197.443 320.482L208.789 309.921L220.138 320.482L231.484 309.921L242.833 320.482L254.18 309.921L265.531 320.482L276.881 309.921L288.233 320.482L299.586 309.921L310.937 320.482L322.289 309.921L333.642 320.482L344.998 309.921L356.35 320.482L367.704 309.921L379.055 320.482L390.407 309.921L401.761 320.482L413.119 309.921L424.474 320.48L435.837 309.919L446.419 319.755L447.98 315.853L435.837 304.566ZM435.837 294.43L424.474 304.991L413.119 294.43L401.761 304.991L390.407 294.43L379.055 304.991L367.704 294.43L356.35 304.991L344.998 294.43L333.642 304.991L322.289 294.43L310.937 304.991L299.586 294.43L288.233 304.991L276.881 294.43L265.531 304.991L254.18 294.43L242.833 304.991L231.484 294.43L220.138 304.991L208.789 294.43L197.443 304.991L186.093 294.43L174.743 304.991L163.392 294.43L152.042 304.991L140.692 294.43L129.341 304.991L117.992 294.43L106.64 304.991L95.2904 294.43L83.9407 304.991L72.5922 294.43L61.2425 304.991L49.8928 294.43L38.5454 304.991L27.1957 294.43L15.846 304.991L4.49976 294.43L-6.84994 304.991L-17.4409 295.132L-18.9561 298.913L-6.84994 310.178L4.49976 299.617L15.846 310.178L27.1957 299.617L38.5454 310.178L49.8928 299.617L61.2425 310.178L72.5922 299.617L83.9407 310.178L95.2904 299.617L106.64 310.178L117.992 299.617L129.341 310.178L140.692 299.617L152.042 310.178L163.392 299.617L174.743 310.178L186.093 299.617L197.443 310.178L208.789 299.617L220.138 310.178L231.484 299.617L242.833 310.178L254.18 299.617L265.531 310.178L276.881 299.617L288.233 310.178L299.586 299.617L310.937 310.178L322.289 299.617L333.642 310.178L344.998 299.617L356.35 310.178L367.704 299.617L379.055 310.178L390.407 299.617L401.761 310.178L413.119 299.617L424.474 310.178L435.837 299.617L446.443 309.474L447.956 305.693L435.837 294.43ZM435.837 284.291L424.474 294.852L413.119 284.291L401.761 294.852L390.407 284.291L379.055 294.852L367.704 284.291L356.35 294.852L344.998 284.291L333.642 294.852L322.289 284.291L310.937 294.852L299.586 284.291L288.233 294.852L276.881 284.291L265.531 294.852L254.18 284.291L242.833 294.852L231.484 284.291L220.138 294.852L208.789 284.291L197.443 294.852L186.093 284.291L174.743 294.852L163.392 284.291L152.042 294.852L140.692 284.291L129.341 294.852L117.992 284.291L106.64 294.852L95.2904 284.291L83.9407 294.852L72.5922 284.291L61.2425 294.852L49.8928 284.291L38.5454 294.852L27.1957 284.291L15.846 294.852L4.49976 284.291L-6.84994 294.852L-17.4652 284.974L-18.9318 288.632L-6.84994 299.874L4.49976 289.313L15.846 299.874L27.1957 289.313L38.5454 299.874L49.8928 289.313L61.2425 299.874L72.5922 289.313L83.9407 299.874L95.2904 289.313L106.64 299.874L117.992 289.313L129.341 299.874L140.692 289.313L152.042 299.874L163.392 289.313L174.743 299.874L186.093 289.313L197.443 299.874L208.789 289.313L220.138 299.874L231.484 289.313L242.833 299.874L254.18 289.313L265.531 299.874L276.881 289.313L288.233 299.874L299.586 289.313L310.937 299.874L322.289 289.313L333.642 299.874L344.998 289.313L356.35 299.874L367.704 289.313L379.055 299.874L390.407 289.313L401.761 299.874L413.119 289.313L424.474 299.874L435.837 289.313L446.467 299.194L447.931 295.533L435.837 284.291ZM435.837 274.156L424.474 284.717L413.119 274.156L401.761 284.717L390.407 274.156L379.055 284.715L367.704 274.154L356.35 284.717L344.998 274.156L333.642 284.717L322.289 274.154L310.937 284.715L299.586 274.154L288.233 284.715L276.881 274.154L265.531 284.715L254.18 274.154L242.833 284.715L231.484 274.154L220.138 284.715L208.789 274.154L197.443 284.715L186.093 274.154L174.743 284.715L163.392 274.154L152.041 284.715L140.693 274.154L129.341 284.715L117.992 274.154L106.64 284.715L95.2904 274.154L83.9396 284.715L72.5922 274.154L61.2425 284.715L49.8928 274.154L38.5454 284.715L27.1957 274.154L15.846 284.715L4.49976 274.154L-6.84994 284.715L-17.4894 274.814L-18.9075 278.352L-6.84994 289.573L4.49976 279.012L15.846 289.573L27.1957 279.012L38.5454 289.573L49.8928 279.012L61.2425 289.573L72.5922 279.012L83.9396 289.573L95.2904 279.012L106.64 289.573L117.992 279.012L129.341 289.573L140.693 279.012L152.041 289.573L163.392 279.012L174.743 289.573L186.093 279.012L197.443 289.573L208.789 279.012L220.138 289.573L231.484 279.012L242.833 289.573L254.18 279.012L265.531 289.573L276.881 279.012L288.233 289.573L299.586 279.012L310.937 289.573L322.289 279.012L333.642 289.572L344.998 279.011L356.35 289.572L367.704 279.012L379.055 289.573L390.407 279.011L401.761 289.572L413.119 279.011L424.474 289.572L435.837 279.011L446.491 288.913L447.907 285.375L435.837 274.156ZM435.837 264.018L424.474 274.579L413.119 264.018L401.761 274.579L390.407 264.018L379.055 274.579L367.704 264.018L356.35 274.579L344.998 264.018L333.642 274.579L322.289 264.018L310.937 274.579L299.586 264.018L288.233 274.579L276.881 264.018L265.531 274.579L254.18 264.018L242.833 274.579L231.484 264.018L220.138 274.579L208.789 264.018L197.443 274.579L186.093 264.018L174.743 274.579L163.392 264.018L152.041 274.579L140.692 264.018L129.341 274.579L117.992 264.018L106.64 274.579L95.2904 264.018L83.9396 274.579L72.591 264.018L61.2425 274.579L49.8928 264.018L38.5454 274.579L27.1957 264.018L15.846 274.579L4.49976 264.018L-6.84994 274.579L-17.5148 264.655L-18.8821 268.071L-6.84994 279.268L4.49976 268.707L15.846 279.268L27.1957 268.707L38.5454 279.268L49.8928 268.707L61.2425 279.268L72.591 268.707L83.9396 279.268L95.2904 268.707L106.64 279.268L117.992 268.707L129.341 279.268L140.692 268.707L152.041 279.268L163.392 268.707L174.743 279.268L186.093 268.707L197.443 279.268L208.789 268.707L220.138 279.268L231.484 268.707L242.833 279.268L254.18 268.707L265.531 279.268L276.881 268.707L288.233 279.268L299.586 268.707L310.937 279.268L322.289 268.707L333.642 279.268L344.998 268.707L356.35 279.268L367.704 268.707L379.055 279.268L390.407 268.707L401.761 279.268L413.119 268.707L424.474 279.268L435.837 268.707L446.516 278.632L447.883 275.216L435.837 264.018ZM435.837 253.881L424.474 264.44L413.119 253.879L401.761 264.44L390.407 253.879L379.055 264.44L367.704 253.879L356.35 264.44L344.998 253.879L333.642 264.44L322.289 253.879L310.937 264.44L299.586 253.879L288.233 264.44L276.881 253.879L265.531 264.44L254.18 253.879L242.833 264.44L231.484 253.879L220.138 264.44L208.789 253.879L197.443 264.44L186.093 253.879L174.743 264.44L163.392 253.879L152.042 264.44L140.693 253.879L129.341 264.44L117.992 253.879L106.64 264.44L95.2904 253.879L83.9396 264.44L72.5922 253.879L61.2425 264.44L49.8928 253.879L38.5454 264.44L27.1957 253.879L15.846 264.44L4.49976 253.879L-6.84994 264.44L-17.5391 254.493L-18.8579 257.79L-6.84994 268.965L4.49976 258.404L15.846 268.965L27.1957 258.404L38.5454 268.965L49.8928 258.404L61.2425 268.965L72.5922 258.404L83.9396 268.965L95.2904 258.404L106.64 268.965L117.992 258.404L129.341 268.965L140.693 258.404L152.042 268.965L163.392 258.404L174.743 268.965L186.093 258.404L197.443 268.965L208.789 258.404L220.138 268.965L231.484 258.404L242.833 268.965L254.18 258.404L265.531 268.965L276.881 258.404L288.233 268.965L299.586 258.405L310.937 268.965L322.289 258.405L333.642 268.965L344.998 258.405L356.35 268.965L367.704 258.405L379.055 268.965L390.407 258.405L401.761 268.965L413.119 258.405L424.474 268.965L435.837 258.403L446.54 268.351L447.859 265.054L435.837 253.881ZM435.837 243.744L424.474 254.305L413.119 243.744L401.761 254.305L390.407 243.744L379.055 254.305L367.704 243.744L356.35 254.305L344.998 243.744L333.642 254.305L322.289 243.744L310.937 254.305L299.586 243.744L288.233 254.305L276.881 243.744L265.531 254.305L254.18 243.744L242.833 254.303L231.484 243.742L220.138 254.303L208.789 243.742L197.443 254.303L186.093 243.744L174.743 254.305L163.392 243.744L152.042 254.305L140.692 243.744L129.341 254.305L117.992 243.744L106.64 254.305L95.2904 243.744L83.9396 254.303L72.5922 243.744L61.2425 254.305L49.8928 243.744L38.5454 254.305L27.1957 243.744L15.846 254.303L4.49976 243.744L-6.84994 254.303L-17.5633 244.336L-18.8336 247.507L-6.84994 258.66L4.49976 248.101L15.846 258.661L27.1957 248.099L38.5454 258.66L49.8928 248.099L61.2425 258.66L72.5922 248.101L83.9396 258.66L95.2904 248.099L106.64 258.66L117.992 248.099L129.341 258.66L140.692 248.099L152.042 258.66L163.392 248.099L174.743 258.66L186.093 248.099L197.443 258.661L208.789 248.101L220.138 258.66L231.484 248.101L242.833 258.66L254.18 248.099L265.531 258.66L276.881 248.099L288.233 258.66L299.586 248.099L310.937 258.66L322.289 248.099L333.642 258.66L344.998 248.099L356.35 258.66L367.704 248.099L379.055 258.66L390.407 248.099L401.761 258.66L413.119 248.099L424.474 258.66L435.837 248.099L446.564 258.07L447.834 254.895L435.837 243.744ZM435.837 233.606L424.474 244.167L413.119 233.606L401.761 244.167L390.407 233.606L379.055 244.167L367.704 233.606L356.35 244.167L344.998 233.606L333.642 244.167L322.289 233.606L310.937 244.167L299.586 233.606L288.233 244.167L276.881 233.606L265.531 244.167L254.18 233.606L242.833 244.167L231.484 233.606L220.138 244.167L208.789 233.606L197.443 244.167L186.093 233.606L174.743 244.167L163.392 233.606L152.042 244.167L140.692 233.606L129.341 244.167L117.992 233.606L106.64 244.167L95.2904 233.606L83.9396 244.167L72.5922 233.606L61.2425 244.167L49.8928 233.606L38.5454 244.167L27.1957 233.606L15.846 244.167L4.4986 233.606L-6.84994 244.167L-17.5876 234.174L-18.8094 237.228L-6.84994 248.357L4.4986 237.797L15.846 248.357L27.1957 237.797L38.5454 248.357L49.8928 237.797L61.2425 248.357L72.5922 237.797L83.9396 248.357L95.2904 237.797L106.64 248.358L117.992 237.797L129.341 248.358L140.692 237.797L152.042 248.358L163.392 237.797L174.743 248.358L186.093 237.797L197.443 248.358L208.789 237.797L220.138 248.358L231.484 237.797L242.833 248.358L254.18 237.797L265.531 248.358L276.881 237.797L288.233 248.358L299.586 237.797L310.937 248.358L322.289 237.797L333.642 248.358L344.998 237.797L356.35 248.358L367.704 237.797L379.055 248.358L390.407 237.797L401.761 248.358L413.119 237.797L424.474 248.358L435.837 237.797L446.588 247.789L447.81 244.735L435.837 233.606ZM435.837 223.469L424.474 234.03L413.119 223.467L401.761 234.028L390.407 223.467L379.055 234.028L367.704 223.467L356.35 234.028L344.998 223.467L333.642 234.028L322.289 223.467L310.937 234.028L299.586 223.467L288.233 234.028L276.881 223.467L265.531 234.028L254.18 223.467L242.833 234.028L231.484 223.467L220.138 234.028L208.789 223.467L197.443 234.028L186.093 223.467L174.743 234.028L163.392 223.467L152.042 234.028L140.692 223.467L129.341 234.028L117.992 223.467L106.64 234.028L95.2904 223.467L83.9396 234.028L72.591 223.467L61.2425 234.028L49.8928 223.467L38.5454 234.028L27.1957 223.467L15.846 234.028L4.49976 223.467L-6.84994 234.028L-17.6118 224.014L-18.7851 226.947L-6.84994 238.054L4.49976 227.493L15.846 238.054L27.1957 227.493L38.5454 238.054L49.8928 227.493L61.2425 238.054L72.591 227.493L83.9396 238.054L95.2904 227.493L106.64 238.054L117.992 227.493L129.341 238.054L140.692 227.493L152.042 238.054L163.392 227.493L174.743 238.054L186.093 227.493L197.443 238.054L208.789 227.493L220.138 238.054L231.484 227.493L242.833 238.054L254.18 227.493L265.531 238.054L276.881 227.493L288.233 238.054L299.586 227.493L310.937 238.054L322.289 227.493L333.642 238.054L344.998 227.493L356.35 238.054L367.704 227.493L379.055 238.054L390.407 227.493L401.761 238.054L413.119 227.493L424.474 238.052L435.837 227.491L446.613 237.508L447.786 234.575L435.837 223.469ZM435.837 213.33L424.474 223.893L413.119 213.33L401.761 223.893L390.407 213.33L379.055 223.893L367.704 213.33L356.35 223.893L344.998 213.33L333.642 223.893L322.289 213.33L310.937 223.893L299.586 213.33L288.233 223.893L276.881 213.33L265.531 223.893L254.18 213.33L242.833 223.893L231.484 213.33L220.138 223.893L208.789 213.33L197.443 223.893L186.093 213.33L174.743 223.893L163.392 213.33L152.041 223.893L140.692 213.33L129.341 223.893L117.992 213.33L106.64 223.893L95.2904 213.33L83.9407 223.893L72.5922 213.33L61.2425 223.893L49.8928 213.33L38.5454 223.893L27.1957 213.33L15.846 223.893L4.49976 213.33L-6.84994 223.893L-17.6361 213.853L-18.7609 216.666L-6.84994 227.751L4.49976 217.189L15.846 227.751L27.1957 217.189L38.5454 227.751L49.8928 217.189L61.2425 227.751L72.5922 217.189L83.9407 227.751L95.2904 217.189L106.64 227.751L117.992 217.189L129.341 227.751L140.692 217.189L152.041 227.751L163.392 217.189L174.743 227.751L186.093 217.189L197.443 227.751L208.789 217.189L220.138 227.751L231.484 217.189L242.833 227.751L254.18 217.189L265.531 227.751L276.881 217.189L288.233 227.751L299.586 217.189L310.937 227.751L322.289 217.189L333.642 227.751L344.998 217.189L356.35 227.751L367.704 217.189L379.055 227.751L390.407 217.189L401.761 227.751L413.119 217.189L424.474 227.751L435.837 217.189L446.637 227.229L447.762 224.416L435.837 213.33ZM435.837 203.195L424.474 213.754L413.119 203.195L401.761 213.754L390.407 203.195L379.055 213.754L367.704 203.195L356.35 213.754L344.998 203.195L333.642 213.754L322.289 203.195L310.937 213.754L299.586 203.195L288.233 213.754L276.881 203.195L265.531 213.754L254.18 203.195L242.833 213.754L231.484 203.195L220.138 213.754L208.789 203.195L197.443 213.754L186.093 203.195L174.743 213.754L163.392 203.195L152.041 213.754L140.692 203.195L129.341 213.754L117.992 203.195L106.64 213.754L95.2904 203.195L83.9407 213.754L72.5922 203.195L61.2425 213.754L49.8928 203.195L38.5454 213.754L27.1957 203.195L15.846 213.754L4.4986 203.195L-6.84994 213.754L-17.6603 203.697L-18.7366 206.385L-6.84994 217.446L4.4986 206.886L15.846 217.446L27.1957 206.886L38.5454 217.446L49.8928 206.886L61.2425 217.446L72.5922 206.886L83.9407 217.446L95.2904 206.886L106.64 217.446L117.992 206.886L129.341 217.446L140.692 206.886L152.041 217.446L163.392 206.886L174.743 217.446L186.093 206.886L197.443 217.446L208.789 206.886L220.138 217.446L231.484 206.886L242.833 217.446L254.18 206.886L265.531 217.446L276.881 206.886L288.233 217.446L299.586 206.886L310.937 217.446L322.289 206.886L333.642 217.446L344.998 206.886L356.35 217.446L367.704 206.886L379.055 217.446L390.407 206.886L401.761 217.446L413.119 206.886L424.474 217.446L435.837 206.886L446.661 216.946L447.737 214.254L435.837 203.195ZM435.837 193.059L424.474 203.619L413.119 193.059L401.761 203.619L390.407 193.057L379.055 203.618L367.704 193.057L356.35 203.618L344.998 193.057L333.642 203.619L322.289 193.057L310.937 203.618L299.586 193.057L288.233 203.618L276.881 193.057L265.531 203.618L254.179 193.057L242.833 203.618L231.484 193.057L220.138 203.618L208.789 193.057L197.443 203.618L186.093 193.057L174.743 203.618L163.392 193.057L152.041 203.618L140.692 193.057L129.341 203.618L117.992 193.057L106.64 203.618L95.2904 193.057L83.9396 203.618L72.591 193.057L61.2425 203.618L49.8928 193.057L38.5442 203.618L27.1957 193.057L15.846 203.618L4.4986 193.057L-6.84994 203.618L-17.6846 193.536L-18.7135 196.104L-6.84994 207.145L4.4986 196.584L15.846 207.145L27.1957 196.584L38.5442 207.145L49.8928 196.584L61.2425 207.145L72.591 196.584L83.9396 207.145L95.2904 196.584L106.64 207.145L117.992 196.584L129.341 207.145L140.692 196.584L152.041 207.145L163.392 196.584L174.743 207.145L186.093 196.584L197.443 207.145L208.789 196.584L220.138 207.145L231.484 196.584L242.833 207.145L254.179 196.584L265.531 207.145L276.881 196.584L288.233 207.145L299.586 196.584L310.937 207.145L322.289 196.584L333.642 207.143L344.998 196.584L356.35 207.145L367.704 196.584L379.055 207.145L390.407 196.584L401.761 207.143L413.119 196.582L424.474 207.143L435.837 196.582L446.685 206.665L447.713 204.096L435.837 193.059ZM435.837 182.92L424.474 193.481L413.119 182.92L401.761 193.481L390.407 182.92L379.055 193.481L367.704 182.92L356.35 193.481L344.998 182.92L333.642 193.481L322.289 182.92L310.937 193.481L299.586 182.92L288.233 193.481L276.881 182.92L265.531 193.481L254.18 182.92L242.833 193.481L231.484 182.92L220.138 193.481L208.789 182.92L197.443 193.481L186.093 182.92L174.743 193.481L163.392 182.92L152.042 193.481L140.692 182.92L129.341 193.481L117.992 182.92L106.64 193.481L95.2904 182.92L83.9396 193.481L72.5922 182.92L61.2425 193.481L49.8928 182.92L38.5454 193.481L27.1957 182.92L15.846 193.481L4.4986 182.92L-6.84994 193.481L-17.7088 183.376L-18.6881 185.823L-6.84994 196.839L4.4986 186.278L15.846 196.839L27.1957 186.278L38.5454 196.839L49.8928 186.278L61.2425 196.839L72.5922 186.278L83.9396 196.839L95.2904 186.278L106.64 196.839L117.992 186.278L129.341 196.839L140.692 186.278L152.042 196.839L163.392 186.278L174.743 196.839L186.093 186.278L197.443 196.839L208.789 186.278L220.138 196.839L231.484 186.278L242.833 196.839L254.18 186.278L265.531 196.839L276.881 186.278L288.233 196.839L299.586 186.278L310.937 196.839L322.289 186.278L333.642 196.839L344.998 186.278L356.35 196.839L367.704 186.278L379.055 196.839L390.407 186.278L401.761 196.839L413.119 186.278L424.474 196.839L435.837 186.278L446.71 196.383L447.689 193.937L435.837 182.92ZM435.837 172.781L424.474 183.342L413.119 172.781L401.761 183.342L390.407 172.781L379.055 183.342L367.704 172.781L356.35 183.342L344.998 172.781L333.642 183.342L322.289 172.781L310.937 183.342L299.586 172.781L288.233 183.342L276.881 172.781L265.531 183.342L254.18 172.781L242.833 183.342L231.484 172.781L220.139 183.342L208.789 172.781L197.443 183.342L186.094 172.781L174.743 183.342L163.392 172.781L152.042 183.342L140.693 172.781L129.341 183.342L117.992 172.781L106.64 183.342L95.2904 172.781L83.9407 183.342L72.5922 172.781L61.2425 183.342L49.8928 172.781L38.5454 183.342L27.1957 172.781L15.846 183.342L4.49976 172.781L-6.84994 183.342L-17.7331 173.214L-18.6639 175.543L-6.84994 186.537L4.49976 175.976L15.846 186.537L27.1957 175.976L38.5454 186.537L49.8928 175.976L61.2425 186.537L72.5922 175.976L83.9407 186.537L95.2904 175.976L106.64 186.537L117.992 175.976L129.341 186.537L140.693 175.976L152.042 186.537L163.392 175.976L174.743 186.537L186.094 175.976L197.443 186.537L208.789 175.976L220.139 186.537L231.484 175.976L242.833 186.537L254.18 175.976L265.531 186.537L276.881 175.976L288.233 186.537L299.586 175.976L310.937 186.537L322.289 175.976L333.642 186.537L344.998 175.976L356.35 186.537L367.704 175.976L379.055 186.537L390.407 175.976L401.761 186.537L413.119 175.976L424.474 186.537L435.837 175.976L446.734 186.104L447.665 183.775L435.837 172.781ZM435.837 162.646L424.474 173.207L413.119 162.646L401.761 173.207L390.407 162.646L379.055 173.207L367.704 162.646L356.35 173.207L344.998 162.646L333.642 173.207L322.289 162.646L310.937 173.207L299.586 162.646L288.233 173.207L276.881 162.646L265.531 173.207L254.18 162.646L242.833 173.207L231.484 162.646L220.138 173.207L208.789 162.645L197.443 173.207L186.093 162.646L174.743 173.207L163.392 162.646L152.042 173.207L140.692 162.646L129.341 173.207L117.992 162.646L106.64 173.207L95.2904 162.646L83.9396 173.207L72.5922 162.646L61.2425 173.207L49.8928 162.646L38.5454 173.207L27.1957 162.646L15.846 173.206L4.49976 162.646L-6.84994 173.207L-17.7573 163.058L-18.6396 165.262L-6.84994 176.233L4.49976 165.672L15.846 176.233L27.1957 165.672L38.5454 176.233L49.8928 165.672L61.2425 176.233L72.5922 165.672L83.9396 176.233L95.2904 165.672L106.64 176.233L117.992 165.672L129.341 176.233L140.692 165.672L152.042 176.233L163.392 165.672L174.743 176.233L186.093 165.672L197.443 176.233L208.789 165.674L220.138 176.233L231.484 165.674L242.833 176.233L254.18 165.672L265.531 176.233L276.881 165.672L288.233 176.233L299.586 165.672L310.937 176.233L322.289 165.672L333.642 176.233L344.998 165.672L356.35 176.233L367.704 165.672L379.055 176.233L390.407 165.672L401.761 176.233L413.119 165.672L424.474 176.233L435.837 165.672L446.758 175.825L447.64 173.618L435.837 162.646ZM435.837 152.51L424.474 163.071L413.119 152.51L401.761 163.071L390.407 152.51L379.055 163.071L367.704 152.51L356.35 163.071L344.996 152.51L333.642 163.071L322.288 152.51L310.937 163.071L299.586 152.51L288.233 163.071L276.881 152.51L265.531 163.071L254.18 152.51L242.833 163.071L231.484 152.51L220.137 163.071L208.789 152.51L197.443 163.071L186.093 152.51L174.743 163.071L163.392 152.51L152.041 163.071L140.692 152.51L129.341 163.071L117.992 152.51L106.639 163.071L95.2904 152.51L83.9396 163.071L72.591 152.51L61.2425 163.071L49.8928 152.51L38.5454 163.071L27.1957 152.51L15.846 163.071L4.49976 152.51L-6.84994 163.071L-17.7816 152.897L-18.6154 154.981L-6.84994 165.931L4.49976 155.37L15.846 165.931L27.1957 155.37L38.5454 165.931L49.8928 155.37L61.2425 165.931L72.591 155.37L83.9396 165.931L95.2904 155.37L106.639 165.931L117.992 155.37L129.341 165.931L140.692 155.37L152.041 165.931L163.392 155.37L174.743 165.931L186.093 155.37L197.443 165.931L208.789 155.37L220.137 165.931L231.484 155.37L242.833 165.931L254.18 155.37L265.531 165.931L276.881 155.37L288.233 165.931L299.586 155.37L310.937 165.931L322.288 155.37L333.642 165.931L344.996 155.37L356.35 165.931L367.704 155.37L379.055 165.931L390.407 155.37L401.761 165.931L413.119 155.37L424.474 165.931L435.837 155.37L446.782 165.542L447.616 163.458L435.837 152.51ZM435.837 142.373L424.474 152.932L413.119 142.371L401.761 152.932L390.407 142.371L379.055 152.932L367.704 142.371L356.35 152.932L344.998 142.371L333.642 152.932L322.289 142.371L310.937 152.932L299.586 142.371L288.233 152.932L276.881 142.371L265.531 152.932L254.18 142.371L242.833 152.932L231.484 142.371L220.138 152.932L208.789 142.371L197.443 152.932L186.093 142.371L174.743 152.932L163.392 142.371L152.042 152.932L140.692 142.371L129.341 152.932L117.992 142.371L106.64 152.932L95.2904 142.371L83.9396 152.932L72.5922 142.371L61.2425 152.932L49.8928 142.371L38.5454 152.932L27.1957 142.371L15.846 152.932L4.49976 142.371L-6.84994 152.932L-17.8058 142.737L-18.5911 144.7L-6.84994 155.627L4.49976 145.066L15.846 155.627L27.1957 145.066L38.5454 155.627L49.8928 145.066L61.2425 155.627L72.5922 145.066L83.9396 155.627L95.2904 145.066L106.64 155.627L117.992 145.066L129.341 155.627L140.692 145.066L152.042 155.627L163.392 145.066L174.743 155.627L186.093 145.066L197.443 155.627L208.789 145.066L220.138 155.627L231.484 145.066L242.833 155.627L254.18 145.066L265.531 155.627L276.881 145.066L288.233 155.627L299.586 145.066L310.937 155.627L322.289 145.066L333.642 155.627L344.998 145.066L356.35 155.627L367.704 145.066L379.055 155.627L390.407 145.066L401.761 155.627L413.119 145.066L424.474 155.627L435.837 145.064L446.807 155.261L447.592 153.298L435.837 142.373ZM435.837 132.234L424.474 142.795L413.12 132.234L401.761 142.795L390.407 132.234L379.055 142.795L367.704 132.234L356.35 142.795L344.998 132.234L333.642 142.795L322.29 132.234L310.937 142.795L299.586 132.234L288.233 142.795L276.882 132.234L265.531 142.795L254.18 132.234L242.833 142.795L231.484 132.234L220.138 142.795L208.789 132.234L197.443 142.795L186.094 132.234L174.743 142.795L163.393 132.234L152.042 142.795L140.693 132.234L129.341 142.795L117.992 132.234L106.64 142.795L95.2904 132.234L83.9407 142.795L72.5922 132.234L61.2425 142.795L49.8928 132.234L38.5454 142.795L27.1957 132.234L15.846 142.795L4.49976 132.234L-6.84878 142.795L-17.8289 132.576L-18.5669 134.419L-6.84878 145.323L4.49976 134.762L15.846 145.323L27.1957 134.762L38.5454 145.323L49.8928 134.762L61.2425 145.323L72.5922 134.762L83.9407 145.323L95.2904 134.762L106.64 145.323L117.992 134.762L129.341 145.323L140.693 134.762L152.042 145.323L163.393 134.762L174.743 145.323L186.094 134.762L197.443 145.323L208.789 134.762L220.138 145.323L231.484 134.762L242.833 145.323L254.18 134.762L265.531 145.323L276.882 134.762L288.233 145.323L299.586 134.762L310.937 145.323L322.29 134.762L333.642 145.323L344.998 134.762L356.35 145.323L367.704 134.762L379.055 145.323L390.407 134.762L401.761 145.323L413.12 134.762L424.474 145.323L435.837 134.762L446.831 144.98L447.568 143.137L435.837 132.234ZM435.837 122.096L424.474 132.657L413.119 122.096L401.761 132.657L390.407 122.096L379.055 132.657L367.704 122.096L356.35 132.657L344.998 122.096L333.642 132.657L322.289 122.096L310.937 132.657L299.586 122.096L288.233 132.657L276.881 122.096L265.531 132.657L254.18 122.096L242.833 132.657L231.484 122.096L220.138 132.657L208.789 122.096L197.443 132.657L186.093 122.096L174.743 132.657L163.392 122.096L152.041 132.657L140.693 122.096L129.341 132.657L117.992 122.096L106.64 132.657L95.2904 122.096L83.9407 132.657L72.5922 122.096L61.2425 132.657L49.8928 122.096L38.5454 132.657L27.1957 122.096L15.846 132.657L4.49976 122.096L-6.84994 132.657L-17.8543 122.418L-18.5426 124.138L-6.84994 135.019L4.49976 124.458L15.846 135.019L27.1957 124.458L38.5454 135.019L49.8928 124.458L61.2425 135.019L72.5922 124.458L83.9407 135.019L95.2904 124.458L106.64 135.019L117.992 124.458L129.341 135.019L140.693 124.458L152.041 135.019L163.392 124.458L174.743 135.019L186.093 124.458L197.443 135.019L208.789 124.458L220.138 135.019L231.484 124.458L242.833 135.019L254.18 124.458L265.531 135.019L276.881 124.458L288.233 135.019L299.586 124.458L310.937 135.019L322.289 124.458L333.642 135.019L344.998 124.458L356.35 135.019L367.704 124.458L379.055 135.019L390.407 124.458L401.761 135.019L413.119 124.458L424.474 135.019L435.837 124.458L446.855 134.7L447.543 132.977L435.837 122.096ZM435.837 111.963L424.474 122.524L413.119 111.963L401.761 122.524L390.407 111.961L379.055 122.522L367.704 111.961L356.35 122.522L344.998 111.961L333.642 122.522L322.289 111.961L310.937 122.522L299.586 111.961L288.233 122.522L276.881 111.961L265.531 122.522L254.18 111.961L242.833 122.522L231.484 111.961L220.138 122.522L208.789 111.961L197.443 122.522L186.093 111.961L174.743 122.522L163.392 111.961L152.041 122.522L140.692 111.961L129.341 122.522L117.991 111.961L106.639 122.522L95.2904 111.961L83.9396 122.522L72.5922 111.961L61.2425 122.522L49.8928 111.961L38.5454 122.522L27.1957 111.961L15.846 122.522L4.4986 111.961L-6.84994 122.522L-17.8786 112.258L-18.5184 113.858L-6.84994 124.719L4.4986 114.158L15.846 124.719L27.1957 114.158L38.5454 124.719L49.8928 114.158L61.2425 124.719L72.5922 114.158L83.9396 124.719L95.2904 114.158L106.639 124.719L117.991 114.158L129.341 124.719L140.692 114.158L152.041 124.719L163.392 114.158L174.743 124.719L186.093 114.158L197.443 124.719L208.789 114.158L220.138 124.719L231.484 114.158L242.833 124.719L254.18 114.158L265.531 124.719L276.881 114.158L288.233 124.719L299.586 114.158L310.937 124.719L322.289 114.158L333.642 124.719L344.998 114.156L356.35 124.719L367.704 114.158L379.055 124.719L390.407 114.158L401.761 124.717L413.119 114.156L424.474 124.717L435.837 114.156L446.879 124.419L447.519 122.819L435.837 111.963ZM435.837 101.822L424.474 112.385L413.119 101.822L401.761 112.385L390.407 101.822L379.055 112.385L367.704 101.822L356.35 112.385L344.998 101.822L333.642 112.385L322.289 101.822L310.937 112.385L299.586 101.822L288.233 112.385L276.881 101.822L265.531 112.385L254.18 101.822L242.833 112.385L231.484 101.822L220.138 112.385L208.789 101.822L197.443 112.385L186.093 101.822L174.743 112.385L163.392 101.822L152.042 112.385L140.692 101.822L129.341 112.385L117.992 101.822L106.64 112.385L95.2904 101.822L83.9407 112.385L72.591 101.822L61.2425 112.385L49.8928 101.822L38.5454 112.385L27.1957 101.822L15.846 112.385L4.49976 101.822L-6.84994 112.385L-17.9028 102.097L-18.4941 103.575L-6.84994 114.413L4.49976 103.85L15.846 114.413L27.1957 103.85L38.5454 114.413L49.8928 103.85L61.2425 114.413L72.591 103.85L83.9407 114.413L95.2904 103.85L106.64 114.413L117.992 103.85L129.341 114.413L140.692 103.85L152.042 114.413L163.392 103.85L174.743 114.413L186.093 103.85L197.443 114.413L208.789 103.85L220.138 114.413L231.484 103.85L242.833 114.413L254.18 103.85L265.531 114.413L276.881 103.85L288.233 114.413L299.586 103.85L310.937 114.413L322.289 103.85L333.642 114.413L344.998 103.85L356.35 114.413L367.704 103.85L379.055 114.413L390.407 103.85L401.761 114.413L413.119 103.85L424.474 114.413L435.837 103.85L446.904 114.138L447.495 112.66L435.837 101.822ZM435.837 91.6856L424.474 102.247L413.119 91.6856L401.761 102.247L390.407 91.6856L379.055 102.247L367.704 91.6856L356.35 102.247L344.998 91.6856L333.642 102.247L322.289 91.6856L310.937 102.247L299.586 91.6856L288.234 102.247L276.881 91.6856L265.531 102.247L254.182 91.6856L242.833 102.247L231.484 91.6856L220.138 102.247L208.789 91.6856L197.443 102.247L186.093 91.6856L174.743 102.247L163.392 91.6855L152.042 102.247L140.692 91.6855L129.341 102.247L117.992 91.6855L106.64 102.247L95.2904 91.6855L83.9407 102.247L72.5922 91.6855L61.2425 102.247L49.8928 91.6855L38.5454 102.247L27.1957 91.6855L15.846 102.247L4.49976 91.6855L-6.84994 102.247L-17.9271 91.939L-18.4699 93.2961L-6.84994 104.111L4.49976 93.5496L15.846 104.111L27.1957 93.5496L38.5454 104.111L49.8928 93.5496L61.2425 104.111L72.5922 93.5496L83.9407 104.111L95.2904 93.5496L106.64 104.111L117.992 93.5496L129.341 104.111L140.692 93.5496L152.042 104.111L163.392 93.5496L174.743 104.111L186.093 93.5496L197.443 104.111L208.789 93.5496L220.138 104.111L231.484 93.5496L242.833 104.111L254.182 93.5496L265.531 104.111L276.881 93.5496L288.234 104.111L299.586 93.5496L310.937 104.111L322.289 93.5496L333.642 104.111L344.998 93.5496L356.35 104.111L367.704 93.5496L379.055 104.111L390.407 93.5496L401.761 104.111L413.119 93.5496L424.474 104.111L435.837 93.5496L446.928 103.857L447.471 102.5L435.837 91.6856ZM435.837 81.5488L424.474 92.1098L413.119 81.5488L401.761 92.1098L390.407 81.5488L379.055 92.1098L367.704 81.5488L356.35 92.1098L344.998 81.5488L333.642 92.1098L322.289 81.5488L310.937 92.1098L299.586 81.5488L288.233 92.1098L276.881 81.5488L265.531 92.1098L254.18 81.5488L242.833 92.1098L231.484 81.5488L220.138 92.1098L208.789 81.5488L197.443 92.1098L186.093 81.5488L174.743 92.1098L163.392 81.5488L152.042 92.1098L140.692 81.5488L129.341 92.1098L117.992 81.5488L106.64 92.1098L95.2904 81.5488L83.9407 92.1098L72.5922 81.5488L61.2425 92.1098L49.8928 81.5488L38.5454 92.1098L27.1957 81.5488L15.846 92.1098L4.49976 81.5488L-6.84994 92.1098L-17.9513 81.7794L-18.4456 83.0133L-6.84994 93.8048L4.49976 83.2438L15.846 93.8048L27.1957 83.2438L38.5454 93.8048L49.8928 83.2438L61.2425 93.8048L72.5922 83.2438L83.9407 93.8048L95.2904 83.2438L106.64 93.8048L117.992 83.2438L129.341 93.8048L140.692 83.2438L152.042 93.8048L163.392 83.2438L174.743 93.8048L186.093 83.2438L197.443 93.8048L208.789 83.2438L220.138 93.8048L231.484 83.2438L242.833 93.8048L254.18 83.2438L265.531 93.8048L276.881 83.2438L288.233 93.8048L299.586 83.2438L310.937 93.8048L322.289 83.2438L333.642 93.8048L344.998 83.2438L356.35 93.8048L367.704 83.2438L379.055 93.8048L390.407 83.2438L401.761 93.8048L413.119 83.2438L424.474 93.8048L435.837 83.2438L446.952 93.576L447.446 92.3386L435.837 81.5488ZM435.836 71.4121L424.474 81.9712L413.119 71.4121L401.761 81.9712L390.407 71.4121L379.055 81.9712L367.703 71.4121L356.35 81.9712L344.998 71.4121L333.642 81.9712L322.289 71.4121L310.937 81.9712L299.586 71.4121L288.233 81.9712L276.881 71.4121L265.531 81.9712L254.18 71.4121L242.833 81.9712L231.484 71.4121L220.138 81.9712L208.789 71.4121L197.443 81.9712L186.093 71.4121L174.743 81.9712L163.392 71.4121L152.041 81.9712L140.692 71.4121L129.339 81.9712L117.991 71.4121L106.639 81.9712L95.2904 71.4121L83.9396 81.9712L72.5922 71.412L61.2425 81.9712L49.8916 71.412L38.5454 81.9712L27.1957 71.412L15.846 81.9712L4.49976 71.412L-6.84994 81.9712L-17.9756 71.6215L-18.4225 72.7339L-6.84994 83.5026L4.49976 72.9434L15.846 83.5026L27.1957 72.9434L38.5454 83.5026L49.8916 72.9434L61.2425 83.5026L72.5922 72.9434L83.9396 83.5026L95.2904 72.9434L106.639 83.5026L117.991 72.9434L129.339 83.5026L140.692 72.9434L152.041 83.5026L163.392 72.9434L174.743 83.5026L186.093 72.9434L197.443 83.5026L208.789 72.9434L220.138 83.5026L231.484 72.9434L242.833 83.5026L254.18 72.9434L265.531 83.5026L276.881 72.9434L288.233 83.5026L299.586 72.9434L310.937 83.5026L322.289 72.9434L333.642 83.5026L344.998 72.9434L356.35 83.5026L367.703 72.9434L379.055 83.5026L390.407 72.9434L401.761 83.5026L413.119 72.9434L424.474 83.5026L435.836 72.9434L446.976 83.2931L447.422 82.1807L435.836 71.4121ZM435.837 61.2753L424.474 71.8345L413.119 61.2753L401.761 71.8345L390.407 61.2753L379.055 71.8345L367.704 61.2753L356.35 71.8345L344.998 61.2753L333.642 71.8345L322.289 61.2753L310.937 71.8345L299.586 61.2753L288.233 71.8345L276.881 61.2753L265.531 71.8345L254.18 61.2753L242.833 71.8345L231.484 61.2753L220.138 71.8345L208.789 61.2753L197.443 71.8345L186.093 61.2753L174.743 71.8345L163.392 61.2753L152.042 71.8345L140.692 61.2753L129.341 71.8345L117.992 61.2753L106.64 71.8345L95.2904 61.2753L83.9407 71.8345L72.591 61.2753L61.2425 71.8345L49.8928 61.2753L38.5454 71.8345L27.1957 61.2753L15.846 71.8345L4.49976 61.2753L-6.84994 71.8345L-17.9998 61.4601L-18.3971 62.4546L-6.84994 73.1986L4.49976 62.6394L15.846 73.1986L27.1957 62.6394L38.5454 73.1986L49.8928 62.6394L61.2425 73.1986L72.591 62.6394L83.9407 73.1986L95.2904 62.6394L106.64 73.1986L117.992 62.6394L129.341 73.1986L140.692 62.6394L152.042 73.1986L163.392 62.6394L174.743 73.1986L186.093 62.6394L197.443 73.1986L208.789 62.6394L220.138 73.1986L231.484 62.6394L242.833 73.1986L254.18 62.6394L265.531 73.1986L276.881 62.6394L288.233 73.1986L299.586 62.6394L310.937 73.1986L322.289 62.6394L333.642 73.1986L344.998 62.6394L356.35 73.1986L367.704 62.6394L379.055 73.1986L390.407 62.6394L401.761 73.1986L413.119 62.6394L424.474 73.1986L435.837 62.6394L447.001 73.0138L447.398 72.0193L435.837 61.2753ZM435.837 51.1385L424.474 61.6995L413.119 51.1385L401.761 61.6995L390.407 51.1385L379.055 61.6995L367.704 51.1385L356.35 61.6995L344.998 51.1385L333.642 61.6995L322.289 51.1385L310.937 61.6995L299.586 51.1385L288.233 61.6995L276.881 51.1385L265.531 61.6995L254.18 51.1385L242.833 61.6995L231.484 51.1385L220.138 61.6995L208.789 51.1385L197.443 61.6995L186.093 51.1385L174.743 61.6995L163.393 51.1385L152.042 61.6995L140.692 51.1385L129.341 61.6995L117.992 51.1385L106.64 61.6995L95.2916 51.1385L83.9407 61.6995L72.5922 51.1385L61.2425 61.6995L49.8928 51.1385L38.5454 61.6995L27.1957 51.1385L15.846 61.6995L4.49976 51.1385L-6.84878 61.6995L-18.0241 51.3004L-18.3729 52.1735L-6.84878 62.8964L4.49976 52.3354L15.846 62.8964L27.1957 52.3354L38.5454 62.8964L49.8928 52.3354L61.2425 62.8964L72.5922 52.3354L83.9407 62.8964L95.2916 52.3354L106.64 62.8964L117.992 52.3354L129.341 62.8964L140.692 52.3354L152.042 62.8964L163.393 52.3354L174.743 62.8964L186.093 52.3354L197.443 62.8964L208.789 52.3354L220.138 62.8964L231.484 52.3354L242.833 62.8964L254.18 52.3354L265.531 62.8964L276.881 52.3354L288.233 62.8964L299.586 52.3354L310.937 62.8964L322.289 52.3354L333.642 62.8964L344.998 52.3354L356.35 62.8964L367.704 52.3354L379.055 62.8964L390.407 52.3354L401.761 62.8964L413.119 52.3354L424.474 62.8964L435.837 52.3354L447.025 62.7344L447.374 61.8614L435.837 51.1385ZM447.349 51.7L447.049 52.4533L435.837 42.0314L424.474 52.5924L413.119 42.0314L401.761 52.5924L390.407 42.0314L379.055 52.5924L367.704 42.0314L356.35 52.5924L344.998 42.0314L333.642 52.5924L322.289 42.0314L310.937 52.5924L299.586 42.0314L288.233 52.5924L276.881 42.0314L265.531 52.5924L254.18 42.0314L242.833 52.5924L242.683 52.4516L231.484 42.0314L220.138 52.5924L208.789 42.0314L197.443 52.5924L186.093 42.0314L174.743 52.5924L163.392 42.0314L152.042 52.5924L151.891 52.4533L140.692 42.0314L129.341 52.5924L117.992 42.0314L106.64 52.5924L95.2904 42.0314L83.9407 52.5924L72.5922 42.0314L61.2425 52.5924L61.0923 52.4533L49.8928 42.0314L38.5454 52.5924L38.3941 52.4533L27.1957 42.0314L15.846 52.5924L4.49976 42.0314L-6.84994 52.5924L-18.3486 41.8906L-18.0484 41.1408L-6.84994 51.5609L4.49976 41L15.846 51.5609L27.1957 41L27.3458 41.139L38.5454 51.5609L49.8928 41L50.0429 41.139L61.2425 51.5609L72.5922 41L83.9407 51.5609L95.2904 41L106.64 51.5609L117.992 41L129.341 51.5609L140.692 41L140.843 41.139L152.042 51.5609L163.392 41L174.743 51.5609L186.093 41L197.443 51.5609L208.789 41L220.138 51.5609L231.484 41L231.635 41.1408L242.833 51.5609L254.18 41L265.531 51.5609L276.881 41L288.233 51.5609L299.586 41L310.937 51.5609L322.289 41L333.642 51.5609L344.998 41L356.35 51.5609L367.704 41L379.055 51.5609L390.407 41L401.761 51.561L413.119 41L424.474 51.561L435.837 41L447.349 51.7Z" fill="url(#paint1_linear)"/>
</g>
<defs>
<linearGradient id="paint0_linear" x1="192" y1="0" x2="192" y2="396" gradientUnits="userSpaceOnUse">
<stop stop-color="#4DAD92"/>
<stop offset="1" stop-color="#2F436A"/>
</linearGradient>
<linearGradient id="paint1_linear" x1="214.5" y1="360" x2="214.5" y2="41" gradientUnits="userSpaceOnUse">
<stop stop-color="white" stop-opacity="0"/>
<stop offset="0.476721" stop-color="white" stop-opacity="0.1"/>
<stop offset="1" stop-color="white" stop-opacity="0"/>
</linearGradient>
</defs>
</svg>
