<svg xmlns="http://www.w3.org/2000/svg" width="20" height="20" viewBox="0 0 20 20">
    <path fill="#959DAE" fill-rule="evenodd" d="M10.403 17.567a.833.833 0 1 1 1.442.836 2.493 2.493 0 0 1-4.312 0 .833.833 0 1 1 1.441-.836.826.826 0 0 0 1.43 0zM9.69 1.389A5.811 5.811 0 0 1 15.5 7.2c0 2.405.434 4.212 1.143 5.512.4.733.772 1.126.975 1.261.686.458.362 1.527-.462 1.527H2.222c-.824 0-1.148-1.07-.462-1.527.203-.135.576-.528.975-1.26.71-1.3 1.143-3.108 1.143-5.513a5.811 5.811 0 0 1 5.81-5.811zm0 1.667A4.144 4.144 0 0 0 5.544 7.2c0 2.676-.5 4.758-1.346 6.31-.061.113-.123.22-.185.323h11.352a8.482 8.482 0 0 1-.185-.323c-.847-1.552-1.347-3.634-1.347-6.31A4.144 4.144 0 0 0 9.69 3.056z"/>
</svg>
