<svg width="42" height="42" viewBox="0 0 42 42" fill="none" xmlns="http://www.w3.org/2000/svg">
<rect width="42" height="42" rx="4" fill="black"/>
<path fill-rule="evenodd" clip-rule="evenodd" d="M31.2692 16.5869C30.4724 16.5869 29.8274 17.2106 29.8274 17.9797V23.9416C29.8274 24.7108 30.4724 25.3344 31.2692 25.3344C32.0645 25.3344 32.7096 24.7108 32.7096 23.9416V17.9797C32.7096 17.2107 32.0645 16.5869 31.2692 16.5869ZM13.0163 16.5869C12.2195 16.5869 11.5745 17.2106 11.5745 17.9797V23.9416C11.5745 24.7108 12.2195 25.3344 13.0163 25.3344C13.8116 25.3344 14.4567 24.7108 14.4567 23.9416V17.9797C14.4567 17.2107 13.8116 16.5869 13.0163 16.5869ZM15.524 16.5869H15.4204V26.8062C15.4204 27.6176 16.1019 28.2781 16.9425 28.2781H18.0399C18.002 28.4009 17.9816 28.5294 17.9816 28.6647V31.607C17.9816 32.3761 18.6282 32.9998 19.4234 32.9998C20.2187 32.9998 20.8653 32.3761 20.8653 31.607V28.6646C20.8653 28.5292 20.8434 28.4007 20.807 28.2779H23.4835C23.4471 28.4007 23.4265 28.5292 23.4265 28.6646V31.6068C23.4265 32.3759 24.0716 32.9996 24.8669 32.9996C25.6637 32.9996 26.3102 32.3759 26.3102 31.6068V28.6646C26.3102 28.5292 26.2883 28.4007 26.2504 28.2779H27.3494C28.1899 28.2779 28.8699 27.6176 28.8699 26.8061V16.5869H15.524ZM25.4536 11.0093L25.7222 10.617L25.9907 10.2304L26.589 9.36115C26.6633 9.2539 26.6328 9.1099 26.5218 9.0394C26.4123 8.9674 26.2621 8.99702 26.1906 9.10427L25.277 10.4265L25.0027 10.8244C24.1344 10.4985 23.1668 10.3165 22.1452 10.3165C21.1252 10.3165 20.1561 10.4985 19.2878 10.8244L19.0149 10.4265L18.7448 10.0356L18.1027 9.10427C18.0284 8.99702 17.8795 8.9689 17.7685 9.0394C17.6591 9.1099 17.6285 9.2539 17.7013 9.36115L18.2996 10.2304L18.5681 10.617L18.8382 11.0093C16.7994 11.9278 15.4204 13.6678 15.4204 15.6589H28.8697C28.8699 13.6678 27.4909 11.928 25.4536 11.0093ZM19.2623 13.7961C18.8639 13.7961 18.5414 13.4843 18.5414 13.099C18.5414 12.7137 18.8639 12.4033 19.2623 12.4033C19.6607 12.4033 19.9833 12.7138 19.9833 13.099C19.9833 13.4843 19.6607 13.7961 19.2623 13.7961ZM25.0274 13.7961C24.629 13.7961 24.3065 13.4843 24.3065 13.099C24.3065 12.7137 24.629 12.4033 25.0274 12.4033C25.4258 12.4033 25.7483 12.7138 25.7483 13.099C25.7483 13.4843 25.4258 13.7961 25.0274 13.7961Z" fill="#95CF00"/>
</svg>
