<svg xmlns="http://www.w3.org/2000/svg" width="119" height="110" fill="none" viewBox="0 0 119 110">
    <path fill="#232C3F" d="M51.542 89.6H19.461V56.4c0-19.733 10.694-30.867 32.081-33.4v16.6c-10.373.4-15.688 6-15.944 16.8h15.944v33.2zm48.026 0H67.487V56.4c0-19.733 10.694-30.867 32.082-33.4v16.6c-10.374.4-15.69 6-15.945 16.8h15.945v33.2z"/>
    <path fill="#151B27" fill-rule="evenodd" d="M.25 109.598v-53.2c0-13.753 3.837-27.079 13.647-37.292C23.383 9.231 36.145 4.693 49.37 3.126L70.752.594v11.324c7.958-5.03 17.182-7.67 26.644-8.792L118.778.594v109.004H.25zm99.318-53.2H83.623c.256-10.8 5.571-16.4 15.945-16.8v-16.6l-.588.072c-7.573.962-13.78 3.023-18.623 6.182-4.258 2.778-7.46 6.406-9.605 10.884-2.129 4.445-3.217 9.728-3.264 15.847l-.001.415v33.2h32.081v-33.2zm-80.108 33.2h32.082v-33.2H35.597c.247-10.403 5.187-15.98 14.821-16.735.368-.028.742-.05 1.124-.065v-16.6c-7.84.929-14.244 3.014-19.21 6.254-8.486 5.536-12.776 14.447-12.87 26.732l-.002.414v33.2z" clip-rule="evenodd"/>
</svg>
