<svg width="42" height="42" viewBox="0 0 42 42" fill="none" xmlns="http://www.w3.org/2000/svg">
<rect width="42" height="42" rx="4" fill="black"/>
<rect x="10.0649" y="9" width="24.1569" height="24" fill="#D8D8D8" fill-opacity="0.01"/>
<path fill-rule="evenodd" clip-rule="evenodd" d="M26.6983 9C26.8057 10.3934 26.3621 11.7734 25.4619 12.8471C24.5885 13.9264 23.2651 14.5481 21.8712 14.5338C21.7826 13.1806 22.239 11.8478 23.14 10.8291C24.0524 9.7966 25.3229 9.14352 26.6983 9ZM31.1072 17.1873C29.5039 18.1667 28.5173 19.8937 28.493 21.7635C28.4953 23.8788 29.7704 25.7879 31.7314 26.6119C31.3543 27.8292 30.7858 28.9795 30.047 30.0203C29.0548 31.4948 28.0145 32.9354 26.3634 32.962C25.5782 32.98 25.0481 32.7557 24.4958 32.5219C23.9196 32.2781 23.3193 32.024 22.3798 32.024C21.3835 32.024 20.7562 32.2863 20.1513 32.5392C19.6285 32.7578 19.1223 32.9694 18.409 32.9988C16.8366 33.0567 15.6349 31.425 14.6067 29.9643C12.5515 26.9813 10.9512 21.5576 13.0966 17.8672C14.1041 16.0686 15.9878 14.9272 18.0586 14.8608C18.9504 14.8425 19.8062 15.184 20.5564 15.4834C21.1302 15.7124 21.6423 15.9167 22.0616 15.9167C22.4302 15.9167 22.928 15.7205 23.5082 15.4917C24.422 15.1314 25.5402 14.6905 26.6797 14.8093C28.4503 14.8643 30.0912 15.7456 31.1072 17.1873Z" fill="white"/>
</svg>
