<svg width="619" height="913" viewBox="0 0 619 913" fill="none" xmlns="http://www.w3.org/2000/svg">
<path fill-rule="evenodd" clip-rule="evenodd" d="M0 780.7V913H619V0H0V566.9C0.3 566.7 0.7 566.8 1 567C1.4 567.3 1.4 567.9 1.1 568.2C0.8 568.5 0.4 568.6 0 568.4V669.9L0.1 670C1.8 671.4 2 673.9 0.6 675.6L0 676.2V745.8C1.9 745.4 4 745.9 5.7 747.2C8.5 749.6 8.9 753.8 6.5 756.7C4.9 758.7 2.3 759.4 0 759V774.5C1.2 776.4 1.2 778.8 0 780.7ZM3 833.7C4.4 834.9 6.5 834.7 7.7 833.3C8.9 831.9 8.7 829.8 7.3 828.6C5.9 827.4 3.8 827.6 2.6 829C1.4 830.4 1.6 832.5 3 833.7ZM7.6 810.6C10.2 812.7 14 812.4 16.2 809.8C18.4 807.2 18.1 803.4 15.4 801.3C12.8 799.1 9 799.4 6.8 802C4.7 804.6 5 808.4 7.6 810.6ZM11.8 775.4C9 778.8 9.4 783.9 12.8 786.7C16.2 789.5 21.3 789.1 24.1 785.7C26.9 782.3 26.5 777.2 23.1 774.4C19.7 771.6 14.6 772 11.8 775.4ZM29.5 749.1C26.1 746.3 21 746.7 18.2 750.1C15.4 753.5 15.8 758.6 19.2 761.4C22.6 764.2 27.7 763.8 30.5 760.4C33.3 757 32.9 751.9 29.5 749.1ZM21.3 859.5C21.6 859.8 22.1 859.7 22.4 859.4C22.7 859.1 22.7 858.6 22.3 858.3C22 858 21.5 858.1 21.2 858.4C20.9 858.7 21 859.2 21.3 859.5ZM23.9 838.7C26.8 841.1 31.1 840.8 33.5 837.9C35.9 835 35.5 830.7 32.7 828.3C29.8 825.9 25.5 826.2 23.1 829.1C20.6 832 21 836.3 23.9 838.7ZM38.5 886V886.1H38.6V886H38.5ZM29.2 814.7C32.8 817.7 38.2 817.2 41.3 813.6C44.3 809.9 43.9 804.5 40.2 801.5C36.6 798.5 31.2 799 28.1 802.6C25.1 806.2 25.6 811.6 29.2 814.7ZM47.8 788.1C50.8 784.5 50.3 779.1 46.7 776C43 772.9 37.6 773.4 34.6 777.1C31.6 780.7 32.1 786.1 35.7 789.2C39.3 792.2 44.7 791.7 47.8 788.1ZM52.7 750.9C49.3 748.1 44.2 748.5 41.4 751.9C38.6 755.2 39 760.3 42.4 763.2C45.8 766 50.9 765.6 53.7 762.2C56.5 758.8 56.1 753.7 52.7 750.9ZM45 860.4V860.5H45.1V860.4H45ZM55.3 912.6V912.7H55.4V912.6H55.3ZM47.1 840C50 842.4 54.3 842.1 56.7 839.2C59.1 836.3 58.7 832 55.9 829.6C53 827.1 48.7 827.5 46.3 830.4C43.8 833.3 44.2 837.6 47.1 840ZM51.5 803.8C48.5 807.4 49 812.6 52.5 815.6C56.1 818.5 61.3 818.1 64.3 814.6C67.3 811 66.8 805.8 63.3 802.8C59.7 799.8 54.5 800.3 51.5 803.8ZM360.9 678.4C357.9 682 358.4 687.4 362 690.5C365.7 693.5 371.1 693.1 374.1 689.4C377.1 685.8 376.6 680.4 373 677.3C369.4 674.3 364 674.8 360.9 678.4ZM358.6 725C362.4 728.2 368.1 727.7 371.3 723.9C374.5 720.1 374 714.4 370.2 711.2C366.4 708 360.7 708.5 357.5 712.3C354.3 716.1 354.8 721.8 358.6 725ZM346.8 669.4C350.2 672.2 355.3 671.8 358.1 668.4C360.9 665 360.5 659.9 357.1 657.1C353.7 654.3 348.6 654.7 345.8 658.1C343 661.5 343.4 666.6 346.8 669.4ZM355.6 703.2C358.8 699.4 358.3 693.8 354.5 690.6C350.7 687.4 345 687.9 341.9 691.7C338.7 695.5 339.2 701.1 343 704.3C346.8 707.5 352.4 707 355.6 703.2ZM339.1 737.8C343 741.1 348.8 740.6 352 736.7C355.2 732.9 354.7 727.1 350.9 723.8C347 720.5 341.2 721 338 724.9C334.7 728.8 335.2 734.6 339.1 737.8ZM327.9 682.9C331.3 685.7 336.3 685.2 339.1 681.9C342 678.6 341.5 673.6 338.1 670.7C334.7 667.9 329.7 668.3 326.9 671.7C324.1 675.1 324.5 680.1 327.9 682.9ZM335.5 715.3C338.4 711.9 337.9 706.8 334.5 703.9C331 701 325.9 701.5 323.1 704.9C320.2 708.3 320.7 713.4 324.1 716.3C327.5 719.2 332.6 718.7 335.5 715.3ZM308.3 695.7C311.7 698.6 316.9 698.2 319.8 694.7C322.7 691.2 322.3 686.1 318.8 683.2C315.4 680.3 310.2 680.7 307.3 684.2C304.4 687.6 304.8 692.8 308.3 695.7ZM315.6 727.3C318.6 723.7 318.1 718.5 314.6 715.5C311.1 712.5 305.8 713 302.8 716.5C299.8 720.1 300.3 725.3 303.8 728.3C307.4 731.3 312.6 730.8 315.6 727.3ZM289.1 757.2C285.5 754.1 280.1 754.6 277.1 758.2C274 761.8 274.5 767.1 278.2 770.2C281.8 773.3 287.2 772.8 290.2 769.2C293.2 765.6 292.7 760.2 289.1 757.2ZM262.2 748.8C265.8 751.8 271 751.3 274 747.8C277 744.2 276.5 739 273 736C269.4 733 264.2 733.5 261.2 737C258.2 740.6 258.7 745.8 262.2 748.8ZM282.1 727.2C279.1 730.8 279.6 736.2 283.2 739.2C286.8 742.2 292.2 741.7 295.2 738.2C298.2 734.6 297.7 729.2 294.1 726.2C290.5 723.1 285.1 723.6 282.1 727.2ZM310.3 746.8C306.5 743.6 300.9 744.1 297.7 747.9C294.5 751.7 295 757.3 298.8 760.5C302.6 763.7 308.2 763.2 311.4 759.4C314.6 755.6 314.1 750 310.3 746.8ZM293.1 674.4C296.2 677.1 300.9 676.7 303.6 673.5C306.3 670.3 305.9 665.6 302.8 663C299.6 660.3 294.9 660.7 292.2 663.9C289.5 667 290 671.7 293.1 674.4ZM299.7 706.2C302.6 702.8 302.2 697.6 298.7 694.7C295.3 691.8 290.1 692.3 287.2 695.7C284.3 699.1 284.7 704.3 288.2 707.2C291.6 710.1 296.8 709.7 299.7 706.2ZM278.1 652.7C280.8 654.9 284.8 654.6 287 651.9C289.2 649.3 288.9 645.3 286.2 643.1C283.5 640.9 279.5 641.2 277.3 643.9C275.1 646.5 275.4 650.5 278.1 652.7ZM283.3 684.8C285.9 681.7 285.5 677.1 282.4 674.5C279.3 671.9 274.7 672.3 272.1 675.4C269.5 678.5 269.9 683.1 273 685.7C276.1 688.3 280.7 687.9 283.3 684.8ZM279.2 717C282.2 713.4 281.7 708.2 278.2 705.2C274.6 702.2 269.4 702.7 266.4 706.2C263.4 709.8 263.9 715 267.4 718C271 721 276.2 720.5 279.2 717ZM257.8 664C260.5 666.2 264.5 665.9 266.7 663.2C268.9 660.6 268.6 656.6 265.9 654.3C263.2 652.1 259.2 652.4 257 655.1C254.8 657.8 255.1 661.8 257.8 664ZM262.5 695.2C265.1 692.1 264.7 687.5 261.6 684.9C258.5 682.3 253.9 682.7 251.3 685.8C248.7 688.9 249.1 693.5 252.2 696.1C255.3 698.7 259.9 698.3 262.5 695.2ZM257.7 726.3C260.5 722.9 260.1 717.9 256.7 715.1C253.4 712.2 248.4 712.7 245.5 716.1C242.7 719.5 243.1 724.5 246.5 727.3C249.9 730.1 254.9 729.7 257.7 726.3ZM240.8 757.6C244.4 760.6 249.6 760.1 252.6 756.6C255.5 753 255.1 747.8 251.6 744.8C248 741.8 242.8 742.3 239.8 745.8C236.8 749.4 237.3 754.6 240.8 757.6ZM236.6 674.4C239.5 676.8 243.7 676.4 246.1 673.6C248.5 670.8 248.1 666.6 245.3 664.1C242.4 661.7 238.2 662.1 235.8 664.9C233.4 667.8 233.8 672 236.6 674.4ZM241.1 704.4C243.6 701.3 243.2 696.8 240.2 694.3C237.2 691.7 232.7 692.1 230.1 695.2C227.6 698.3 228 702.8 231 705.3C234.1 707.8 238.6 707.4 241.1 704.4ZM236.4 735C239.4 731.4 238.9 726.2 235.4 723.2C231.9 720.2 226.6 720.7 223.6 724.2C220.6 727.8 221.1 733 224.6 736C228.2 739 233.4 738.5 236.4 735ZM173.2 766.1C170.2 769.6 170.7 774.8 174.2 777.7C177.7 780.6 182.9 780.1 185.8 776.7C188.8 773.3 188.3 768 184.8 765.1C181.3 762.2 176.1 762.6 173.2 766.1ZM167.8 805.6C171.4 808.7 176.8 808.2 179.8 804.6C182.9 801 182.4 795.6 178.7 792.6C175.1 789.5 169.7 790 166.7 793.6C163.7 797.2 164.2 802.6 167.8 805.6ZM201.4 787.6C197.8 784.6 192.6 785.1 189.6 788.6C186.6 792.2 187.1 797.4 190.6 800.4C194.2 803.4 199.4 802.9 202.4 799.4C205.4 795.8 204.9 790.6 201.4 787.6ZM195.7 760.3C192.7 763.9 193.2 769.1 196.7 772.1C200.2 775 205.5 774.6 208.5 771.1C211.5 767.5 211 762.3 207.5 759.3C203.9 756.3 198.7 756.8 195.7 760.3ZM201.6 731.5C198.6 735.1 199 740.4 202.6 743.4C206.2 746.4 211.5 746 214.5 742.4C217.5 738.8 217.1 733.5 213.5 730.5C209.9 727.5 204.6 727.9 201.6 731.5ZM229.5 752.8C226.1 749.9 221 750.4 218.1 753.8C215.2 757.2 215.6 762.3 219.1 765.2C222.5 768.1 227.6 767.6 230.5 764.2C233.4 760.8 232.9 755.7 229.5 752.8ZM215.2 683.4C218.1 685.8 222.3 685.4 224.7 682.6C227.1 679.7 226.8 675.5 223.9 673.1C221 670.7 216.8 671.1 214.4 673.9C212 676.8 212.4 681 215.2 683.4ZM220.2 713.1C223.2 709.6 222.7 704.4 219.2 701.5C215.7 698.6 210.5 699.1 207.6 702.5C204.6 706 205.1 711.1 208.6 714.1C212.1 717.1 217.3 716.6 220.2 713.1ZM199.6 661.2C202.2 663.4 206 663 208.1 660.5C210.2 658 209.9 654.2 207.3 652C204.7 649.8 200.9 650.1 198.8 652.7C196.7 655.3 197.1 659.1 199.6 661.2ZM203.2 690.6C205.8 687.5 205.4 683 202.3 680.4C199.3 677.9 194.7 678.3 192.1 681.3C189.5 684.4 189.9 688.9 193 691.5C196.1 694.1 200.6 693.7 203.2 690.6ZM197.7 719.8C200.4 716.5 200 711.7 196.7 708.9C193.4 706.1 188.5 706.6 185.8 709.8C183.1 713.1 183.5 717.9 186.8 720.7C190.1 723.5 194.9 723.1 197.7 719.8ZM191.8 748.4C194.6 745 194.2 740 190.8 737.2C187.4 734.4 182.4 734.8 179.6 738.2C176.8 741.6 177.2 746.6 180.6 749.4C184 752.2 189 751.8 191.8 748.4ZM171.3 697.4C174 699.6 178 699.3 180.3 696.6C182.5 693.9 182.2 689.8 179.5 687.6C176.8 685.4 172.8 685.7 170.5 688.4C168.3 691.1 168.6 695.1 171.3 697.4ZM175.2 725.6C177.9 722.3 177.5 717.5 174.2 714.7C170.9 711.9 166.1 712.3 163.3 715.6C160.6 718.9 161 723.7 164.3 726.5C167.6 729.3 172.5 728.9 175.2 725.6ZM168.9 753.3C171.7 750.1 171.2 745.2 168 742.5C164.7 739.8 159.9 740.2 157.1 743.4C154.4 746.6 154.9 751.5 158.1 754.2C161.4 757 166.2 756.5 168.9 753.3ZM163 781.2C165.9 777.8 165.5 772.6 162 769.7C158.6 766.8 153.4 767.2 150.5 770.7C147.6 774.1 148 779.3 151.5 782.2C154.9 785.1 160.1 784.7 163 781.2ZM145 809.7C148.6 812.8 154 812.3 157 808.7C160 805.1 159.6 799.7 155.9 796.7C152.3 793.6 146.9 794.1 143.9 797.7C140.9 801.3 141.4 806.7 145 809.7ZM142 730.6C144.9 733 149.3 732.6 151.8 729.7C154.3 726.7 153.9 722.3 150.9 719.9C148 717.5 143.6 717.9 141.1 720.8C138.7 723.7 139 728.1 142 730.6ZM146.3 757.6C149.1 754.2 148.7 749.2 145.3 746.4C141.9 743.5 136.9 744 134.1 747.4C131.3 750.8 131.7 755.8 135.1 758.6C138.5 761.4 143.5 761 146.3 757.6ZM133.1 799.5C129.4 796.4 123.8 796.9 120.7 800.6C117.6 804.3 118.1 809.8 121.8 813C125.5 816.1 131.1 815.6 134.2 811.9C137.3 808.2 136.8 802.6 133.1 799.5ZM105.5 788.2C109 791.1 114.2 790.7 117.1 787.2C120 783.7 119.5 778.5 116.1 775.6C112.6 772.7 107.4 773.1 104.5 776.6C101.5 780.1 102 785.3 105.5 788.2ZM127.6 774.2C124.7 777.6 125.2 782.7 128.6 785.6C132.1 788.5 137.2 788.1 140 784.6C142.9 781.2 142.4 776.1 139 773.2C135.6 770.3 130.5 770.8 127.6 774.2ZM125.3 707.1C128.4 709.6 132.9 709.2 135.4 706.2C137.9 703.2 137.5 698.7 134.5 696.1C131.4 693.6 126.9 694 124.4 697C121.9 700.1 122.3 704.6 125.3 707.1ZM129.2 733.3C131.8 730.2 131.4 725.5 128.3 722.9C125.1 720.3 120.5 720.7 117.9 723.8C115.2 726.9 115.7 731.6 118.8 734.2C121.9 736.8 126.6 736.4 129.2 733.3ZM122.7 760C125.3 756.9 124.9 752.3 121.8 749.7C118.7 747.1 114.1 747.5 111.5 750.6C108.9 753.7 109.3 758.3 112.4 760.9C115.5 763.5 120.1 763.1 122.7 760ZM102.1 710C105.2 712.6 109.9 712.2 112.5 709.1C115.1 705.9 114.7 701.3 111.6 698.7C108.5 696.1 103.8 696.5 101.2 699.6C98.6 702.7 99 707.4 102.1 710ZM106.1 735.5C108.7 732.4 108.3 727.7 105.2 725.1C102 722.4 97.4 722.9 94.8 726C92.2 729.1 92.6 733.8 95.7 736.4C98.8 739 103.5 738.6 106.1 735.5ZM99.6 761.7C102.2 758.6 101.8 754 98.7 751.4C95.6 748.8 91 749.2 88.4 752.3C85.8 755.4 86.2 760 89.3 762.6C92.4 765.2 97 764.8 99.6 761.7ZM93.7 788.4C96.5 785 96.1 779.9 92.7 777.1C89.3 774.2 84.3 774.7 81.4 778.1C78.6 781.5 79 786.6 82.4 789.4C85.8 792.2 90.9 791.8 93.7 788.4ZM73 736.7C75.8 739.1 79.9 738.7 82.3 735.9C84.6 733.1 84.3 729 81.5 726.6C78.7 724.2 74.6 724.6 72.2 727.4C69.8 730.2 70.2 734.3 73 736.7ZM76.7 762.6C79.4 759.3 79 754.5 75.7 751.7C72.5 748.9 67.6 749.3 64.8 752.7C62.1 756 62.5 760.8 65.8 763.6C69.1 766.3 73.9 765.9 76.7 762.6ZM70.6 788.7C73.6 785.2 73.1 780 69.6 777.1C66.1 774.2 60.9 774.6 58 778.1C55 781.6 55.5 786.8 59 789.7C62.5 792.6 67.7 792.2 70.6 788.7ZM66.3 863.4C67.5 864.4 69.4 864.3 70.5 863C71.6 861.7 71.5 859.8 70.1 858.8C68.9 857.8 67 857.9 65.9 859.2C64.9 860.4 65 862.3 66.3 863.4ZM78.5 912.7V912.8H78.6V912.7H78.5ZM69.3 841.5C72.9 844.5 78.1 844 81.1 840.5C84.1 837 83.6 831.7 80.1 828.7C76.5 825.7 71.3 826.2 68.3 829.7C65.3 833.3 65.8 838.5 69.3 841.5ZM85 886.7V886.8H85.1V886.7H85ZM75.7 815.6C79.3 818.6 84.6 818.2 87.6 814.6C90.6 811.1 90.1 805.8 86.6 802.7C83 799.7 77.7 800.1 74.7 803.7C71.7 807.3 72.1 812.6 75.7 815.6ZM91 860.3L91.1 861.2L91.9 861L91.8 860.2L91 860.3ZM101.8 912V912.1H101.9V912H101.8ZM93.6 839.6C96.5 842 100.7 841.6 103.1 838.8C105.4 836 105.1 831.8 102.3 829.3C99.4 826.9 95.2 827.3 92.8 830.1C90.4 833 90.8 837.2 93.6 839.6ZM108.2 885.7V885.8H108.3V885.7H108.2ZM97.9 802.8C94.9 806.4 95.3 811.7 98.9 814.7C102.5 817.7 107.8 817.2 110.8 813.7C113.8 810.1 113.4 804.8 109.8 801.8C106.2 798.8 100.9 799.2 97.9 802.8ZM113.4 860.9C114.2 861.6 115.5 861.5 116.2 860.7C116.9 859.8 116.8 858.6 116 857.9C115.1 857.2 113.9 857.3 113.2 858.1C112.5 858.9 112.6 860.2 113.4 860.9ZM115.4 839.6C119.1 842.7 124.7 842.2 127.8 838.5C130.9 834.8 130.4 829.3 126.7 826.1C123 823 117.4 823.5 114.3 827.2C111.2 830.9 111.7 836.5 115.4 839.6ZM131.3 883.8V883.9H131.4V883.8H131.3ZM132.9 862.9C136.1 865.6 140.9 865.2 143.6 862C146.3 858.8 145.8 854 142.7 851.3C139.5 848.6 134.7 849 132 852.2C129.3 855.4 129.7 860.2 132.9 862.9ZM138.7 836.6C142.3 839.6 147.5 839.1 150.5 835.6C153.5 832.1 153 826.8 149.5 823.8C145.9 820.8 140.7 821.3 137.7 824.8C134.7 828.4 135.2 833.6 138.7 836.6ZM154.4 881V881.1H154.5V881H154.4ZM157.4 857.9C159.6 859.8 162.9 859.5 164.8 857.3C166.7 855.1 166.4 851.8 164.1 849.9C161.9 848 158.6 848.3 156.7 850.5C154.9 852.7 155.2 856 157.4 857.9ZM162.1 832.6C165.4 835.3 170.3 834.9 173 831.6C175.8 828.4 175.3 823.5 172 820.7C168.7 818 163.8 818.4 161.1 821.7C158.4 825 158.8 829.8 162.1 832.6ZM177 877V877.8L177.8 877.6L177.7 876.9L177 877ZM180.7 853.4C182.6 855 185.5 854.7 187.1 852.8C188.7 850.8 188.5 848 186.5 846.4C184.6 844.8 181.7 845.1 180.1 847C178.5 848.9 178.8 851.8 180.7 853.4ZM193.8 900.5V900.6H193.9V900.5H193.8ZM182.9 816.3C179.7 820.1 180.2 825.8 184 829C187.8 832.2 193.5 831.7 196.7 827.9C199.9 824.1 199.4 818.4 195.6 815.2C191.8 812 186.1 812.5 182.9 816.3ZM200 872.6V873H200.4V872.6H200ZM201.1 850.9C204.5 853.7 209.5 853.3 212.3 849.9C215.2 846.5 214.7 841.5 211.3 838.7C207.9 835.9 202.9 836.4 200.1 839.7C197.3 843.1 197.7 848.1 201.1 850.9ZM216.5 895.5V895.6H216.6V895.5H216.5ZM206.6 823.4C210.4 826.6 216 826.1 219.2 822.3C222.4 818.5 221.9 812.8 218.1 809.7C214.3 806.5 208.7 807 205.5 810.8C202.3 814.6 202.8 820.2 206.6 823.4ZM222.5 867.1V867.5H222.9V867.1H222.5ZM212.2 782.7C209.3 786.1 209.8 791.2 213.2 794.1C216.6 797 221.7 796.5 224.6 793.1C227.5 789.7 227 784.6 223.6 781.7C220.2 778.8 215.1 779.3 212.2 782.7ZM228 839.6C228.5 840 229.2 840 229.6 839.5C230 839.1 229.9 838.4 229.5 837.9C229 837.5 228.3 837.5 227.9 838C227.5 838.5 227.5 839.2 228 839.6ZM239 889.6V889.7H239.1V889.6H239ZM228.9 816.8C232.7 820 238.3 819.5 241.5 815.7C244.7 812 244.2 806.3 240.4 803.1C236.6 799.9 231 800.4 227.8 804.2C224.6 808 225.1 813.6 228.9 816.8ZM245.2 860.8H244.8V861.2H245.2V860.8ZM234.8 775.9C232.1 779.1 232.5 783.8 235.7 786.5C238.8 789.2 243.6 788.8 246.3 785.6C249 782.4 248.6 777.7 245.4 775C242.2 772.3 237.5 772.7 234.8 775.9ZM247.8 835.6C249.8 837.3 252.8 837 254.5 835C256.2 833 255.9 830 253.9 828.3C251.9 826.6 248.9 826.9 247.2 828.9C245.5 830.9 245.8 833.9 247.8 835.6ZM261.2 882.9V883H261.3V882.9H261.2ZM251 809.2C254.7 812.3 260.2 811.8 263.3 808.1C266.4 804.4 265.9 799 262.1 795.8C258.5 792.8 253 793.2 249.9 796.9C246.8 800.6 247.3 806.1 251 809.2ZM266.6 853.4L266.7 854.1L267.4 854L267.3 853.3L266.6 853.4ZM256.5 768C253.8 771.1 254.2 775.8 257.4 778.5C260.6 781.1 265.3 780.7 268 777.6C270.7 774.5 270.3 769.8 267.1 767.1C263.9 764.4 259.2 764.8 256.5 768ZM271.2 826C272.2 826.9 273.8 826.8 274.7 825.7C275.6 824.7 275.4 823.1 274.4 822.2C273.4 821.3 271.8 821.4 270.9 822.5C270 823.5 270.1 825.1 271.2 826ZM283.2 875.4V875.5H283.3V875.4H283.2ZM271.6 788.6C268.6 792.2 269.1 797.6 272.7 800.7C276.4 803.8 281.8 803.3 284.8 799.6C287.8 796 287.3 790.6 283.7 787.5C280.1 784.5 274.7 785 271.6 788.6ZM288.8 845.6V845.7H288.9V845.6H288.8ZM289.4 821.2C292.6 823.9 297.4 823.5 300.1 820.3C302.8 817.1 302.4 812.4 299.2 809.6C296 806.9 291.2 807.3 288.5 810.5C285.8 813.7 286.2 818.5 289.4 821.2ZM304.9 867.1V867.2H305V867.1H304.9ZM293.2 779.4C290.2 783 290.7 788.2 294.2 791.2C297.7 794.2 303 793.7 306 790.2C309 786.6 308.5 781.4 305 778.4C301.4 775.4 296.2 775.9 293.2 779.4ZM309.8 836.4L309.9 837.2H310.8L310.7 836.3L309.8 836.4ZM320.9 888.5V888.6H321V888.5H320.9ZM309.5 813C313.4 816.3 319.2 815.8 322.5 811.9C325.8 808 325.3 802.2 321.4 798.9C317.5 795.6 311.7 796.1 308.4 800C305.1 803.9 305.6 809.7 309.5 813ZM326.2 857.9V858H326.3V857.9H326.2ZM314.7 781.4C318.5 784.5 324.1 784.1 327.2 780.3C330.3 776.6 329.9 771 326.1 767.8C322.3 764.7 316.7 765.2 313.6 768.9C310.5 772.7 310.9 778.3 314.7 781.4ZM319 737.7C316.3 741 316.7 745.8 320 748.6C323.3 751.4 328.2 751 330.9 747.6C333.6 744.3 333.2 739.5 329.9 736.7C326.6 734 321.8 734.4 319 737.7ZM330.9 826.7L331 827.5H331.9L331.8 826.6L330.9 826.7ZM334.1 798.1C335.5 799.3 337.5 799.1 338.7 797.7C339.9 796.3 339.7 794.2 338.3 793.1C336.9 791.9 334.9 792.1 333.7 793.5C332.5 794.9 332.7 796.9 334.1 798.1ZM335.5 769.8C338.9 772.7 344.1 772.3 347 768.8C350 765.3 349.5 760.2 346 757.3C342.6 754.4 337.4 754.8 334.5 758.3C331.6 761.7 332 766.9 335.5 769.8ZM351.9 816.4V816.5H352V816.4H351.9ZM352.1 789.5C355 791.9 359.3 791.6 361.7 788.7C364.1 785.8 363.8 781.5 360.9 779.1C358 776.6 353.7 777 351.3 779.9C348.8 782.8 349.2 787.1 352.1 789.5ZM354.4 746.3C351.5 749.7 351.9 754.9 355.4 757.8C358.9 760.7 364 760.3 366.9 756.8C369.8 753.4 369.4 748.2 365.9 745.3C362.5 742.4 357.3 742.8 354.4 746.3ZM372.1 804.9V805.3H372.5V804.9H372.1ZM370.6 779.1C374.4 782.3 380 781.8 383.2 778C386.4 774.2 385.9 768.6 382.1 765.4C378.3 762.2 372.7 762.7 369.5 766.5C366.3 770.3 366.8 775.9 370.6 779.1ZM374.5 745.5C378.1 748.5 383.6 748.1 386.7 744.4C389.8 740.7 389.3 735.2 385.7 732.2C382 729.1 376.5 729.6 373.4 733.3C370.3 736.9 370.8 742.4 374.5 745.5ZM375.8 698.3C372.4 702.4 372.9 708.5 377 711.9C381.1 715.3 387.2 714.8 390.6 710.7C394 706.6 393.5 700.5 389.4 697.1C385.3 693.7 379.2 694.2 375.8 698.3ZM392.2 561.9C394.3 559.5 393.9 555.8 391.5 553.8C389 551.7 385.4 552 383.4 554.5C381.3 556.9 381.7 560.6 384.1 562.6C386.5 564.7 390.2 564.3 392.2 561.9ZM389.9 186.1H389.5V186.5H389.9V186.1ZM393 590.7C389.9 588 385.2 588.4 382.5 591.6C379.8 594.7 380.3 599.5 383.3 602.1C386.5 604.8 391.2 604.4 393.9 601.2C396.6 598.1 396.2 593.4 393 590.7ZM400 371.3C401.1 370.1 400.9 368.3 399.7 367.3C398.5 366.3 396.7 366.5 395.6 367.6C394.6 368.8 394.8 370.6 396 371.6C397.2 372.7 399 372.5 400 371.3ZM396.5 208.1L395.8 208.2L395.9 208.9L396.6 208.8L396.5 208.1ZM407.6 301.3C408 300.8 408 300.1 407.5 299.7C407 299.3 406.3 299.3 405.9 299.8C405.5 300.3 405.5 301 406 301.4C406.5 301.8 407.2 301.8 407.6 301.3ZM406.8 276.9L406.1 277L406.2 277.7L406.9 277.6L406.8 276.9ZM412.4 477.1C411.2 476.1 409.3 476.2 408.2 477.5C407.1 478.7 407.3 480.6 408.6 481.7C409.8 482.7 411.7 482.6 412.8 481.3C413.9 480.1 413.7 478.2 412.4 477.1ZM440.8 412.9C439.2 411.6 436.9 411.8 435.6 413.4C434.3 414.9 434.5 417.3 436.1 418.6C437.7 419.9 440 419.7 441.3 418.1C442.6 416.6 442.4 414.2 440.8 412.9ZM438.2 163.6C437.5 162.9 436.3 163 435.7 163.8C435 164.5 435.1 165.7 435.9 166.3C436.6 167 437.8 166.9 438.4 166.1C439.1 165.4 439 164.2 438.2 163.6ZM442.4 476.9C440.2 475 436.8 475.2 434.9 477.5C433 479.8 433.3 483.2 435.6 485.1C437.8 487 441.2 486.7 443.1 484.4C445 482.2 444.7 478.8 442.4 476.9ZM454.3 374.1C456 372 455.8 368.9 453.7 367.2C451.6 365.4 448.5 365.7 446.8 367.8C445 369.9 445.3 373 447.4 374.7C449.5 376.4 452.6 376.2 454.3 374.1ZM450.5 208.5C450 208 449.1 208.1 448.6 208.7C448.1 209.3 448.2 210.2 448.8 210.6C449.3 211.1 450.2 211 450.7 210.4C451.2 209.9 451.1 209 450.5 208.5ZM459.3 322.5C457.9 321.3 455.9 321.5 454.7 322.9C453.6 324.3 453.7 326.4 455.1 327.5C456.5 328.7 458.5 328.5 459.7 327.1C460.9 325.7 460.7 323.7 459.3 322.5ZM452.9 231.6C452.5 232.1 452.6 232.9 453.1 233.4C453.7 233.9 454.5 233.8 454.9 233.2C455.3 232.7 455.2 231.9 454.7 231.4C454.2 231 453.4 231.1 452.9 231.6ZM457 280.3C457.9 281 459.2 280.9 460 280C460.8 279.1 460.7 277.7 459.7 277C458.8 276.3 457.5 276.4 456.7 277.3C456 278.2 456.1 279.5 457 280.3ZM456.9 303.7C457.9 304.5 459.4 304.4 460.3 303.4C461.2 302.4 461.1 300.9 460 300C459 299.1 457.5 299.3 456.6 300.3C455.7 301.3 455.9 302.8 456.9 303.7ZM456 256.5C456.5 256.9 457.3 256.8 457.8 256.3C458.3 255.7 458.2 254.9 457.6 254.5C457.1 254.1 456.3 254.2 455.8 254.7C455.4 255.2 455.5 256 456 256.5ZM543.6 445.3C545.8 442.7 545.4 438.9 542.9 436.8C540.3 434.6 536.5 435 534.4 437.5C532.2 440.1 532.5 443.9 535.1 446C537.7 448.2 541.5 447.9 543.6 445.3ZM549.4 414.5C546.8 412.3 543 412.6 540.8 415.2C538.7 417.8 539 421.6 541.6 423.8C544.2 426 548 425.7 550.2 423.1C552.3 420.5 552 416.7 549.4 414.5ZM445.3 610.3C449 613.4 454.6 612.9 457.7 609.2C460.8 605.5 460.3 600 456.6 596.8C452.9 593.7 447.3 594.2 444.2 597.9C441.1 601.7 441.6 607.2 445.3 610.3ZM447.3 647.6C450.2 650.1 454.7 649.7 457.2 646.7C459.7 643.7 459.3 639.3 456.3 636.8C453.4 634.3 448.9 634.7 446.4 637.7C443.9 640.6 444.3 645.1 447.3 647.6ZM430.6 627.5C434.1 630.4 439.3 630 442.2 626.5C445.1 623 444.7 617.8 441.2 614.9C437.7 611.9 432.5 612.4 429.6 615.9C426.6 619.4 427.1 624.6 430.6 627.5ZM430.6 665C434 667.8 439 667.4 441.8 664C444.6 660.6 444.2 655.6 440.8 652.8C437.4 650 432.4 650.5 429.6 653.8C426.8 657.2 427.2 662.2 430.6 665ZM517.4 480.3C514.9 483.4 515.3 487.9 518.3 490.4C521.3 492.9 525.8 492.5 528.4 489.5C530.9 486.4 530.5 481.9 527.5 479.4C524.4 476.9 519.9 477.3 517.4 480.3ZM508.6 511.6C511.7 514.2 516.3 513.8 518.9 510.7C521.5 507.6 521.1 503 518 500.4C514.9 497.8 510.3 498.2 507.7 501.3C505.1 504.4 505.5 509 508.6 511.6ZM507.3 446.1C510.4 448.7 515.1 448.3 517.7 445.2C520.4 442.1 519.9 437.5 516.8 434.8C513.7 432.2 509 432.6 506.4 435.7C503.8 438.8 504.2 443.5 507.3 446.1ZM510.1 467.3C512.8 464 512.4 459.2 509.1 456.4C505.8 453.6 500.9 454 498.2 457.4C495.5 460.7 495.9 465.5 499.2 468.3C502.5 471 507.3 470.6 510.1 467.3ZM501.4 488.9C504.3 485.5 503.9 480.3 500.4 477.4C496.9 474.5 491.8 475 488.9 478.4C486 481.8 486.4 487 489.9 489.9C493.3 492.8 498.5 492.4 501.4 488.9ZM480.6 444.8C483.5 447.3 487.9 446.9 490.3 444C492.7 441.1 492.4 436.7 489.4 434.3C486.5 431.8 482.1 432.2 479.7 435.1C477.3 438 477.7 442.4 480.6 444.8ZM491.4 509.9C494.4 506.4 493.9 501.2 490.4 498.3C486.9 495.3 481.7 495.8 478.8 499.3C475.8 502.7 476.3 508 479.8 510.9C483.3 513.9 488.5 513.4 491.4 509.9ZM479.7 529.8C482.4 526.7 482 522 478.8 519.3C475.6 516.6 470.9 517 468.2 520.2C465.5 523.3 465.9 528 469.1 530.7C472.3 533.4 477 533 479.7 529.8ZM471 578.5C467.2 575.4 461.6 575.8 458.5 579.6C455.3 583.4 455.8 589 459.6 592.1C463.4 595.2 469 594.8 472.1 591C475.3 587.2 474.8 581.6 471 578.5ZM443.9 569.8C447.2 572.6 452.1 572.2 454.8 568.9C457.5 565.7 457.1 560.6 453.8 557.9C450.5 555.2 445.7 555.6 442.9 558.9C440.2 562.2 440.6 567 443.9 569.8ZM472.5 561.2C469.7 564.6 470.1 569.7 473.5 572.5C476.9 575.4 482 574.9 484.8 571.5C487.6 568.1 487.2 563 483.8 560.2C480.4 557.4 475.3 557.8 472.5 561.2ZM467.6 549.7C470.3 546.5 469.9 541.7 466.7 539C463.5 536.3 458.7 536.7 456 539.9C453.3 543.1 453.7 547.9 456.9 550.6C460.1 553.3 464.9 552.9 467.6 549.7ZM452.2 508.3C455.1 510.8 459.5 510.4 461.9 507.5C464.3 504.6 463.9 500.2 461 497.8C458.1 495.3 453.7 495.7 451.3 498.6C448.9 501.5 449.3 505.9 452.2 508.3ZM441.1 527.7C443.7 529.9 447.5 529.6 449.6 527C451.7 524.4 451.4 520.6 448.9 518.5C446.3 516.3 442.5 516.7 440.4 519.2C438.2 521.8 438.6 525.6 441.1 527.7ZM430.1 588.1C433.2 590.7 437.9 590.3 440.5 587.2C443.1 584.1 442.7 579.4 439.6 576.8C436.5 574.2 431.8 574.6 429.2 577.7C426.6 580.8 427 585.5 430.1 588.1ZM414.7 606.5C418.1 609.4 423.3 609 426.2 605.5C429.1 602 428.6 596.9 425.2 594C421.8 591.1 416.6 591.5 413.7 595C410.8 598.4 411.2 603.6 414.7 606.5ZM472.1 618.7C468.8 616 463.9 616.4 461.1 619.7C458.3 623 458.8 627.9 462.1 630.7C465.4 633.4 470.3 633 473.1 629.7C475.9 626.4 475.4 621.5 472.1 618.7ZM486.6 600.6C483.3 597.9 478.4 598.3 475.6 601.6C472.8 604.9 473.3 609.8 476.6 612.6C479.9 615.3 484.8 614.9 487.6 611.6C490.4 608.3 489.9 603.4 486.6 600.6ZM485.4 541.9C482.7 545.1 483.1 549.9 486.3 552.6C489.5 555.3 494.3 554.9 497 551.7C499.7 548.5 499.3 543.7 496.1 541C492.9 538.3 488.1 538.7 485.4 541.9ZM497.1 522C494.5 525.1 494.9 529.7 498 532.3C501.1 534.9 505.7 534.5 508.3 531.4C510.9 528.3 510.5 523.7 507.4 521.1C504.3 518.5 499.7 518.9 497.1 522ZM512.9 562.9C509.8 560.3 505.1 560.7 502.5 563.8C499.8 566.9 500.2 571.6 503.4 574.2C506.5 576.8 511.2 576.4 513.8 573.3C516.5 570.2 516 565.5 512.9 562.9ZM524.2 543.8C521.5 541.6 517.5 541.9 515.3 544.6C513 547.3 513.4 551.2 516.1 553.5C518.8 555.7 522.8 555.4 525 552.7C527.2 550 526.9 546 524.2 543.8ZM535.6 522.8C532.7 520.4 528.3 520.8 525.8 523.7C523.3 526.7 523.7 531.1 526.7 533.4C529.6 535.9 534 535.5 536.5 532.6C538.9 529.7 538.6 525.3 535.6 522.8ZM536.3 503.2C534 505.9 534.4 510 537.1 512.3C539.8 514.6 543.9 514.2 546.2 511.5C548.5 508.8 548.1 504.7 545.4 502.4C542.7 500.1 538.6 500.5 536.3 503.2ZM528.8 354.6C531.4 356.7 535.1 356.4 537.2 353.9C539.3 351.4 539 347.7 536.5 345.5C534 343.4 530.2 343.7 528.1 346.2C526 348.7 526.3 352.5 528.8 354.6ZM534.4 377.5C536.9 374.6 536.5 370.2 533.6 367.8C530.7 365.3 526.4 365.7 523.8 368.6C521.4 371.5 521.8 375.9 524.7 378.3C527.6 380.8 532 380.4 534.4 377.5ZM537.1 468C539.7 464.9 539.3 460.3 536.2 457.7C533.1 455.1 528.4 455.5 525.9 458.6C523.3 461.7 523.7 466.3 526.8 468.9C529.9 471.5 534.5 471.1 537.1 468ZM514.5 423.5C517.4 426 521.8 425.6 524.2 422.7C526.6 419.8 526.2 415.5 523.3 413C520.4 410.5 516 410.9 513.6 413.8C511.2 416.7 511.6 421.1 514.5 423.5ZM505.4 330.6C507.8 332.6 511.3 332.3 513.3 329.9C515.3 327.6 515 324 512.6 322C510.2 320 506.7 320.3 504.7 322.7C502.7 325.1 503 328.6 505.4 330.6ZM511.5 353.5C513.7 350.8 513.4 346.8 510.7 344.6C508 342.4 504.1 342.7 501.8 345.4C499.6 348.1 499.9 352.1 502.6 354.3C505.3 356.5 509.3 356.2 511.5 353.5ZM507.9 376.5C510.2 373.8 509.8 369.8 507.1 367.5C504.4 365.2 500.4 365.6 498.1 368.3C495.8 371 496.2 375 498.9 377.3C501.6 379.5 505.6 379.2 507.9 376.5ZM503.4 399.5C505.9 396.6 505.5 392.3 502.6 389.9C499.7 387.4 495.4 387.8 493 390.7C490.5 393.6 490.9 397.9 493.8 400.3C496.7 402.7 501 402.4 503.4 399.5ZM497.4 421.9C499.9 419 499.5 414.7 496.6 412.3C493.7 409.9 489.4 410.2 487 413.1C484.5 416 484.9 420.3 487.8 422.7C490.7 425.1 495 424.8 497.4 421.9ZM479.9 322.9C478.3 324.8 478.6 327.5 480.4 329C482.2 330.5 484.9 330.3 486.5 328.5C488.1 326.7 487.8 323.9 486 322.4C484.1 320.8 481.4 321.1 479.9 322.9ZM481.5 305.8C483.4 307.4 486.1 307.1 487.6 305.3C489.2 303.5 488.9 300.7 487.1 299.2C485.2 297.6 482.5 297.9 481 299.7C479.4 301.6 479.7 304.3 481.5 305.8ZM482.9 281C483.8 281.7 485.1 281.6 485.9 280.7C486.7 279.8 486.6 278.4 485.6 277.7C484.7 277 483.4 277.1 482.6 278C481.9 278.9 482 280.2 482.9 281ZM481.1 258.3C482.3 259.4 484.1 259.2 485.1 258C486.1 256.8 485.9 255 484.7 254C483.5 252.9 481.7 253.1 480.7 254.3C479.7 255.5 479.9 257.3 481.1 258.3ZM478.7 234.8C479.7 235.6 481.1 235.4 481.9 234.5C482.7 233.5 482.6 232.1 481.5 231.3C480.6 230.5 479.2 230.7 478.4 231.6C477.6 232.6 477.8 234 478.7 234.8ZM484 351.6C485.6 349.7 485.4 347 483.5 345.4C481.6 343.8 478.8 344.1 477.3 345.9C475.7 347.8 475.9 350.5 477.8 352.1C479.7 353.7 482.4 353.5 484 351.6ZM475.4 211.3C475.9 211.8 476.8 211.7 477.3 211.1C477.8 210.5 477.7 209.6 477.1 209.2C476.6 208.7 475.7 208.8 475.2 209.4C474.7 209.9 474.8 210.8 475.4 211.3ZM480.6 374.8C482.3 372.7 482.1 369.6 480 367.9C477.9 366.2 474.8 366.4 473.1 368.5C471.4 370.6 471.6 373.7 473.7 375.4C475.8 377.1 478.9 376.9 480.6 374.8ZM476.3 398.2C478.5 395.7 478.2 391.8 475.6 389.7C473.1 387.5 469.3 387.9 467.1 390.4C464.9 393 465.3 396.8 467.8 398.9C470.4 401.1 474.2 400.7 476.3 398.2ZM482.7 466.2C485.4 462.9 485 458.1 481.7 455.3C478.4 452.5 473.5 452.9 470.8 456.2C468.1 459.5 468.5 464.3 471.8 467.1C475.1 469.9 480 469.5 482.7 466.2ZM472.8 487.1C475.4 484 475 479.4 471.9 476.8C468.8 474.2 464.2 474.6 461.6 477.7C459 480.8 459.4 485.4 462.5 488C465.6 490.6 470.2 490.2 472.8 487.1ZM454.9 442.1C456.8 443.7 459.7 443.4 461.3 441.5C462.9 439.6 462.7 436.7 460.7 435.1C458.8 433.5 455.9 433.8 454.3 435.7C452.7 437.6 453 440.5 454.9 442.1ZM452.8 463.2C454.6 461.1 454.3 458 452.2 456.3C450.1 454.5 447 454.8 445.3 456.9C443.5 459 443.8 462.1 445.9 463.8C448 465.5 451.1 465.3 452.8 463.2ZM437.4 546.9C439.9 544 439.5 539.7 436.6 537.3C433.7 534.9 429.4 535.3 427 538.1C424.5 541 424.9 545.3 427.8 547.7C430.7 550.2 435 549.8 437.4 546.9ZM424.7 505.1C426.8 506.9 429.9 506.6 431.7 504.5C433.4 502.4 433.2 499.3 431.1 497.5C429 495.7 425.9 496 424.1 498.1C422.3 500.2 422.6 503.3 424.7 505.1ZM418.7 461.6C420.3 462.9 422.6 462.7 423.9 461.1C425.3 459.6 425.1 457.2 423.4 455.9C421.8 454.6 419.5 454.8 418.2 456.4C416.9 458 417.1 460.3 418.7 461.6ZM424 565.9C426.5 562.9 426.1 558.4 423.1 555.9C420.1 553.4 415.6 553.7 413.2 556.9C410.7 559.8 411.1 564.3 414.1 566.8C417 569.3 421.5 568.9 424 565.9ZM399.2 623C402.4 625.7 407.2 625.3 409.9 622.1C412.6 618.9 412.2 614.2 409 611.4C405.8 608.7 401 609.1 398.3 612.3C395.6 615.5 396 620.3 399.2 623ZM398.7 659.6C401.6 662.1 406.1 661.7 408.6 658.7C411.1 655.7 410.7 651.3 407.7 648.8C404.8 646.3 400.3 646.7 397.8 649.7C395.3 652.6 395.7 657.1 398.7 659.6ZM399.3 584.7C402.3 587.2 406.8 586.8 409.3 583.8C411.8 580.8 411.4 576.3 408.3 573.9C405.4 571.4 400.9 571.8 398.4 574.8C395.9 577.7 396.3 582.2 399.3 584.7ZM398.5 544.4C400.9 546.5 404.6 546.1 406.6 543.7C408.7 541.3 408.3 537.6 405.9 535.6C403.5 533.5 399.9 533.9 397.8 536.3C395.7 538.7 396.1 542.4 398.5 544.4ZM400.5 497.3C399.3 496.2 397.5 496.4 396.5 497.6C395.5 498.8 395.7 500.6 396.9 501.6C398.1 502.7 399.9 502.5 400.9 501.3C401.9 500.1 401.7 498.3 400.5 497.3ZM400.5 439.3C402 440.6 404.4 440.4 405.7 438.8C407 437.2 406.8 434.9 405.2 433.6C403.6 432.3 401.3 432.5 400 434.1C398.7 435.6 398.9 438 400.5 439.3ZM392.4 627.7C389.2 625 384.4 625.4 381.7 628.6C379 631.8 379.4 636.6 382.6 639.3C385.8 642 390.6 641.6 393.3 638.4C396 635.2 395.6 630.4 392.4 627.7ZM392.4 675C395.4 671.4 394.9 666 391.3 662.9C387.6 659.8 382.2 660.3 379.2 663.9C376.2 667.5 376.7 672.9 380.3 676C383.9 679.1 389.3 678.6 392.4 675ZM391.5 793.6C391.8 793.9 392.3 793.8 392.6 793.5C392.9 793.1 392.9 792.6 392.5 792.4C392.2 792.1 391.7 792.2 391.4 792.5C391.1 792.8 391.2 793.3 391.5 793.6ZM393.9 761.5C395.1 762.5 396.8 762.4 397.8 761.2C398.8 760 398.6 758.3 397.5 757.3C396.3 756.3 394.6 756.4 393.6 757.6C392.6 758.8 392.7 760.5 393.9 761.5ZM393.2 731.9C396.9 735 402.5 734.5 405.6 730.8C408.7 727.1 408.2 721.6 404.5 718.4C400.8 715.3 395.2 715.8 392.1 719.5C389 723.2 389.5 728.8 393.2 731.9ZM394.8 684.6C391.8 688.2 392.3 693.6 395.9 696.6C399.5 699.7 404.9 699.2 407.9 695.5C410.9 691.9 410.4 686.5 406.8 683.5C403.2 680.5 397.8 681 394.8 684.6ZM411.8 748.9C413.5 750.4 416.1 750.1 417.6 748.4C419.1 746.7 418.9 744.1 417.1 742.6C415.4 741.1 412.8 741.3 411.3 743.1C409.8 744.8 410 747.4 411.8 748.9ZM411.9 716.8C415.3 719.6 420.3 719.1 423.1 715.8C425.9 712.5 425.5 707.5 422.1 704.6C418.7 701.8 413.7 702.2 410.9 705.6C408.1 709 408.6 714 411.9 716.8ZM414.6 680C417.5 682.4 421.7 682 424.1 679.2C426.4 676.4 426.1 672.1 423.3 669.7C420.4 667.3 416.2 667.7 413.8 670.5C411.4 673.4 411.8 677.6 414.6 680ZM415.8 642.9C418.5 645.1 422.5 644.8 424.7 642.1C427 639.5 426.6 635.5 423.9 633.2C421.2 631 417.2 631.3 415 634C412.8 636.7 413.1 640.7 415.8 642.9ZM430.7 733.8C432 734.9 434 734.7 435.1 733.4C436.2 732.1 436 730.1 434.7 729C433.4 727.9 431.4 728.1 430.3 729.4C429.2 730.8 429.4 732.7 430.7 733.8ZM429.4 701.8C432.8 704.7 438 704.3 440.9 700.8C443.8 697.4 443.3 692.2 439.9 689.3C436.5 686.4 431.3 686.8 428.4 690.3C425.5 693.7 425.9 698.9 429.4 701.8ZM448.7 718.1C449.7 719 451.2 718.8 452.1 717.8C453 716.8 452.9 715.3 451.8 714.4C450.8 713.6 449.3 713.7 448.4 714.7C447.5 715.7 447.7 717.2 448.7 718.1ZM446 686.2C449.6 689.3 455 688.8 458 685.2C461.1 681.6 460.6 676.2 456.9 673.2C453.3 670.1 447.9 670.6 444.9 674.2C441.9 677.8 442.4 683.2 446 686.2ZM465.9 702.1C466.8 702.8 468.1 702.7 468.9 701.8C469.7 700.9 469.6 699.6 468.6 698.8C467.7 698.1 466.4 698.2 465.6 699.1C464.9 700 465 701.3 465.9 702.1ZM462.5 669.2C465.9 672 471 671.6 473.8 668.2C476.7 664.8 476.2 659.8 472.8 656.9C469.4 654.1 464.3 654.5 461.5 657.9C458.7 661.3 459.1 666.4 462.5 669.2ZM482.2 685.7C483.1 686.4 484.4 686.3 485.2 685.4C486 684.4 485.9 683.1 484.9 682.4C484 681.7 482.7 681.8 481.9 682.7C481.2 683.6 481.3 684.9 482.2 685.7ZM478.5 651.4C481.6 654 486.2 653.6 488.8 650.5C491.4 647.4 491 642.8 487.9 640.2C484.8 637.6 480.2 638 477.6 641.1C475 644.2 475.4 648.8 478.5 651.4ZM500 582.2C496.9 579.6 492.2 580 489.6 583.1C487 586.2 487.4 590.9 490.5 593.5C493.6 596.1 498.3 595.7 500.9 592.6C503.5 589.5 503.1 584.8 500 582.2ZM497.5 668.8C498.7 669.8 500.4 669.6 501.3 668.5C502.2 667.4 502.1 665.7 501 664.7C499.8 663.7 498.1 663.9 497.2 665C496.2 666.2 496.4 667.9 497.5 668.8ZM493.2 633.5C496.3 636.1 500.9 635.7 503.5 632.6C506.1 629.5 505.7 624.8 502.6 622.3C499.5 619.7 494.9 620.1 492.3 623.2C489.7 626.3 490.1 630.9 493.2 633.5ZM512.4 651C513.6 652 515.3 651.8 516.2 650.7C517.1 649.6 517 647.9 515.9 646.9C514.7 645.9 513 646.1 512.1 647.2C511.1 648.4 511.3 650 512.4 651ZM506.9 615.3C510.2 618 515.1 617.6 517.9 614.3C520.6 611 520.2 606.1 516.9 603.3C513.6 600.6 508.7 601 505.9 604.3C503.1 607.6 503.6 612.5 506.9 615.3ZM527.7 630.1C527.4 630.5 527.4 631 527.8 631.3C528.1 631.6 528.7 631.6 529 631.2C529.3 630.8 529.2 630.3 528.9 630C528.5 629.7 528 629.7 527.7 630.1ZM520.1 596C523.3 598.8 528.2 598.3 530.9 595.1C533.6 591.9 533.2 587 530 584.3C526.7 581.5 521.9 582 519.2 585.2C516.4 588.4 516.9 593.3 520.1 596ZM541.6 611.5V611.9H542V611.5H541.6ZM533.4 575.1C536 577.3 539.8 577 542 574.4C544.2 571.8 543.8 568 541.2 565.8C538.6 563.6 534.8 563.9 532.6 566.5C530.5 569.1 530.8 572.9 533.4 575.1ZM546 553.6C547.9 555.2 550.6 554.9 552.1 553.1C553.6 551.3 553.4 548.5 551.6 547C549.7 545.4 547 545.7 545.5 547.5C543.9 549.4 544.2 552.1 546 553.6ZM554.2 592.1V592.5H554.6V592.1H554.2ZM546.2 491C549 493.3 553.1 493 555.4 490.2C557.8 487.4 557.4 483.3 554.6 481C551.8 478.7 547.7 479 545.4 481.8C543.1 484.6 543.4 488.7 546.2 491ZM558 531.3C558.9 532 560.2 531.9 561 531C561.8 530.1 561.7 528.8 560.7 528C559.8 527.3 558.5 527.4 557.7 528.3C557 529.2 557.1 530.5 558 531.3ZM554.7 469.1C557.3 471.3 561.2 470.9 563.4 468.3C565.6 465.7 565.2 461.8 562.6 459.6C560 457.4 556.1 457.8 553.9 460.4C551.7 463 552.1 466.9 554.7 469.1ZM568.6 508.3L568.7 509L569.4 508.9L569.3 508.2L568.6 508.3ZM562.4 446.5C564.7 448.4 568.1 448.1 570 445.8C571.9 443.5 571.6 440 569.3 438.2C567 436.3 563.6 436.6 561.7 438.9C559.8 441.2 560.1 444.6 562.4 446.5ZM575.2 490.2C576.9 491.6 579.5 491.4 580.9 489.7C582.3 488 582.1 485.4 580.4 484C578.7 482.6 576.1 482.8 574.7 484.5C573.3 486.2 573.5 488.8 575.2 490.2ZM583.1 468.3C584.8 469.7 587.4 469.5 588.8 467.8C590.2 466.1 590 463.6 588.3 462.1C586.6 460.7 584 460.9 582.6 462.6C581.2 464.3 581.4 466.9 583.1 468.3ZM596.2 509.4L596.3 510.1L597 510L596.9 509.3L596.2 509.4ZM613.2 328.3C612.9 328 612.3 328 612 328.4C611.7 328.8 611.7 329.3 612.1 329.6C612.5 329.9 613 329.9 613.3 329.5C613.6 329.1 613.6 328.6 613.2 328.3ZM611.6 350.9C610.9 350.4 609.9 350.4 609.4 351.1C608.8 351.8 608.9 352.7 609.6 353.3C610.3 353.8 611.3 353.8 611.8 353.1C612.3 352.4 612.3 351.4 611.6 350.9ZM608.5 373.9C607.8 373.4 606.8 373.4 606.3 374.1C605.8 374.8 605.9 375.8 606.5 376.3C607.2 376.8 608.2 376.8 608.7 376.1C609.2 375.4 609.2 374.4 608.5 373.9ZM605.1 488.1V488H605V488.1H605.1ZM604.4 396.9C603.9 396.4 603 396.5 602.5 397.1C602 397.7 602.1 398.6 602.7 399C603.2 399.5 604.1 399.4 604.6 398.8C605.1 398.3 605 397.4 604.4 396.9ZM601.1 417.6C599.4 416.2 596.9 416.4 595.5 418.1C594.1 419.8 594.3 422.3 596 423.7C597.7 425.1 600.2 424.9 601.6 423.2C603 421.5 602.8 419 601.1 417.6ZM593.4 442.1C592.9 441.7 592.1 441.8 591.6 442.3C591.1 442.8 591.3 443.7 591.8 444.1C592.3 444.5 593.1 444.4 593.6 443.9C594 443.4 593.9 442.5 593.4 442.1ZM588.7 280.8C588.2 280.3 587.3 280.4 586.8 281C586.3 281.6 586.4 282.5 587 282.9C587.5 283.4 588.4 283.3 588.9 282.7C589.4 282.2 589.3 281.3 588.7 280.8ZM589.3 303.4C588.3 302.6 586.9 302.8 586.1 303.7C585.3 304.7 585.4 306.1 586.4 306.9C587.4 307.7 588.8 307.5 589.6 306.6C590.4 305.6 590.2 304.2 589.3 303.4ZM586.2 329C586.6 329.3 587.1 329.3 587.4 328.9C587.7 328.5 587.7 328 587.3 327.7C586.9 327.4 586.4 327.4 586.1 327.8C585.8 328.2 585.8 328.7 586.2 329ZM585.3 236L585.2 235.1L584.4 235.3L584.5 236.1L585.3 236ZM586.9 348.8C585.4 347.6 583.2 347.7 582 349.2C580.8 350.7 580.9 352.9 582.4 354.1C583.9 355.3 586.1 355.2 587.3 353.7C588.6 352.2 588.4 350 586.9 348.8ZM584.6 370.7C582.5 369 579.5 369.3 577.8 371.3C576.1 373.4 576.3 376.4 578.4 378.1C580.4 379.8 583.5 379.5 585.2 377.5C586.9 375.5 586.6 372.4 584.6 370.7ZM580.1 393.9C578.2 392.3 575.4 392.5 573.8 394.4C572.2 396.3 572.5 399.1 574.4 400.8C576.3 402.3 579.1 402.1 580.7 400.2C582.2 398.3 582 395.5 580.1 393.9ZM576.8 423.8C578.9 421.2 578.6 417.4 576 415.2C573.4 413 569.5 413.4 567.4 415.9C565.3 418.5 565.6 422.3 568.2 424.5C570.8 426.7 574.6 426.4 576.8 423.8ZM557.1 332.1C559.5 334.2 563.2 333.9 565.3 331.4C567.4 329 567.1 325.3 564.6 323.2C562.2 321.1 558.5 321.4 556.4 323.9C554.3 326.3 554.6 330 557.1 332.1ZM564.6 301.4C562.9 300 560.3 300.2 558.9 301.9C557.4 303.6 557.7 306.1 559.4 307.6C561.1 309 563.7 308.8 565.1 307.1C566.5 305.4 566.3 302.8 564.6 301.4ZM559.4 284.4C561.1 285.8 563.7 285.6 565.1 283.9C566.5 282.2 566.3 279.6 564.6 278.2C562.9 276.8 560.3 277 558.9 278.7C557.5 280.4 557.7 283 559.4 284.4ZM563.3 260.1C564.4 258.8 564.2 256.8 562.9 255.7C561.6 254.6 559.6 254.8 558.5 256.1C557.4 257.4 557.6 259.4 558.9 260.5C560.2 261.6 562.2 261.4 563.3 260.1ZM559.7 233.8C559 233.2 558.1 233.3 557.5 234C557 234.6 557.1 235.6 557.7 236.2C558.4 236.7 559.4 236.7 559.9 236C560.4 235.3 560.4 234.4 559.7 233.8ZM556.5 210.8C555.8 210.3 554.8 210.3 554.3 211C553.7 211.6 553.8 212.6 554.5 213.2C555.2 213.7 556.1 213.7 556.7 213C557.2 212.3 557.2 211.4 556.5 210.8ZM562.5 346.3C560 344.2 556.2 344.5 554.1 347C552 349.5 552.3 353.2 554.8 355.4C557.3 357.5 561.1 357.2 563.2 354.7C565.3 352.2 565 348.4 562.5 346.3ZM551.6 189.5L551.5 188.7H550.6L550.7 189.6L551.6 189.5ZM558.9 369.5C556.5 367.6 553.1 367.9 551.1 370.2C549.2 372.5 549.5 376 551.8 378C554.2 379.9 557.6 379.6 559.6 377.3C561.5 374.9 561.3 371.4 558.9 369.5ZM555.2 400.1C557.1 397.7 556.8 394.3 554.5 392.3C552.2 390.4 548.7 390.7 546.7 393C544.8 395.4 545.1 398.8 547.4 400.8C549.8 402.7 553.2 402.4 555.2 400.1ZM546.4 165.8C545.9 165.4 545.3 165.5 544.9 165.9C544.5 166.3 544.6 167 545 167.4C545.5 167.8 546.1 167.7 546.5 167.3C546.9 166.8 546.8 166.2 546.4 165.8ZM530.4 332.4C533.4 334.9 537.9 334.5 540.4 331.5C542.9 328.6 542.5 324.1 539.4 321.6C536.5 319.1 532 319.5 529.5 322.5C527 325.4 527.4 329.9 530.4 332.4ZM539.2 300.1C537.1 298.4 534.1 298.7 532.4 300.7C530.7 302.8 531 305.8 533 307.5C535 309.2 538.1 308.9 539.8 306.9C541.5 304.8 541.2 301.8 539.2 300.1ZM532.5 284.9C534.9 286.9 538.4 286.6 540.4 284.2C542.3 281.8 542 278.3 539.7 276.3C537.3 274.3 533.8 274.6 531.8 277C529.8 279.4 530.1 282.9 532.5 284.9ZM531.8 261.1C533.8 262.8 536.9 262.5 538.6 260.5C540.3 258.5 540 255.4 538 253.7C536 252 532.9 252.3 531.2 254.3C529.5 256.4 529.8 259.4 531.8 261.1ZM529.5 238C531.5 239.7 534.5 239.4 536.2 237.4C537.9 235.4 537.6 232.4 535.6 230.7C533.6 229 530.6 229.3 528.9 231.3C527.2 233.3 527.5 236.3 529.5 238ZM531.7 122.3V122.2H531.6V122.3H531.7ZM526.8 214.1C528.3 215.4 530.6 215.2 531.9 213.7C533.2 212.2 533 209.9 531.4 208.6C529.9 207.3 527.6 207.5 526.3 209C525.1 210.5 525.3 212.8 526.8 214.1ZM527.4 185.1C525.5 183.6 522.7 183.8 521.1 185.7C519.5 187.6 519.7 190.4 521.7 191.9C523.6 193.5 526.4 193.3 528 191.4C529.5 189.5 529.3 186.7 527.4 185.1ZM529.7 400.2C532.1 397.3 531.7 393.1 528.9 390.7C526.1 388.3 521.9 388.6 519.4 391.5C517 394.4 517.3 398.6 520.2 401C523.1 403.4 527.3 403 529.7 400.2ZM519.4 165.3C518.9 164.9 518.3 165 517.9 165.4C517.6 165.9 517.6 166.5 518 166.9C518.5 167.3 519.1 167.2 519.5 166.8C519.9 166.3 519.8 165.7 519.4 165.3ZM506.6 307.5C509 309.5 512.5 309.2 514.5 306.8C516.5 304.4 516.2 300.9 513.8 298.9C511.4 296.9 507.9 297.2 505.9 299.6C503.9 302 504.2 305.5 506.6 307.5ZM507.4 283.2C509.3 284.7 512 284.5 513.5 282.7C515 280.9 514.8 278.2 513 276.6C511.1 275 508.4 275.3 506.9 277.1C505.3 279 505.6 281.7 507.4 283.2ZM511.2 254.1C509.7 252.9 507.5 253 506.3 254.5C505 256 505.2 258.2 506.7 259.3C508.2 260.5 510.4 260.4 511.6 258.9C512.8 257.5 512.7 255.3 511.2 254.1ZM513.5 142C512.5 141.1 510.9 141.2 510 142.3C509.1 143.4 509.2 144.9 510.3 145.8C511.3 146.7 512.9 146.6 513.8 145.5C514.7 144.5 514.6 142.9 513.5 142ZM504.1 236.3C505.6 237.5 507.8 237.4 509 235.9C510.3 234.4 510.1 232.3 508.6 231C507.1 229.8 504.9 229.9 503.7 231.4C502.5 232.9 502.6 235.1 504.1 236.3ZM504.1 122.3V121.8H503.6V122.3H504.1ZM505.3 213C506.5 211.5 506.4 209.3 504.9 208.1C503.5 206.9 501.3 207.1 500 208.5C498.7 210 498.9 212.2 500.4 213.4C501.9 214.6 504.1 214.5 505.3 213ZM499.5 189.6C500.3 188.6 500.2 187.2 499.2 186.4C498.3 185.6 496.8 185.7 496 186.7C495.2 187.7 495.4 189.1 496.3 189.9C497.3 190.7 498.7 190.5 499.5 189.6ZM495.4 101L495.3 100.2L494.4 100.3L494.5 101.1L495.4 101ZM494.7 168.2C496.1 166.5 495.9 164 494.2 162.6C492.5 161.2 490 161.4 488.6 163.1C487.2 164.8 487.4 167.3 489.1 168.7C490.8 170.1 493.3 169.9 494.7 168.2ZM485.2 80.1L485.1 79.4L484.4 79.5L484.5 80.2L485.2 80.1ZM487.4 146.2C488.8 144.5 488.6 142 486.9 140.6C485.3 139.2 482.8 139.4 481.3 141.1C479.9 142.8 480.1 145.3 481.8 146.7C483.5 148.1 486 147.9 487.4 146.2ZM479.1 118.3C477.1 116.6 474 116.9 472.3 118.9C470.6 120.9 470.8 123.9 472.9 125.7C474.9 127.4 478 127.1 479.7 125.1C481.4 123.1 481.1 120 479.1 118.3ZM472.7 188.9C473.5 188 473.4 186.6 472.4 185.8C471.5 185.1 470 185.2 469.2 186C468.4 187 468.6 188.4 469.5 189.2C470.5 190 471.9 189.8 472.7 188.9ZM468.4 98.4C467.1 97.4 465.2 97.5 464.1 98.8C463 100.1 463.2 102 464.6 103C465.8 104 467.7 103.9 468.8 102.6C469.8 101.4 469.7 99.5 468.4 98.4ZM465.7 163.8C464.9 163.1 463.6 163.2 462.9 164C462.2 164.8 462.3 166.1 463.1 166.8C463.9 167.6 465.2 167.4 465.9 166.6C466.6 165.8 466.5 164.5 465.7 163.8ZM469.2 419.8C471 417.7 470.7 414.6 468.6 412.8C466.5 411 463.3 411.3 461.6 413.4C459.8 415.5 460.1 418.6 462.2 420.4C464.3 422.2 467.4 421.9 469.2 419.8ZM456.2 80.5L456.1 79.8L455.4 79.9L455.5 80.6L456.2 80.5ZM459.8 139.7C457.8 138 454.8 138.3 453.1 140.3C451.4 142.3 451.7 145.3 453.7 147C455.7 148.7 458.7 148.4 460.4 146.4C462.1 144.4 461.8 141.4 459.8 139.7ZM456.7 345.6C455.3 344.4 453.3 344.6 452.1 346C450.9 347.4 451.1 349.4 452.5 350.6C453.9 351.8 455.9 351.6 457.1 350.2C458.3 348.8 458.1 346.8 456.7 345.6ZM450.3 124.1C451.5 122.7 451.3 120.6 449.9 119.4C448.5 118.2 446.3 118.4 445.2 119.8C444 121.2 444.2 123.3 445.6 124.5C447 125.7 449.1 125.5 450.3 124.1ZM444.4 60.4L444.3 59.7L443.6 59.8L443.7 60.5L444.4 60.4ZM444.5 186.5C444.2 186.2 443.7 186.3 443.4 186.6C443.2 186.9 443.2 187.4 443.5 187.7C443.8 188 444.3 187.9 444.6 187.6C444.9 187.3 444.8 186.8 444.5 186.5ZM448 390.2C446.1 388.6 443.4 388.8 441.8 390.7C440.3 392.6 440.5 395.3 442.3 396.9C444.2 398.5 446.9 398.3 448.5 396.4C450.1 394.5 449.9 391.8 448 390.2ZM439.5 98.7C438.3 97.7 436.4 97.8 435.3 99.1C434.2 100.4 434.4 102.3 435.7 103.3C436.9 104.3 438.8 104.2 439.9 102.9C440.9 101.7 440.8 99.8 439.5 98.7ZM428.1 440.4C429.7 441.7 432 441.5 433.3 439.9C434.6 438.3 434.4 436 432.8 434.7C431.2 433.4 428.9 433.6 427.6 435.2C426.3 436.8 426.5 439.1 428.1 440.4ZM430.4 349C431.3 348 431.2 346.4 430.1 345.5C429.1 344.6 427.5 344.7 426.6 345.8C425.7 346.8 425.8 348.4 426.9 349.3C427.9 350.2 429.5 350.1 430.4 349ZM427.9 231.4L427.2 231.5L427.3 232.2L428 232.1L427.9 231.4ZM432.5 323C431.7 322.3 430.5 322.4 429.9 323.2C429.3 324 429.4 325.1 430.2 325.8C430.9 326.5 432.1 326.4 432.7 325.6C433.4 324.8 433.3 323.6 432.5 323ZM431.5 254C431 253.6 430.3 253.6 429.9 254.1C429.5 254.6 429.6 255.3 430 255.7C430.5 256.1 431.2 256.1 431.6 255.6C432 255.1 432 254.4 431.5 254ZM433.4 300.4C432.9 300 432.2 300 431.8 300.5C431.4 300.9 431.4 301.6 431.9 302.1C432.4 302.5 433.1 302.5 433.5 302C433.9 301.5 433.9 300.8 433.4 300.4ZM433.6 279C434.1 278.3 434.1 277.3 433.4 276.8C432.8 276.2 431.8 276.3 431.2 277C430.7 277.7 430.7 278.6 431.4 279.2C432.1 279.7 433 279.7 433.6 279ZM431.7 40.1C431.4 39.8 430.9 39.9 430.6 40.2C430.3 40.6 430.4 41 430.7 41.3C431 41.6 431.5 41.5 431.8 41.2C432.1 40.9 432 40.4 431.7 40.1ZM430.5 144.7C431.3 143.7 431.1 142.3 430.2 141.5C429.3 140.7 427.9 140.8 427 141.9C426.2 142.8 426.4 144.2 427.3 145C428.3 145.8 429.7 145.6 430.5 144.7ZM427.6 79.2C426.8 78.5 425.5 78.7 424.8 79.5C424.1 80.3 424.2 81.6 425 82.2C425.9 82.9 427.1 82.8 427.8 82C428.5 81.2 428.4 79.9 427.6 79.2ZM423.2 209.3V208.8H422.7V209.3H423.2ZM426.4 367.6C425 366.4 422.8 366.5 421.6 368C420.4 369.5 420.6 371.6 421.9 372.8C423.4 374.1 425.6 373.9 426.8 372.4C428.1 371 427.9 368.8 426.4 367.6ZM420 122.8C420.4 122.3 420.3 121.7 419.9 121.3C419.4 120.9 418.8 121 418.4 121.4C418 121.9 418.1 122.5 418.5 122.9C419 123.3 419.6 123.2 420 122.8ZM417.9 21.4C417.6 21.1 417 21.1 416.7 21.5C416.4 21.8 416.5 22.4 416.8 22.7C417.2 23 417.7 23 418 22.6C418.3 22.3 418.3 21.7 417.9 21.4ZM417.4 187L417.3 186.3L416.6 186.4L416.7 187.1L417.4 187ZM420.1 390.8C419.1 389.9 417.5 390 416.6 391.1C415.7 392.2 415.9 393.7 416.9 394.6C417.9 395.5 419.5 395.4 420.4 394.3C421.3 393.3 421.2 391.7 420.1 390.8ZM419.4 524.2C421.2 522.1 420.9 519 418.8 517.2C416.6 515.4 413.5 515.7 411.8 517.8C410 519.9 410.3 523 412.4 524.8C414.5 526.6 417.6 526.3 419.4 524.2ZM409 417.7C410.5 419 412.9 418.8 414.2 417.2C415.5 415.6 415.3 413.3 413.7 412C412.1 410.7 409.8 410.9 408.5 412.5C407.2 414.1 407.4 416.4 409 417.7ZM409.7 164.5H409.3V164.9H409.7V164.5ZM414.6 60.4C414.1 60 413.5 60.1 413.1 60.5C412.7 60.9 412.7 61.6 413.2 62C413.7 62.4 414.3 62.3 414.7 61.9C415.1 61.4 415 60.8 414.6 60.4ZM410.2 99.4C409 98.3 407.2 98.5 406.2 99.7C405.2 100.9 405.4 102.7 406.6 103.7C407.8 104.8 409.6 104.6 410.6 103.4C411.6 102.2 411.4 100.4 410.2 99.4ZM405.2 254.5L405.1 253.7H404.3L404.4 254.6L405.2 254.5ZM406.4 322.5C405.7 321.9 404.7 322 404.1 322.7C403.6 323.3 403.6 324.4 404.3 325C405 325.6 406 325.5 406.6 324.8C407.2 324.1 407.1 323.1 406.4 322.5ZM401.7 231.5L401.6 230.8L400.9 230.9L401 231.6L401.7 231.5ZM400.8 42.7L400.7 41.8L399.9 42L400 42.8L400.8 42.7ZM400.4 143.4H400.8V143H400.4V143.4ZM404.3 344.6C403.1 343.5 401.3 343.7 400.3 344.9C399.2 346.1 399.4 347.9 400.7 348.9C401.9 350 403.7 349.8 404.7 348.6C405.7 347.4 405.5 345.6 404.3 344.6ZM397.4 80.4C396.7 79.8 395.7 79.9 395.1 80.6C394.5 81.3 394.6 82.3 395.3 82.9C396 83.5 397 83.4 397.6 82.7C398.2 82 398.1 81 397.4 80.4ZM391.5 459.1C392.5 459.9 393.9 459.7 394.7 458.8C395.4 457.8 395.3 456.4 394.4 455.6C393.4 454.8 392 455 391.2 455.9C390.4 456.9 390.5 458.3 391.5 459.1ZM393.2 393.1C393.9 392.3 393.8 391.1 393 390.4C392.2 389.8 391 389.9 390.3 390.6C389.6 391.4 389.7 392.6 390.5 393.3C391.3 394 392.5 393.9 393.2 393.1ZM391 121.6C390.5 121.2 389.9 121.3 389.5 121.7C389.2 122.1 389.2 122.8 389.6 123.2C390.1 123.6 390.7 123.5 391.1 123.1C391.5 122.6 391.4 122 391 121.6ZM383.7 521C385 522.1 387 521.9 388.1 520.6C389.2 519.3 389.1 517.4 387.7 516.2C386.3 515.1 384.4 515.3 383.3 516.6C382.2 517.9 382.4 519.9 383.7 521ZM386.3 23.5C386 23.2 385.5 23.3 385.2 23.6C384.9 24 385 24.5 385.3 24.7C385.6 25 386.1 24.9 386.4 24.6C386.7 24.3 386.6 23.8 386.3 23.5ZM383.6 62.8L383.5 62.1L382.8 62.2L382.9 62.9L383.6 62.8ZM385.4 412.3C384.6 411.5 383.3 411.7 382.6 412.5C381.9 413.4 382 414.6 382.8 415.3C383.7 416 384.9 415.9 385.6 415.1C386.3 414.3 386.2 413 385.4 412.3ZM381.7 164.5V164.4H381.6V164.5H381.7ZM380.6 300.3L381.3 300.2L381.2 299.5L380.5 299.6L380.6 300.3ZM381.1 277L381 276.2H380.1L380.2 277.1L381.1 277ZM383.5 479.2C384.3 478.2 384.2 476.7 383.2 475.8C382.2 475 380.7 475.1 379.8 476.1C378.9 477.1 379.1 478.6 380.1 479.5C381.1 480.4 382.6 480.2 383.5 479.2ZM379.2 323.5L379.9 323.4L379.8 322.7L379.1 322.8L379.2 323.5ZM379.3 101.6C379 101.3 378.5 101.4 378.2 101.7C377.9 102 378 102.5 378.3 102.8C378.6 103.1 379.1 103 379.4 102.7C379.7 102.4 379.6 101.9 379.3 101.6ZM378.1 254L379 253.9L378.8 253.1L378 253.2L378.1 254ZM375 230.9V230.4H374.5V230.9H375ZM377.4 344.7C376.7 344 375.5 344.1 374.9 344.9C374.3 345.6 374.4 346.8 375.1 347.4C375.8 348.1 377 348 377.6 347.2C378.3 346.5 378.2 345.3 377.4 344.7ZM376 433.9C375.3 433.3 374.3 433.4 373.7 434.1C373.2 434.8 373.3 435.8 373.9 436.4C374.6 437 375.6 436.9 376.2 436.2C376.8 435.5 376.7 434.5 376 433.9ZM369.4 539.7C370.9 540.9 373.1 540.8 374.3 539.3C375.5 537.8 375.3 535.7 373.8 534.4C372.4 533.2 370.2 533.3 369 534.8C367.7 536.3 367.9 538.5 369.4 539.7ZM372.2 143.5V143.1H371.8V143.5H372.2ZM372.5 369.5C372.9 369 372.8 368.2 372.3 367.7C371.7 367.3 370.9 367.3 370.5 367.9C370.1 368.4 370.2 369.2 370.7 369.7C371.2 370.1 372 370 372.5 369.5ZM370.7 7.2L370.6 6.5L369.9 6.6L370 7.3L370.7 7.2ZM369.1 207.8V208.2H369.5V207.8H369.1ZM369.4 44.6L369.3 43.8L368.5 43.9L368.6 44.7L369.4 44.6ZM371 495C369.8 494 368 494.2 367 495.4C366 496.6 366.2 498.4 367.4 499.3C368.6 500.4 370.4 500.2 371.4 499C372.4 497.8 372.2 496 371 495ZM376.3 570.9C373.7 568.7 369.9 569 367.7 571.6C365.5 574.2 365.9 578 368.5 580.2C371.1 582.4 374.9 582.1 377.1 579.5C379.2 576.9 378.9 573.1 376.3 570.9ZM367.6 617.7C370.3 620 374.5 619.7 376.8 616.9C379.1 614.2 378.7 610 376 607.7C373.2 605.4 369.1 605.7 366.8 608.5C364.5 611.2 364.8 615.4 367.6 617.7ZM366.2 83.1V82.6H365.7V83.1H366.2ZM365.4 390.4C365.1 390.1 364.6 390.2 364.3 390.5C364 390.8 364 391.3 364.4 391.6C364.7 391.9 365.2 391.8 365.5 391.5C365.8 391.2 365.7 390.7 365.4 390.4ZM365.2 454.9C364.7 454.5 364 454.5 363.6 455C363.2 455.5 363.2 456.2 363.7 456.6C364.2 457 364.9 457 365.3 456.5C365.7 456 365.7 455.3 365.2 454.9ZM374.8 643.1C371.7 640.5 367 640.9 364.4 644C361.8 647.2 362.2 651.8 365.3 654.4C368.4 657 373.1 656.6 375.7 653.5C378.3 650.4 377.9 645.7 374.8 643.1ZM362.2 186V185.9H362.1V186H362.2ZM352.2 596.5C354.7 598.6 358.5 598.3 360.6 595.8C362.7 593.3 362.3 589.5 359.9 587.4C357.4 585.3 353.6 585.6 351.5 588.1C349.4 590.6 349.7 594.4 352.2 596.5ZM361.2 123.1V122.7H360.8V123.1H361.2ZM353.6 557.9C355.5 559.5 358.2 559.3 359.8 557.4C361.4 555.6 361.2 552.8 359.3 551.2C357.4 549.6 354.7 549.8 353.1 551.7C351.5 553.6 351.7 556.3 353.6 557.9ZM356.7 514.4C355.9 513.7 354.6 513.8 353.9 514.6C353.2 515.4 353.3 516.7 354.1 517.4C355 518.1 356.2 518 356.9 517.2C357.7 516.3 357.5 515.1 356.7 514.4ZM357.4 411.9C356.9 411.5 356.2 411.5 355.8 412C355.4 412.5 355.5 413.2 355.9 413.6C356.4 414 357.1 414 357.5 413.5C357.9 413 357.9 412.3 357.4 411.9ZM355.2 299.4V298.9H354.7V299.4H355.2ZM354.7 276V275.9H354.6V276H354.7ZM354 27.1L353.9 26.3H353.1L353.2 27.2L354 27.1ZM353.9 322.7L353.8 322L353.1 322.1L353.2 322.8L353.9 322.7ZM353.4 164.4H353.3V164.5H353.4V164.4ZM352.1 253.3L352.8 253.2L352.7 252.5L352 252.6L352.1 253.3ZM352.2 64.6V64.1H351.7V64.6H352.2ZM353.6 474.3C352.9 473.6 351.7 473.7 351.1 474.5C350.4 475.2 350.5 476.4 351.3 477C352 477.7 353.2 477.6 353.8 476.8C354.5 476.1 354.4 474.9 353.6 474.3ZM350.5 345.6L350.4 344.9L349.7 345L349.8 345.7L350.5 345.6ZM359.4 632.3C361.7 629.6 361.3 625.5 358.6 623.2C355.8 620.9 351.8 621.3 349.5 624C347.2 626.7 347.6 630.8 350.3 633.1C353 635.4 357.1 635 359.4 632.3ZM348.8 103.4V103H348.4V103.4H348.8ZM348.3 230.1V230H348.2V230.1H348.3ZM347.7 432.7C347.2 432.2 346.3 432.3 345.8 432.9C345.3 433.4 345.4 434.3 346 434.8C346.5 435.3 347.4 435.2 347.9 434.6C348.4 434 348.3 433.2 347.7 432.7ZM345.1 368.2V367.7H344.6V368.2H345.1ZM337.4 574.6C339.3 576.2 342 576 343.6 574.1C345.2 572.2 344.9 569.4 343.1 567.9C341.2 566.3 338.5 566.5 336.9 568.4C335.3 570.3 335.5 573 337.4 574.6ZM338.7 535.7C339.9 536.7 341.6 536.6 342.6 535.4C343.6 534.3 343.4 532.5 342.3 531.5C341.1 530.5 339.4 530.6 338.4 531.8C337.4 533 337.5 534.7 338.7 535.7ZM343.1 143.7V143.6H343V143.7H343.1ZM342.3 207.6V207.5H342.2V207.6H342.3ZM340.2 495.5C340.7 495 340.6 494.1 340 493.6C339.4 493.1 338.6 493.2 338.1 493.8C337.6 494.3 337.7 495.2 338.3 495.7C338.8 496.2 339.7 496.1 340.2 495.5ZM337.2 390.7C337.6 391 338.1 391 338.4 390.6C338.7 390.2 338.7 389.7 338.3 389.4C337.9 389.1 337.4 389.1 337.1 389.5C336.8 389.9 336.8 390.4 337.2 390.7ZM336.6 46.5V46.9H337V46.5H336.6ZM337.6 9.7C337.3 9.4 336.8 9.5 336.5 9.8C336.2 10.2 336.3 10.7 336.6 10.9C336.9 11.2 337.4 11.1 337.7 10.8C338 10.5 337.9 10 337.6 9.7ZM335.1 84.7V84.3H334.7V84.7H335.1ZM334.5 185.8V185.7H334.4V185.8H334.5ZM336.4 452.9C335.9 452.4 335 452.5 334.5 453.1C334 453.7 334 454.5 334.7 455C335.2 455.5 336.1 455.4 336.6 454.8C337.1 454.3 337 453.4 336.4 452.9ZM343.1 602.4C340.2 600 336 600.4 333.6 603.2C331.2 606 331.6 610.3 334.4 612.7C337.3 615.1 341.5 614.7 343.9 611.9C346.3 609 345.9 604.8 343.1 602.4ZM331.3 123.7V123.6H331.2V123.7H331.3ZM341.8 647.3C344.3 644.2 343.9 639.7 340.9 637.2C337.9 634.6 333.3 635 330.8 638.1C328.3 641.2 328.7 645.7 331.7 648.2C334.8 650.7 339.3 650.3 341.8 647.3ZM329.2 298.6V298.5H329.1V298.6H329.2ZM328.7 275.4V275.3H328.6V275.4H328.7ZM329.5 410.8C329.1 410.5 328.6 410.5 328.3 410.9C328 411.3 328 411.8 328.4 412.1C328.8 412.4 329.3 412.4 329.6 412C329.9 411.6 329.9 411.1 329.5 410.8ZM327.6 321.8V321.7H327.5V321.8H327.6ZM324.9 164.6V164.5H324.8V164.6H324.9ZM325.6 513.5C326.1 513 326 512.1 325.4 511.6C324.8 511.1 324 511.2 323.5 511.8C323 512.3 323.1 513.2 323.7 513.7C324.2 514.2 325.1 514.1 325.6 513.5ZM323.9 344.7V344.6H323.8V344.7H323.9ZM323.4 472.5C322.9 472.1 322.3 472.2 321.9 472.6C321.5 473.1 321.6 473.7 322 474.1C322.5 474.5 323.1 474.4 323.5 474C323.9 473.5 323.8 472.9 323.4 472.5ZM326.5 548.1C325.2 547 323.2 547.2 322.1 548.5C321 549.8 321.2 551.7 322.5 552.9C323.8 554 325.8 553.8 326.9 552.5C328 551.2 327.8 549.2 326.5 548.1ZM320.6 30.4V30H320.2V30.4H320.6ZM320 66.8V66.7H319.9V66.8H320ZM326.8 590C328.5 588 328.2 584.9 326.2 583.2C324.1 581.4 321.1 581.7 319.4 583.8C317.7 585.8 318 588.9 320 590.6C322 592.3 325.1 592 326.8 590ZM317.9 367.3H318.4V366.8H317.9V367.3ZM317.9 104.7V104.6H317.8V104.7H317.9ZM319 431.4C318.5 431 317.9 431.1 317.5 431.5C317.2 431.9 317.2 432.6 317.6 433C318.1 433.4 318.7 433.3 319.1 432.9C319.5 432.4 319.4 431.8 319 431.4ZM324.7 617.2C322 615 318 615.3 315.8 618C313.6 620.6 314 624.6 316.7 626.8C319.3 629 323.3 628.7 325.5 626C327.7 623.4 327.4 619.4 324.7 617.2ZM313.7 144.3V144.2H313.6V144.3H313.7ZM323.6 661.3C326.4 657.9 326 652.8 322.6 650C319.2 647.2 314.1 647.6 311.3 651C308.5 654.4 308.9 659.5 312.3 662.3C315.7 665.1 320.8 664.7 323.6 661.3ZM310.6 389.2V388.8H310.2V389.2H310.6ZM309.2 490.9C308.7 490.5 308.1 490.6 307.7 491C307.3 491.4 307.4 492 307.8 492.5C308.3 492.9 308.9 492.8 309.3 492.4C309.7 491.9 309.6 491.3 309.2 490.9ZM309.8 528.3C309.1 527.6 307.9 527.7 307.3 528.5C306.7 529.3 306.8 530.4 307.4 531C308.2 531.7 309.4 531.6 310 530.8C310.7 530.1 310.6 528.9 309.8 528.3ZM306.6 451.3C306.3 451 305.8 451.1 305.5 451.4C305.2 451.7 305.3 452.2 305.6 452.5C305.9 452.8 306.4 452.7 306.7 452.4C307 452.1 306.9 451.6 306.6 451.3ZM309.4 563.8C308.1 562.7 306.1 562.9 305 564.2C303.9 565.5 304.1 567.5 305.4 568.6C306.7 569.7 308.7 569.5 309.8 568.2C310.9 566.9 310.7 564.9 309.4 563.8ZM303.9 50.1V50H303.8V50.1H303.9ZM303.3 14.9V14.5H302.9V14.9H303.3ZM303.1 86.8H303.2V86.7H303.1V86.8ZM300.8 125V124.9H300.7V125H300.8ZM301 410.3V409.9H300.6V410.3H301ZM308.4 597.3C306.2 595.5 302.8 595.7 300.9 598C299 600.2 299.3 603.6 301.6 605.5C303.8 607.4 307.2 607.1 309.1 604.8C311 602.6 310.7 599.2 308.4 597.3ZM305.9 630.5C303.2 628.2 299.1 628.6 296.8 631.3C294.5 634.1 294.9 638.2 297.6 640.4C300.3 642.7 304.4 642.3 306.7 639.6C309 636.9 308.6 632.8 305.9 630.5ZM292.8 469.8C292.4 469.5 291.9 469.5 291.6 469.9C291.3 470.3 291.4 470.9 291.7 471.1C292 471.4 292.6 471.4 292.9 471C293.2 470.6 293.2 470.1 292.8 469.8ZM293.9 507.6C293.2 507.1 292.3 507.1 291.7 507.8C291.1 508.5 291.2 509.5 291.9 510C292.6 510.5 293.5 510.5 294.1 509.8C294.6 509.1 294.6 508.1 293.9 507.6ZM293.2 543.8C292.2 543 290.8 543.2 290 544.1C289.2 545 289.4 546.4 290.4 547.3C291.3 548.1 292.7 547.9 293.5 547C294.3 546 294.1 544.6 293.2 543.8ZM289.5 430.4V430H289.1V430.4H289.5ZM287.2 69.9V69.8H287.1V69.9H287.2ZM286.6 34.5V34.4H286.5V34.5H286.6ZM286.4 106.8V106.7H286.3V106.8H286.4ZM291.5 578.3C290.1 577.1 288.1 577.3 286.9 578.7C285.7 580 285.9 582.1 287.3 583.3C288.7 584.5 290.7 584.3 291.9 582.9C293.1 581.5 292.9 579.5 291.5 578.3ZM284.9 0.4V0.3H284.8V0.4H284.9ZM289.5 610.7C287.3 608.8 283.9 609.1 282 611.4C280.1 613.7 280.4 617 282.7 618.9C284.9 620.7 288.3 620.5 290.2 618.2C292.1 616 291.8 612.6 289.5 610.7ZM277.5 487.4C277.2 487.1 276.7 487.2 276.4 487.5C276.2 487.8 276.2 488.3 276.5 488.6C276.8 488.9 277.3 488.8 277.6 488.5C277.9 488.2 277.8 487.7 277.5 487.4ZM276.2 449.5V449.1H275.8V449.5H276.2ZM276.9 523.8C276.4 523.4 275.6 523.5 275.1 524C274.6 524.5 274.7 525.3 275.3 525.8C275.8 526.2 276.6 526.1 277.1 525.6C277.5 525.1 277.4 524.3 276.9 523.8ZM275 558.7C274.2 558 273 558.1 272.3 558.9C271.6 559.7 271.7 560.9 272.5 561.6C273.3 562.3 274.5 562.2 275.2 561.4C275.9 560.6 275.8 559.4 275 558.7ZM270.5 89.8V89.7H270.4V89.8H270.5ZM268.3 20.2V20.1H268.2V20.2H268.3ZM273.2 590.9C271.3 589.3 268.6 589.6 267.1 591.4C265.6 593.2 265.9 595.9 267.6 597.5C269.5 599.1 272.2 598.8 273.7 597C275.3 595.1 275 592.4 273.2 590.9ZM271 631C273.2 628.4 272.8 624.6 270.3 622.5C267.7 620.4 263.9 620.7 261.7 623.2C259.6 625.8 259.9 629.6 262.5 631.7C265.1 633.9 268.9 633.5 271 631ZM261.3 467.3V466.9H260.9V467.3H261.3ZM260.9 503.5C260.5 503.2 260 503.2 259.7 503.6C259.4 503.9 259.5 504.5 259.8 504.8C260.1 505.1 260.7 505.1 261 504.7C261.3 504.3 261.3 503.8 260.9 503.5ZM259.2 538.3C258.5 537.7 257.5 537.8 256.9 538.5C256.3 539.2 256.4 540.2 257.1 540.8C257.8 541.4 258.8 541.3 259.4 540.6C260 539.9 259.9 538.9 259.2 538.3ZM253.3 74.1V74H253.2V74.1H253.3ZM256.7 571.2C255.5 570.2 253.6 570.3 252.5 571.6C251.4 572.8 251.6 574.7 252.9 575.8C254.1 576.8 256 576.7 257.1 575.4C258.1 574.2 258 572.3 256.7 571.2ZM251.6 40.1V40H251.5V40.1H251.6ZM249 7.2V7.1H248.9V7.2H249ZM253.8 602.6C251.7 600.9 248.6 601.1 246.9 603.2C245.2 605.3 245.5 608.4 247.5 610.1C249.6 611.8 252.7 611.6 254.4 609.5C256.1 607.4 255.9 604.3 253.8 602.6ZM250.4 641.9C252.5 639.5 252.1 635.9 249.7 633.8C247.3 631.8 243.6 632.1 241.6 634.5C239.5 636.9 239.9 640.6 242.3 642.6C244.7 644.7 248.4 644.3 250.4 641.9ZM244.8 483.6V483.2H244.4V483.6H244.8ZM243.3 517.8C242.8 517.4 242 517.5 241.5 518C241 518.6 241.2 519.4 241.7 519.8C242.2 520.2 243 520.1 243.5 519.6C243.9 519.1 243.8 518.3 243.3 517.8ZM240.6 551.1C239.6 550.3 238.2 550.5 237.4 551.4C236.6 552.3 236.7 553.7 237.7 554.6C238.7 555.4 240.1 555.2 240.9 554.3C241.7 553.3 241.6 551.9 240.6 551.1ZM234.9 59.9V59.8H234.8V59.9H234.9ZM232.3 27.2V27.1H232.2V27.2H232.3ZM237.3 582.6C235.7 581.3 233.4 581.5 232.1 583.1C230.8 584.7 231 587 232.6 588.3C234.2 589.6 236.5 589.4 237.8 587.8C239.1 586.2 238.9 583.9 237.3 582.6ZM227 498.5V498.1H226.6V498.5H227ZM232.8 614.1C231.1 612.7 228.5 612.9 227.1 614.6C225.6 616.3 225.9 618.9 227.6 620.3C229.3 621.7 231.9 621.5 233.3 619.8C234.7 618.1 234.5 615.5 232.8 614.1ZM230.1 652.4C232.5 649.5 232.1 645.3 229.3 642.9C226.5 640.6 222.2 640.9 219.8 643.7C217.4 646.6 217.8 650.8 220.6 653.2C223.5 655.6 227.7 655.2 230.1 652.4ZM224.4 530.9C223.7 530.4 222.7 530.4 222.2 531.1C221.7 531.8 221.8 532.8 222.4 533.3C223.1 533.8 224.1 533.8 224.6 533.1C225.1 532.4 225.1 531.4 224.4 530.9ZM220.5 563C219.6 562.3 218.3 562.4 217.5 563.3C216.7 564.2 216.8 565.6 217.8 566.3C218.7 567 220 566.9 220.8 566C221.5 565.1 221.4 563.8 220.5 563ZM215.5 47.3V47.2H215.4V47.3H215.5ZM216.3 593.8C215 592.8 213.1 592.9 212 594.2C210.9 595.5 211.1 597.4 212.5 598.4C213.7 599.4 215.6 599.3 216.7 598C217.7 596.8 217.6 594.9 216.3 593.8ZM207.9 511.6V511.2H207.5V511.6H207.9ZM213.5 630.6C215.7 628 215.3 624.3 212.8 622.2C210.3 620.1 206.6 620.4 204.4 622.9C202.3 625.5 202.6 629.2 205.1 631.3C207.6 633.4 211.4 633.1 213.5 630.6ZM204.3 542.6C203.6 542.1 202.6 542.1 202.1 542.8C201.6 543.4 201.7 544.4 202.3 545C203 545.5 204 545.5 204.5 544.8C205 544.1 205 543.2 204.3 542.6ZM199.4 573.8C198.7 573.3 197.7 573.3 197.2 574C196.6 574.6 196.7 575.6 197.4 576.2C198.1 576.7 199 576.7 199.6 576C200.1 575.3 200.1 574.3 199.4 573.8ZM194.8 603C193.6 602 191.7 602.1 190.6 603.4C189.6 604.6 189.7 606.5 191 607.6C192.2 608.6 194.1 608.5 195.2 607.2C196.2 606 196.1 604.1 194.8 603ZM187.9 523.1L187.8 522.4L187.1 522.5L187.2 523.2L187.9 523.1ZM191.2 638.3C193.1 636.1 192.8 632.8 190.6 631C188.4 629.1 185.1 629.4 183.3 631.6C181.4 633.8 181.7 637.1 183.9 638.9C186.1 640.8 189.4 640.5 191.2 638.3ZM182.9 553.1C182.5 552.8 182 552.8 181.7 553.2C181.4 553.6 181.5 554.1 181.8 554.4C182.2 554.7 182.7 554.7 183 554.3C183.3 554 183.3 553.4 182.9 553.1ZM186.3 668.1C188.5 665.4 188.2 661.4 185.5 659.1C182.8 656.8 178.8 657.1 176.5 659.9C174.2 662.6 174.6 666.6 177.3 668.9C180 671.1 184 670.8 186.3 668.1ZM178.3 582C177.3 581.2 175.9 581.4 175.1 582.3C174.3 583.2 174.5 584.6 175.4 585.5C176.4 586.3 177.8 586.1 178.6 585.2C179.4 584.2 179.2 582.8 178.3 582ZM171.7 501.8V501.7H171.6V501.8H171.7ZM173.2 610.4C171.8 609.2 169.7 609.4 168.5 610.8C167.3 612.2 167.5 614.4 168.9 615.5C170.3 616.7 172.4 616.5 173.6 615.1C174.8 613.7 174.6 611.6 173.2 610.4ZM166.6 532.6V532.1H166.1V532.6H166.6ZM169.3 645.1C171.2 642.8 170.9 639.4 168.6 637.5C166.3 635.6 162.8 635.9 161 638.2C159.1 640.5 159.4 643.9 161.7 645.8C164 647.7 167.4 647.4 169.3 645.1ZM161.4 561.1C160.9 560.7 160.2 560.7 159.8 561.2C159.4 561.7 159.5 562.4 159.9 562.8C160.4 563.2 161.1 563.2 161.5 562.7C161.9 562.2 161.9 561.5 161.4 561.1ZM163.4 673.6C165.5 671.2 165.1 667.5 162.7 665.5C160.2 663.4 156.6 663.7 154.6 666.2C152.5 668.6 152.9 672.2 155.3 674.3C157.7 676.4 161.4 676 163.4 673.6ZM155.8 589.6C155.1 589.1 154.1 589.1 153.6 589.8C153 590.5 153.1 591.5 153.8 592C154.5 592.5 155.4 592.5 156 591.8C156.5 591.1 156.5 590.2 155.8 589.6ZM157.9 702.1C160.3 699.2 159.9 695 157.1 692.6C154.2 690.2 150 690.5 147.6 693.4C145.2 696.3 145.6 700.5 148.4 702.9C151.3 705.3 155.5 704.9 157.9 702.1ZM151.8 621.8C153.3 620.1 153.1 617.5 151.3 616C149.6 614.5 147 614.7 145.5 616.5C144 618.2 144.2 620.8 146 622.3C147.7 623.8 150.3 623.5 151.8 621.8ZM144.9 540.2L144.8 539.5L144.1 539.6L144.2 540.3L144.9 540.2ZM146.1 650.1C147.8 648.1 147.5 645.1 145.5 643.4C143.5 641.7 140.5 641.9 138.8 644C137.1 646 137.4 649 139.4 650.7C141.4 652.4 144.4 652.1 146.1 650.1ZM139.1 567.6C138.6 567.2 138 567.3 137.6 567.7C137.2 568.2 137.3 568.8 137.7 569.2C138.2 569.6 138.8 569.5 139.2 569.1C139.6 568.6 139.5 568 139.1 567.6ZM133.4 594.8C132.6 594.1 131.4 594.2 130.7 595C130.1 595.8 130.2 597 130.9 597.7C131.7 598.4 132.9 598.3 133.6 597.5C134.3 596.7 134.2 595.5 133.4 594.8ZM140.6 669.1C137.7 666.7 133.3 667.1 130.8 670C128.4 672.9 128.8 677.3 131.7 679.8C134.6 682.2 139 681.8 141.5 678.9C143.9 676 143.6 671.6 140.6 669.1ZM127.4 622C126.4 621.2 125 621.4 124.2 622.3C123.4 623.2 123.5 624.6 124.5 625.5C125.5 626.3 126.9 626.1 127.7 625.2C128.5 624.2 128.3 622.8 127.4 622ZM122.1 545.7V545.3H121.7V545.7H122.1ZM123.4 654C125.2 651.9 124.9 648.8 122.8 647C120.7 645.2 117.5 645.5 115.8 647.6C114 649.7 114.3 652.8 116.4 654.6C118.5 656.4 121.6 656.1 123.4 654ZM116.3 572.2C115.8 571.8 115.2 571.9 114.8 572.3C114.5 572.7 114.5 573.4 114.9 573.8C115.4 574.2 116 574.1 116.4 573.7C116.8 573.2 116.7 572.6 116.3 572.2ZM110.3 598.7C109.6 598.1 108.6 598.2 108 598.9C107.4 599.6 107.5 600.7 108.2 601.2C108.9 601.8 109.9 601.7 110.5 601C111.1 600.3 111 599.3 110.3 598.7ZM117.3 672.8C114.6 670.6 110.6 670.9 108.3 673.6C106 676.3 106.4 680.3 109.1 682.6C111.8 684.8 115.8 684.5 118.1 681.8C120.3 679.1 120 675.1 117.3 672.8ZM104.4 625C103.4 624.2 102 624.4 101.2 625.3C100.4 626.2 100.5 627.6 101.5 628.5C102.5 629.3 103.9 629.1 104.7 628.2C105.5 627.2 105.3 625.8 104.4 625ZM99.4 549.5L99.3 548.6L98.4 548.7L98.5 549.6L99.4 549.5ZM99 655.3C100.2 653.9 100 651.9 98.6 650.7C97.2 649.5 95.1 649.7 94 651.1C92.8 652.5 93 654.5 94.4 655.7C95.8 656.9 97.8 656.7 99 655.3ZM93.3 574.9C92.8 574.5 92.1 574.5 91.7 575C91.3 575.4 91.4 576.2 91.8 576.6C92.3 577 93 577 93.4 576.5C93.8 576 93.8 575.3 93.3 574.9ZM87 600.9C86.5 600.4 85.6 600.5 85.1 601.1C84.6 601.7 84.7 602.6 85.3 603C85.8 603.5 86.7 603.4 87.2 602.8C87.7 602.3 87.6 601.4 87 600.9ZM94.2 674.6C91.5 672.4 87.5 672.7 85.2 675.4C82.9 678.1 83.3 682.1 86 684.4C88.7 686.6 92.7 686.3 95 683.6C97.2 680.9 96.9 676.9 94.2 674.6ZM82.4 524.7V524.3H82V524.7H82.4ZM80.8 626.8C80.1 626.1 78.9 626.2 78.3 627C77.7 627.7 77.8 628.9 78.5 629.6C79.2 630.3 80.4 630.2 81 629.4C81.7 628.6 81.6 627.4 80.8 626.8ZM88.3 700.2C85.2 697.7 80.7 698.1 78.2 701.1C75.6 704.1 76 708.6 79.1 711.2C82.2 713.7 86.7 713.3 89.2 710.3C91.7 707.2 91.3 702.7 88.3 700.2ZM76.3 551L76.2 550.1L75.4 550.3L75.5 551.1L76.3 551ZM75.1 652C73.9 651 72.2 651.1 71.2 652.3C70.2 653.5 70.3 655.2 71.5 656.2C72.7 657.2 74.4 657.1 75.4 655.9C76.4 654.7 76.3 653 75.1 652ZM69.9 575.9C69.6 575.6 69.1 575.7 68.8 576C68.5 576.3 68.5 576.8 68.9 577.1C69.2 577.4 69.7 577.3 70 577C70.3 576.7 70.2 576.2 69.9 575.9ZM70.4 682.9C72 681 71.7 678.1 69.8 676.5C67.8 674.8 65 675.1 63.4 677.1C61.8 679 62.1 681.9 64 683.5C65.9 685.1 68.8 684.8 70.4 682.9ZM63.5 601.6C63.1 601.3 62.6 601.3 62.3 601.7C62 602.1 62 602.6 62.4 602.9C62.8 603.2 63.3 603.2 63.6 602.8C63.9 602.4 63.9 601.9 63.5 601.6ZM57.5 626.7C56.8 626.1 55.8 626.2 55.2 626.9C54.7 627.6 54.7 628.6 55.4 629.2C56.1 629.8 57.1 629.7 57.7 629C58.3 628.3 58.2 627.3 57.5 626.7ZM64.3 701.1C61.7 698.9 57.9 699.2 55.7 701.8C53.5 704.4 53.9 708.2 56.5 710.5C59.1 712.6 62.9 712.3 65.1 709.7C67.2 707.1 66.9 703.3 64.3 701.1ZM59.6 736.1C62.2 733 61.8 728.4 58.7 725.8C55.6 723.2 51 723.6 48.4 726.7C45.8 729.8 46.2 734.4 49.3 737C52.4 739.6 57 739.2 59.6 736.1ZM52.7 550.2V549.8H52.3V550.2H52.7ZM51.8 651.5C50.6 650.5 48.9 650.6 47.9 651.8C47 652.9 47.1 654.7 48.2 655.7C49.4 656.7 51.1 656.6 52.1 655.4C53.1 654.2 53 652.5 51.8 651.5ZM46.7 574.9C46.4 574.6 45.9 574.7 45.6 575C45.3 575.3 45.3 575.8 45.7 576.1C46 576.4 46.5 576.3 46.8 576C47.1 575.7 47 575.2 46.7 574.9ZM46.5 681.4C47.8 679.9 47.6 677.5 46 676.2C44.5 674.9 42.1 675.1 40.8 676.7C39.5 678.3 39.7 680.6 41.3 681.9C42.9 683.2 45.2 683 46.5 681.4ZM40.5 600.1C40 599.7 39.4 599.8 39 600.2C38.6 600.6 38.6 601.3 39.1 601.7C39.6 602.1 40.2 602 40.6 601.6C41 601.1 40.9 600.5 40.5 600.1ZM34.4 624.9C33.7 624.3 32.7 624.4 32.1 625.1C31.5 625.8 31.6 626.8 32.3 627.4C33 628 34 627.9 34.6 627.2C35.2 626.5 35.1 625.5 34.4 624.9ZM41.1 699.7C38.5 697.6 34.7 697.9 32.5 700.5C30.4 703.1 30.7 707 33.3 709C35.9 711.2 39.7 710.9 41.9 708.3C44 705.7 43.7 701.9 41.1 699.7ZM35.7 734C38 731.3 37.6 727.3 34.9 725C32.2 722.8 28.2 723.1 25.9 725.8C23.6 728.5 24 732.5 26.7 734.8C29.4 737 33.4 736.7 35.7 734ZM30 547.7L29.9 546.9H29L29.1 547.8L30 547.7ZM28.5 649.6C27.5 648.7 26 648.9 25.1 649.9C24.2 650.9 24.3 652.4 25.4 653.3C26.4 654.2 27.9 654 28.8 653C29.7 652 29.5 650.5 28.5 649.6ZM23.8 571.7C23.3 571.3 22.7 571.4 22.3 571.8C22 572.3 22 572.9 22.4 573.3C22.9 573.7 23.5 573.6 23.9 573.2C24.3 572.7 24.2 572.1 23.8 571.7ZM23.6 679.3C25 677.6 24.8 675.1 23.1 673.7C21.4 672.3 18.9 672.5 17.5 674.2C16.1 675.9 16.3 678.4 18 679.8C19.7 681.2 22.2 681 23.6 679.3ZM17.3 597C16.9 596.7 16.4 596.7 16.1 597.1C15.8 597.4 15.8 598 16.2 598.3C16.6 598.6 17.1 598.6 17.4 598.2C17.7 597.8 17.7 597.3 17.3 597ZM11.6 621.4C10.8 620.7 9.6 620.8 8.9 621.6C8.2 622.4 8.3 623.6 9.1 624.3C9.9 625 11.1 624.9 11.8 624.1C12.5 623.3 12.4 622.1 11.6 621.4ZM18 697.3C15.4 695.1 11.6 695.5 9.5 698C7.4 700.6 7.7 704.4 10.3 706.5C12.9 708.7 16.7 708.4 18.8 705.8C20.9 703.2 20.6 699.4 18 697.3ZM12 730.8C14 728.4 13.7 724.9 11.3 722.9C9 720.9 5.4 721.2 3.4 723.6C1.4 726 1.7 729.5 4.1 731.5C6.5 733.5 10 733.2 12 730.8ZM6.9 542.8V542.4H6.5V542.8H6.9ZM5.2 646.5C4.4 645.8 3.2 645.9 2.5 646.7C1.8 647.5 2 648.7 2.7 649.4C3.5 650.1 4.7 650 5.4 649.2C6.1 648.4 6 647.2 5.2 646.5Z" fill="#11141D"/>
</svg>
