<svg xmlns="http://www.w3.org/2000/svg" width="32" height="32" fill="none" viewBox="0 0 32 32">
    <path fill="#415A9D" fill-rule="evenodd" d="M16.498 16.099s3.843 1.786 7.387 1.786c3.544 0 7.085-2 7.085-2L15.885 30.97.8 15.885s2.763-2 7.085-2 8.613 2.214 8.613 2.214z" clip-rule="evenodd"/>
    <path fill="#32436F" fill-rule="evenodd" d="M15.218 15.885s-3.79-2-7.334-2c-3.544 0-7.084 2-7.084 2L15.885.8 30.97 15.885s-2.763 2-7.085 2-8.667-2-8.667-2z" clip-rule="evenodd"/>
    <path fill="#5A81EA" d="M13.624 20.401v-6.715h.076l4.343 6.839c.4.616.643.808 1.088.808.574 0 .869-.37.869-1.055v-8.68c0-.577-.302-.931-.816-.931s-.8.354-.8.932v6.692H18.3l-4.306-6.762c-.37-.57-.634-.862-1.08-.862-.604 0-.914.377-.914 1.086V20.4c0 .578.302.932.816.932s.808-.354.808-.932z"/>
</svg>
