<svg xmlns="http://www.w3.org/2000/svg" width="260" height="233" viewBox="0 0 260 233">
    <defs>
        <linearGradient id="a" x1="34.93%" x2="17.815%" y1="68.82%" y2="35.677%">
            <stop offset="0%" stop-color="#19202E"/>
            <stop offset="100%" stop-color="#292F3C"/>
        </linearGradient>
        <linearGradient id="b" x1="-56%" x2="96%" y1="91.174%" y2="38.347%">
            <stop offset="0%" stop-color="#F4C64C"/>
            <stop offset="100%" stop-color="#EB9000"/>
        </linearGradient>
        <linearGradient id="c" x1="0%" x2="237.501%" y1="70.144%" y2="-27.698%">
            <stop offset="0%" stop-color="#F4C64C"/>
            <stop offset="100%" stop-color="#EB9000"/>
        </linearGradient>
        <linearGradient id="d" x1="54.586%" x2="45.414%" y1="81.56%" y2="17.625%">
            <stop offset="0%" stop-color="#163BA6"/>
            <stop offset="100%" stop-color="#1D5FF5"/>
        </linearGradient>
        <linearGradient id="e" x1="57.446%" x2="43.202%" y1="100%" y2="-.971%">
            <stop offset="0%" stop-color="#3384F7"/>
            <stop offset="100%" stop-color="#46A6F7"/>
        </linearGradient>
        <linearGradient id="f" x1="55.666%" x2="43.002%" y1="102.062%" y2="0%">
            <stop offset="0%" stop-color="#3D95F7" stop-opacity=".46"/>
            <stop offset="100%" stop-color="#0F43CF" stop-opacity=".46"/>
        </linearGradient>
        <linearGradient id="g" x1="28.147%" x2="152.834%" y1="154.41%" y2="163.097%">
            <stop offset="0%" stop-color="#EFAB3F"/>
            <stop offset="100%" stop-color="#BF7500"/>
        </linearGradient>
        <linearGradient id="h" x1="10.619%" x2="579.784%" y1="-65.186%" y2="2018.404%">
            <stop offset="0%" stop-color="#0C3CC5"/>
            <stop offset="100%" stop-color="#001E74"/>
        </linearGradient>
        <linearGradient id="i" x1="-96.068%" x2="118.199%" y1="65.931%" y2="392.938%">
            <stop offset="0%" stop-color="#0C3CC5"/>
            <stop offset="100%" stop-color="#001E74"/>
        </linearGradient>
        <linearGradient id="j" x1="28.147%" x2="152.834%" y1="112.547%" y2="121.234%">
            <stop offset="0%" stop-color="#EFAB3F"/>
            <stop offset="100%" stop-color="#BF7500"/>
        </linearGradient>
        <linearGradient id="k" x1="-96.068%" x2="118.199%" y1="-7.314%" y2="319.693%">
            <stop offset="0%" stop-color="#0C3CC5"/>
            <stop offset="100%" stop-color="#001E74"/>
        </linearGradient>
        <linearGradient id="l" x1="-122.197%" x2="446.968%" y1="-531.924%" y2="1551.665%">
            <stop offset="0%" stop-color="#0C3CC5"/>
            <stop offset="100%" stop-color="#001E74"/>
        </linearGradient>
        <linearGradient id="m" x1="-96.068%" x2="118.199%" y1="-28.249%" y2="298.758%">
            <stop offset="0%" stop-color="#0C3CC5"/>
            <stop offset="100%" stop-color="#001E74"/>
        </linearGradient>
        <linearGradient id="n" x1="28.147%" x2="152.834%" y1="18.367%" y2="27.054%">
            <stop offset="0%" stop-color="#EFAB3F"/>
            <stop offset="100%" stop-color="#BF7500"/>
        </linearGradient>
        <linearGradient id="o" x1="28.147%" x2="152.834%" y1="-33.949%" y2="-25.263%">
            <stop offset="0%" stop-color="#EFAB3F"/>
            <stop offset="100%" stop-color="#BF7500"/>
        </linearGradient>
        <linearGradient id="p" x1="10.619%" x2="579.784%" y1="-1265.358%" y2="818.231%">
            <stop offset="0%" stop-color="#0C3CC5"/>
            <stop offset="100%" stop-color="#001E74"/>
        </linearGradient>
        <linearGradient id="q" x1="-55.789%" x2="513.376%" y1="-1198.663%" y2="884.927%">
            <stop offset="0%" stop-color="#0C3CC5"/>
            <stop offset="100%" stop-color="#001E74"/>
        </linearGradient>
        <linearGradient id="r" x1="-96.068%" x2="118.199%" y1="-122.429%" y2="204.578%">
            <stop offset="0%" stop-color="#0C3CC5"/>
            <stop offset="100%" stop-color="#001E74"/>
        </linearGradient>
        <linearGradient id="s" x1="-96.068%" x2="118.199%" y1="-143.357%" y2="183.65%">
            <stop offset="0%" stop-color="#0C3CC5"/>
            <stop offset="100%" stop-color="#001E74"/>
        </linearGradient>
        <linearGradient id="t" x1="0%" x2="94.008%" y1="32.516%" y2="68.751%">
            <stop offset="0%" stop-color="#4AAEF6"/>
            <stop offset="100%" stop-color="#2F7EE9"/>
        </linearGradient>
        <linearGradient id="u" x1="91.07%" x2="-1.6%" y1="54.507%" y2="46.962%">
            <stop offset="0%" stop-color="#1A57E1"/>
            <stop offset="100%" stop-color="#409BF7"/>
        </linearGradient>
        <linearGradient id="v" x1="54.576%" x2="45.424%" y1="81.56%" y2="17.625%">
            <stop offset="0%" stop-color="#163BA6"/>
            <stop offset="100%" stop-color="#1D5FF5"/>
        </linearGradient>
        <linearGradient id="w" x1="57.429%" x2="43.218%" y1="100%" y2="-.971%">
            <stop offset="0%" stop-color="#3384F7"/>
            <stop offset="100%" stop-color="#46A6F7"/>
        </linearGradient>
        <linearGradient id="x" x1="55.653%" x2="43.018%" y1="102.062%" y2="0%">
            <stop offset="0%" stop-color="#3D95F7" stop-opacity=".46"/>
            <stop offset="100%" stop-color="#0F43CF" stop-opacity=".46"/>
        </linearGradient>
        <linearGradient id="y" x1="-12.495%" x2="128.011%" y1="112.928%" y2="95.934%">
            <stop offset="0%" stop-color="#EFAB3F"/>
            <stop offset="100%" stop-color="#D78300"/>
        </linearGradient>
        <linearGradient id="z" x1="-73.318%" x2="497.223%" y1="7.075%" y2="2100.263%">
            <stop offset="0%" stop-color="#0C3CC5"/>
            <stop offset="100%" stop-color="#002281"/>
        </linearGradient>
        <linearGradient id="A" x1="-139.575%" x2="430.966%" y1="73.77%" y2="2166.959%">
            <stop offset="0%" stop-color="#0C3CC5"/>
            <stop offset="100%" stop-color="#002281"/>
        </linearGradient>
        <linearGradient id="B" x1="-102.774%" x2="112.504%" y1="66.85%" y2="396.115%">
            <stop offset="0%" stop-color="#0C3CC5"/>
            <stop offset="100%" stop-color="#002281"/>
        </linearGradient>
        <linearGradient id="C" x1="-12.495%" x2="128.011%" y1="70.976%" y2="53.982%">
            <stop offset="0%" stop-color="#EFAB3F"/>
            <stop offset="100%" stop-color="#D78300"/>
        </linearGradient>
        <linearGradient id="D" x1="-102.774%" x2="112.504%" y1="-6.569%" y2="322.696%">
            <stop offset="0%" stop-color="#0C3CC5"/>
            <stop offset="100%" stop-color="#002281"/>
        </linearGradient>
        <linearGradient id="E" x1="-7.062%" x2="563.479%" y1="-659.664%" y2="1433.525%">
            <stop offset="0%" stop-color="#0C3CC5"/>
            <stop offset="100%" stop-color="#002281"/>
        </linearGradient>
        <linearGradient id="F" x1="-102.774%" x2="112.504%" y1="-27.545%" y2="301.72%">
            <stop offset="0%" stop-color="#0C3CC5"/>
            <stop offset="100%" stop-color="#002281"/>
        </linearGradient>
        <linearGradient id="G" x1="-12.495%" x2="128.011%" y1="-23.419%" y2="-40.414%">
            <stop offset="0%" stop-color="#EFAB3F"/>
            <stop offset="100%" stop-color="#D78300"/>
        </linearGradient>
        <linearGradient id="H" x1="-12.495%" x2="128.011%" y1="-75.863%" y2="-92.857%">
            <stop offset="0%" stop-color="#EFAB3F"/>
            <stop offset="100%" stop-color="#D78300"/>
        </linearGradient>
        <linearGradient id="I" x1="-73.318%" x2="497.223%" y1="-1193.098%" y2="900.091%">
            <stop offset="0%" stop-color="#0C3CC5"/>
            <stop offset="100%" stop-color="#002281"/>
        </linearGradient>
        <linearGradient id="J" x1="-102.774%" x2="112.504%" y1="-121.941%" y2="207.324%">
            <stop offset="0%" stop-color="#0C3CC5"/>
            <stop offset="100%" stop-color="#002281"/>
        </linearGradient>
        <linearGradient id="K" x1="-102.774%" x2="112.504%" y1="-142.917%" y2="186.348%">
            <stop offset="0%" stop-color="#0C3CC5"/>
            <stop offset="100%" stop-color="#002281"/>
        </linearGradient>
        <linearGradient id="L" x1="0%" x2="94.008%" y1="32.476%" y2="68.794%">
            <stop offset="0%" stop-color="#4AAEF6"/>
            <stop offset="100%" stop-color="#2F7EE9"/>
        </linearGradient>
        <linearGradient id="M" x1="91.07%" x2="-1.6%" y1="54.517%" y2="46.955%">
            <stop offset="0%" stop-color="#1A57E1"/>
            <stop offset="100%" stop-color="#409BF7"/>
        </linearGradient>
        <linearGradient id="N" x1="118.612%" x2="-102.35%" y1="419.669%" y2="84.563%">
            <stop offset="0%" stop-color="#062482"/>
            <stop offset="100%" stop-color="#0C3CC5"/>
        </linearGradient>
        <linearGradient id="O" x1="579.669%" x2="-5.938%" y1="2049.957%" y2="-80.362%">
            <stop offset="0%" stop-color="#062482"/>
            <stop offset="100%" stop-color="#0C3CC5"/>
        </linearGradient>
        <linearGradient id="P" x1="513.412%" x2="-72.195%" y1="2116.652%" y2="-13.667%">
            <stop offset="0%" stop-color="#062482"/>
            <stop offset="100%" stop-color="#0C3CC5"/>
        </linearGradient>
        <linearGradient id="Q" x1="447.155%" x2="-138.451%" y1="2183.348%" y2="53.028%">
            <stop offset="0%" stop-color="#062482"/>
            <stop offset="100%" stop-color="#0C3CC5"/>
        </linearGradient>
        <linearGradient id="R" x1="118.603%" x2="-102.359%" y1="398.686%" y2="63.58%">
            <stop offset="0%" stop-color="#062482"/>
            <stop offset="100%" stop-color="#0C3CC5"/>
        </linearGradient>
        <linearGradient id="S" x1="118.603%" x2="-102.359%" y1="377.71%" y2="42.604%">
            <stop offset="0%" stop-color="#062482"/>
            <stop offset="100%" stop-color="#0C3CC5"/>
        </linearGradient>
        <linearGradient id="T" x1="118.612%" x2="-102.35%" y1="325.274%" y2="-9.832%">
            <stop offset="0%" stop-color="#062482"/>
            <stop offset="100%" stop-color="#0C3CC5"/>
        </linearGradient>
        <linearGradient id="U" x1="579.669%" x2="-5.938%" y1="1449.914%" y2="-680.406%">
            <stop offset="0%" stop-color="#062482"/>
            <stop offset="100%" stop-color="#0C3CC5"/>
        </linearGradient>
        <linearGradient id="V" x1="513.412%" x2="-72.195%" y1="1516.566%" y2="-613.753%">
            <stop offset="0%" stop-color="#062482"/>
            <stop offset="100%" stop-color="#0C3CC5"/>
        </linearGradient>
        <linearGradient id="W" x1="447.155%" x2="-138.451%" y1="1583.261%" y2="-547.058%">
            <stop offset="0%" stop-color="#062482"/>
            <stop offset="100%" stop-color="#0C3CC5"/>
        </linearGradient>
        <linearGradient id="X" x1="118.603%" x2="-102.359%" y1="304.291%" y2="-30.815%">
            <stop offset="0%" stop-color="#062482"/>
            <stop offset="100%" stop-color="#0C3CC5"/>
        </linearGradient>
        <linearGradient id="Y" x1="118.603%" x2="-102.359%" y1="283.315%" y2="-51.791%">
            <stop offset="0%" stop-color="#062482"/>
            <stop offset="100%" stop-color="#0C3CC5"/>
        </linearGradient>
        <linearGradient id="Z" x1="118.612%" x2="-102.35%" y1="230.878%" y2="-104.228%">
            <stop offset="0%" stop-color="#062482"/>
            <stop offset="100%" stop-color="#0C3CC5"/>
        </linearGradient>
        <linearGradient id="aa" x1="579.669%" x2="-5.938%" y1="849.827%" y2="-1280.492%">
            <stop offset="0%" stop-color="#062482"/>
            <stop offset="100%" stop-color="#0C3CC5"/>
        </linearGradient>
        <linearGradient id="ab" x1="513.412%" x2="-72.195%" y1="916.48%" y2="-1213.84%">
            <stop offset="0%" stop-color="#062482"/>
            <stop offset="100%" stop-color="#0C3CC5"/>
        </linearGradient>
        <linearGradient id="ac" x1="447.155%" x2="-138.451%" y1="983.175%" y2="-1147.144%">
            <stop offset="0%" stop-color="#062482"/>
            <stop offset="100%" stop-color="#0C3CC5"/>
        </linearGradient>
        <linearGradient id="ad" x1="118.603%" x2="-102.359%" y1="209.895%" y2="-125.21%">
            <stop offset="0%" stop-color="#062482"/>
            <stop offset="100%" stop-color="#0C3CC5"/>
        </linearGradient>
        <linearGradient id="ae" x1="118.603%" x2="-102.359%" y1="188.919%" y2="-146.186%">
            <stop offset="0%" stop-color="#062482"/>
            <stop offset="100%" stop-color="#0C3CC5"/>
        </linearGradient>
        <linearGradient id="af" x1="91.07%" x2="-1.6%" y1="54.517%" y2="46.955%">
            <stop offset="0%" stop-color="#1A57E1"/>
            <stop offset="100%" stop-color="#409BF7"/>
        </linearGradient>
    </defs>
    <g fill="none" fill-rule="evenodd">
        <path d="M0 0h260v233H0z"/>
        <path fill="url(#a)" fill-rule="nonzero" d="M4.971 179.467L192.92 70.049l4.69 2.736-23.32 13.769 82.06 47.776L91.9 230.076z"/>
        <path fill="url(#b)" fill-rule="nonzero" d="M230.928 146.38l14.19 8.211-54.395 31.477-4.73-2.737 49.665-28.74-9.46-5.474z"/>
        <path fill="url(#c)" fill-rule="nonzero" d="M176.534 177.857l14.19 8.21-33.11 19.16-4.73 2.737v-5.474l28.38-16.422-9.46-5.474z"/>
        <path fill="#1D2432" fill-rule="nonzero" d="M122.139 209.333l9.46 5.474 21.284-12.317 4.73 2.737-26.015 15.054-4.73-2.737-9.46-5.474z"/>
        <path fill="#EB9000" fill-rule="nonzero" d="M152.883 202.49v5.474l4.73-2.737z"/>
        <path fill="url(#d)" fill-rule="nonzero" d="M200.182 57.102v109.806l40.205-23.265V34.16z"/>
        <path fill="url(#e)" fill-rule="nonzero" d="M200.182 57.102L145.788 25.95V135.43l54.394 31.478"/>
        <path fill="url(#f)" fill-rule="nonzero" d="M197.54 58.632l.278 104.17-49.665-28.74V30.053z"/>
        <path fill="#2B75F5" fill-rule="nonzero" d="M145.788 25.949l40.205-23.265 54.394 31.476-40.205 22.942z"/>
        <path fill="url(#g)" fill-rule="nonzero" d="M219.102 51.949L238.022 41v2.738l-18.92 10.948z"/>
        <path fill="url(#h)" fill-rule="nonzero" d="M202.547 61.529l2.366-1.368v2.737l-2.366 1.369z"/>
        <path fill="#EFAB3F" fill-rule="nonzero" d="M207.277 58.791l2.366-1.367v2.736l-2.366 1.37zM212.007 56.054l2.366-1.367v2.736l-2.366 1.37z"/>
        <path fill="url(#i)" fill-rule="nonzero" d="M219.102 57.424l18.92-10.948v2.736l-18.92 10.95z"/>
        <path fill="url(#j)" fill-rule="nonzero" d="M219.102 62.898l18.92-10.948v2.736l-18.92 10.95z"/>
        <path fill="url(#k)" fill-rule="nonzero" d="M219.102 76.583l18.92-10.948v2.738l-18.92 10.948z"/>
        <path fill="#EFAB3F" fill-rule="nonzero" d="M202.547 86.163l2.366-1.368v2.737l-2.366 1.368zM207.277 83.425l2.366-1.367v2.736l-2.366 1.37z"/>
        <path fill="url(#l)" fill-rule="nonzero" d="M212.007 80.688l2.366-1.367v2.736l-2.366 1.37z"/>
        <path fill="url(#m)" fill-rule="nonzero" d="M219.102 82.058l18.92-10.948v2.736l-18.92 10.95z"/>
        <path fill="url(#n)" fill-rule="nonzero" d="M219.102 87.532l18.92-10.948v2.736l-18.92 10.95z"/>
        <path fill="url(#o)" fill-rule="nonzero" d="M219.102 101.217l18.92-10.948v2.738l-18.92 10.948z"/>
        <path fill="url(#p)" fill-rule="nonzero" d="M202.547 110.797l2.366-1.368v2.737l-2.366 1.368z"/>
        <path fill="url(#q)" fill-rule="nonzero" d="M207.277 108.06l2.366-1.368v2.736l-2.366 1.37z"/>
        <path fill="#EFAB3F" fill-rule="nonzero" d="M212.007 105.322l2.366-1.367v2.736l-2.366 1.37z"/>
        <path fill="url(#r)" fill-rule="nonzero" d="M219.102 106.692l18.92-10.948v2.736l-18.92 10.95z"/>
        <path fill="url(#s)" fill-rule="nonzero" d="M219.102 112.166l18.92-10.948v2.736l-18.92 10.95z"/>
        <path fill="url(#t)" fill-rule="nonzero" d="M159.979 25.95v-2.738L200.23 46.45l-.048 2.764z"/>
        <path fill="url(#u)" fill-rule="nonzero" d="M159.979 23.212l26.014-15.054 40.205 23.265-25.967 15.027z"/>
        <path fill="#0A3CD7" fill-rule="nonzero" d="M200.23 46.505l25.968-15.082v2.737l-26.015 15.054z"/>
        <path fill="#0D41C9" fill-rule="nonzero" d="M171.851 24.607l2.365 1.369 16.554-9.58-2.365-1.369z"/>
        <path fill="#0564E5" fill-rule="nonzero" d="M188.405 15.027v2.738l2.365-1.369z"/>
        <path fill="#0D41C9" fill-rule="nonzero" d="M178.898 28.686l2.365 1.369 16.555-9.58-2.365-1.369z"/>
        <path fill="#0564E5" fill-rule="nonzero" d="M195.453 19.106v2.737l2.365-1.368z"/>
        <path fill="#0D41C9" fill-rule="nonzero" d="M187.176 33.476l2.365 1.368 16.554-9.58-2.365-1.368z"/>
        <path fill="#0564E5" fill-rule="nonzero" d="M203.73 23.896v2.737l2.365-1.369z"/>
        <path fill="#0D41C9" fill-rule="nonzero" d="M195.453 38.266l2.365 1.368 16.555-9.58-2.365-1.368z"/>
        <path fill="#0564E5" fill-rule="nonzero" d="M212.008 28.686v2.737l2.365-1.369z"/>
        <path fill="#FFF" fill-opacity=".11" fill-rule="nonzero" d="M148.153 30.054l.514 104.306 49.151-75.566z"/>
        <path fill="url(#v)" fill-rule="nonzero" d="M146.535 88.211v110.022l40.238-23.31v-109.7z"/>
        <path fill="url(#w)" fill-rule="nonzero" d="M146.535 88.211L92.097 56.997v109.696l54.438 31.54"/>
        <path fill="url(#x)" fill-rule="nonzero" d="M143.89 89.744l.28 104.375-49.706-28.796V61.11z"/>
        <path fill="#2B75F5" fill-rule="nonzero" d="M92.097 56.997l40.238-23.311 54.438 31.538-40.238 22.987z"/>
        <path fill="url(#y)" fill-rule="nonzero" d="M165.47 83.048l18.936-10.97v2.744l-18.935 10.97z"/>
        <path fill="#EFAB3F" fill-rule="nonzero" d="M148.902 92.647l2.368-1.37v2.741l-2.368 1.372z"/>
        <path fill="url(#z)" fill-rule="nonzero" d="M153.636 89.904l2.368-1.37v2.742l-2.368 1.371z"/>
        <path fill="url(#A)" fill-rule="nonzero" d="M158.37 87.162l2.368-1.37v2.741l-2.368 1.372z"/>
        <path fill="url(#B)" fill-rule="nonzero" d="M165.47 88.534l18.937-10.97v2.742l-18.936 10.97z"/>
        <path fill="url(#C)" fill-rule="nonzero" d="M165.47 94.018l18.937-10.969v2.741L165.47 96.762z"/>
        <path fill="url(#D)" fill-rule="nonzero" d="M165.47 107.73l18.936-10.97v2.744l-18.935 10.97z"/>
        <path fill="url(#E)" fill-rule="nonzero" d="M148.902 117.329l2.368-1.37v2.742l-2.368 1.371z"/>
        <path fill="#EFAB3F" fill-rule="nonzero" d="M153.636 114.586l2.368-1.37v2.742l-2.368 1.372zM158.37 111.844l2.368-1.37v2.742l-2.368 1.371z"/>
        <path fill="url(#F)" fill-rule="nonzero" d="M165.47 113.216l18.937-10.97v2.742l-18.936 10.971z"/>
        <path fill="url(#G)" fill-rule="nonzero" d="M165.47 118.7l18.937-10.969v2.742l-18.936 10.971z"/>
        <path fill="url(#H)" fill-rule="nonzero" d="M165.47 132.413l18.936-10.97v2.744l-18.935 10.97z"/>
        <path fill="#EFAB3F" fill-rule="nonzero" d="M148.902 142.011l2.368-1.37v2.742l-2.368 1.372z"/>
        <path fill="url(#I)" fill-rule="nonzero" d="M153.636 139.269l2.368-1.37v2.741l-2.368 1.372z"/>
        <path fill="#EFAB3F" fill-rule="nonzero" d="M158.37 136.526l2.368-1.37v2.742l-2.368 1.372z"/>
        <path fill="url(#J)" fill-rule="nonzero" d="M165.47 137.898l9.469-5.484 9.468-5.485v2.741l-18.936 10.972z"/>
        <path fill="url(#K)" fill-rule="nonzero" d="M165.47 143.383l18.937-10.97v2.742l-18.936 10.971z"/>
        <path fill="url(#L)" fill-rule="nonzero" d="M106.3 56.997v-2.742l40.284 23.283-.047 2.77z"/>
        <path fill="url(#M)" fill-rule="nonzero" d="M106.3 54.255l26.035-15.084 40.238 23.311-25.989 15.056z"/>
        <path fill="#0A3CD7" fill-rule="nonzero" d="M146.584 77.593l25.99-15.111v2.742l-26.037 15.084z"/>
        <path fill="#0D41C9" fill-rule="nonzero" d="M118.181 55.653l2.367 1.37 16.568-9.598-2.367-1.371z"/>
        <path fill="#0564E5" fill-rule="nonzero" d="M134.75 46.054v2.742l2.366-1.37z"/>
        <path fill="#0D41C9" fill-rule="nonzero" d="M125.235 59.74l2.366 1.37 16.568-9.598-2.367-1.371z"/>
        <path fill="#0564E5" fill-rule="nonzero" d="M141.802 50.14v2.743l2.367-1.37z"/>
        <path fill="#0D41C9" fill-rule="nonzero" d="M133.519 64.538l2.367 1.372 16.568-9.599-2.367-1.371z"/>
        <path fill="#0564E5" fill-rule="nonzero" d="M150.087 54.94v2.742l2.367-1.37z"/>
        <path fill="#0D41C9" fill-rule="nonzero" d="M141.803 69.338l2.367 1.371 16.568-9.598-2.367-1.372z"/>
        <path fill="#0564E5" fill-rule="nonzero" d="M158.37 59.74v2.742l2.368-1.371z"/>
        <path fill="#FFF" fill-opacity=".11" fill-rule="nonzero" d="M94.464 61.11l.514 104.511 49.192-75.715z"/>
        <path fill="url(#v)" fill-rule="nonzero" d="M91.535 120.211v110.022l40.238-23.31v-109.7z"/>
        <path fill="url(#w)" fill-rule="nonzero" d="M91.535 120.211L37.097 88.997v109.696l54.438 31.54"/>
        <path fill="url(#x)" fill-rule="nonzero" d="M88.89 121.744l.28 104.375-49.706-28.796V93.11z"/>
        <path fill="#2B75F5" fill-rule="nonzero" d="M37.097 88.997l40.238-23.311 54.438 31.538-40.238 22.987z"/>
        <path fill="#FFF" fill-opacity=".11" fill-rule="nonzero" d="M39.464 93.11v104.213l49.705-75.418z"/>
        <path fill="url(#N)" fill-rule="nonzero" d="M110.47 115.048l18.936-10.97v2.744l-18.935 10.97z"/>
        <path fill="url(#O)" fill-rule="nonzero" d="M93.902 124.647l2.368-1.37v2.741l-2.368 1.372z"/>
        <path fill="url(#P)" fill-rule="nonzero" d="M98.636 121.904l2.368-1.37v2.742l-2.368 1.371z"/>
        <path fill="url(#Q)" fill-rule="nonzero" d="M103.37 119.162l2.368-1.37v2.741l-2.368 1.372z"/>
        <path fill="url(#R)" fill-rule="nonzero" d="M110.47 120.534l18.937-10.97v2.742l-18.936 10.97z"/>
        <path fill="url(#S)" fill-rule="nonzero" d="M110.47 126.018l18.937-10.969v2.741l-18.936 10.972z"/>
        <path fill="url(#T)" fill-rule="nonzero" d="M110.47 139.73l18.936-10.97v2.744l-18.935 10.97z"/>
        <path fill="url(#U)" fill-rule="nonzero" d="M93.902 149.329l2.368-1.37v2.742l-2.368 1.371z"/>
        <path fill="url(#V)" fill-rule="nonzero" d="M98.636 146.586l2.368-1.37v2.742l-2.368 1.372z"/>
        <path fill="url(#W)" fill-rule="nonzero" d="M103.37 143.844l2.368-1.37v2.742l-2.368 1.371z"/>
        <path fill="url(#X)" fill-rule="nonzero" d="M110.47 145.216l18.937-10.97v2.742l-18.936 10.971z"/>
        <path fill="url(#Y)" fill-rule="nonzero" d="M110.47 150.7l18.937-10.969v2.742l-18.936 10.971z"/>
        <path fill="url(#Z)" fill-rule="nonzero" d="M110.47 164.413l18.936-10.97v2.744l-18.935 10.97z"/>
        <path fill="url(#aa)" fill-rule="nonzero" d="M93.902 174.011l2.368-1.37v2.742l-2.368 1.372z"/>
        <path fill="url(#ab)" fill-rule="nonzero" d="M98.636 171.269l2.368-1.37v2.741l-2.368 1.372z"/>
        <path fill="url(#ac)" fill-rule="nonzero" d="M103.37 168.526l2.368-1.37v2.742l-2.368 1.372z"/>
        <path fill="url(#ad)" fill-rule="nonzero" d="M110.47 169.898l18.937-10.97v2.742l-18.936 10.972z"/>
        <path fill="url(#ae)" fill-rule="nonzero" d="M110.47 175.383l18.937-10.97v2.742l-18.936 10.971z"/>
        <path fill="url(#L)" fill-rule="nonzero" d="M51.3 88.997v-2.742l40.284 23.283-.047 2.77z"/>
        <path fill="url(#af)" fill-rule="nonzero" d="M51.3 86.255L77.334 71.17l40.238 23.311-25.989 15.056z"/>
        <path fill="#0A3CD7" fill-rule="nonzero" d="M91.584 109.593l25.99-15.111v2.742l-26.037 15.084z"/>
        <path fill="#0D41C9" fill-rule="nonzero" d="M63.181 87.653l2.367 1.37 16.568-9.598-2.367-1.371z"/>
        <path fill="#0564E5" fill-rule="nonzero" d="M79.75 78.054v2.742l2.366-1.37z"/>
        <path fill="#0D41C9" fill-rule="nonzero" d="M70.235 91.74l2.366 1.37 16.568-9.598-2.367-1.371z"/>
        <path fill="#0564E5" fill-rule="nonzero" d="M86.802 82.14v2.743l2.367-1.37z"/>
        <path fill="#0D41C9" fill-rule="nonzero" d="M78.519 96.538l2.367 1.372 16.568-9.599-2.367-1.371z"/>
        <path fill="#0564E5" fill-rule="nonzero" d="M95.087 86.94v2.742l2.367-1.37z"/>
        <path fill="#0D41C9" fill-rule="nonzero" d="M86.803 101.338l2.367 1.371 16.568-9.598-2.367-1.372z"/>
        <path fill="#0564E5" fill-rule="nonzero" d="M103.37 91.74v2.742l2.368-1.371z"/>
    </g>
</svg>
